<?xml version="1.0" encoding="UTF-8"?>
<svg id="Layer_1" data-name="Layer 1" xmlns="http://www.w3.org/2000/svg" viewBox="0 0 157.98 161.62">
  <defs>
    <style>
      .cls-1 {
        fill: #c2e96a;
      }

      .cls-2 {
        fill: #266f3a;
      }
    </style>
  </defs>
  <path class="cls-2" d="M31.36,160.99H0S14.85,66.4,14.85,66.4c1.11-6.67,3.86-11.76,8.26-15.26,4.39-3.5,9.98-5.25,16.77-5.25,5.89,0,11.09,1.36,15.6,4.09,4.5,2.73,7.53,7.2,9.09,13.43l16.18,63.06c-.22-.67-.5-1-.83-1-.22,0-.39,.11-.5,.33-.11,.22-.22,.45-.33,.67l16.02-62.56c1.56-6.23,4.67-10.79,9.34-13.68,4.67-2.89,10.01-4.34,16.02-4.34,6.56,0,11.98,1.78,16.26,5.34,4.28,3.56,6.92,8.79,7.92,15.68l13.35,94.09h-31.2s-9.51-83.75-9.51-83.75c.11,.22,.22,.45,.33,.67,.11,.22,.28,.33,.5,.33s.39-.11,.5-.33c.11-.22,.22-.44,.33-.67l-19.02,69.4c-1.45,5-3.98,8.73-7.59,11.18-3.62,2.45-7.76,3.67-12.43,3.67s-8.73-1.17-12.51-3.5c-3.78-2.33-6.29-5.89-7.51-10.68l-18.85-70.07c.11,.22,.22,.45,.33,.67,.11,.22,.28,.33,.5,.33s.39-.11,.5-.33c.11-.22,.22-.44,.33-.67l-11.34,83.75Z"/>
  <g>
    <path class="cls-1" d="M43.81,36.17c-3.23,0-6.23-.81-9.01-2.42-2.78-1.61-4.98-3.81-6.59-6.59-1.61-2.78-2.42-5.78-2.42-9.01s.81-6.37,2.42-9.09c1.61-2.72,3.81-4.89,6.59-6.51C37.58,.94,40.58,.13,43.81,.13s6.37,.81,9.09,2.42c2.72,1.61,4.89,3.78,6.51,6.51,1.61,2.73,2.42,5.76,2.42,9.09s-.81,6.23-2.42,9.01c-1.61,2.78-3.78,4.98-6.51,6.59-2.73,1.61-5.75,2.42-9.09,2.42Z"/>
    <path class="cls-1" d="M114.17,36.17c-3.23,0-6.23-.81-9.01-2.42-2.78-1.61-4.98-3.81-6.59-6.59-1.61-2.78-2.42-5.78-2.42-9.01s.81-6.37,2.42-9.09c1.61-2.72,3.81-4.89,6.59-6.51,2.78-1.61,5.78-2.42,9.01-2.42s6.37,.81,9.09,2.42c2.72,1.61,4.89,3.78,6.51,6.51,1.61,2.73,2.42,5.76,2.42,9.09s-.81,6.23-2.42,9.01c-1.61,2.78-3.78,4.98-6.51,6.59-2.73,1.61-5.75,2.42-9.09,2.42Z"/>
  </g>
</svg>