<svg width="132" height="32" viewBox="0 0 132 32" fill="none" xmlns="http://www.w3.org/2000/svg">
<path d="M10 0C4.46429 0 0 4.36592 0 9.77966C0 13.6799 2.32143 16.9981 5.71429 18.5699V21.9462H14.2857V18.5699C17.6786 16.9981 20 13.6218 20 9.77966C20 4.36592 15.5357 0 10 0ZM10 2.91055C6.13102 2.91055 2.97602 5.99573 2.97602 9.77976C2.97602 10.129 2.73786 10.3619 2.38071 10.3619C2.02357 10.3619 1.78541 10.129 1.78541 9.77976C1.78561 5.35556 5.47602 1.74647 9.99969 1.74647C10.3568 1.74647 10.595 1.97938 10.595 2.32866C10.595 2.67793 10.3568 2.91065 9.99969 2.91065L10 2.91055Z" fill="black"/>
<path d="M14.2858 24.2158C14.2858 23.8083 13.9287 23.459 13.5119 23.459L6.48848 23.4592C6.07174 23.4592 5.7146 23.8085 5.7146 24.216C5.7146 24.6236 6.07174 24.9728 6.48848 24.9728C6.07174 24.9728 5.7146 25.3221 5.7146 25.7297C5.7146 26.1372 6.07174 26.4865 6.48848 26.4865H7.38133C6.9646 26.4865 6.60746 26.8358 6.60746 27.2433C6.60746 27.6509 6.9646 28.0001 7.38133 28.0001H12.5599C12.9766 28.0001 13.3338 27.6509 13.3338 27.2433C13.3338 26.8358 12.9766 26.4865 12.5599 26.4865H13.5124C13.9291 26.4865 14.2862 26.1372 14.2862 25.7297C14.2862 25.3221 13.9291 24.9728 13.5124 24.9728C13.9289 24.9726 14.286 24.6234 14.286 24.2158L14.2858 24.2158Z" fill="black"/>
<path d="M27.9139 25L30.5419 18.268H41.0899L43.7179 25H47.1739L37.4539 0.879999H34.3219L24.6019 25H27.9139ZM34.6099 7.864L35.8339 4.084L37.0219 7.864L40.0099 15.496H31.6219L34.6099 7.864ZM52.8518 31.696V20.5C53.4638 23.128 55.1198 25.36 58.4678 25.36C62.8598 25.36 65.5958 21.76 65.5958 16.252C65.5958 10.744 62.8598 7.18 58.4678 7.18C55.1198 7.18 53.4638 9.412 52.8518 12.04V7.576H49.7197V31.696H52.8518ZM52.8518 17.512V15.028C52.8518 12.148 54.0758 9.808 57.3878 9.808C60.1598 9.808 62.4278 11.824 62.4278 16.252C62.4278 20.716 60.1598 22.732 57.3878 22.732C54.0758 22.732 52.8518 20.392 52.8518 17.512ZM72.5041 4.768V0.879999H69.3721V4.768H72.5041ZM72.5041 25V7.576H69.3721V25H72.5041ZM80.3439 25V0.879999H77.2119V25H80.3439ZM88.5438 25V11.68L88.1478 5.164L90.8478 11.14L96.0318 20.968H99.0918L104.276 11.14L106.94 5.164L106.616 11.68V25H109.748V0.879999H106.256L99.9918 12.832L97.5798 18.124L95.1318 12.832L88.9038 0.879999H85.4118V25H88.5438ZM122.175 25.36C125.955 25.36 128.367 23.596 129.663 21.508L127.755 19.348C127.071 20.86 125.667 22.768 122.175 22.768C119.079 22.768 117.027 20.68 116.847 17.008H129.771C129.843 16.684 129.915 16.144 129.915 15.604C129.915 10.492 126.927 7.216 121.995 7.216C117.207 7.216 113.823 10.78 113.823 16.288C113.823 21.832 117.243 25.36 122.175 25.36ZM121.995 9.844C124.911 9.844 126.783 11.536 127.107 14.74H116.919C117.315 11.5 119.187 9.844 121.995 9.844Z" fill="#333333"/>
</svg>
