<svg width="11" height="16" viewBox="0 0 11 16" fill="none" xmlns="http://www.w3.org/2000/svg">
<path fill-rule="evenodd" clip-rule="evenodd" d="M9.64298 12.1574H10.0598C10.3673 12.1574 10.47 12.3538 10.2891 12.5961L7.88294 15.8187C7.70298 16.0599 7.40867 16.061 7.22771 15.8187L4.82139 12.5961C4.64142 12.3551 4.74315 12.1574 5.05066 12.1574H5.46748C5.77518 12.1574 6.02445 11.9122 6.02445 11.6096V5.87123C6.02445 5.56672 6.27275 5.3236 6.57889 5.3236H8.53151C8.83534 5.3236 9.08596 5.56881 9.08596 5.87123V11.6096C9.08596 11.9141 9.33523 12.1574 9.64293 12.1574H9.64298ZM0.735439 3.84275H0.31863C0.0109235 3.84275 -0.0915804 3.64617 0.0893536 3.40382L2.49548 0.181257C2.67544 -0.0597522 2.96976 -0.0610847 3.15071 0.181257L5.55703 3.40382C5.737 3.64483 5.63527 3.84275 5.32756 3.84275H4.91075C4.60324 3.84275 4.35378 4.08795 4.35378 4.39037V10.1287C4.35378 10.4332 4.10567 10.6765 3.79953 10.6765H1.84691C1.54289 10.6765 1.29247 10.4313 1.29247 10.1287V4.39037C1.29247 4.08587 1.04301 3.84275 0.735494 3.84275H0.735439Z" fill="#071655"/>
</svg>
