<svg width="12" height="8" viewBox="0 0 12 8" fill="none" xmlns="http://www.w3.org/2000/svg">
<path fill-rule="evenodd" clip-rule="evenodd" d="M11.8864 3.62372C11.7854 3.4704 9.24851 0 6.00475 0C2.761 0 0.236676 3.48434 0.123081 3.62372C-0.041027 3.84674 -0.041027 4.15336 0.123081 4.37628C0.224065 4.5296 2.761 8 6.00475 8C9.24851 8 11.7728 4.51566 11.8864 4.37628C12.0379 4.15336 12.0379 3.84674 11.8864 3.62372ZM6.00475 6.7875C3.87168 6.7875 2.0037 4.83632 1.29689 4.00003C2.00368 3.16373 3.88432 1.21255 6.00475 1.21255C8.12518 1.21255 10.0058 3.16373 10.7126 4.00003C10.0058 4.83632 8.13781 6.7875 6.00475 6.7875Z" fill="#0F3470"/>
<path fill-rule="evenodd" clip-rule="evenodd" d="M7.67082 3.99994C7.67082 5.01597 6.92484 5.83972 6.00472 5.83972C5.08461 5.83972 4.33862 5.01597 4.33862 3.99994C4.33862 2.9839 5.08461 2.16016 6.00472 2.16016C6.92484 2.16016 7.67082 2.9839 7.67082 3.99994Z" fill="#0F3470"/>
</svg>
