<svg width="13" height="8" viewBox="0 0 13 8" fill="none" xmlns="http://www.w3.org/2000/svg">
<g id="Frame 1216400457">
<path id="Vector" fill-rule="evenodd" clip-rule="evenodd" d="M12.3864 3.62372C12.2854 3.4704 9.74851 0 6.50475 0C3.261 0 0.736676 3.48434 0.623081 3.62372C0.458973 3.84674 0.458973 4.15336 0.623081 4.37628C0.724065 4.5296 3.261 8 6.50475 8C9.74851 8 12.2728 4.51566 12.3864 4.37628C12.5379 4.15336 12.5379 3.84674 12.3864 3.62372ZM6.50475 6.7875C4.37168 6.7875 2.5037 4.83632 1.79689 4.00003C2.50368 3.16373 4.38432 1.21255 6.50475 1.21255C8.62518 1.21255 10.5058 3.16373 11.2126 4.00003C10.5058 4.83632 8.63781 6.7875 6.50475 6.7875Z" fill="#0F3470"/>
<path id="Vector_2" fill-rule="evenodd" clip-rule="evenodd" d="M8.17082 3.99994C8.17082 5.01597 7.42484 5.83972 6.50472 5.83972C5.58461 5.83972 4.83862 5.01597 4.83862 3.99994C4.83862 2.9839 5.58461 2.16016 6.50472 2.16016C7.42484 2.16016 8.17082 2.9839 8.17082 3.99994Z" fill="#0F3470"/>
</g>
</svg>
