<svg width="52" height="52" viewBox="0 0 52 52" fill="none" xmlns="http://www.w3.org/2000/svg">
<rect width="52" height="52" rx="4" fill="#28CDB1" fill-opacity="0.2"/>
<g clip-path="url(#clip0_493_13561)">
<path d="M38.2039 13.521L26.2039 11.021C26.0694 10.993 25.9306 10.993 25.7961 11.021L13.7961 13.521C13.3323 13.6176 13 14.0263 13 14.5V28.2647C13 30.3371 13.531 32.3906 14.5356 34.2031C15.5402 36.0157 17.0001 37.5544 18.7575 38.6527L25.47 42.848C25.6321 42.9494 25.8161 43 26 43C26.1839 43 26.3679 42.9493 26.53 42.848L33.2425 38.6527C34.9999 37.5544 36.4597 36.0158 37.4644 34.2031C38.469 32.3906 39 30.3371 39 28.2647V14.5C39 14.0263 38.6676 13.6176 38.2039 13.521ZM27 33.1077V33.4718C27 34.0102 26.5862 34.4735 26.0484 34.4989C25.4741 34.5259 25 34.0683 25 33.5V33.1092C25 32.972 24.91 32.8523 24.7792 32.8108C23.3982 32.3721 22.3331 31.2056 22.0644 29.7157C21.9657 29.1689 22.3056 28.624 22.8511 28.5184C23.4055 28.4111 23.9356 28.7817 24.0281 29.3349C24.1973 30.3454 25.0989 31.0657 26.1402 30.9953C27.124 30.9288 27.9224 30.1334 27.9945 29.1499C28.0802 27.9796 27.1524 27 26 27C23.7944 27 22 25.2056 22 23C22 21.2194 23.1694 19.7069 24.7806 19.1901C24.9108 19.1483 25 19.0289 25 18.8923V18.5283C25 17.9898 25.4138 17.5265 25.9516 17.5011C26.5259 17.4741 27 17.9317 27 18.5V18.8908C27 19.028 27.09 19.1476 27.2208 19.1892C28.6174 19.6328 29.6909 20.8208 29.9444 22.3349C30.0356 22.8796 29.6679 23.3951 29.1232 23.4863C28.5783 23.5777 28.0631 23.2099 27.9719 22.6651C27.8027 21.6547 26.9011 20.9344 25.8598 21.0048C24.876 21.0712 24.0776 21.8667 24.0055 22.8501C23.9198 24.0203 24.8476 25 26 25C28.2056 25 30 26.7944 30 29C30 30.7806 28.8306 32.2931 27.2194 32.8099C27.0893 32.8517 27 32.9711 27 33.1077Z" fill="#28CDB1"/>
</g>
<defs>
<clipPath id="clip0_493_13561">
<rect width="26" height="32" fill="white" transform="translate(13 11)"/>
</clipPath>
</defs>
</svg>
