<svg width="21" height="20" viewBox="0 0 21 20" fill="none" xmlns="http://www.w3.org/2000/svg">
<path d="M5.89397 10.018H4.4654C4.07111 10.018 3.75112 9.69742 3.75112 9.30242C3.75112 8.90742 4.07111 8.58685 4.4654 8.58685H5.89397C6.28827 8.58685 6.60826 8.90742 6.60826 9.30242C6.60826 9.69742 6.28827 10.018 5.89397 10.018ZM11.6083 9.30242C11.6083 8.90742 11.2883 8.58685 10.894 8.58685H9.4654C9.07111 8.58685 8.75112 8.90742 8.75112 9.30242C8.75112 9.69742 9.07111 10.018 9.4654 10.018H10.894C11.2883 10.018 11.6083 9.69742 11.6083 9.30242ZM16.6083 9.30242C16.6083 8.90742 16.2883 8.58685 15.894 8.58685H14.4654C14.0711 8.58685 13.7511 8.90742 13.7511 9.30242C13.7511 9.69742 14.0711 10.018 14.4654 10.018H15.894C16.2883 10.018 16.6083 9.69742 16.6083 9.30242ZM6.60826 12.8803C6.60826 12.4853 6.28827 12.1647 5.89397 12.1647H4.4654C4.07111 12.1647 3.75112 12.4853 3.75112 12.8803C3.75112 13.2753 4.07111 13.5958 4.4654 13.5958H5.89397C6.28827 13.5958 6.60826 13.2753 6.60826 12.8803ZM11.6083 12.8803C11.6083 12.4853 11.2883 12.1647 10.894 12.1647H9.4654C9.07111 12.1647 8.75112 12.4853 8.75112 12.8803C8.75112 13.2753 9.07111 13.5958 9.4654 13.5958H10.894C11.2883 13.5958 11.6083 13.2753 11.6083 12.8803ZM16.6083 12.8803C16.6083 12.4853 16.2883 12.1647 15.894 12.1647H14.4654C14.0711 12.1647 13.7511 12.4853 13.7511 12.8803C13.7511 13.2753 14.0711 13.5958 14.4654 13.5958H15.894C16.2883 13.5958 16.6083 13.2753 16.6083 12.8803ZM6.60826 16.4581C6.60826 16.0631 6.28827 15.7426 5.89397 15.7426H4.4654C4.07111 15.7426 3.75112 16.0631 3.75112 16.4581C3.75112 16.8531 4.07111 17.1737 4.4654 17.1737H5.89397C6.28827 17.1737 6.60826 16.8531 6.60826 16.4581ZM11.6083 16.4581C11.6083 16.0631 11.2883 15.7426 10.894 15.7426H9.4654C9.07111 15.7426 8.75112 16.0631 8.75112 16.4581C8.75112 16.8531 9.07111 17.1737 9.4654 17.1737H10.894C11.2883 17.1737 11.6083 16.8531 11.6083 16.4581ZM16.6083 16.4581C16.6083 16.0631 16.2883 15.7426 15.894 15.7426H14.4654C14.0711 15.7426 13.7511 16.0631 13.7511 16.4581C13.7511 16.8531 14.0711 17.1737 14.4654 17.1737H15.894C16.2883 17.1737 16.6083 16.8531 16.6083 16.4581ZM18.0368 1.43114H16.6083V0.715571C16.6083 0.320568 16.2883 0 15.894 0C15.4997 0 15.1797 0.320568 15.1797 0.715571V1.43114H5.17969V0.715571C5.17969 0.320568 4.8597 0 4.4654 0C4.07111 0 3.75112 0.320568 3.75112 0.715571V1.43114H2.32254C1.14112 1.43114 0.179688 2.3943 0.179688 3.57785V17.8533C0.179688 19.0368 1.14112 20 2.32254 20H18.0368C19.2183 20 20.1797 19.0368 20.1797 17.8533V3.57785C20.1797 2.3943 19.2183 1.43114 18.0368 1.43114ZM2.32254 2.86228H3.75112V3.68024C3.75112 4.07525 4.07111 4.39581 4.4654 4.39581C4.8597 4.39581 5.17969 4.07525 5.17969 3.68024V2.86228H15.1797V3.68024C15.1797 4.07525 15.4997 4.39581 15.894 4.39581C16.2883 4.39581 16.6083 4.07525 16.6083 3.68024V2.86228H18.0368C18.4303 2.86228 18.7511 3.18365 18.7511 3.57785V5.72457H1.60826V3.57785C1.60826 3.18365 1.92905 2.86228 2.32254 2.86228ZM18.0368 18.5689H2.32254C1.92905 18.5689 1.60826 18.2475 1.60826 17.8533V7.15571H18.7511V17.8533C18.7511 18.2475 18.4303 18.5689 18.0368 18.5689Z" fill="#5C6F7F"/>
</svg>
