<svg width="12" height="12" viewBox="0 0 12 12" fill="none" xmlns="http://www.w3.org/2000/svg">
<g clip-path="url(#clip0_1054_19919)">
<path d="M6.00001 12C9.31373 12 12 9.31373 12 6.00001C12 2.6863 9.31373 0 6.00001 0C2.6863 0 0 2.6863 0 6.00001C0 9.31373 2.6863 12 6.00001 12Z" fill="#E24C4B"/>
<path d="M12 5.99998C12 9.29999 9.30002 12 6.00001 12C4.08751 12 2.40001 11.1375 1.3125 9.75C2.325 10.575 3.63751 11.0625 5.06249 11.0625C8.36251 11.0625 11.0625 8.36251 11.0625 5.0625C11.0625 3.63751 10.575 2.325 9.75 1.3125C11.1375 2.39996 12 4.08746 12 5.99998Z" fill="#D1403F"/>
<path d="M8.73748 8.73748C8.51249 8.96247 8.13747 8.96247 7.91248 8.73748L5.99999 6.82499L4.0875 8.73748C3.86251 8.96247 3.48748 8.96247 3.26249 8.73748C3.0375 8.51249 3.0375 8.13747 3.26249 7.91248L5.17499 5.99999L3.26249 4.0875C3.0375 3.86251 3.0375 3.48748 3.26249 3.26249C3.48748 3.0375 3.86251 3.0375 4.0875 3.26249L5.99999 5.17499L7.91248 3.26249C8.13747 3.0375 8.51249 3.0375 8.73748 3.26249C8.96247 3.48748 8.96247 3.86251 8.73748 4.0875L6.82499 5.99999L8.73748 7.91248C8.96247 8.13747 8.96247 8.51247 8.73748 8.73748Z" fill="white"/>
</g>
<defs>
<clipPath id="clip0_1054_19919">
<rect width="12" height="12" fill="white"/>
</clipPath>
</defs>
</svg>
