<svg width="102" height="64" viewBox="0 0 102 64" fill="none" xmlns="http://www.w3.org/2000/svg">
<path d="M4.26606 62.9373L36.8014 44.107L33.2379 37.9184L0.702521 56.7486L4.26787 62.9373H4.26606ZM41.7234 41.0657H79.2761V33.935H41.7257V41.0657H41.7234ZM83.4473 33.935V41.0657H121V33.935H83.4473ZM83.4456 11.3111V18.4418H120.998V11.3111H83.4456ZM83.4456 7.13071H120.998V0H83.4456V7.13162V7.13071ZM83.4456 29.7546H120.998V22.6239H83.4456V29.7546ZM120.998 45.2469H83.4456L83.4473 52.3777H121V45.2469H120.998ZM120.998 63.6889V56.5582H83.4456V63.6889H120.998ZM79.2743 63.6889V56.5582H41.7216V63.6889H79.2743ZM120.998 67.8693H83.4456L83.4438 75H120.996V67.8693H120.998ZM79.2743 45.2469H42.2516L42.4728 45.6299L41.7221 46.0645V52.3785H79.2747L79.2743 45.2469ZM79.2743 67.8693H41.7216V75H79.2743V67.8693ZM0 67.8693V75H37.5527V67.8693H0Z" fill="white" fill-opacity="0.15"/>
</svg>
