<svg width="531" height="457" viewBox="0 0 531 457" fill="none" xmlns="http://www.w3.org/2000/svg">
<path d="M504.017 221.567C513.109 195.592 511.54 166.058 499.742 141.193C487.944 116.328 466.065 96.4311 440.194 87.0437C420.462 79.879 397.972 78.2534 381.657 65.038L251.67 63.808L78.036 148.709C58.6454 150.444 40.7065 161.452 28.576 176.685C16.4456 191.919 9.82169 211.03 7.62453 230.373C5.42737 249.715 7.45395 269.331 11.2683 288.422L212.099 375.592L448.82 313.356L504.017 221.567Z" fill="#59A3F9"/>
<path d="M69.5543 424.642C69.5543 424.642 -25.9044 364.147 6.83974 278.679C39.5839 193.212 55.1158 213.034 59.0086 130.975C62.9014 48.9158 165.678 -6.58468 253.033 0.629442C340.387 7.84356 398.663 37.1351 424.191 94.3619C449.719 151.589 534.634 171.566 530.75 263.139C526.865 354.712 415.866 428.634 414.201 428.581C412.536 428.528 69.5543 424.642 69.5543 424.642Z" fill="#B6C9EB"/>
<path d="M260.139 456.001C399.369 456.001 512.238 445.446 512.238 432.426C512.238 419.406 399.369 408.851 260.139 408.851C120.909 408.851 8.04053 419.406 8.04053 432.426C8.04053 445.446 120.909 456.001 260.139 456.001Z" fill="#071655"/>
<path d="M271.982 443.465C390.652 443.465 486.853 438.259 486.853 431.837C486.853 425.416 390.652 420.21 271.982 420.21C153.312 420.21 57.1104 425.416 57.1104 431.837C57.1104 438.259 153.312 443.465 271.982 443.465Z" fill="#EEF1FD"/>
<path d="M288.11 58.4532C292.326 48.5268 306.053 44.1052 315.27 49.7073C320.191 42.7132 329.157 38.7999 337.632 39.9446C346.107 41.0892 353.713 47.2406 356.605 55.2889C361.117 54.354 366.388 56.3687 368.22 60.5958C370.052 64.823 367.058 70.6758 362.452 70.814C360.941 70.86 359.382 70.3551 357.942 70.802C356.784 71.1603 355.895 72.0729 355.008 72.8968C343.851 83.2378 324.092 82.0659 314.238 70.4796C307.829 76.5235 296.816 76.8084 290.101 71.1023C291.004 71.8699 281.157 74.3264 280.021 74.1933C276.372 73.7668 271.734 71.7556 270.97 67.74C269.363 59.3403 282.065 54.656 288.11 58.4532Z" fill="white"/>
<path d="M270.97 67.74C271.734 71.7557 276.372 73.7669 280.021 74.1933C281.157 74.3264 291.004 71.8699 290.101 71.1023C296.816 76.8084 307.829 76.5236 314.238 70.4797C324.092 82.0659 343.851 83.2379 355.008 72.8969C355.897 72.0729 356.784 71.1603 357.942 70.8021C359.387 70.3551 360.941 70.8601 362.452 70.814C367.058 70.6758 370.052 64.823 368.22 60.5959C366.388 56.3687 361.117 54.3541 356.605 55.2889C355.69 52.7721 354.341 50.435 352.62 48.3835C353.241 53.177 351.907 58.2315 348.867 61.9981C347.25 64.0008 345.173 65.6555 342.792 66.6312C339.355 68.0403 335.505 67.9771 331.803 67.6684C329.321 67.4603 326.793 67.1379 324.548 66.058C322.303 64.9782 320.353 63.0114 319.886 60.5634C319.486 58.4857 320.184 56.3482 321.122 54.4513C322.567 51.5396 324.585 48.95 327.055 46.838C320.316 48.2488 314.514 53.4909 312.422 60.0449C312.127 60.9694 311.877 61.9622 311.196 62.6548C310.635 63.2263 309.853 63.5078 309.091 63.7636C305.339 64.9877 301.416 65.6084 297.469 65.6026C294.158 65.594 290.442 64.9049 288.573 62.1738C287.469 63.9223 285.831 65.4678 283.796 65.8602C281.761 66.2525 279.382 65.1454 278.868 63.1427C278.462 61.5631 279.286 59.8709 280.509 58.7927C280.946 58.4055 282.556 57.7692 283.46 57.1398C277.241 56.8583 269.714 61.1571 270.97 67.74Z" fill="#FFFBE9"/>
<path d="M313.943 70.4916C323.797 82.0762 343.556 83.2481 354.713 72.9088C355.602 72.0849 356.489 71.1722 357.647 70.814C359.092 70.3671 360.646 70.872 362.157 70.826C366.763 70.6878 369.757 64.8349 367.925 60.6078C367.333 63.605 364.75 66.273 361.992 67.5848C360.603 68.2323 359.083 68.5517 357.551 68.5183C356.019 68.4848 354.515 68.0995 353.155 67.392C352.34 70.5291 349.781 73.0009 346.844 74.3861C343.906 75.7713 340.622 76.179 337.386 76.3496C335.143 76.4673 332.879 76.4741 330.669 76.0749C326.873 75.3926 323.398 73.5417 320.056 71.6158C317.327 70.0464 314.406 68.0897 313.709 65.0226C313.676 66.6483 313.973 68.8625 313.943 70.4916Z" fill="#FFE8A9"/>
<path d="M314.238 70.4796C307.829 76.5235 296.816 76.8084 290.101 71.1023C291.004 71.8699 281.157 74.3264 280.021 74.1933C276.372 73.7669 271.734 71.7556 270.97 67.74C269.714 61.1571 277.241 56.8583 283.465 57.1329C280.434 58.0131 277.341 59.3028 275.83 62.0799C274.318 64.8571 274.793 68.8267 277.45 70.5291C279.199 71.6482 281.447 71.6004 283.486 71.2115C285.944 70.7423 288.54 69.6335 289.6 67.3664C292.67 70.4131 297.046 71.8921 301.37 72.1685C305.695 72.4448 310.029 71.4929 314.238 70.4796Z" fill="#FFE8A9"/>
<path d="M75.7722 105.713C82.8226 89.1094 105.78 81.7145 121.196 91.0848C129.429 79.3877 144.423 72.832 158.597 74.7545C172.771 76.6771 185.494 86.9583 190.327 100.419C197.873 98.8568 206.689 102.224 209.753 109.29C212.817 116.356 207.815 126.161 200.105 126.386C197.576 126.461 194.977 125.617 192.561 126.364C190.623 126.964 189.149 128.491 187.652 129.869C168.995 147.164 135.947 145.204 119.463 125.825C108.743 135.936 90.3233 136.411 79.0953 126.867C80.605 128.152 64.1348 132.259 62.2345 132.038C56.1326 131.325 48.376 127.959 47.0966 121.245C44.4269 107.195 65.6616 99.36 75.7722 105.713Z" fill="white"/>
<path d="M47.1032 121.245C48.3826 127.959 56.1443 131.325 62.2411 132.038C64.1414 132.259 80.6116 128.15 79.1019 126.867C90.33 136.42 108.75 135.936 119.47 125.825C135.953 145.204 169.001 147.164 187.658 129.87C189.148 128.491 190.63 126.97 192.568 126.364C194.983 125.617 197.583 126.461 200.111 126.386C207.815 126.154 212.822 116.366 209.756 109.295C206.691 102.224 197.875 98.8568 190.33 100.425C188.8 96.2152 186.545 92.3066 183.667 88.8758C184.705 96.8933 182.473 105.344 177.38 111.646C174.675 114.994 171.202 117.763 167.219 119.395C161.47 121.751 155.032 121.646 148.841 121.129C144.687 120.787 140.462 120.242 136.706 118.435C132.949 116.629 129.691 113.34 128.906 109.247C128.241 105.771 129.406 102.197 130.977 99.024C133.394 94.1508 136.773 89.8177 140.911 86.2863C129.638 88.6455 119.929 97.4034 116.435 108.377C115.942 109.924 115.522 111.583 114.388 112.741C113.45 113.696 112.141 114.182 110.869 114.597C104.589 116.64 98.0251 117.673 91.4217 117.657C85.8862 117.642 79.67 116.49 76.5431 111.922C74.6974 114.846 71.9577 117.432 68.5631 118.089C65.1684 118.746 61.1801 116.895 60.3203 113.543C59.6379 110.9 61.018 108.072 63.0633 106.267C63.7969 105.621 66.4973 104.548 68.0018 103.504C57.5926 103.043 45.005 110.235 47.1032 121.245Z" fill="#FFFBE9"/>
<path d="M118.977 125.845C135.461 145.222 168.507 147.182 187.165 129.89C188.653 128.51 190.135 126.99 192.075 126.384C194.49 125.637 197.09 126.482 199.618 126.405C207.32 126.173 212.329 116.386 209.263 109.315C208.272 114.327 203.955 118.792 199.34 120.985C197.017 122.068 194.476 122.602 191.914 122.546C189.351 122.49 186.836 121.846 184.562 120.663C183.198 125.91 178.916 130.045 174.01 132.348C169.104 134.651 163.604 135.352 158.186 135.637C154.433 135.835 150.648 135.847 146.951 135.18C140.604 134.034 134.792 130.943 129.21 127.722C124.652 125.096 119.76 121.821 118.591 116.695C118.531 119.416 119.03 123.123 118.977 125.845Z" fill="#FFE8A9"/>
<path d="M119.47 125.82C108.75 135.93 90.33 136.406 79.1019 126.862C80.6116 128.145 64.1414 132.254 62.2411 132.033C56.1392 131.32 48.3826 127.954 47.1032 121.24C45.005 110.23 57.5926 103.038 68.0035 103.498C62.9337 104.971 57.7683 107.129 55.2334 111.763C52.6985 116.398 53.4968 123.048 57.9423 125.895C60.8662 127.771 64.6276 127.688 68.036 127.038C72.1471 126.255 76.492 124.399 78.2712 120.608C83.4127 125.706 90.724 128.177 97.9484 128.64C105.173 129.102 112.431 127.526 119.47 125.82Z" fill="#FFE8A9"/>
<path d="M443.783 171.138C443.785 173.206 442.965 175.19 441.505 176.654C440.044 178.117 438.062 178.941 435.994 178.944L408.99 178.973L382.622 179.002L335.907 179.053H331.206H330.493C329.469 179.056 328.454 178.856 327.507 178.466C326.56 178.075 325.699 177.502 324.974 176.779C324.249 176.056 323.674 175.196 323.281 174.25C322.889 173.304 322.687 172.29 322.687 171.266L322.675 159.963L322.656 143.301V134.38L322.629 109.974C322.628 108.95 322.828 107.936 323.219 106.99C323.61 106.043 324.183 105.183 324.907 104.458C325.63 103.734 326.489 103.158 327.434 102.766C328.38 102.373 329.394 102.17 330.418 102.17L360.441 102.137L370.917 102.125L390.483 102.103L416.847 102.074H421.112H425.827L435.924 102.062C436.948 102.061 437.962 102.261 438.908 102.652C439.854 103.043 440.714 103.616 441.439 104.339C442.164 105.063 442.739 105.921 443.132 106.867C443.524 107.812 443.727 108.826 443.728 109.849L443.747 126.85L443.771 149.301L443.783 171.138Z" fill="#FF6C3C"/>
<path d="M352.166 107.683L333.976 107.703C333.744 107.703 333.514 107.749 333.299 107.838C333.085 107.927 332.89 108.057 332.726 108.222C332.562 108.386 332.432 108.581 332.343 108.796C332.254 109.01 332.209 109.24 332.209 109.472L332.217 116.173C332.217 116.405 332.263 116.635 332.352 116.85C332.441 117.064 332.571 117.259 332.736 117.423C332.9 117.587 333.095 117.717 333.31 117.805C333.524 117.894 333.754 117.939 333.986 117.939L352.178 117.92C352.41 117.92 352.64 117.874 352.854 117.785C353.069 117.695 353.263 117.565 353.427 117.4C353.591 117.236 353.721 117.041 353.81 116.826C353.898 116.611 353.944 116.381 353.943 116.149V109.449C353.943 109.216 353.897 108.985 353.807 108.77C353.718 108.555 353.587 108.36 353.421 108.196C353.256 108.032 353.06 107.902 352.845 107.814C352.629 107.726 352.399 107.682 352.166 107.683Z" fill="white"/>
<path d="M322.647 134.385L322.658 143.307L370.903 102.129L360.427 102.141L322.647 134.385Z" fill="#FF855A"/>
<path d="M416.832 102.079L327.386 178.42C325.992 177.816 324.804 176.818 323.969 175.547C323.134 174.277 322.688 172.791 322.687 171.271L322.675 159.968L390.468 102.108L416.832 102.079Z" fill="#FF855A"/>
<path d="M443.757 149.298L408.99 178.973L382.622 179.002L443.733 126.847L443.757 149.298Z" fill="#FF855A"/>
<path d="M425.814 102.071L335.907 179.053L331.206 179.058L421.099 102.076L425.814 102.071Z" fill="#FF855A"/>
<path d="M362.698 153.576L331.779 153.61C331.546 153.61 331.315 153.656 331.1 153.746C330.884 153.835 330.689 153.966 330.524 154.131C330.359 154.296 330.228 154.492 330.139 154.708C330.05 154.923 330.005 155.154 330.005 155.388V157.264C330.005 157.497 330.051 157.728 330.141 157.943C330.23 158.159 330.361 158.354 330.526 158.519C330.691 158.684 330.887 158.815 331.103 158.904C331.318 158.993 331.549 159.038 331.782 159.038L362.701 159.004C363.172 159.003 363.623 158.815 363.956 158.482C364.289 158.149 364.475 157.697 364.475 157.226V155.35C364.474 154.879 364.287 154.428 363.954 154.095C363.62 153.763 363.169 153.576 362.698 153.576Z" fill="white"/>
<path d="M389.415 153.547L371.289 153.566C370.922 153.567 370.57 153.713 370.311 153.973C370.052 154.232 369.907 154.584 369.907 154.951V157.617C369.907 157.799 369.943 157.978 370.013 158.146C370.082 158.313 370.184 158.466 370.313 158.594C370.441 158.722 370.594 158.823 370.761 158.893C370.929 158.962 371.109 158.997 371.29 158.997L389.417 158.978C389.783 158.978 390.135 158.832 390.394 158.573C390.653 158.313 390.799 157.962 390.799 157.595V154.927C390.798 154.746 390.762 154.566 390.693 154.398C390.623 154.231 390.521 154.079 390.393 153.95C390.264 153.822 390.112 153.721 389.944 153.651C389.776 153.582 389.597 153.547 389.415 153.547Z" fill="white"/>
<path d="M414.693 153.52L396.568 153.538C396.201 153.539 395.85 153.685 395.591 153.944C395.332 154.204 395.186 154.555 395.186 154.922V157.59C395.186 157.771 395.222 157.951 395.291 158.119C395.361 158.286 395.463 158.439 395.591 158.567C395.72 158.695 395.872 158.797 396.04 158.866C396.208 158.935 396.388 158.97 396.569 158.97L414.696 158.951C414.878 158.951 415.057 158.915 415.225 158.845C415.393 158.775 415.545 158.673 415.673 158.545C415.801 158.416 415.903 158.263 415.972 158.095C416.041 157.928 416.077 157.748 416.076 157.566V154.9C416.076 154.718 416.04 154.539 415.97 154.371C415.901 154.204 415.799 154.051 415.67 153.923C415.542 153.795 415.389 153.693 415.222 153.624C415.054 153.555 414.874 153.519 414.693 153.52Z" fill="white"/>
<path d="M434.359 153.523L422.23 153.536C421.596 153.537 421.083 154.051 421.083 154.685L421.087 157.821C421.087 158.455 421.602 158.968 422.236 158.968L434.365 158.955C434.999 158.954 435.512 158.44 435.511 157.806L435.508 154.67C435.507 154.036 434.993 153.523 434.359 153.523Z" fill="white"/>
<path d="M363.571 111.816C363.537 111.73 363.484 111.651 363.417 111.586C363.35 111.521 363.27 111.471 363.182 111.439C363.095 111.407 363.001 111.393 362.908 111.4C362.815 111.406 362.724 111.432 362.642 111.475C362.496 111.55 362.382 111.676 362.324 111.83C362.265 111.983 362.265 112.153 362.324 112.306C362.512 112.789 362.627 113.297 362.666 113.814C362.733 114.801 362.531 115.787 362.08 116.668C362.006 116.816 361.989 116.986 362.033 117.146C362.077 117.305 362.178 117.443 362.318 117.533C362.396 117.584 362.485 117.617 362.578 117.631C362.671 117.646 362.765 117.64 362.856 117.616C362.946 117.591 363.03 117.547 363.103 117.488C363.175 117.428 363.234 117.354 363.276 117.27C363.835 116.171 364.085 114.941 364 113.711C363.952 113.062 363.807 112.423 363.571 111.816Z" fill="white"/>
<path d="M366.101 109.955C366.048 109.879 365.979 109.814 365.899 109.766C365.819 109.717 365.73 109.686 365.637 109.675C365.545 109.663 365.451 109.671 365.361 109.698C365.272 109.724 365.189 109.77 365.118 109.831C364.992 109.938 364.91 110.088 364.888 110.253C364.867 110.417 364.907 110.584 365.002 110.719C365.661 111.647 366.057 112.734 366.149 113.867C366.242 115 366.027 116.138 365.528 117.159C365.455 117.309 365.441 117.481 365.488 117.641C365.535 117.801 365.64 117.937 365.782 118.024C365.861 118.073 365.95 118.104 366.043 118.116C366.135 118.128 366.229 118.121 366.318 118.094C366.408 118.068 366.49 118.023 366.561 117.963C366.632 117.903 366.69 117.828 366.73 117.744C367.333 116.508 367.593 115.133 367.482 113.762C367.371 112.391 366.894 111.075 366.101 109.952V109.955Z" fill="white"/>
<path d="M369.056 108.297C369.002 108.223 368.935 108.16 368.856 108.113C368.778 108.065 368.691 108.035 368.6 108.023C368.509 108.01 368.417 108.017 368.329 108.042C368.241 108.067 368.159 108.11 368.088 108.167C367.957 108.276 367.871 108.43 367.849 108.599C367.827 108.768 367.87 108.94 367.969 109.078C368.806 110.254 369.361 111.607 369.591 113.033C369.893 115.004 369.568 117.02 368.662 118.797C368.587 118.948 368.572 119.123 368.62 119.285C368.669 119.447 368.777 119.585 368.923 119.67C369.002 119.717 369.09 119.746 369.181 119.757C369.272 119.769 369.365 119.761 369.453 119.734C369.541 119.708 369.622 119.664 369.692 119.605C369.763 119.546 369.82 119.473 369.861 119.39C370.889 117.364 371.258 115.067 370.913 112.821C370.651 111.19 370.015 109.642 369.056 108.297Z" fill="white"/>
<path d="M372.653 106.922C372.61 106.843 372.55 106.773 372.479 106.717C372.407 106.661 372.325 106.621 372.237 106.598C372.15 106.575 372.058 106.569 371.968 106.583C371.879 106.596 371.792 106.627 371.715 106.675C371.569 106.765 371.463 106.907 371.419 107.073C371.375 107.239 371.397 107.415 371.48 107.565C372.588 109.549 373.194 111.774 373.247 114.046C373.299 116.318 372.796 118.568 371.782 120.602C371.706 120.756 371.693 120.933 371.745 121.097C371.796 121.261 371.909 121.399 372.06 121.482C372.139 121.525 372.226 121.552 372.315 121.561C372.405 121.57 372.496 121.561 372.582 121.534C372.668 121.507 372.748 121.463 372.816 121.405C372.885 121.346 372.941 121.274 372.981 121.193C374.09 118.966 374.64 116.503 374.582 114.015C374.525 111.528 373.862 109.092 372.652 106.919L372.653 106.922Z" fill="white"/>
<path d="M349.665 126.529L336.397 126.543C335.587 126.544 334.812 126.867 334.241 127.44C333.669 128.013 333.349 128.789 333.35 129.598L333.358 138.09C333.359 138.491 333.438 138.888 333.592 139.258C333.746 139.628 333.971 139.964 334.255 140.247C334.538 140.53 334.875 140.755 335.245 140.908C335.616 141.06 336.013 141.139 336.414 141.139L349.68 141.123C350.081 141.123 350.478 141.043 350.848 140.89C351.218 140.736 351.554 140.511 351.837 140.227C352.12 139.943 352.345 139.607 352.498 139.236C352.65 138.866 352.729 138.469 352.729 138.068V129.578C352.728 129.176 352.648 128.779 352.494 128.408C352.34 128.038 352.114 127.701 351.829 127.418C351.545 127.135 351.207 126.91 350.836 126.758C350.464 126.606 350.066 126.528 349.665 126.529Z" fill="#FBCB52"/>
<path d="M339.868 131.538V136.667H346.323V131.538H339.868ZM340.317 136.224V131.98H345.888V136.225L340.317 136.224Z" fill="white"/>
<path d="M351.649 127.26L345.1 127.196L343.094 130.129L341.18 127.382L334.543 127.178C334.378 127.305 334.226 127.449 334.091 127.608L340.945 127.817L343.101 130.905L345.334 127.642L352.079 127.706C351.951 127.544 351.807 127.394 351.649 127.26Z" fill="white"/>
<path d="M343.104 136.497L340.953 139.588L334.101 139.808C334.237 139.965 334.389 140.108 334.553 140.236L341.19 140.016L343.102 137.268L345.114 140.194L351.663 140.117C351.819 139.982 351.962 139.832 352.089 139.67L345.344 139.748L343.104 136.497Z" fill="white"/>
<path d="M338.887 130.605L338.832 130.567L333.35 130.49V130.937L338.693 131.012C338.984 131.215 339.822 131.758 340.189 132.195L340.451 131.853C340.003 131.311 338.962 130.652 338.887 130.605Z" fill="white"/>
<path d="M338.7 137.201L333.357 137.287V137.73L338.84 137.64L338.894 137.602C338.964 137.554 340.008 136.973 340.455 136.439L340.194 136.012C339.831 136.451 338.99 136.997 338.7 137.201Z" fill="white"/>
<path d="M340.058 133.646L333.342 133.653L333.343 134.095L340.058 134.088L340.058 133.646Z" fill="white"/>
<path d="M347.359 130.557L347.304 130.596C347.234 130.644 346.259 131.33 345.711 131.79L346.182 131.978C346.325 131.956 347.205 131.205 347.5 131.002L352.722 130.917V130.475L347.359 130.557Z" fill="white"/>
<path d="M347.507 137.191C347.215 136.988 346.513 136.553 346.142 136.116L345.644 136.275C346.093 136.807 347.239 137.546 347.309 137.594L347.364 137.631L352.725 137.706V137.264L347.507 137.191Z" fill="white"/>
<path d="M352.721 133.609L346.059 133.616L346.06 134.058L352.721 134.051L352.721 133.609Z" fill="white"/>
<path d="M352.69 107.761C350.045 110.71 346.758 113.012 343.082 114.488C339.631 115.851 335.931 116.47 332.224 116.304C332.258 116.749 332.458 117.164 332.784 117.468C333.111 117.771 333.541 117.939 333.987 117.939L352.178 117.92C352.41 117.92 352.64 117.874 352.854 117.785C353.069 117.695 353.264 117.565 353.428 117.4C353.592 117.236 353.722 117.041 353.81 116.826C353.899 116.611 353.944 116.381 353.944 116.149V109.449C353.943 109.07 353.82 108.702 353.595 108.398C353.369 108.095 353.052 107.871 352.69 107.761Z" fill="#F2F6F9"/>
<path d="M9.31345 217.546C12.5341 216.272 16.2546 217.259 19.2399 219.016C22.2252 220.774 24.7209 223.244 27.5373 225.26C28.5113 225.958 29.5621 226.625 30.7426 226.817C32.2659 227.078 33.7995 226.553 35.3314 226.348C37.165 226.123 39.0259 226.353 40.7499 227.017C42.4739 227.681 44.008 228.759 45.2169 230.156C49.5822 235.306 49.0824 244.108 54.8943 247.542C56.5217 248.504 58.4254 248.864 60.1825 249.557C64.4472 251.24 67.7463 254.857 69.923 258.901C72.0997 262.946 73.287 267.431 74.4231 271.89C75.5467 276.285 76.639 280.689 77.7 285.102C78.3466 287.789 78.5001 291.46 75.9123 292.427C74.8325 292.831 73.6298 292.555 72.5176 292.256C64.2629 290.043 56.3211 286.795 48.8811 282.589C42.7638 279.131 36.3327 273.719 36.8052 266.714C36.9144 265.072 37.3886 263.287 36.5494 261.87C36.0495 261.017 35.1659 260.486 34.2908 260.038C30.4833 258.081 26.1777 257.138 22.5715 254.835C18.9653 252.532 16.0892 248.115 17.5084 244.074C18.1447 242.254 19.5555 240.222 18.4654 238.637C18.0049 237.97 17.2116 237.634 16.4764 237.293C10.8573 234.688 -2.06811 222.048 9.31345 217.546Z" fill="#76CAC0"/>
<path d="M12.6294 225.676C16.4693 227.974 20.1864 230.473 23.8097 233.098C27.433 235.724 30.9334 238.518 34.3434 241.418C37.7535 244.318 41.0492 247.348 44.2477 250.478C47.4462 253.608 50.5424 256.841 53.5396 260.166C56.5368 263.49 59.4061 266.924 62.1849 270.431L64.249 273.079C64.9314 273.968 65.5967 274.865 66.2705 275.757C66.9443 276.649 67.5925 277.562 68.2527 278.464C68.9129 279.367 69.5407 280.293 70.1855 281.207C72.7318 284.888 75.1626 288.64 77.4781 292.466C79.7708 296.308 81.956 300.213 83.9604 304.208C84.0092 304.302 84.0187 304.411 83.9867 304.513C83.9547 304.614 83.8839 304.698 83.7898 304.747C83.6957 304.796 83.586 304.805 83.4849 304.773C83.3838 304.741 83.2996 304.67 83.2507 304.576C81.1445 300.655 78.9184 296.801 76.5722 293.014C74.2261 289.227 71.7702 285.516 69.2046 281.881C68.5547 280.979 67.9133 280.07 67.2582 279.171C66.6031 278.272 65.9447 277.374 65.2777 276.484C64.6107 275.593 63.9369 274.708 63.2579 273.828L61.1989 271.201C58.4286 267.719 55.5554 264.323 52.5792 261.013C49.603 257.704 46.537 254.481 43.3811 251.344C40.2151 248.217 36.9523 245.194 33.5929 242.274C30.2334 239.355 26.7739 236.559 23.2144 233.887C19.6661 231.214 16.0093 228.684 12.2439 226.295C12.1654 226.243 12.1104 226.161 12.0904 226.069C12.0703 225.976 12.0868 225.88 12.1364 225.799C12.1859 225.719 12.2647 225.66 12.3563 225.636C12.4479 225.613 12.5451 225.625 12.6277 225.671L12.6294 225.676Z" fill="#224942"/>
<path d="M38.5213 246.402L22.928 248.163" stroke="#224942" stroke-width="6.27" stroke-linecap="round" stroke-linejoin="round"/>
<path d="M46.2981 252.566C46.2605 247.427 45.8155 242.3 44.9675 237.232L46.2981 252.566Z" stroke="#224942" stroke-width="6.27" stroke-linecap="round" stroke-linejoin="round"/>
<path d="M61.6782 270.07C62.6475 266.24 63.2816 262.334 63.5734 258.395L61.6782 270.07Z" stroke="#224942" stroke-width="6.27" stroke-linecap="round" stroke-linejoin="round"/>
<path d="M50.5731 193.988C53.9678 194.733 56.5437 197.475 58.6299 200.249C60.7162 203.022 62.6728 206.048 65.624 207.887C68.5103 209.677 72.0398 210.105 75.0865 211.61C81.6012 214.822 84.8867 222.612 84.6393 229.873C84.4892 234.274 83.3719 239.129 85.8641 242.759C86.8314 244.166 88.2404 245.196 89.4465 246.403C92.8582 249.804 94.6272 254.604 95.0758 259.403C95.5245 264.202 94.7705 269.033 93.7111 273.732C93.1994 276.006 92.517 278.435 90.6952 279.884C87.6962 282.26 83.2934 280.856 79.8816 279.121C74.7794 276.528 69.8904 273.338 66.1136 269.038C62.3368 264.737 59.7405 259.222 59.7166 253.499C59.708 251.711 59.9469 249.906 59.6483 248.143C58.6043 241.962 51.6137 238.508 49.3892 232.648C46.8884 226.062 50.9979 218.112 47.8181 211.825C46.6513 209.517 44.6299 207.758 43.2481 205.573C40.0547 200.489 44.0618 192.557 50.5731 193.988Z" fill="#40A899"/>
<path d="M51.2129 202.272C56.501 209.74 61.054 217.696 65.3033 225.78C67.4391 229.821 69.4418 233.928 71.4069 238.052L72.8535 241.157L73.5785 242.709C73.8207 243.221 74.0613 243.745 74.2898 244.267L77.0738 250.527L79.735 256.839C79.9602 257.363 80.17 257.893 80.3832 258.424L81.0195 260.014L82.2938 263.193C83.957 267.448 85.5929 271.723 87.0958 276.028L87.6707 277.642C87.8669 278.178 88.0374 278.724 88.2217 279.264L89.3083 282.506C90.0538 284.665 90.6969 286.859 91.381 289.039L91.8825 290.677L92.3465 292.328L93.2676 295.631C93.5883 296.726 93.8442 297.848 94.1206 298.95L94.9309 302.283C94.9439 302.334 94.9467 302.387 94.9393 302.439C94.9318 302.491 94.9142 302.541 94.8874 302.586C94.8606 302.631 94.8252 302.671 94.7832 302.702C94.7412 302.734 94.6934 302.757 94.6426 302.77C94.5917 302.783 94.5388 302.785 94.4869 302.778C94.4349 302.771 94.3849 302.753 94.3398 302.726C94.2946 302.699 94.2552 302.664 94.2237 302.622C94.1923 302.58 94.1694 302.532 94.1564 302.481V302.468L93.2745 299.17C92.9794 298.072 92.7064 296.968 92.3686 295.881L91.3963 292.608L90.9084 290.973L90.3796 289.35C89.6768 287.185 89.0149 285.006 88.249 282.867L87.135 279.638C86.9457 279.101 86.77 278.56 86.5704 278.028L85.9802 276.424L84.8031 273.217L84.2197 271.614L83.6073 270.019L82.3808 266.83C81.9731 265.768 81.5705 264.703 81.1355 263.651L79.8561 260.483L79.2164 258.9C79.0032 258.371 78.7916 257.842 78.5648 257.32L75.9002 251.031L73.1486 244.777C72.9234 244.255 72.6846 243.738 72.4458 243.221L71.7293 241.67L70.2981 238.569C68.3591 234.448 66.357 230.358 64.2917 226.301L63.5224 224.776C63.2699 224.264 62.9902 223.769 62.7258 223.266L61.1171 220.253C60.0697 218.232 58.9097 216.273 57.7975 214.283L56.9599 212.795C56.6733 212.304 56.3731 211.821 56.0797 211.333L54.3141 208.413C53.7426 207.429 53.0978 206.492 52.4786 205.538L50.6141 202.683V202.674C50.564 202.594 50.547 202.497 50.5665 202.405C50.586 202.312 50.6406 202.231 50.7188 202.177C50.797 202.124 50.8928 202.103 50.9861 202.119C51.0795 202.134 51.1632 202.185 51.2197 202.261L51.2129 202.272Z" fill="#224942"/>
<path d="M67.7664 232.365L61.8641 230.645C59.0426 229.823 56.2211 229.001 53.3621 228.317L67.7664 232.365Z" stroke="#224942" stroke-width="6.27" stroke-linecap="round" stroke-linejoin="round"/>
<path d="M73.6843 243.544C75.8451 238.051 77.8495 232.5 79.6975 226.893L73.6843 243.544Z" stroke="#224942" stroke-width="6.27" stroke-linecap="round" stroke-linejoin="round"/>
<path d="M81.656 263.852C76.8529 262.694 72.1858 261.031 67.7327 258.891L81.656 263.852Z" stroke="#224942" stroke-width="6.27" stroke-linecap="round" stroke-linejoin="round"/>
<path d="M85.2144 271.312C85.3594 271.542 85.7057 271.312 85.8592 271.088L91.364 263.071L85.2144 271.312Z" stroke="#224942" stroke-width="7.53" stroke-linecap="round" stroke-linejoin="round"/>
<path d="M97.8293 182.497C94.5882 183.741 92.5275 186.985 91.5176 190.3C90.5078 193.614 90.3474 197.123 89.6412 200.513C89.3972 201.687 89.0697 202.882 88.3379 203.831C87.3929 205.054 85.9087 205.707 84.6447 206.591C83.1425 207.667 81.9284 209.097 81.1094 210.753C80.2903 212.41 79.8916 214.242 79.9484 216.089C80.2231 222.834 86.5519 228.972 84.6003 235.436C84.0545 237.244 82.8945 238.8 82.0739 240.499C80.0678 244.632 80.0951 249.521 81.2347 253.975C82.3742 258.429 84.5389 262.535 86.7173 266.58C88.869 270.575 91.0474 274.555 93.2525 278.521C94.5967 280.935 96.9696 283.741 99.5301 282.702C100.596 282.267 101.294 281.25 101.918 280.278C106.494 273.058 110.138 265.288 112.764 257.153C114.924 250.464 116.005 242.133 110.901 237.293C109.707 236.159 108.15 235.166 107.807 233.556C107.602 232.594 107.889 231.601 108.228 230.678C109.706 226.661 112.235 223.051 113.329 218.907C114.422 214.764 113.544 209.578 109.767 207.562C108.061 206.654 105.647 206.118 105.381 204.21C105.27 203.408 105.625 202.623 105.936 201.874C108.3 196.156 109.252 178.101 97.8293 182.497Z" fill="#76CAC0"/>
<path d="M101.601 190.923C100.451 195.222 99.4727 199.563 98.6652 203.943C97.8578 208.324 97.2056 212.724 96.7086 217.143C96.2224 221.565 95.8557 226 95.6476 230.449C95.4394 234.898 95.3644 239.345 95.4275 243.793C95.4906 248.24 95.6646 252.69 95.9836 257.127L96.2463 260.455C96.3436 261.563 96.4561 262.673 96.5602 263.777C96.6643 264.881 96.8024 265.994 96.9235 267.095C97.0447 268.195 97.1914 269.304 97.3261 270.408C97.8947 274.821 98.5998 279.214 99.4414 283.587C100.267 287.961 101.253 292.306 102.358 296.618C102.386 296.72 102.372 296.83 102.32 296.922C102.267 297.014 102.18 297.081 102.078 297.109C101.976 297.136 101.866 297.123 101.774 297.07C101.683 297.017 101.615 296.93 101.587 296.828C100.363 292.526 99.3254 288.171 98.4128 283.792C97.5001 279.413 96.7666 274.996 96.1491 270.566C96.0041 269.456 95.8471 268.349 95.7124 267.238C95.5776 266.128 95.4548 265.02 95.3388 263.903C95.2228 262.786 95.1136 261.685 95.013 260.563L94.7383 257.219C94.4091 252.757 94.201 248.284 94.1481 243.81C94.0952 239.335 94.1924 234.857 94.4244 230.39C94.6564 225.922 95.0249 221.458 95.5776 217.016C96.1303 212.573 96.8195 208.145 97.6946 203.761C98.5697 199.377 99.6274 195.02 100.895 190.73C100.922 190.638 100.985 190.56 101.069 190.513C101.153 190.467 101.253 190.455 101.345 190.481C101.438 190.507 101.517 190.569 101.565 190.652C101.612 190.736 101.626 190.835 101.601 190.928V190.923Z" fill="#224942"/>
<path d="M94.9684 224.281C93.9244 223.598 92.9111 222.916 91.8978 222.181C90.8798 221.45 89.9063 220.66 88.9825 219.813C88.064 218.959 87.2008 218.047 86.3981 217.084C85.5929 216.128 84.839 215.139 84.1361 214.114C84.1019 214.044 84.0926 213.965 84.1097 213.889C84.1268 213.813 84.1694 213.745 84.2303 213.697C84.2913 213.648 84.3669 213.622 84.4447 213.623C84.5225 213.623 84.5978 213.65 84.6581 213.699L87.1453 216.429C87.5649 216.874 87.976 217.326 88.4076 217.756C88.8392 218.186 89.2606 218.619 89.7109 219.034C90.5945 219.868 91.5328 220.647 92.4829 221.422C93.4331 222.196 94.4055 222.974 95.3369 223.79C95.3947 223.84 95.4312 223.911 95.4391 223.988C95.4469 224.065 95.4254 224.141 95.379 224.203C95.3327 224.264 95.2647 224.306 95.1889 224.32C95.113 224.333 95.0349 224.317 94.9701 224.276L94.9684 224.281Z" fill="#224942"/>
<path d="M95.3062 229.325C96.5003 228.302 97.7064 227.288 98.9158 226.284L102.548 223.274L106.191 220.281C107.408 219.284 108.627 218.291 109.869 217.323C109.937 217.285 110.016 217.272 110.092 217.285C110.169 217.299 110.238 217.338 110.29 217.396C110.341 217.454 110.371 217.528 110.374 217.606C110.378 217.683 110.355 217.76 110.309 217.822C109.182 218.929 108.018 219.994 106.834 221.038C106.244 221.562 105.64 222.072 105.045 222.585C104.45 223.099 103.836 223.598 103.227 224.1C102.003 225.096 100.768 226.077 99.5112 227.031C98.254 227.984 96.9831 228.919 95.6781 229.81C95.6449 229.832 95.6077 229.848 95.5684 229.856C95.5291 229.865 95.4885 229.865 95.4491 229.858C95.4096 229.85 95.372 229.835 95.3384 229.813C95.3048 229.791 95.2759 229.763 95.2533 229.729C95.2115 229.667 95.1938 229.592 95.2035 229.517C95.2133 229.443 95.2498 229.375 95.3062 229.325Z" fill="#224942"/>
<path d="M94.8763 259.374C93.9056 258.601 92.9793 257.776 92.0803 256.923C91.1813 256.07 90.3148 255.179 89.4721 254.268C89.0541 253.811 88.643 253.345 88.2353 252.878C87.8276 252.411 87.4352 251.931 87.0412 251.445C86.265 250.476 85.5247 249.48 84.8406 248.444C84.8075 248.374 84.7994 248.294 84.8177 248.219C84.8361 248.143 84.8798 248.076 84.9415 248.028C85.0033 247.981 85.0794 247.956 85.1572 247.958C85.2351 247.96 85.31 247.988 85.3695 248.038C86.1883 248.958 86.9917 249.886 87.802 250.807L89.0217 252.182L89.6341 252.864L90.2517 253.547C91.0739 254.456 91.9098 255.351 92.749 256.245L95.2823 258.924C95.3328 258.98 95.3604 259.054 95.3599 259.13C95.3593 259.206 95.3306 259.279 95.2792 259.335C95.2278 259.391 95.1575 259.426 95.0818 259.433C95.0061 259.441 94.9304 259.419 94.8694 259.374H94.8763Z" fill="#224942"/>
<path d="M96.3877 265.861L99.1171 261.97C100.023 260.67 100.924 259.371 101.809 258.057L102.473 257.075L103.131 256.087L104.443 254.108L107.049 250.132C107.102 250.072 107.174 250.033 107.252 250.021C107.33 250.009 107.41 250.024 107.478 250.064C107.547 250.105 107.599 250.167 107.626 250.242C107.653 250.317 107.653 250.398 107.626 250.473C106.899 251.894 106.109 253.279 105.284 254.642C104.873 255.324 104.443 255.998 104.016 256.672C103.59 257.346 103.141 258.004 102.693 258.663C101.79 259.978 100.86 261.274 99.8898 262.538C98.9192 263.802 97.9196 265.046 96.867 266.244C96.8155 266.302 96.7434 266.339 96.6655 266.346C96.5877 266.354 96.5101 266.331 96.4486 266.282C96.3872 266.234 96.3466 266.164 96.3353 266.087C96.3239 266.009 96.3427 265.93 96.3877 265.867V265.861Z" fill="#224942"/>
<path d="M396.428 236.59C400.324 236.476 403.883 238.946 406.368 241.949C408.854 244.951 410.549 248.523 412.757 251.735C413.521 252.847 414.381 253.953 415.553 254.611C417.066 255.464 418.889 255.502 420.588 255.874C422.615 256.338 424.497 257.294 426.067 258.657C427.637 260.02 428.848 261.748 429.592 263.69C432.238 270.814 428.336 279.937 433.174 285.796C434.527 287.437 436.402 288.55 437.999 289.955C441.876 293.367 443.969 298.461 444.726 303.577C445.484 308.692 445.015 313.899 444.513 319.045C444.017 324.127 443.486 329.205 442.918 334.281C442.577 337.372 441.328 341.316 438.219 341.35C436.922 341.362 435.757 340.611 434.693 339.869C426.805 334.364 419.644 327.883 413.381 320.582C408.233 314.579 403.497 306.396 406.684 299.157C407.431 297.459 408.615 295.753 408.27 293.932C408.064 292.845 407.336 291.937 406.582 291.127C403.301 287.599 399.106 284.952 396.176 281.131C393.245 277.31 391.896 271.539 394.939 267.804C396.304 266.122 398.59 264.516 398.035 262.419C397.803 261.537 397.092 260.884 396.445 260.234C391.503 255.323 382.658 236.993 396.428 236.59Z" fill="#76CAC0"/>
<path d="M396.82 246.464C400.003 250.367 402.98 254.436 405.808 258.601C408.637 262.767 411.267 267.067 413.768 271.441C416.269 275.815 418.592 280.286 420.779 284.824C422.966 289.361 425.001 293.969 426.898 298.641C428.795 303.314 430.518 308.042 432.115 312.819L433.285 316.401C433.663 317.595 434.027 318.808 434.399 320.011C434.771 321.214 435.105 322.426 435.46 323.636C435.815 324.845 436.122 326.065 436.453 327.28C437.739 332.148 438.872 337.053 439.852 341.994C440.095 343.229 440.313 344.47 440.543 345.706C440.774 346.943 440.961 348.188 441.171 349.429L441.736 353.163L442.224 356.905C442.234 357.02 442.2 357.135 442.129 357.226C442.057 357.317 441.954 357.377 441.839 357.393C441.725 357.41 441.608 357.381 441.514 357.314C441.42 357.247 441.355 357.147 441.333 357.033V357.023L440.762 353.309L440.136 349.604C439.905 348.373 439.685 347.139 439.453 345.911C439.221 344.683 438.965 343.453 438.704 342.228C437.681 337.325 436.503 332.458 435.171 327.626C434.83 326.422 434.499 325.214 434.148 324.013C433.797 322.812 433.447 321.608 433.083 320.41C432.72 319.212 432.345 318.022 431.963 316.828L430.791 313.261C429.193 308.515 427.453 303.82 425.571 299.175C423.689 294.531 421.679 289.945 419.542 285.419C417.391 280.899 415.085 276.451 412.657 272.073C410.23 267.694 407.635 263.407 404.889 259.219C402.142 255.031 399.244 250.944 396.189 246.979C396.131 246.893 396.107 246.788 396.123 246.685C396.139 246.582 396.193 246.489 396.274 246.425C396.356 246.36 396.459 246.328 396.562 246.336C396.666 246.344 396.763 246.391 396.834 246.467L396.82 246.464Z" fill="#224942"/>
<path d="M416.281 278.325L399.106 274.215" stroke="#224942" stroke-width="7.06" stroke-linecap="round" stroke-linejoin="round"/>
<path d="M422.149 287.823C424.077 282.37 425.571 276.773 426.615 271.085L422.149 287.823Z" stroke="#224942" stroke-width="7.06" stroke-linecap="round" stroke-linejoin="round"/>
<path d="M431.719 312.235C434.213 308.554 436.382 304.662 438.201 300.605L431.719 312.235Z" stroke="#224942" stroke-width="7.06" stroke-linecap="round" stroke-linejoin="round"/>
<path d="M449.117 227.467C452.423 229.559 454.09 233.438 455.243 237.179C456.396 240.92 457.29 244.874 459.721 247.945C462.09 250.944 465.661 252.752 468.308 255.508C473.972 261.404 474.465 270.907 471.423 278.497C469.579 283.103 466.536 287.806 467.783 292.603C468.266 294.462 469.364 296.093 470.181 297.831C472.491 302.739 472.52 308.496 471.162 313.747C469.804 318.997 467.15 323.811 464.236 328.395C462.829 330.613 461.178 332.917 458.689 333.75C454.603 335.115 450.482 331.943 447.536 328.803C443.131 324.105 439.177 318.856 436.832 312.858C434.486 306.86 433.846 300.03 436.013 293.964C436.695 292.067 437.633 290.25 437.995 288.268C439.257 281.329 433.183 274.995 433.074 267.941C432.951 260.014 440.344 253.175 439.385 245.304C439.036 242.414 437.568 239.779 436.944 236.935C435.494 230.316 442.775 223.459 449.117 227.467Z" fill="#40A899"/>
<path d="M446.62 236.479C449.383 246.406 451.139 256.569 452.536 266.754C453.238 271.849 453.8 276.961 454.288 282.079C454.775 287.197 455.175 292.314 455.499 297.454C455.823 302.594 456.028 307.722 456.181 312.86C456.224 314.144 456.248 315.431 456.273 316.715L456.312 318.643L456.336 320.57L456.358 322.498V324.426C456.358 325.712 456.353 326.997 456.343 328.283C456.295 333.424 456.157 338.566 455.891 343.702L455.782 345.628L455.652 347.552L455.518 349.476L455.357 351.399C455.26 352.682 455.125 353.958 455.002 355.242C454.941 355.882 454.862 356.521 454.787 357.161L454.562 359.077C454.543 359.19 454.481 359.292 454.39 359.361C454.298 359.43 454.184 359.462 454.069 359.45C453.955 359.437 453.85 359.382 453.776 359.294C453.701 359.207 453.663 359.094 453.668 358.98C454.18 353.884 454.521 348.772 454.711 343.651C454.9 338.53 455.013 333.407 455.007 328.283V326.36L454.992 324.438L454.978 322.517L454.951 320.594L454.922 318.672L454.878 316.751C454.847 315.47 454.82 314.192 454.774 312.908C454.616 307.783 454.379 302.665 454.064 297.555C453.749 292.444 453.367 287.333 452.918 282.221C452.454 277.114 451.903 272.019 451.267 266.934C450.63 261.849 449.885 256.779 448.998 251.733C448.111 246.687 447.085 241.669 445.826 236.708C445.805 236.605 445.825 236.497 445.88 236.408C445.936 236.318 446.023 236.254 446.125 236.226C446.227 236.199 446.335 236.212 446.428 236.263C446.52 236.313 446.59 236.396 446.623 236.497L446.62 236.479Z" fill="#224942"/>
<path d="M452.607 274.667L447.021 270.587C444.351 268.635 441.678 266.684 438.916 264.865L452.607 274.667Z" stroke="#224942" stroke-width="7.06" stroke-linecap="round" stroke-linejoin="round"/>
<path d="M454.588 288.763C458.977 283.778 463.224 278.672 467.331 273.446L454.588 288.763Z" stroke="#224942" stroke-width="7.06" stroke-linecap="round" stroke-linejoin="round"/>
<path d="M455.243 313.309C450.603 310.246 446.301 306.701 442.408 302.732L455.243 313.309Z" stroke="#224942" stroke-width="7.06" stroke-linecap="round" stroke-linejoin="round"/>
<path d="M456.156 322.568C456.221 322.866 456.676 322.755 456.923 322.578L465.823 316.195L456.156 322.568Z" stroke="#224942" stroke-width="8.47" stroke-linecap="round" stroke-linejoin="round"/>
<path d="M503.527 233.412C499.628 233.491 496.192 236.131 493.862 239.253C491.532 242.375 490.008 246.024 487.961 249.342C487.253 250.49 486.45 251.629 485.31 252.353C483.842 253.284 482.023 253.405 480.345 253.859C478.343 254.422 476.51 255.47 475.009 256.909C473.508 258.348 472.383 260.134 471.735 262.11C469.442 269.353 473.782 278.275 469.246 284.367C467.975 286.072 466.157 287.267 464.64 288.756C460.935 292.362 459.093 297.546 458.591 302.693C458.09 307.839 458.81 313.017 459.565 318.133C460.309 323.183 461.09 328.229 461.908 333.27C462.404 336.341 463.84 340.218 466.949 340.094C468.243 340.043 469.371 339.241 470.396 338.441C478.005 332.556 484.838 325.732 490.733 318.131C495.582 311.881 499.908 303.476 496.363 296.402C495.534 294.743 494.266 293.097 494.522 291.26C494.674 290.165 495.358 289.223 496.069 288.377C499.172 284.691 503.234 281.842 505.974 277.881C508.713 273.92 509.776 268.089 506.554 264.51C505.102 262.898 502.746 261.404 503.197 259.282C503.384 258.39 504.061 257.697 504.677 257.023C509.379 251.883 517.299 233.138 503.527 233.412Z" fill="#76CAC0"/>
<path d="M504.288 243.774C501.426 247.883 498.728 252.101 496.194 256.428C493.66 260.755 491.284 265.161 489.067 269.647C486.859 274.14 484.775 278.688 482.847 283.318C480.92 287.947 479.14 292.621 477.503 297.353C475.865 302.086 474.345 306.859 472.982 311.683L471.986 315.304C471.665 316.514 471.358 317.728 471.044 318.939C470.73 320.151 470.454 321.372 470.157 322.59C469.86 323.808 469.596 325.029 469.314 326.249C468.225 331.139 467.288 336.059 466.505 341.008C466.304 342.245 466.128 343.484 465.937 344.722C465.746 345.96 465.596 347.204 465.425 348.446L464.983 352.177L464.594 355.914V355.923C464.578 356.037 464.518 356.14 464.427 356.211C464.337 356.282 464.222 356.316 464.108 356.305C463.993 356.295 463.887 356.241 463.811 356.155C463.735 356.068 463.695 355.956 463.699 355.841L464.002 352.078L464.383 348.325C464.531 347.076 464.669 345.824 464.826 344.572C464.983 343.32 465.154 342.076 465.338 340.831C466.072 335.85 466.963 330.895 468.011 325.966C468.282 324.736 468.54 323.504 468.825 322.278C469.11 321.051 469.401 319.827 469.705 318.605C470.009 317.384 470.321 316.164 470.642 314.946L471.633 311.301C472.997 306.453 474.501 301.647 476.145 296.884C477.811 292.132 479.622 287.433 481.578 282.789C483.538 278.149 485.636 273.567 487.922 269.079C490.208 264.59 492.634 260.172 495.24 255.863C497.847 251.554 500.634 247.353 503.621 243.298C503.685 243.209 503.781 243.149 503.889 243.132C503.997 243.114 504.107 243.14 504.196 243.204C504.285 243.268 504.345 243.364 504.362 243.472C504.38 243.58 504.354 243.69 504.29 243.779L504.288 243.774Z" fill="#224942"/>
<path d="M484.49 276.533C483.646 275.421 482.839 274.294 482.047 273.137C481.249 271.973 480.522 270.763 479.869 269.512C479.543 268.884 479.243 268.243 478.96 267.596C478.82 267.272 478.685 266.946 478.555 266.619C478.421 266.293 478.301 265.962 478.178 265.633C477.694 264.312 477.275 262.976 476.923 261.622C476.899 261.53 476.911 261.433 476.956 261.349C477.001 261.266 477.076 261.202 477.166 261.172C477.256 261.142 477.354 261.147 477.441 261.186C477.527 261.225 477.596 261.296 477.632 261.383L479.219 265.225C479.493 265.858 479.753 266.494 480.046 267.115C480.184 267.429 480.335 267.736 480.48 268.047C480.625 268.357 480.78 268.662 480.937 268.966C481.552 270.187 482.245 271.371 482.953 272.56C483.661 273.749 484.393 274.949 485.065 276.16C485.114 276.236 485.132 276.329 485.113 276.418C485.094 276.507 485.04 276.584 484.964 276.634C484.888 276.684 484.795 276.701 484.706 276.682C484.617 276.663 484.54 276.61 484.49 276.533Z" fill="#224942"/>
<path d="M482.915 282.002C484.572 281.368 486.237 280.766 487.902 280.165L492.896 278.372L497.9 276.6C499.57 276.013 501.24 275.43 502.925 274.879C503.018 274.842 503.121 274.845 503.213 274.885C503.304 274.924 503.375 274.999 503.411 275.092C503.448 275.185 503.445 275.288 503.406 275.379C503.366 275.47 503.291 275.542 503.198 275.578C501.583 276.317 499.942 276.997 498.29 277.647C497.465 277.976 496.632 278.285 495.803 278.601C494.974 278.916 494.135 279.21 493.299 279.505C491.622 280.092 489.94 280.658 488.245 281.183C486.549 281.709 484.845 282.207 483.127 282.657C483.084 282.671 483.039 282.676 482.994 282.672C482.949 282.668 482.905 282.656 482.865 282.635C482.825 282.614 482.789 282.586 482.76 282.551C482.731 282.517 482.709 282.477 482.695 282.434C482.682 282.391 482.677 282.346 482.68 282.301C482.684 282.256 482.697 282.212 482.718 282.172C482.738 282.132 482.767 282.096 482.801 282.067C482.836 282.038 482.876 282.016 482.919 282.002H482.915Z" fill="#224942"/>
<path d="M470.949 313.636C470.219 312.442 469.553 311.217 468.929 309.97C468.305 308.723 467.735 307.449 467.185 306.163C466.918 305.518 466.662 304.868 466.409 304.216C466.157 303.565 465.925 302.908 465.703 302.246C465.254 300.924 464.85 299.586 464.524 298.229C464.505 298.137 464.52 298.041 464.567 297.96C464.613 297.879 464.689 297.819 464.778 297.79C464.867 297.762 464.964 297.767 465.049 297.806C465.134 297.845 465.202 297.914 465.239 298C465.751 299.288 466.249 300.576 466.752 301.862L467.518 303.785L467.902 304.745L468.296 305.702C468.808 306.978 469.359 308.247 469.905 309.516L471.558 313.32C471.6 313.401 471.608 313.495 471.581 313.582C471.553 313.669 471.493 313.741 471.412 313.784C471.331 313.826 471.237 313.834 471.15 313.807C471.063 313.779 470.991 313.718 470.949 313.638V313.636Z" fill="#224942"/>
<path d="M470.055 321.077L474.437 318.006C475.894 316.983 477.337 315.947 478.786 314.897L479.866 314.11L480.94 313.317L483.086 311.725L487.373 308.518C487.45 308.461 487.546 308.435 487.641 308.446C487.736 308.457 487.824 308.504 487.885 308.577C487.947 308.65 487.978 308.744 487.973 308.84C487.967 308.936 487.926 309.026 487.856 309.092C486.542 310.316 485.176 311.48 483.779 312.607C483.083 313.172 482.371 313.72 481.662 314.269C480.952 314.818 480.225 315.344 479.497 315.869C478.039 316.915 476.558 317.93 475.046 318.897C473.535 319.864 472.001 320.796 470.427 321.659C470.389 321.683 470.346 321.699 470.301 321.706C470.257 321.713 470.211 321.712 470.167 321.702C470.123 321.692 470.082 321.673 470.045 321.647C470.009 321.62 469.977 321.587 469.954 321.549C469.93 321.51 469.914 321.468 469.906 321.423C469.899 321.379 469.9 321.333 469.911 321.289C469.921 321.245 469.94 321.204 469.966 321.167C469.992 321.13 470.025 321.099 470.064 321.075L470.055 321.077Z" fill="#224942"/>
<path d="M478.289 362.27L471.679 427.496C459.2 430.331 446.246 430.353 433.757 427.559L433.479 427.496L427.567 369.838L426.864 362.274L478.289 362.27Z" fill="#D1334A"/>
<path d="M478.289 362.27L471.679 427.496C468.639 428.188 465.564 428.713 462.467 429.069C472.957 344.98 427.565 369.834 427.565 369.834L426.862 362.27H478.289Z" fill="#BA2542"/>
<path d="M481.616 349.415V358.884C481.616 359.329 481.528 359.769 481.358 360.18C481.188 360.591 480.938 360.964 480.624 361.278C480.31 361.592 479.936 361.842 479.525 362.012C479.115 362.182 478.674 362.269 478.23 362.269L459.67 362.973C454.941 363.151 450.21 363.151 445.477 362.973L426.909 362.269C426.464 362.269 426.024 362.182 425.613 362.012C425.202 361.842 424.829 361.592 424.514 361.278C424.2 360.964 423.95 360.591 423.78 360.18C423.61 359.769 423.522 359.329 423.522 358.884V349.415C423.522 348.97 423.61 348.53 423.78 348.119C423.95 347.708 424.199 347.335 424.514 347.02C424.828 346.706 425.202 346.456 425.613 346.286C426.023 346.116 426.464 346.029 426.909 346.029L445.624 346.733C450.352 346.911 455.083 346.911 459.817 346.733L478.23 346.032C478.674 346.032 479.114 346.119 479.525 346.289C479.936 346.459 480.309 346.708 480.623 347.022C480.938 347.336 481.187 347.709 481.358 348.12C481.528 348.53 481.616 348.971 481.616 349.415Z" fill="#902332"/>
<path d="M481.616 349.415V354.43C481.616 354.875 481.529 355.315 481.359 355.726C481.189 356.137 480.939 356.511 480.625 356.826C480.31 357.14 479.937 357.39 479.526 357.56C479.115 357.73 478.675 357.818 478.23 357.818L459.67 358.521C454.941 358.699 450.21 358.699 445.477 358.521L426.909 357.818C426.011 357.818 425.149 357.461 424.514 356.826C423.879 356.191 423.522 355.33 423.522 354.432V349.417C423.522 348.972 423.61 348.531 423.78 348.12C423.95 347.71 424.199 347.336 424.514 347.022C424.828 346.707 425.202 346.458 425.613 346.288C426.023 346.118 426.464 346.03 426.909 346.03L445.624 346.735C450.352 346.912 455.083 346.912 459.817 346.735L478.23 346.034C479.127 346.033 479.988 346.389 480.623 347.023C481.258 347.657 481.615 348.518 481.616 349.415Z" fill="#D1334A"/>
<path d="M167.761 121.025C189.8 121.025 207.665 103.159 207.665 81.1209C207.665 59.0827 189.8 41.2172 167.761 41.2172C145.723 41.2172 127.858 59.0827 127.858 81.1209C127.858 103.159 145.723 121.025 167.761 121.025Z" fill="#FFDE70"/>
<path d="M167.761 114.897C186.415 114.897 201.538 99.7749 201.538 81.1208C201.538 62.4667 186.415 47.3446 167.761 47.3446C149.107 47.3446 133.985 62.4667 133.985 81.1208C133.985 99.7749 149.107 114.897 167.761 114.897Z" fill="#FBCB52"/>
<path d="M134.213 77.2485L158.217 48.7144C151.858 50.5916 146.192 54.2978 141.924 59.3715C137.656 64.4451 134.974 70.6622 134.213 77.2485Z" fill="#FBE797"/>
<path d="M169.607 47.3992L134.85 88.7085C135.406 91.1332 136.229 93.4887 137.305 95.7316L176.944 48.6172C174.551 47.9407 172.09 47.5322 169.607 47.3992Z" fill="#FBE797"/>
<path d="M167.596 47.3497C148.94 47.4418 133.893 62.6394 133.99 81.2965C134.087 99.9536 149.278 114.999 167.937 114.902C186.596 114.805 201.64 99.6141 201.543 80.9553C201.445 62.2965 186.25 47.2525 167.596 47.3497ZM167.915 112.343C150.668 112.427 136.619 98.5156 136.527 81.2692C136.506 77.1678 137.293 73.1025 138.844 69.3053C140.394 65.5082 142.677 62.0537 145.563 59.139C148.448 56.2243 151.88 53.9065 155.661 52.318C159.442 50.7296 163.5 49.9016 167.601 49.8812C184.847 49.7976 198.899 63.709 198.989 80.957C199.079 98.2051 185.161 112.263 167.915 112.343Z" fill="#E2B433"/>
<path d="M349.88 211.222L348.908 213.892L347.082 218.909L342.678 228.182L333.139 227.372L324.565 218.21L324.468 206.098L336.931 203.49L338.277 203.094L338.333 203.079C340.458 202.579 342.645 202.396 344.824 202.536C345.027 202.546 345.235 202.563 345.445 202.582L349.88 211.222Z" fill="#F5AE97"/>
<path d="M338.28 212.638C338.28 212.638 341.18 209.636 345.274 209.516C345.274 209.516 348.57 213.846 353.06 213.636C353.06 213.636 348.474 221 352.215 223.53C355.956 226.06 347.898 227.865 347.898 227.865L338.623 226.27L335.138 223.29L338.28 212.638Z" fill="#ED856E"/>
<path d="M143.92 115.219C143.945 115.361 143.98 115.5 144.024 115.636C144.27 116.216 144.546 116.799 144.848 117.384C148.826 125.079 156.192 128.907 164.701 130.542C166.669 130.919 167.492 133.211 168.94 135.296C169.034 135.431 169.131 135.564 169.23 135.697C169.23 135.697 169.95 137.082 171.217 139.351L187.234 129.914L186.799 129.3L185.946 127.916C184.784 124.769 182.916 122.458 180.265 121.101C177.109 119.426 171.357 118.87 168.774 118.897L157.526 119.082C149.307 117.524 149.036 113.879 147.13 114.447C146.567 113.556 145.885 113.181 145.29 113.181C144.401 113.178 143.71 114.015 143.92 115.219Z" fill="#80351D"/>
<path d="M143.922 115.223C143.946 115.364 143.981 115.503 144.026 115.639C144.272 116.221 144.548 116.804 144.85 117.389C148.828 125.086 156.194 128.911 164.703 130.547C166.673 130.925 167.495 133.216 168.942 135.303C168.92 135.154 168.106 130.417 163.863 129.637C159.554 128.844 148.449 125.618 143.922 115.223Z" fill="#ED856E"/>
<path d="M34.8059 309.201L85.6408 356.929L89.1327 352.153L89.5285 351.61L111.602 317.913L73.9403 315.964L66.4464 312.077C65.6367 311.657 64.8173 311.271 63.9882 310.917C57.366 308.08 50.198 307.312 43.006 307.942C42.7092 307.966 42.4158 307.993 42.1207 308.025C39.6872 308.281 37.2709 308.68 34.8844 309.219C34.8707 309.222 34.8566 309.222 34.8431 309.219C34.8295 309.216 34.8168 309.209 34.8059 309.201Z" fill="#D1334A"/>
<path d="M34.8059 309.201L57.9136 330.896C60.3952 328.258 62.2347 325.083 63.2889 321.618C64.3431 318.153 64.5835 314.492 63.9916 310.919C57.0965 307.966 49.6128 307.254 42.1326 308.027C39.6991 308.283 37.2829 308.681 34.8963 309.221C34.8808 309.226 34.8643 309.226 34.8485 309.223C34.8326 309.219 34.818 309.212 34.8059 309.201Z" fill="white"/>
<path d="M34.8059 309.201L85.6408 356.929L89.1327 352.153L89.5285 351.61L43.0146 307.94C42.7177 307.964 42.4243 307.991 42.1292 308.024C39.6958 308.279 37.2795 308.678 34.8929 309.218C34.8781 309.222 34.8625 309.223 34.8473 309.22C34.8322 309.217 34.818 309.21 34.8059 309.201Z" fill="#902332"/>
<path d="M338.347 230.021L302.575 225.019L298.139 224.397H298.127L294.63 223.909L289.586 223.203C287.435 222.901 285.387 222.087 283.616 220.828C281.846 219.569 280.404 217.903 279.412 215.97C274.873 207.111 266.381 194.225 264.174 194.396C261.055 194.634 253.737 257.854 253.737 257.854C250.863 261.656 247.156 264.12 242.949 265.544C218.479 273.831 177.053 246.976 183.604 243.709C191.28 239.869 206.568 199.742 206.568 199.742C197.145 207.28 188.078 197.91 180.639 184.135V184.125C169.774 164.011 162.367 134.508 162.367 134.508C177.932 134.337 192.834 125.547 192.834 125.547L200.78 168.448C200.78 168.448 209.059 157.687 215.352 149.63C221.645 141.573 237.187 141.408 237.187 141.408L259.534 148.197L267.04 153.762C269.988 155.945 272.494 158.67 274.423 161.791L291.099 188.766L291.138 188.833L295.812 196.395C296.377 197.347 297.177 198.138 298.136 198.692C299.095 199.245 300.18 199.543 301.287 199.556L304.057 199.59H304.275L340.986 200.028C330.433 208.669 338.347 230.021 338.347 230.021Z" fill="#152A52"/>
<path d="M256.236 153.863C256.236 153.863 250.588 162.482 244.901 166.684C236.834 172.643 236.17 178.756 235.164 185.278C233.639 195.182 218.617 204.948 218.617 204.948C218.617 204.948 219.059 197.605 218.864 190.169C218.794 187.535 218.646 184.88 218.368 182.555C218.321 182.172 218.282 181.79 218.25 181.409C217.528 172.936 220.017 165.314 223.368 162.237C227.12 158.786 234.531 151.807 234.531 151.807L245.126 147.02L256.236 153.863Z" fill="white"/>
<path d="M218.869 190.177C218.799 187.543 218.651 184.889 218.373 182.564C218.326 182.181 218.287 181.798 218.255 181.417C219.149 182.189 223.731 185.906 230.217 186.933C236.767 187.973 229.087 195.803 218.869 190.177Z" fill="#DBD8D7"/>
<path d="M237.699 159.255C236.699 160.766 235.563 162.181 234.304 163.484C233.043 164.787 231.638 165.93 230.309 167.158C229.021 168.319 227.89 169.643 226.943 171.095C226.044 172.536 225.314 174.077 224.77 175.686C224.16 177.484 223.709 179.331 223.42 181.208C223.399 181.295 223.412 181.387 223.456 181.465C223.501 181.543 223.573 181.601 223.659 181.627C223.703 181.639 223.748 181.642 223.792 181.637C223.837 181.631 223.88 181.617 223.919 181.595C223.958 181.573 223.992 181.543 224.019 181.508C224.047 181.472 224.067 181.432 224.079 181.388C224.608 178.098 225.522 174.811 227.235 171.926C228.118 170.459 229.202 169.123 230.455 167.956C231.759 166.72 233.163 165.594 234.434 164.325C235.874 162.883 237.165 161.3 238.287 159.599C238.531 159.231 237.946 158.89 237.699 159.258V159.255Z" fill="#D3D3D3"/>
<path d="M262.855 83.8059L256.434 101.243L253.099 110.296C233.454 151.077 209.487 126.434 209.487 126.434C225.821 120.762 228.432 84.258 241.847 76.0715C252.173 69.7734 259.046 77.7501 261.666 81.7589C262.103 82.4164 262.501 83.1001 262.855 83.8059Z" fill="#3D1216"/>
<path d="M259.261 81.5798C259.261 81.5798 251.202 70.1095 241.242 79.6692C231.281 89.2289 229.661 105.992 224.297 112.855C224.297 112.855 229.132 108.822 234.649 94.3038C240.165 79.7852 251.028 74.0825 259.261 81.5798Z" fill="#210A0C"/>
<path d="M246.443 87.929C246.443 87.929 240.409 94.285 237.015 104.522C233.62 114.759 229.258 115.414 229.258 115.414C229.258 115.414 234.666 115.566 239.457 103.092C244.249 90.6191 246.443 87.929 246.443 87.929Z" fill="#210A0C"/>
<path d="M264.179 86.4295L262.234 82.6766C262.234 82.6766 248.058 82.3951 250.534 103.722C247.854 109.889 242.332 119.943 234.647 120.439C223.071 121.18 224.91 130.589 209.489 126.441C209.489 126.441 233.456 151.084 253.101 110.305L258.196 96.4651L264.179 86.4295Z" fill="#210A0C"/>
<path d="M248.14 114.703C248.14 114.703 238.471 135.282 220.754 130.154C220.754 130.154 235.346 131.072 248.297 114.278L248.14 114.703Z" fill="#5A1F20"/>
<path d="M263.355 84.8294L256.434 101.243C254.33 100.246 252.628 98.5628 251.608 96.4699C250.587 94.377 250.31 91.9991 250.821 89.7275C251.331 87.4559 252.6 85.4258 254.418 83.971C256.236 82.5162 258.495 81.7234 260.823 81.723C261.106 81.723 261.388 81.735 261.667 81.7588C262.282 82.7526 262.846 83.7775 263.355 84.8294Z" fill="#FBCB52"/>
<path d="M256.956 144.733C256.697 143.844 257.064 142.288 257.526 140.874C257.567 140.761 257.598 140.644 257.637 140.533C258.149 139.037 258.734 137.781 258.734 137.781C259.549 138.955 262.234 139.828 262.234 139.828C274.97 144.093 282.101 119.933 282.101 119.933L283.761 114.515L287.222 103.227L271.596 94.1861L269.834 93.1626L268.128 94.6894L250.674 110.363C250.674 110.363 244.486 103.086 240.254 111.095C238.275 114.848 239.962 118.309 242.057 120.757C242.066 120.757 242.057 120.769 242.071 120.779C242.412 121.151 242.733 121.528 243.071 121.842C243.877 122.646 244.747 123.385 245.672 124.051C245.883 124.195 246.05 124.395 246.153 124.629C246.257 124.863 246.292 125.121 246.255 125.375C246.255 125.375 245.704 136.224 240.81 138.431L240.155 157.899L256.956 144.733Z" fill="#80351D"/>
<path d="M247.504 113.735C248.229 112.744 247.268 111.347 246.081 111.664C245.095 111.925 244.08 112.812 244.078 115.363C244.078 120.31 247.14 119.006 247.343 117.556C247.546 116.106 246.446 115.151 247.475 113.776L247.504 113.735Z" fill="#4A1F11"/>
<path d="M268.67 115.869C268.666 115.482 268.519 115.11 268.257 114.824C267.957 114.486 267.549 114.262 267.103 114.191C266.25 114.02 264.963 114.361 264.605 115.214C264.458 115.556 263.942 115.637 263.646 115.465C263.283 115.252 263.247 114.854 263.396 114.505C263.706 113.764 264.435 113.311 265.154 113.038C265.89 112.756 266.69 112.685 267.464 112.835C268.894 113.111 270.062 114.382 270.072 115.859C270.081 116.763 268.677 116.772 268.67 115.869Z" fill="#072C35"/>
<path d="M280.06 118.484C280.047 117.722 279.207 116.867 278.496 116.663C277.667 116.427 276.754 117.04 276.176 117.708C276.042 117.829 275.866 117.894 275.686 117.889C275.505 117.883 275.333 117.809 275.206 117.68C275.079 117.552 275.006 117.38 275.003 117.199C275 117.018 275.066 116.843 275.188 116.71C276.077 115.687 277.566 114.888 278.941 115.332C280.238 115.752 281.444 117.069 281.466 118.474C281.467 118.566 281.449 118.658 281.415 118.743C281.38 118.828 281.329 118.906 281.264 118.971C281.2 119.037 281.123 119.089 281.038 119.125C280.953 119.161 280.862 119.18 280.77 119.18C280.678 119.181 280.587 119.164 280.501 119.129C280.416 119.094 280.338 119.043 280.273 118.979C280.207 118.914 280.155 118.837 280.119 118.752C280.083 118.668 280.064 118.577 280.064 118.484H280.06Z" fill="#072C35"/>
<path d="M278.312 122.471C278.596 121.408 278.286 120.401 277.619 120.223C276.952 120.045 276.18 120.762 275.896 121.825C275.612 122.888 275.922 123.894 276.589 124.073C277.256 124.251 278.028 123.534 278.312 122.471Z" fill="#072C35"/>
<path d="M268.609 118.223C268.911 117.097 268.583 116.031 267.877 115.842C267.17 115.653 266.353 116.412 266.051 117.538C265.75 118.664 266.078 119.73 266.784 119.919C267.49 120.108 268.308 119.349 268.609 118.223Z" fill="#072C35"/>
<path d="M271.504 131.386L263.86 128.232C263.75 128.186 263.632 128.165 263.514 128.172C263.395 128.178 263.28 128.211 263.176 128.268C263.072 128.325 262.982 128.405 262.913 128.501C262.844 128.598 262.798 128.709 262.778 128.825C262.48 130.656 262.266 134.567 265.562 135.678C268.858 136.788 271.021 133.962 271.886 132.514C271.943 132.416 271.978 132.308 271.99 132.195C272.001 132.083 271.988 131.97 271.952 131.863C271.916 131.756 271.857 131.658 271.78 131.576C271.702 131.493 271.608 131.429 271.504 131.386Z" fill="#4A1F11"/>
<path d="M243.069 121.852C243.876 122.654 244.748 123.388 245.675 124.047C245.675 124.047 248.503 125.071 249.698 122.475C249.435 122.672 246.651 124.656 243.069 121.852Z" fill="#4A1F11"/>
<path d="M285.347 113.294C284.802 114.069 284.178 114.786 283.484 115.433C283.484 115.433 271.668 109.633 271.185 101.946C271.185 101.946 270.013 113.56 251.835 114.612L251.37 112.896C250.733 110.607 249.111 108.654 246.881 107.825C244.747 107.042 242.146 107.228 240.254 111.1C240.254 111.1 237.617 82.4259 259.513 86.4381C260.178 85.9452 260.89 85.5206 261.639 85.1706H261.649C264.656 83.6931 268.081 83.2978 271.345 84.0516C276.026 85.1348 281.581 88.8536 286.99 98.2939C286.99 98.2956 289.96 106.714 285.347 113.294Z" fill="#5A1F20"/>
<path d="M285.347 113.294C284.802 114.069 284.178 114.786 283.484 115.433C283.484 115.433 271.667 109.633 271.185 101.946C271.185 101.946 270.013 113.56 251.835 114.612L251.369 112.896C250.733 110.607 249.111 108.654 246.881 107.825C244.747 107.042 242.146 107.227 240.254 111.1C245.488 98.8516 252.425 110.929 252.425 110.929C265.269 113.092 271.691 98.3552 271.691 98.3552C272.251 107.606 285.347 113.294 285.347 113.294Z" fill="#351314"/>
<path d="M267.246 99.2866C267.246 99.2866 263.966 108.618 253.033 106.361C253.033 106.361 261.987 105.286 267.246 99.2866Z" fill="#351314"/>
<path d="M275.442 98.4252C275.442 98.4252 277.257 107.019 285.722 110.179C285.722 110.179 280.152 106.373 275.442 98.4252Z" fill="#351314"/>
<path d="M265.322 91.293C262.065 87.2791 259.522 86.4381 259.522 86.4381C260.186 85.9452 260.898 85.5206 261.647 85.1706H261.657C264.665 83.6931 268.089 83.2978 271.354 84.0516C263.408 83.2362 265.322 91.293 265.322 91.293Z" fill="#351314"/>
<path d="M258.734 137.788C258.734 137.788 258.15 139.044 257.637 140.54C257.598 140.644 257.567 140.761 257.526 140.881C252.874 136.978 253.821 129.902 253.821 129.902C254.351 133.483 258.734 137.788 258.734 137.788Z" fill="#4A1F11"/>
<path d="M246.359 150.354L240.155 157.904L246.501 154.686C246.501 154.686 249.612 152.428 249.646 152.324C249.681 152.22 246.359 150.354 246.359 150.354Z" fill="#902332"/>
<path d="M246.359 150.354L249.698 163.339C249.698 163.339 259.206 150.057 259.528 148.187C259.851 146.317 257.014 142.768 257.014 142.768C257.014 142.768 251.971 146.935 246.359 150.354Z" fill="#D1334A"/>
<path d="M240.155 157.904L241.076 148.631L238.62 149.618L240.155 157.904Z" fill="#902332"/>
<path d="M240.81 138.436L237.184 141.396L232.054 155.234L241.076 148.631L240.81 138.436Z" fill="#D1334A"/>
<path d="M207.887 184.176C208.782 189.449 206.573 199.73 206.573 199.73C197.15 207.268 188.083 197.898 180.644 184.123C188.017 197.5 204.306 198.201 205.103 181.092C205.893 164.116 217.938 156.442 218.127 156.322C205.988 167.665 206.989 178.903 207.887 184.176Z" fill="#071935"/>
<path d="M208.786 253.818C208.786 253.818 173.416 229.479 146.31 224.218C119.204 218.957 67.2261 304.322 67.2261 304.322C67.2261 304.322 81.3609 336.768 100.714 339.357C120.067 341.947 152.627 276.941 152.627 276.941L200.105 292.678L208.786 253.818Z" fill="#152A52"/>
<path d="M351.026 290.365C373.064 290.365 390.93 272.499 390.93 250.461C390.93 228.423 373.064 210.557 351.026 210.557C328.988 210.557 311.123 228.423 311.123 250.461C311.123 272.499 328.988 290.365 351.026 290.365Z" fill="#FFDE70"/>
<path d="M351.026 284.237C369.68 284.237 384.802 269.115 384.802 250.461C384.802 231.807 369.68 216.685 351.026 216.685C332.372 216.685 317.25 231.807 317.25 250.461C317.25 269.115 332.372 284.237 351.026 284.237Z" fill="#FBCB52"/>
<path d="M317.479 246.595L341.482 218.068C335.124 219.945 329.459 223.65 325.191 228.722C320.923 233.795 318.241 240.01 317.479 246.595Z" fill="#FBE797"/>
<path d="M352.872 216.743L318.115 258.054C318.67 260.478 319.494 262.833 320.57 265.075L360.211 217.962C357.817 217.286 355.356 216.877 352.872 216.743Z" fill="#FBE797"/>
<path d="M350.861 216.684C332.207 216.777 317.158 231.972 317.255 250.631C317.353 269.29 332.543 284.332 351.202 284.237C369.861 284.141 384.903 268.947 384.808 250.29C384.712 231.633 369.515 216.594 350.861 216.684ZM351.18 281.69C347.078 281.711 343.013 280.924 339.216 279.373C335.418 277.823 331.964 275.539 329.049 272.654C326.134 269.768 323.817 266.336 322.228 262.555C320.64 258.773 319.812 254.716 319.792 250.614C319.707 233.368 333.62 219.318 350.866 219.226C368.112 219.134 382.164 233.054 382.254 250.3C382.275 254.402 381.488 258.467 379.938 262.265C378.388 266.062 376.105 269.517 373.219 272.432C370.333 275.347 366.902 277.664 363.12 279.253C359.339 280.842 355.282 281.67 351.18 281.69Z" fill="#E2B433"/>
<path d="M351.277 275.227C350.877 275.239 350.478 275.167 350.107 275.016C349.736 274.865 349.401 274.638 349.123 274.35C348.845 274.07 348.626 273.737 348.48 273.371C348.333 273.005 348.262 272.613 348.27 272.219V269.263C346.526 269.164 344.801 268.853 343.133 268.335C341.833 267.925 340.568 267.412 339.35 266.8C338.414 266.332 337.829 265.673 337.594 264.821C337.359 264.011 337.404 263.146 337.721 262.364C338.011 261.607 338.587 260.995 339.324 260.658C340.077 260.308 340.971 260.383 342.006 260.884C343.081 261.429 344.205 261.874 345.363 262.213C346.799 262.667 348.553 262.895 350.626 262.895C352.931 262.895 354.568 262.527 355.537 261.791C356.506 261.055 356.99 260.136 356.99 259.034C356.998 258.608 356.913 258.185 356.739 257.795C356.566 257.406 356.309 257.059 355.987 256.779C355.318 256.179 354.116 255.694 352.379 255.326L346.866 254.132C340.786 252.796 337.746 249.554 337.746 244.408C337.746 241.603 338.698 239.23 340.602 237.291C342.506 235.352 345.062 234.133 348.27 233.632V230.477C348.262 230.082 348.333 229.691 348.48 229.324C348.626 228.958 348.845 228.626 349.123 228.346C349.401 228.058 349.736 227.831 350.107 227.68C350.478 227.529 350.877 227.457 351.277 227.469C351.67 227.461 352.06 227.535 352.422 227.686C352.784 227.837 353.111 228.062 353.382 228.346C353.659 228.626 353.878 228.959 354.024 229.325C354.171 229.691 354.242 230.082 354.235 230.477V233.482C355.538 233.667 356.822 233.969 358.07 234.385C359.308 234.78 360.481 235.355 361.552 236.091C362.353 236.592 362.846 237.235 363.031 238.02C363.217 238.767 363.137 239.555 362.805 240.249C362.646 240.592 362.42 240.899 362.14 241.153C361.86 241.407 361.533 241.603 361.176 241.728C360.425 242.013 359.515 241.888 358.447 241.353C357.495 240.9 356.506 240.531 355.491 240.249C354.422 239.949 353.102 239.799 351.531 239.799C349.598 239.799 348.077 240.197 346.97 240.993C345.862 241.789 345.311 242.825 345.317 244.101C345.306 244.522 345.388 244.94 345.557 245.325C345.726 245.71 345.978 246.054 346.294 246.331C346.946 246.917 348.09 247.392 349.727 247.759L355.289 248.961C358.465 249.664 360.812 250.809 362.331 252.395C363.851 253.982 364.611 256.011 364.612 258.483C364.612 261.327 363.651 263.665 361.729 265.5C359.807 267.334 357.31 268.52 354.237 269.058V272.216C354.244 272.61 354.172 273.001 354.026 273.367C353.879 273.733 353.661 274.066 353.384 274.346C353.113 274.632 352.786 274.857 352.423 275.009C352.061 275.16 351.67 275.234 351.277 275.227Z" fill="#E2B433"/>
<path d="M352.217 223.53C351.727 223.791 351.323 223.858 351.069 223.685C349.419 222.577 349.585 217.082 351.985 214.334C350.939 214.369 349.895 214.219 348.901 213.892C347.575 213.449 346.151 212.575 345.366 210.862L345.277 209.517L344.817 202.522C345.02 202.533 345.228 202.55 345.438 202.569C347.604 202.77 350.015 203.334 352.301 204.605C354.476 205.97 356.55 207.77 357.626 209.994C360.062 215.037 354.876 222.121 352.217 223.53Z" fill="#F5AE97"/>
<path d="M294.635 223.907L289.591 223.201C287.439 222.9 285.392 222.085 283.621 220.826C281.851 219.567 280.409 217.901 279.417 215.968C274.878 207.11 266.386 194.223 264.179 194.394C261.06 194.633 253.742 257.852 253.742 257.852C250.868 261.655 247.161 264.118 242.954 265.542C242.954 265.542 255.236 215.82 255.654 201.088C256.072 186.356 262.162 180.263 269.745 193.295C276.747 205.313 281.37 220.871 294.635 223.907Z" fill="#071935"/>
<path d="M304.057 199.592C294.845 199.481 294.006 207.872 290.63 206.951C287.254 206.03 292.933 199.051 294.313 197.748C295.618 196.514 291.584 189.583 291.138 188.835L295.812 196.397C296.377 197.349 297.177 198.14 298.136 198.693C299.095 199.247 300.18 199.545 301.286 199.558L304.057 199.592Z" fill="#071935"/>
<path d="M255.092 161.302C254.775 164.748 254.549 168.211 254.45 171.67C254.416 172.864 254.401 174.058 254.428 175.24C254.438 175.733 254.46 176.225 254.491 176.718C254.549 177.213 254.562 177.712 254.529 178.209C254.548 178.038 254.529 178.234 254.519 178.258C254.507 178.314 254.496 178.371 254.485 178.429C254.459 178.538 254.43 178.645 254.394 178.753C254.377 178.804 254.256 179.094 254.326 178.947C254.28 179.045 254.234 179.142 254.181 179.236C254.128 179.329 254.072 179.422 254.01 179.512C253.983 179.555 253.794 179.802 253.894 179.683C253.744 179.867 253.583 180.042 253.412 180.206C253.249 180.363 253.07 180.508 252.9 180.65C253.023 180.551 252.871 180.67 252.855 180.682L252.714 180.786C252.603 180.866 252.49 180.943 252.373 181.02C251.97 181.289 251.552 181.532 251.134 181.777C249.447 182.746 247.451 183.705 246.504 185.506C245.761 186.922 245.551 188.63 245.46 190.203C245.414 191.021 245.46 191.842 245.367 192.657C245.126 194.796 244.2 196.8 242.728 198.37C241.858 199.288 240.819 200.061 239.865 200.89C237.818 202.666 235.836 204.499 233.927 206.415C231.919 208.401 230.046 210.521 228.323 212.759C226.889 214.653 225.538 216.714 224.806 218.994C224.664 219.435 224.555 219.885 224.482 220.342C224.425 220.705 224.575 221.075 224.959 221.181C225.283 221.27 225.741 221.07 225.799 220.705C225.875 220.228 225.989 219.757 226.14 219.298C226.217 219.062 226.31 218.827 226.394 218.597C226.418 218.537 226.442 218.477 226.467 218.426C226.413 218.558 226.496 218.36 226.5 218.351C226.561 218.21 226.626 218.07 226.691 217.93C227.206 216.865 227.805 215.842 228.48 214.871C230.016 212.621 231.832 210.559 233.731 208.577C235.63 206.594 237.654 204.673 239.729 202.833C240.644 202.017 241.571 201.215 242.509 200.424C243.657 199.492 244.623 198.356 245.358 197.074C246.107 195.712 246.571 194.212 246.723 192.666C246.808 191.85 246.771 191.03 246.817 190.211C246.858 189.375 246.972 188.544 247.158 187.727C247.244 187.361 247.351 187.001 247.48 186.648C247.559 186.427 247.659 186.214 247.78 186.013C247.837 185.919 247.9 185.829 247.96 185.738C247.975 185.718 248.086 185.568 247.985 185.701C248.018 185.656 248.053 185.614 248.089 185.573C248.245 185.388 248.412 185.213 248.591 185.049C248.675 184.973 248.76 184.898 248.847 184.824L248.981 184.715C248.997 184.703 249.152 184.585 249.026 184.679C249.23 184.525 249.44 184.378 249.653 184.237C250.061 183.971 250.481 183.725 250.904 183.481C252.565 182.531 254.57 181.559 255.445 179.746C255.684 179.248 255.834 178.712 255.887 178.163C255.913 177.685 255.898 177.206 255.842 176.731C255.769 175.643 255.759 174.548 255.767 173.458C255.801 169.483 256.071 165.503 256.422 161.546L256.443 161.315C256.477 160.947 256.102 160.633 255.76 160.633C255.581 160.637 255.409 160.71 255.282 160.837C255.155 160.964 255.082 161.136 255.078 161.315L255.092 161.302Z" fill="#071935"/>
<path d="M226.034 152.709C226.015 152.732 225.998 152.755 225.979 152.779L225.921 152.856C225.803 153.011 226.011 152.74 225.921 152.866C225.72 153.125 225.517 153.381 225.312 153.636C224.63 154.483 223.921 155.312 223.187 156.123C222.207 157.208 221.192 158.262 220.13 159.267C219.544 159.819 218.935 160.359 218.325 160.877C217.765 161.346 217.153 161.764 216.631 162.274C214.887 163.98 214.347 166.423 214.336 168.786C214.349 169.902 214.421 171.017 214.555 172.126C214.675 173.018 214.743 173.916 214.758 174.816C214.758 174.986 214.746 175.143 214.732 175.307C214.732 175.357 214.693 175.493 214.732 175.287C214.732 175.326 214.72 175.365 214.712 175.403C214.693 175.486 214.676 175.573 214.65 175.652C214.635 175.703 214.551 175.879 214.65 175.693C214.606 175.78 214.567 175.863 214.521 175.954C214.417 176.131 214.304 176.302 214.18 176.465C214.164 176.488 214.053 176.627 214.157 176.496C214.125 176.539 214.091 176.581 214.057 176.622C213.987 176.709 213.913 176.793 213.842 176.876C213.69 177.047 213.533 177.218 213.376 177.388C213.035 177.746 212.704 178.098 212.383 178.468C211.663 179.295 211.041 180.196 210.677 181.242C210.265 182.455 210.323 183.714 210.584 184.95C210.652 185.274 210.708 185.602 210.754 185.93L210.795 186.209C210.824 186.409 210.783 186.114 210.81 186.32C210.838 186.527 210.865 186.769 210.891 186.994C210.996 187.949 211.061 188.908 211.123 189.867C211.261 192.27 211.293 194.681 211.232 197.088C211.172 199.74 211.013 202.395 210.71 205.03C210.46 207.438 210.011 209.82 209.367 212.154C209.224 212.647 209.067 213.136 208.893 213.621C208.869 213.707 208.863 213.798 208.874 213.887C208.885 213.976 208.913 214.062 208.957 214.14C209.002 214.218 209.061 214.286 209.132 214.341C209.202 214.397 209.283 214.437 209.37 214.461C209.456 214.485 209.547 214.492 209.636 214.48C209.725 214.469 209.811 214.441 209.889 214.397C209.967 214.352 210.035 214.293 210.09 214.222C210.145 214.152 210.186 214.071 210.21 213.984C211 211.787 211.457 209.474 211.795 207.161C212.172 204.526 212.417 201.873 212.527 199.213C212.64 196.684 212.654 194.151 212.567 191.615C212.517 189.651 212.36 187.691 212.097 185.744C211.974 184.891 211.73 184.058 211.726 183.205C211.714 182.657 211.804 182.112 211.991 181.597C212.052 181.397 212.134 181.203 212.235 181.02C212.362 180.768 212.506 180.524 212.665 180.29C212.916 179.917 213.197 179.564 213.504 179.236C213.826 178.876 214.162 178.529 214.49 178.173C215.073 177.542 215.694 176.846 215.955 176.008C216.182 175.281 216.126 174.459 216.061 173.712C215.981 172.689 215.846 171.682 215.766 170.665C215.658 169.535 215.658 168.397 215.766 167.267C215.785 167.097 215.766 167.197 215.798 167.022C215.819 166.88 215.844 166.74 215.872 166.599C215.926 166.319 215.995 166.043 216.076 165.77C216.221 165.253 216.439 164.761 216.723 164.306C217.011 163.823 217.376 163.389 217.803 163.023C218.349 162.537 218.947 162.112 219.509 161.638C220.68 160.632 221.801 159.568 222.866 158.45C224.3 156.959 225.655 155.394 226.924 153.76C227.018 153.637 227.113 153.515 227.206 153.39C227.427 153.095 227.253 152.628 226.962 152.457C226.62 152.254 226.249 152.406 226.028 152.703L226.034 152.709Z" fill="#071935"/>
<path d="M213.984 218.082C213.002 221.134 211.863 224.132 210.572 227.067C209.267 230.017 207.811 232.899 206.21 235.7C205.3 237.284 204.348 238.842 203.354 240.374C203.309 240.451 203.279 240.537 203.267 240.626C203.254 240.715 203.26 240.805 203.282 240.892C203.305 240.979 203.345 241.06 203.399 241.132C203.453 241.203 203.521 241.264 203.598 241.309C203.756 241.396 203.941 241.419 204.115 241.373C204.289 241.328 204.439 241.217 204.533 241.063C206.308 238.338 207.941 235.523 209.426 232.629C210.922 229.705 212.268 226.706 213.458 223.645C214.126 221.931 214.742 220.198 215.306 218.445C215.329 218.359 215.336 218.268 215.325 218.179C215.314 218.09 215.285 218.004 215.241 217.926C215.196 217.848 215.137 217.78 215.066 217.725C214.995 217.67 214.915 217.629 214.828 217.606C214.654 217.562 214.469 217.587 214.313 217.675C214.156 217.764 214.04 217.91 213.989 218.082H213.984Z" fill="#071935"/>
<path d="M352.217 223.53C351.727 223.791 351.323 223.858 351.069 223.685C349.419 222.577 349.585 217.082 351.985 214.334C350.939 214.369 349.895 214.219 348.901 213.892C347.575 213.449 346.151 212.575 345.366 210.862L345.277 209.516C345.277 209.516 348.571 213.848 353.065 213.636C353.065 213.636 348.479 221.007 352.217 223.53Z" fill="#ED856E"/>
<path d="M447.532 417.897V247.776C447.532 239.268 440.636 232.372 432.128 232.372L93.1157 232.372C84.6083 232.372 77.7116 239.268 77.7116 247.776V417.897C77.7116 426.404 84.6083 433.301 93.1157 433.301H432.128C440.636 433.301 447.532 426.404 447.532 417.897Z" fill="#E2B433"/>
<path d="M432.129 237.092H93.1143C87.2147 237.092 82.4321 241.874 82.4321 247.774V417.897C82.4321 423.797 87.2147 428.579 93.1143 428.579H432.129C438.028 428.579 442.811 423.797 442.811 417.897V247.774C442.811 241.874 438.028 237.092 432.129 237.092Z" fill="#FBCB52"/>
<path d="M93.1159 421.971C92.0357 421.97 91.0001 421.54 90.2364 420.777C89.4726 420.013 89.0431 418.977 89.0422 417.897V247.776C89.0431 246.696 89.4726 245.66 90.2364 244.896C91.0001 244.133 92.0357 243.703 93.1159 243.702H244.484C245.859 243.704 247.178 244.25 248.15 245.223C249.122 246.195 249.669 247.513 249.67 248.888V416.785C249.669 418.16 249.122 419.478 248.15 420.45C247.178 421.423 245.859 421.969 244.484 421.971H93.1159Z" fill="#BF8C0D"/>
<path d="M246.845 248.888V416.785C246.845 417.094 246.785 417.4 246.666 417.686C246.548 417.971 246.375 418.231 246.156 418.449C245.937 418.668 245.678 418.841 245.392 418.96C245.107 419.078 244.8 419.139 244.491 419.139H93.1159C92.7867 419.138 92.471 419.007 92.2382 418.775C92.0055 418.542 91.8745 418.226 91.874 417.897V247.776C91.8745 247.446 92.0055 247.131 92.2382 246.898C92.471 246.665 92.7867 246.534 93.1159 246.534H244.484C244.794 246.533 245.101 246.593 245.387 246.711C245.674 246.829 245.934 247.002 246.153 247.221C246.373 247.44 246.547 247.699 246.666 247.985C246.784 248.272 246.845 248.578 246.845 248.888Z" fill="#E2B433"/>
<path d="M246.845 282.99V416.785C246.845 417.094 246.785 417.4 246.666 417.686C246.548 417.971 246.375 418.231 246.156 418.449C245.937 418.668 245.678 418.841 245.392 418.96C245.107 419.078 244.8 419.139 244.491 419.139H93.1159C92.7867 419.138 92.471 419.007 92.2382 418.775C92.0055 418.542 91.8745 418.226 91.874 417.897V281.878C91.8749 281.549 92.0061 281.234 92.2389 281.001C92.4716 280.769 92.7869 280.638 93.1159 280.638H244.484C244.794 280.637 245.101 280.697 245.387 280.815C245.673 280.933 245.934 281.106 246.153 281.324C246.372 281.543 246.546 281.802 246.665 282.088C246.784 282.374 246.845 282.681 246.845 282.99Z" fill="#E2481E"/>
<path d="M246.845 290.037V416.783C246.845 417.092 246.785 417.398 246.666 417.684C246.548 417.97 246.375 418.229 246.156 418.448C245.937 418.666 245.678 418.84 245.392 418.958C245.107 419.076 244.8 419.137 244.491 419.137H93.1159C92.7867 419.137 92.471 419.006 92.2382 418.773C92.0055 418.54 91.8745 418.225 91.874 417.895V288.932C91.8745 288.602 92.0055 288.287 92.2382 288.054C92.471 287.821 92.7867 287.69 93.1159 287.69H244.484C244.794 287.689 245.1 287.749 245.386 287.866C245.672 287.984 245.932 288.156 246.151 288.374C246.37 288.592 246.544 288.851 246.664 289.137C246.783 289.422 246.845 289.728 246.845 290.037Z" fill="#FF6C3C"/>
<path d="M246.845 298.078V416.785C246.845 417.094 246.785 417.4 246.666 417.686C246.548 417.971 246.375 418.231 246.156 418.449C245.937 418.668 245.678 418.841 245.392 418.96C245.107 419.078 244.8 419.139 244.491 419.139H93.1159C92.7867 419.138 92.471 419.007 92.2382 418.775C92.0055 418.542 91.8745 418.226 91.874 417.897V296.966C91.8745 296.637 92.0055 296.322 92.2384 296.089C92.4712 295.857 92.7868 295.726 93.1159 295.726H244.484C244.794 295.725 245.101 295.785 245.387 295.903C245.673 296.021 245.934 296.194 246.153 296.413C246.372 296.631 246.546 296.891 246.665 297.177C246.784 297.462 246.845 297.769 246.845 298.078Z" fill="#FBE797"/>
<path d="M238.273 300.446H100.439C98.3164 300.446 96.5957 302.167 96.5957 304.29V410.574C96.5957 412.696 98.3164 414.417 100.439 414.417H238.273C240.396 414.417 242.117 412.696 242.117 410.574V304.29C242.117 302.167 240.396 300.446 238.273 300.446Z" stroke="#E2B433" stroke-width="5" stroke-miterlimit="10" stroke-dasharray="12.01 12.01"/>
<path d="M237.397 310.582V404.281C237.397 405.717 236.826 407.095 235.81 408.11C234.794 409.126 233.417 409.697 231.98 409.697H106.732C105.296 409.696 103.919 409.125 102.903 408.109C101.888 407.094 101.317 405.717 101.316 404.281V310.582C101.316 309.146 101.887 307.769 102.903 306.754C103.919 305.738 105.296 305.168 106.732 305.168H231.98C233.417 305.168 234.794 305.738 235.81 306.754C236.825 307.769 237.396 309.146 237.397 310.582Z" fill="#59A3F9"/>
<path d="M237.396 310.583V404.281C237.396 405.717 236.826 407.095 235.81 408.111C234.794 409.126 233.417 409.697 231.98 409.697H106.732C105.96 409.698 105.198 409.534 104.495 409.215C103.793 408.897 103.167 408.431 102.66 407.85L235.639 306.591C236.194 307.097 236.636 307.714 236.939 308.401C237.241 309.089 237.397 309.832 237.396 310.583Z" fill="#3370DC"/>
<path d="M433.368 247.776V417.897C433.368 418.226 433.238 418.542 433.005 418.774C432.773 419.007 432.457 419.138 432.128 419.139H274.284C273.081 419.139 271.927 418.661 271.076 417.81C270.225 416.959 269.747 415.805 269.747 414.601V251.071C269.747 249.868 270.225 248.714 271.076 247.863C271.927 247.012 273.081 246.534 274.284 246.534H432.128C432.457 246.534 432.773 246.665 433.005 246.898C433.238 247.131 433.368 247.447 433.368 247.776Z" fill="#E2B433"/>
<path d="M433.368 247.776V417.897C433.368 418.226 433.238 418.542 433.005 418.774C432.773 419.007 432.457 419.138 432.128 419.139H274.284C273.081 419.139 271.927 418.661 271.076 417.81C270.225 416.959 269.747 415.805 269.747 414.601V390.354C397.335 402.935 432.128 246.534 432.128 246.534C432.457 246.534 432.773 246.665 433.005 246.898C433.238 247.131 433.368 247.447 433.368 247.776Z" fill="#D3A32A"/>
<path d="M425.133 251.256H277.984C276.043 251.256 274.469 252.83 274.469 254.771V410.903C274.469 412.845 276.043 414.419 277.984 414.419H425.133C427.074 414.419 428.648 412.845 428.648 410.903V254.771C428.648 252.83 427.074 251.256 425.133 251.256Z" stroke="#A8780C" stroke-width="4" stroke-miterlimit="10" stroke-dasharray="11.96 11.96"/>
<path d="M256.739 245.623V415.753C256.739 418.049 256.695 420.359 256.739 422.65C256.739 422.749 256.739 422.849 256.739 422.95C256.739 424.267 258.786 424.27 258.786 422.95V252.822C258.786 250.524 258.831 248.216 258.786 245.925C258.786 245.824 258.786 245.724 258.786 245.623C258.786 244.306 256.739 244.304 256.739 245.623Z" fill="#E2B433"/>
<path d="M132.818 348.748C141.605 348.748 148.729 341.624 148.729 332.837C148.729 324.05 141.605 316.927 132.818 316.927C124.031 316.927 116.907 324.05 116.907 332.837C116.907 341.624 124.031 348.748 132.818 348.748Z" fill="#3370DC"/>
<path d="M226.216 321.461H159.28C158.177 321.461 157.282 322.355 157.282 323.458C157.282 324.562 158.177 325.456 159.28 325.456H226.216C227.32 325.456 228.214 324.562 228.214 323.458C228.214 322.355 227.32 321.461 226.216 321.461Z" fill="white"/>
<path d="M204.963 330.354H159.28C158.177 330.354 157.282 331.248 157.282 332.351C157.282 333.454 158.177 334.349 159.28 334.349H204.963C206.066 334.349 206.961 333.454 206.961 332.351C206.961 331.248 206.066 330.354 204.963 330.354Z" fill="white"/>
<path d="M236.508 256.832H99.8149C98.3979 256.832 97.2493 257.981 97.2493 259.398V266.684C97.2493 268.101 98.3979 269.249 99.8149 269.249H236.508C237.925 269.249 239.074 268.101 239.074 266.684V259.398C239.074 257.981 237.925 256.832 236.508 256.832Z" fill="#FBE797"/>
<path fill-rule="evenodd" clip-rule="evenodd" d="M113.339 246.534H225.374L132.063 210.902C131.583 210.717 131.053 210.71 130.569 210.882C130.085 211.053 129.677 211.392 129.42 211.837C123.119 222.986 118.052 234.682 113.339 246.534Z" fill="#339E7E"/>
<path d="M116.907 246.534H119.296C122.283 239.083 125.437 231.693 128.951 224.469C133.216 225.646 137.931 223.53 140.445 220.05L209.801 246.534H216.024L139.514 217.318L138.968 218.3C137.04 221.754 132.629 223.547 128.881 222.135L127.842 221.739C123.804 229.835 120.26 238.144 116.907 246.534Z" fill="#73D8B6"/>
<path fill-rule="evenodd" clip-rule="evenodd" d="M123.17 246.534H200.349L150.82 227.623C146.537 236.074 136.01 240.632 127.047 237.208C125.713 240.302 124.421 243.411 123.17 246.534Z" fill="#73D8B6"/>
<path d="M417.091 283.954V305.038C417.091 306.039 416.693 306.999 415.986 307.707C415.278 308.414 414.318 308.812 413.318 308.812H289.821C288.82 308.812 287.861 308.414 287.153 307.707C286.445 306.999 286.048 306.039 286.048 305.038V283.954C286.048 282.953 286.445 281.993 287.153 281.286C287.861 280.578 288.82 280.18 289.821 280.18H413.316C413.812 280.18 414.302 280.278 414.76 280.467C415.219 280.657 415.635 280.935 415.985 281.285C416.336 281.635 416.614 282.051 416.804 282.509C416.993 282.967 417.091 283.458 417.091 283.954Z" fill="#D1334A"/>
<path d="M369.133 280.175L323.188 308.807H298.223L344.169 280.175H369.133Z" fill="#ED7088"/>
<path d="M388.653 280.175L342.707 308.807H335.557L381.503 280.175H388.653Z" fill="#ED7088"/>
<path d="M393.9 280.175L347.956 308.807H344.745L390.689 280.175H393.9Z" fill="#ED7088"/>
<path opacity="0.7" d="M417.091 296.809V305.033C417.091 306.034 416.693 306.994 415.986 307.701C415.278 308.409 414.318 308.807 413.318 308.807H289.821C288.82 308.807 287.861 308.409 287.153 307.701C286.445 306.994 286.048 306.034 286.048 305.033V296.799H416.871C416.946 296.799 417.018 296.802 417.091 296.809Z" fill="#991F3C"/>
<path d="M419.595 302.971H282.459C280.874 302.971 279.59 304.255 279.59 305.84V315.511C279.59 317.095 280.874 318.38 282.459 318.38H419.595C421.18 318.38 422.465 317.095 422.465 315.511V305.84C422.465 304.255 421.18 302.971 419.595 302.971Z" fill="#BF8C0D"/>
<path d="M419.595 300.008H282.459C280.874 300.008 279.59 301.292 279.59 302.877V312.548C279.59 314.132 280.874 315.417 282.459 315.417H419.595C421.18 315.417 422.465 314.132 422.465 312.548V302.877C422.465 301.292 421.18 300.008 419.595 300.008Z" fill="#FBE797"/>
<path d="M417.091 314.448V335.533C417.091 336.533 416.693 337.493 415.986 338.201C415.278 338.908 414.318 339.306 413.318 339.306H289.821C288.82 339.306 287.861 338.908 287.153 338.201C286.445 337.493 286.048 336.533 286.048 335.533V314.448C286.048 313.447 286.445 312.487 287.153 311.78C287.861 311.072 288.82 310.675 289.821 310.675H413.316C413.812 310.674 414.302 310.772 414.76 310.961C415.219 311.151 415.635 311.429 415.985 311.779C416.336 312.13 416.614 312.546 416.804 313.004C416.993 313.461 417.091 313.952 417.091 314.448Z" fill="#73D8B6"/>
<path d="M369.133 310.675L323.188 339.306H298.223L344.169 310.675H369.133Z" fill="#339E7E"/>
<path d="M388.653 310.675L342.707 339.306H335.557L381.503 310.675H388.653Z" fill="#339E7E"/>
<path d="M393.9 310.675L347.956 339.306H344.745L390.689 310.675H393.9Z" fill="#339E7E"/>
<path opacity="0.7" d="M417.091 327.309V335.533C417.091 336.533 416.693 337.493 415.986 338.201C415.278 338.908 414.318 339.306 413.318 339.306H289.821C288.82 339.306 287.861 338.908 287.153 338.201C286.445 337.493 286.048 336.533 286.048 335.533V327.298H416.871C416.946 327.298 417.018 327.302 417.091 327.309Z" fill="#991F3C"/>
<path d="M419.595 332.532H282.459C280.874 332.532 279.59 333.816 279.59 335.401V345.072C279.59 346.656 280.874 347.941 282.459 347.941H419.595C421.18 347.941 422.465 346.656 422.465 345.072V335.401C422.465 333.816 421.18 332.532 419.595 332.532Z" fill="#BF8C0D"/>
<path d="M419.595 329.571H282.459C280.874 329.571 279.59 330.855 279.59 332.44V342.11C279.59 343.695 280.874 344.98 282.459 344.98H419.595C421.18 344.98 422.465 343.695 422.465 342.11V332.44C422.465 330.855 421.18 329.571 419.595 329.571Z" fill="#FBE797"/>
<path d="M181.653 79.7175C182.677 79.7175 183.507 78.8918 183.507 77.8753C183.507 76.8581 182.676 76.033 181.653 76.033H179.619L179.618 65.98C179.618 64.9628 178.787 64.1378 177.764 64.1378C176.74 64.1378 175.909 64.9635 175.909 65.98V76.033L165.775 76.0324L157.999 64.9274C157.536 64.2668 156.694 63.9803 155.922 64.2219C155.148 64.4622 154.623 65.1742 154.623 65.9794V76.0324H152.589C151.565 76.0324 150.734 76.8581 150.734 77.8746C150.734 78.8918 151.566 79.7168 152.589 79.7168H154.623V82.6405H152.589C151.565 82.6405 150.734 83.4662 150.734 84.4827C150.734 85.4999 151.566 86.3249 152.589 86.3249H154.623L154.622 96.3786C154.622 97.3958 155.454 98.2208 156.477 98.2208C157.501 98.2208 158.331 97.3951 158.331 96.3786L158.332 86.3262H168.464L176.24 97.4312C176.705 98.0963 177.555 98.3745 178.317 98.1368C179.091 97.8964 179.616 97.1845 179.616 96.3793L179.617 86.3262H181.651C182.675 86.3262 183.505 85.5005 183.505 84.484C183.505 83.4668 182.674 82.6418 181.651 82.6418H179.617V79.7182L181.653 79.7175ZM158.33 71.8543L161.256 76.0329H158.33V71.8543ZM158.33 82.6411V79.7175H163.836L165.884 82.6411H158.33ZM175.909 90.5043L172.982 86.3257H175.909V90.5043ZM175.909 82.6411H170.402L168.354 79.7175H175.908V82.6411H175.909Z" fill="#806311"/>
</svg>
