<svg width="126" height="118" viewBox="0 0 126 118" fill="none" xmlns="http://www.w3.org/2000/svg">
<g filter="url(#filter0_d_295_10167)">
<rect x="15" y="15.4445" width="80" height="71.1111" rx="8" fill="#1AD492"/>
<path fill-rule="evenodd" clip-rule="evenodd" d="M36.3334 34.4074H73.6668V59.2963H39.0634L36.3334 61.723V34.4074ZM36.3334 30.2593C33.7667 30.2593 31.6901 32.1259 31.6901 34.4074L31.6667 71.7407L41.0001 63.4445H73.6667C76.2334 63.4445 78.3334 61.5778 78.3334 59.2963V34.4074C78.3334 32.1259 76.2334 30.2593 73.6667 30.2593H36.3334ZM41.0001 51H59.6667V55.1482H41.0001V51ZM41.0001 44.7778H69.0001V48.9259H41.0001V44.7778ZM41.0001 38.5556H69.0001V42.7037H41.0001V38.5556Z" fill="white"/>
</g>
<defs>
<filter id="filter0_d_295_10167" x="0" y="0.444458" width="126" height="117.111" filterUnits="userSpaceOnUse" color-interpolation-filters="sRGB">
<feFlood flood-opacity="0" result="BackgroundImageFix"/>
<feColorMatrix in="SourceAlpha" type="matrix" values="0 0 0 0 0 0 0 0 0 0 0 0 0 0 0 0 0 0 127 0" result="hardAlpha"/>
<feOffset dx="8" dy="8"/>
<feGaussianBlur stdDeviation="11.5"/>
<feComposite in2="hardAlpha" operator="out"/>
<feColorMatrix type="matrix" values="0 0 0 0 0 0 0 0 0 0.302703 0 0 0 0 0.32 0 0 0 0.25 0"/>
<feBlend mode="normal" in2="BackgroundImageFix" result="effect1_dropShadow_295_10167"/>
<feBlend mode="normal" in="SourceGraphic" in2="effect1_dropShadow_295_10167" result="shape"/>
</filter>
</defs>
</svg>
