<svg width="12" height="12" viewBox="0 0 12 12" fill="none" xmlns="http://www.w3.org/2000/svg">
<g clip-path="url(#clip0_1054_19895)">
<path d="M6 12C9.31371 12 12 9.31371 12 6C12 2.68629 9.31371 0 6 0C2.68629 0 0 2.68629 0 6C0 9.31371 2.68629 12 6 12Z" fill="#32BA7C"/>
<path d="M4.4668 8.7066L7.55197 11.7918C10.1072 11.1104 11.9999 8.78231 11.9999 5.99998C11.9999 5.94319 11.9999 5.88641 11.9999 5.82963L9.57721 3.59619L4.4668 8.7066Z" fill="#0AA06E"/>
<path d="M6.15127 7.34386C6.41626 7.60885 6.41626 8.06311 6.15127 8.32809L5.60238 8.87699C5.33739 9.14197 4.88313 9.14197 4.61815 8.87699L2.21436 6.45427C1.94938 6.18929 1.94938 5.73503 2.21436 5.47005L2.76326 4.92115C3.02824 4.65617 3.4825 4.65617 3.74749 4.92115L6.15127 7.34386Z" fill="white"/>
<path d="M8.25242 3.1609C8.51741 2.89591 8.97167 2.89591 9.23665 3.1609L9.78555 3.70979C10.0505 3.97478 10.0505 4.42903 9.78555 4.69402L5.62151 8.83913C5.35653 9.10411 4.90227 9.10411 4.63728 8.83913L4.08839 8.29023C3.8234 8.02525 3.8234 7.57099 4.08839 7.30601L8.25242 3.1609Z" fill="white"/>
</g>
<defs>
<clipPath id="clip0_1054_19895">
<rect width="12" height="12" fill="white"/>
</clipPath>
</defs>
</svg>
