<svg width="224" height="80" viewBox="0 0 224 80" fill="none" xmlns="http://www.w3.org/2000/svg">
<rect x="0.5" y="1.38892" width="223" height="77.2222" rx="7.5" fill="white" stroke="#E6E6E6"/>
<rect opacity="0.1" x="153" y="25.7778" width="55" height="28.4444" rx="8" fill="#1AD492"/>
<path d="M168.104 41.7933H165.836V44.1213H164.252V41.7933H161.984V40.3293H164.252V38.0013H165.836V40.3293H168.104V41.7933ZM174.525 42.8733C174.589 43.2253 174.733 43.4973 174.957 43.6893C175.189 43.8733 175.497 43.9653 175.881 43.9653C176.377 43.9653 176.737 43.7613 176.961 43.3533C177.185 42.9373 177.297 42.2413 177.297 41.2653C177.113 41.5213 176.853 41.7213 176.517 41.8653C176.189 42.0093 175.833 42.0813 175.449 42.0813C174.937 42.0813 174.473 41.9773 174.057 41.7693C173.649 41.5533 173.325 41.2373 173.085 40.8213C172.845 40.3973 172.725 39.8853 172.725 39.2853C172.725 38.3973 172.989 37.6933 173.517 37.1733C174.045 36.6453 174.765 36.3813 175.677 36.3813C176.813 36.3813 177.613 36.7453 178.077 37.4733C178.549 38.2013 178.785 39.2973 178.785 40.7613C178.785 41.8013 178.693 42.6533 178.509 43.3173C178.333 43.9813 178.025 44.4853 177.585 44.8293C177.153 45.1733 176.561 45.3453 175.809 45.3453C175.217 45.3453 174.713 45.2333 174.297 45.0093C173.881 44.7773 173.561 44.4773 173.337 44.1093C173.121 43.7333 172.997 43.3213 172.965 42.8733H174.525ZM175.797 40.7133C176.213 40.7133 176.541 40.5853 176.781 40.3293C177.021 40.0733 177.141 39.7293 177.141 39.2973C177.141 38.8253 177.013 38.4613 176.757 38.2053C176.509 37.9413 176.169 37.8093 175.737 37.8093C175.305 37.8093 174.961 37.9453 174.705 38.2173C174.457 38.4813 174.333 38.8333 174.333 39.2733C174.333 39.6973 174.453 40.0453 174.693 40.3173C174.941 40.5813 175.309 40.7133 175.797 40.7133ZM181.029 45.4173C180.725 45.4173 180.473 45.3253 180.273 45.1413C180.081 44.9493 179.985 44.7133 179.985 44.4333C179.985 44.1533 180.081 43.9213 180.273 43.7373C180.473 43.5453 180.725 43.4493 181.029 43.4493C181.325 43.4493 181.569 43.5453 181.761 43.7373C181.953 43.9213 182.049 44.1533 182.049 44.4333C182.049 44.7133 181.953 44.9493 181.761 45.1413C181.569 45.3253 181.325 45.4173 181.029 45.4173ZM183.234 38.8893C183.274 38.0893 183.554 37.4733 184.074 37.0413C184.602 36.6013 185.294 36.3813 186.15 36.3813C186.734 36.3813 187.234 36.4853 187.65 36.6933C188.066 36.8933 188.378 37.1693 188.586 37.5213C188.802 37.8653 188.91 38.2573 188.91 38.6973C188.91 39.2013 188.778 39.6293 188.514 39.9813C188.258 40.3253 187.95 40.5573 187.59 40.6773V40.7253C188.054 40.8693 188.414 41.1253 188.67 41.4933C188.934 41.8613 189.066 42.3333 189.066 42.9093C189.066 43.3893 188.954 43.8173 188.73 44.1933C188.514 44.5693 188.19 44.8653 187.758 45.0813C187.334 45.2893 186.822 45.3933 186.222 45.3933C185.318 45.3933 184.582 45.1653 184.014 44.7093C183.446 44.2533 183.146 43.5813 183.114 42.6933H184.746C184.762 43.0853 184.894 43.4013 185.142 43.6413C185.398 43.8733 185.746 43.9893 186.186 43.9893C186.594 43.9893 186.906 43.8773 187.122 43.6533C187.346 43.4213 187.458 43.1253 187.458 42.7653C187.458 42.2853 187.306 41.9413 187.002 41.7333C186.698 41.5253 186.226 41.4213 185.586 41.4213H185.238V40.0413H185.586C186.722 40.0413 187.29 39.6613 187.29 38.9013C187.29 38.5573 187.186 38.2893 186.978 38.0973C186.778 37.9053 186.486 37.8093 186.102 37.8093C185.726 37.8093 185.434 37.9133 185.226 38.1213C185.026 38.3213 184.91 38.5773 184.878 38.8893H183.234ZM190.202 38.7333C190.202 38.1253 190.378 37.6493 190.73 37.3053C191.09 36.9613 191.55 36.7893 192.11 36.7893C192.67 36.7893 193.126 36.9613 193.478 37.3053C193.838 37.6493 194.018 38.1253 194.018 38.7333C194.018 39.3493 193.838 39.8293 193.478 40.1733C193.126 40.5173 192.67 40.6893 192.11 40.6893C191.55 40.6893 191.09 40.5173 190.73 40.1733C190.378 39.8293 190.202 39.3493 190.202 38.7333ZM197.906 36.9333L193.19 45.3333H191.558L196.262 36.9333H197.906ZM192.098 37.7973C191.658 37.7973 191.438 38.1093 191.438 38.7333C191.438 39.3653 191.658 39.6813 192.098 39.6813C192.314 39.6813 192.482 39.6053 192.602 39.4533C192.722 39.2933 192.782 39.0533 192.782 38.7333C192.782 38.1093 192.554 37.7973 192.098 37.7973ZM195.47 43.5213C195.47 42.9053 195.646 42.4293 195.998 42.0933C196.358 41.7493 196.818 41.5773 197.378 41.5773C197.938 41.5773 198.39 41.7493 198.734 42.0933C199.086 42.4293 199.262 42.9053 199.262 43.5213C199.262 44.1373 199.086 44.6173 198.734 44.9613C198.39 45.3053 197.938 45.4773 197.378 45.4773C196.81 45.4773 196.35 45.3053 195.998 44.9613C195.646 44.6173 195.47 44.1373 195.47 43.5213ZM197.366 42.5853C196.91 42.5853 196.682 42.8973 196.682 43.5213C196.682 44.1533 196.91 44.4693 197.366 44.4693C197.814 44.4693 198.038 44.1533 198.038 43.5213C198.038 42.8973 197.814 42.5853 197.366 42.5853Z" fill="#1AD492"/>
<path d="M73.408 58.4445V54.3325H72.16V53.3085H73.408V51.9965H72.16V50.9725H73.408V47.0205H75.072L76.592 50.9725H78.48V47.0205H79.744V50.9725H80.992V51.9965H79.744V53.3085H80.992V54.3325H79.744V58.4445H78.064L76.544 54.3325H74.656V58.4445H73.408ZM74.656 53.3085H76.16L75.68 51.9965H74.624L74.656 53.3085ZM78.48 56.1885H78.544L78.496 54.3325H77.824L78.48 56.1885ZM74.624 50.9725H75.296L74.624 48.9885H74.56L74.624 50.9725ZM77.44 53.3085H78.512L78.48 51.9965H76.96L77.44 53.3085ZM89.7003 58.4285V56.9725H84.3563L86.7563 54.8925C88.8043 53.1165 89.6203 51.9485 89.6203 50.3005C89.6203 48.0765 88.1323 46.6685 85.8123 46.6685C83.4603 46.6685 81.8923 48.2845 81.8443 50.7645H83.4123C83.4443 49.1165 84.3723 48.0765 85.7963 48.0765C87.1883 48.0765 88.0203 48.9405 88.0203 50.3965C88.0203 51.6285 87.4923 52.4125 85.6203 54.0285L81.8923 57.2445V58.4445L89.7003 58.4285ZM94.922 58.6365C97.418 58.6365 99.13 56.9565 99.13 54.5565C99.13 52.3325 97.61 50.6845 95.258 50.6845C94.394 50.6845 93.626 50.9245 93.018 51.3885L93.786 48.3165H98.442V46.8765H92.65L91.242 52.8125L92.57 53.1485C93.098 52.4925 93.994 52.0285 94.97 52.0285C96.586 52.0285 97.53 53.1325 97.53 54.6205C97.53 56.1885 96.522 57.2285 94.954 57.2285C93.482 57.2285 92.57 56.3165 92.57 54.8285H91.018C91.018 57.1325 92.554 58.6365 94.922 58.6365ZM102.703 57.8205C102.703 56.9405 102.159 56.3805 101.487 56.3805C100.847 56.3805 100.415 56.8445 100.415 57.4845C100.415 58.0765 100.863 58.4605 101.391 58.4605C101.583 58.4605 101.711 58.4285 101.823 58.3645C101.823 58.8605 101.359 59.2925 100.703 59.4045V60.0765C101.839 59.9325 102.703 58.9725 102.703 57.8205ZM103.909 52.6685C103.909 56.2685 105.685 58.6525 108.677 58.6525C111.653 58.6525 113.429 56.2685 113.429 52.6685C113.429 49.0845 111.573 46.6525 108.677 46.6525C105.765 46.6525 103.909 49.0845 103.909 52.6685ZM105.461 52.6685C105.461 49.7885 106.645 48.0605 108.677 48.0605C110.709 48.0605 111.877 49.7885 111.877 52.6685C111.877 55.5165 110.709 57.2445 108.677 57.2445C106.645 57.2445 105.461 55.5165 105.461 52.6685ZM115.003 52.6685C115.003 56.2685 116.779 58.6525 119.771 58.6525C122.747 58.6525 124.523 56.2685 124.523 52.6685C124.523 49.0845 122.667 46.6525 119.771 46.6525C116.859 46.6525 115.003 49.0845 115.003 52.6685ZM116.555 52.6685C116.555 49.7885 117.739 48.0605 119.771 48.0605C121.803 48.0605 122.971 49.7885 122.971 52.6685C122.971 55.5165 121.803 57.2445 119.771 57.2445C117.739 57.2445 116.555 55.5165 116.555 52.6685ZM126.097 52.6685C126.097 56.2685 127.873 58.6525 130.865 58.6525C133.841 58.6525 135.617 56.2685 135.617 52.6685C135.617 49.0845 133.76 46.6525 130.865 46.6525C127.953 46.6525 126.097 49.0845 126.097 52.6685ZM127.649 52.6685C127.649 49.7885 128.833 48.0605 130.865 48.0605C132.897 48.0605 134.065 49.7885 134.065 52.6685C134.065 55.5165 132.897 57.2445 130.865 57.2445C128.833 57.2445 127.649 55.5165 127.649 52.6685Z" fill="#052A44"/>
<path d="M72.504 25.7751C72.504 27.0231 73.236 27.8391 74.652 28.1631L76.08 28.4871C76.908 28.6791 77.28 29.1111 77.28 29.7951C77.28 30.6591 76.548 31.1991 75.396 31.1991C74.304 31.1991 73.608 30.6711 73.584 29.8431H72.384C72.456 31.3311 73.632 32.2551 75.396 32.2551C77.244 32.2551 78.456 31.2591 78.456 29.6991C78.456 28.4751 77.736 27.7071 76.32 27.3831L74.892 27.0471C74.076 26.8551 73.68 26.4351 73.68 25.7391C73.68 24.8871 74.388 24.3351 75.48 24.3351C76.452 24.3351 77.064 24.8391 77.124 25.7031H78.312C78.216 24.2031 77.148 23.2791 75.492 23.2791C73.704 23.2791 72.504 24.2871 72.504 25.7751ZM81.4578 32.2551C82.4058 32.2551 83.2098 31.8351 83.5098 31.1631L83.6298 32.1111H84.5898V28.4271C84.5898 26.8431 83.6058 26.0751 82.1538 26.0751C80.6418 26.0751 79.6338 26.8791 79.6338 28.1031H80.6178C80.6178 27.3951 81.1578 26.9751 82.1058 26.9751C82.8978 26.9751 83.4858 27.3231 83.4858 28.3071V28.4751L81.6378 28.6191C80.2578 28.7271 79.4538 29.3991 79.4538 30.4791C79.4538 31.5471 80.1978 32.2551 81.4578 32.2551ZM81.7818 31.3791C81.0498 31.3791 80.5938 31.0671 80.5938 30.4431C80.5938 29.8671 81.0018 29.4831 81.9978 29.3871L83.4978 29.2671V29.5791C83.4978 30.6831 82.8498 31.3791 81.7818 31.3791ZM87.5616 32.1111H88.6776L91.1256 26.2431H89.9496L88.6416 29.5191C88.4376 30.0351 88.2456 30.5391 88.1496 30.9231C88.0536 30.5631 87.8856 30.0711 87.6816 29.5191L86.3976 26.2431H85.1976L87.5616 32.1111ZM92.575 24.8511C92.983 24.8511 93.319 24.5151 93.319 24.1071C93.319 23.6871 92.983 23.3631 92.575 23.3631C92.167 23.3631 91.831 23.6871 91.831 24.1071C91.831 24.5151 92.167 24.8511 92.575 24.8511ZM92.023 32.1111H93.151V26.2431H92.023V32.1111ZM95.9167 32.1111V29.0031C95.9167 27.8631 96.5287 27.1071 97.5847 27.1071C98.4487 27.1071 99.0007 27.5871 99.0007 28.7751V32.1111H100.129V28.5231C100.129 27.0231 99.4207 26.0751 97.8727 26.0751C97.0447 26.0751 96.3007 26.4711 95.9287 27.1431L95.8087 26.2431H94.7887V32.1111H95.9167ZM101.319 29.0271C101.319 30.6711 102.375 31.9551 104.043 31.9551C104.967 31.9551 105.735 31.5471 106.119 30.8631V32.0391C106.119 33.1551 105.399 33.8751 104.295 33.8751C103.311 33.8751 102.663 33.3711 102.519 32.5071H101.391C101.607 33.9951 102.699 34.8951 104.295 34.8951C106.095 34.8951 107.235 33.7191 107.235 31.8711V26.2431H106.227L106.143 27.2391C105.771 26.5071 105.039 26.0751 104.091 26.0751C102.387 26.0751 101.319 27.3711 101.319 29.0271ZM102.447 29.0031C102.447 27.9231 103.119 27.0591 104.247 27.0591C105.399 27.0591 106.071 27.8751 106.071 29.0031C106.071 30.1551 105.375 30.9711 104.235 30.9711C103.131 30.9711 102.447 30.1071 102.447 29.0031ZM108.383 30.4071C108.383 31.5231 109.259 32.2551 110.639 32.2551C112.031 32.2551 112.991 31.5471 112.991 30.4311C112.991 29.5551 112.499 29.0991 111.503 28.8591L110.471 28.6071C109.895 28.4631 109.607 28.1991 109.607 27.8031C109.607 27.2631 110.003 26.9511 110.711 26.9511C111.395 26.9511 111.791 27.3231 111.815 27.9111H112.895C112.871 26.7951 112.031 26.0751 110.747 26.0751C109.451 26.0751 108.539 26.7591 108.539 27.8391C108.539 28.7031 109.031 29.2191 110.075 29.4711L111.107 29.7111C111.719 29.8671 111.911 30.1071 111.911 30.5031C111.911 31.0431 111.455 31.3671 110.663 31.3671C109.919 31.3671 109.463 31.0071 109.463 30.4071H108.383Z" fill="#626262"/>
<rect opacity="0.1" x="16" y="22.2222" width="40" height="35.5556" rx="8" fill="#534DE5"/>
<path fill-rule="evenodd" clip-rule="evenodd" d="M29.293 39.3714L30.7072 40.6285L36.0001 35.9237L41.293 40.6285L42.7072 39.3714L36.0001 33.4095L29.293 39.3714ZM30.7072 45.0729L36.0001 40.3681L41.293 45.0729L42.7072 43.8159L36.0001 37.854L29.293 43.8159L30.7072 45.0729Z" fill="#1AD492"/>
</svg>
