<svg width="12" height="12" viewBox="0 0 12 12" fill="none" xmlns="http://www.w3.org/2000/svg">
<path d="M5.99996 0.666668H1.99996C1.26358 0.666668 0.666626 1.26362 0.666626 2V10C0.666626 10.7364 1.26358 11.3334 1.99996 11.3334H9.99996C10.7364 11.3334 11.3333 10.7364 11.3333 10V6.00002M10.2761 3.60947L11 2.88563C11.5206 2.36493 11.5206 1.52071 11 1.00002C10.4792 0.479321 9.63503 0.479321 9.11429 1.00003L8.39049 1.72385M10.2761 3.60947L6.25189 7.63369C6.06576 7.81982 5.82869 7.94675 5.57063 7.99835L3.60944 8.39055L4.00167 6.42942C4.0533 6.17129 4.18017 5.93422 4.3663 5.74809L8.39049 1.72385M10.2761 3.60947L8.39049 1.72385" stroke="black" stroke-linecap="round" stroke-linejoin="round"/>
</svg>
