<svg width="366" height="370" viewBox="0 0 366 370" fill="none" xmlns="http://www.w3.org/2000/svg">
<g clip-path="url(#clip0_528_18624)">
<rect width="366" height="370" fill="#6BBCF5"/>
<path d="M265.633 366.897C350.892 335.03 369.311 222.294 335.22 139.438C315.237 90.8687 279.144 71.9761 231.205 76.2174C184.751 80.3274 128.845 71.4506 84.7685 88.3231C47.4489 102.609 15.7027 134.452 2.34653 174.602C-12.0614 217.914 9.21194 264.615 22.6268 305.836C53.4867 400.663 193.881 393.716 265.633 366.897Z" fill="#D9F4FF"/>
<rect width="23.1528" height="69.4196" transform="matrix(1 0 0 -1 56.0205 415.547)" fill="white"/>
<rect width="11.5762" height="96.2031" transform="matrix(1 0 0 -1 56.0205 415.546)" fill="white"/>
<rect width="5.4259" height="13.1628" transform="matrix(1 0 0 -1 315.839 286.021)" fill="#EFF9FE"/>
<rect width="5.4259" height="6.93073" transform="matrix(1 0 0 -1 315.839 286.021)" fill="#C9EFFF"/>
<rect width="12.4237" height="21.7184" transform="matrix(1 0 0 -1 328.745 286.021)" fill="#EFF9FE"/>
<rect width="12.4237" height="6.93073" transform="matrix(1 0 0 -1 328.745 286.021)" fill="#C9EFFF"/>
<rect width="35.6911" height="117.688" transform="matrix(1 0 0 -1 308.236 399.59)" fill="#EFF9FE"/>
<rect width="3.61247" height="5.04011" transform="matrix(1 0 0 -1 316.322 298.904)" fill="#C9EFFF"/>
<rect width="3.61247" height="5.04011" transform="matrix(-1 0 0 1 319.934 304.251)" fill="#C9EFFF"/>
<rect width="3.61247" height="5.04011" transform="matrix(-1 0 0 1 319.934 314.638)" fill="#C9EFFF"/>
<rect width="3.61247" height="5.04011" transform="matrix(-1 0 0 1 319.934 325.025)" fill="#C9EFFF"/>
<rect width="3.61247" height="5.04011" transform="matrix(-1 0 0 1 319.934 335.413)" fill="#C9EFFF"/>
<rect width="3.61247" height="5.04011" transform="matrix(-1 0 0 1 319.934 345.8)" fill="#C9EFFF"/>
<rect width="3.61247" height="5.04011" transform="matrix(-1 0 0 1 319.934 356.187)" fill="#C9EFFF"/>
<rect width="3.61247" height="5.04011" transform="matrix(1 0 0 -1 326.938 298.904)" fill="#C9EFFF"/>
<rect width="3.61247" height="5.04011" transform="matrix(-1 0 0 1 330.551 304.251)" fill="#C9EFFF"/>
<rect width="3.61247" height="5.04011" transform="matrix(-1 0 0 1 330.551 314.638)" fill="#C9EFFF"/>
<rect width="3.61247" height="5.04011" transform="matrix(-1 0 0 1 330.551 325.025)" fill="#C9EFFF"/>
<rect width="3.61247" height="5.04011" transform="matrix(-1 0 0 1 330.551 335.412)" fill="#C9EFFF"/>
<rect width="3.61247" height="5.04011" transform="matrix(-1 0 0 1 330.551 345.8)" fill="#C9EFFF"/>
<rect width="3.61247" height="5.04011" transform="matrix(-1 0 0 1 330.551 356.186)" fill="#C9EFFF"/>
<rect width="3.61247" height="5.04011" transform="matrix(1 0 0 -1 337.556 298.904)" fill="#C9EFFF"/>
<rect width="3.61247" height="5.04011" transform="matrix(-1 0 0 1 341.169 304.251)" fill="#C9EFFF"/>
<rect width="3.61247" height="5.04011" transform="matrix(-1 0 0 1 341.169 314.638)" fill="#C9EFFF"/>
<rect width="3.61247" height="5.04011" transform="matrix(-1 0 0 1 341.169 325.025)" fill="#C9EFFF"/>
<rect width="3.61247" height="5.04011" transform="matrix(-1 0 0 1 341.169 335.412)" fill="#C9EFFF"/>
<rect width="3.61247" height="5.04011" transform="matrix(-1 0 0 1 341.169 345.8)" fill="#C9EFFF"/>
<rect width="3.61247" height="5.04011" transform="matrix(-1 0 0 1 341.169 356.186)" fill="#C9EFFF"/>
<rect width="5.4259" height="13.1628" transform="matrix(1 0 0 -1 28.1133 274.433)" fill="#EFF9FE"/>
<rect width="5.4259" height="6.93073" transform="matrix(1 0 0 -1 28.1133 274.433)" fill="#C9EFFF"/>
<rect width="12.4237" height="21.7184" transform="matrix(1 0 0 -1 41.0195 274.433)" fill="#EFF9FE"/>
<rect width="12.4237" height="6.93073" transform="matrix(1 0 0 -1 41.0195 274.433)" fill="#C9EFFF"/>
<rect width="37.8309" height="117.688" transform="matrix(1 0 0 -1 20.5107 388.001)" fill="#EFF9FE"/>
<rect width="3.61247" height="5.04011" transform="matrix(1 0 0 -1 28.5967 287.316)" fill="#C9EFFF"/>
<rect width="3.61247" height="5.04011" transform="matrix(-1 0 0 1 32.209 292.663)" fill="#C9EFFF"/>
<rect width="3.61247" height="5.04011" transform="matrix(-1 0 0 1 32.209 303.05)" fill="#C9EFFF"/>
<rect width="3.61247" height="5.04011" transform="matrix(-1 0 0 1 32.209 313.437)" fill="#C9EFFF"/>
<rect width="3.61247" height="5.04011" transform="matrix(-1 0 0 1 32.209 323.824)" fill="#C9EFFF"/>
<rect width="3.61247" height="5.04011" transform="matrix(-1 0 0 1 32.209 334.211)" fill="#C9EFFF"/>
<rect width="3.61247" height="5.04011" transform="matrix(-1 0 0 1 32.209 344.598)" fill="#C9EFFF"/>
<rect width="3.61247" height="5.04011" transform="matrix(1 0 0 -1 39.2129 287.316)" fill="#C9EFFF"/>
<rect width="3.61247" height="5.04011" transform="matrix(-1 0 0 1 42.8262 292.663)" fill="#C9EFFF"/>
<rect width="3.61247" height="5.04011" transform="matrix(-1 0 0 1 42.8262 303.05)" fill="#C9EFFF"/>
<rect width="3.61247" height="5.04011" transform="matrix(-1 0 0 1 42.8262 313.437)" fill="#C9EFFF"/>
<rect width="3.61247" height="5.04011" transform="matrix(-1 0 0 1 42.8262 323.824)" fill="#C9EFFF"/>
<rect width="3.61247" height="5.04011" transform="matrix(-1 0 0 1 42.8262 334.211)" fill="#C9EFFF"/>
<rect width="3.61247" height="5.04011" transform="matrix(-1 0 0 1 42.8262 344.598)" fill="#C9EFFF"/>
<rect width="3.61247" height="5.04011" transform="matrix(1 0 0 -1 49.8311 287.316)" fill="#C9EFFF"/>
<rect width="3.61247" height="5.04011" transform="matrix(-1 0 0 1 53.4434 292.663)" fill="#C9EFFF"/>
<rect width="3.61247" height="5.04011" transform="matrix(-1 0 0 1 53.4434 303.05)" fill="#C9EFFF"/>
<rect width="3.61247" height="5.04011" transform="matrix(-1 0 0 1 53.4434 313.437)" fill="#C9EFFF"/>
<rect width="3.61247" height="5.04011" transform="matrix(-1 0 0 1 53.4434 323.824)" fill="#C9EFFF"/>
<rect width="3.61247" height="5.04011" transform="matrix(-1 0 0 1 53.4434 334.211)" fill="#C9EFFF"/>
<rect width="3.61247" height="5.04011" transform="matrix(-1 0 0 1 53.4434 344.598)" fill="#C9EFFF"/>
<rect width="23.1528" height="69.4196" transform="matrix(1 0 0 -1 259.78 400.232)" fill="#EFF9FE"/>
<rect width="11.5762" height="96.2031" transform="matrix(1 0 0 -1 259.78 400.233)" fill="#EFF9FE"/>
<rect width="11.5762" height="64.734" transform="matrix(1 0 0 -1 253.992 400.233)" fill="#EFF9FE"/>
<path d="M108.996 250.779H136.761V223.481L108.996 237.464V250.779Z" fill="white"/>
<rect width="40.0809" height="145.067" transform="matrix(-1 0 0 1 142.918 244.449)" fill="white"/>
<rect width="27.7645" height="2.96382" transform="matrix(-1 0 0 1 136.761 241.485)" fill="#EBF9FF"/>
<rect width="4.09062" height="6.73648" transform="matrix(-1 0 0 1 132.88 303.758)" fill="#EBF9FF"/>
<rect width="4.09062" height="6.73648" transform="matrix(-1 0 0 1 132.88 292.396)" fill="#EBF9FF"/>
<rect width="4.09062" height="6.73648" transform="matrix(-1 0 0 1 132.88 281.034)" fill="#EBF9FF"/>
<rect width="4.09062" height="6.73648" transform="matrix(-1 0 0 1 132.88 269.671)" fill="#EBF9FF"/>
<rect width="4.09062" height="6.73648" transform="matrix(-1 0 0 1 132.88 258.309)" fill="#EBF9FF"/>
<rect width="4.09062" height="6.73648" transform="matrix(-1 0 0 1 124.923 303.758)" fill="#EBF9FF"/>
<rect width="4.09062" height="6.73648" transform="matrix(-1 0 0 1 124.923 292.396)" fill="#EBF9FF"/>
<rect width="4.09062" height="6.73648" transform="matrix(-1 0 0 1 124.923 281.034)" fill="#EBF9FF"/>
<rect width="4.09062" height="6.73648" transform="matrix(-1 0 0 1 124.923 269.671)" fill="#EBF9FF"/>
<rect width="4.09062" height="6.73648" transform="matrix(-1 0 0 1 124.923 258.309)" fill="#EBF9FF"/>
<rect width="4.09062" height="6.73648" transform="matrix(-1 0 0 1 116.968 303.759)" fill="#EBF9FF"/>
<rect width="4.09062" height="6.73648" transform="matrix(-1 0 0 1 116.968 292.396)" fill="#EBF9FF"/>
<rect width="4.09062" height="6.73648" transform="matrix(-1 0 0 1 116.968 281.034)" fill="#EBF9FF"/>
<rect width="4.09062" height="6.73648" transform="matrix(-1 0 0 1 116.968 269.671)" fill="#EBF9FF"/>
<rect width="4.09062" height="6.73648" transform="matrix(-1 0 0 1 116.968 258.309)" fill="#EBF9FF"/>
<rect width="4.48166" height="37.8457" transform="matrix(-1 0 0 1 301.413 201.454)" fill="white"/>
<rect width="4.48166" height="3.50615" transform="matrix(-1 0 0 1 301.413 235.793)" fill="#EBF9FF"/>
<rect width="8.15745" height="22.1426" transform="matrix(-1 0 0 1 292.715 221.436)" fill="white"/>
<rect width="32.5112" height="161.146" transform="matrix(1 0 0 -1 279.562 399.589)" fill="white"/>
<rect width="8.15745" height="2.40397" transform="matrix(-1 0 0 1 292.715 236.04)" fill="#EBF9FF"/>
<rect width="3.31793" height="5.46402" transform="matrix(-1 0 0 1 291.023 341.851)" fill="#EBF9FF"/>
<rect width="3.31793" height="5.46402" transform="matrix(-1 0 0 1 291.023 332.634)" fill="#EBF9FF"/>
<rect width="3.31793" height="5.46402" transform="matrix(-1 0 0 1 291.023 304.985)" fill="#EBF9FF"/>
<rect width="3.31793" height="5.46402" transform="matrix(-1 0 0 1 291.023 295.769)" fill="#EBF9FF"/>
<rect width="3.31793" height="5.46402" transform="matrix(-1 0 0 1 291.023 277.336)" fill="#EBF9FF"/>
<rect width="3.31793" height="5.46402" transform="matrix(1 0 0 -1 287.705 255.15)" fill="#EBF9FF"/>
<rect width="3.31793" height="5.46402" transform="matrix(-1 0 0 1 297.477 323.418)" fill="#EBF9FF"/>
<rect width="3.31793" height="5.46402" transform="matrix(-1 0 0 1 297.477 295.769)" fill="#EBF9FF"/>
<rect width="3.31793" height="5.46402" transform="matrix(-1 0 0 1 297.477 286.553)" fill="#EBF9FF"/>
<rect width="3.31793" height="5.46402" transform="matrix(-1 0 0 1 297.477 268.119)" fill="#EBF9FF"/>
<rect width="3.31793" height="5.46402" transform="matrix(-1 0 0 1 297.477 258.903)" fill="#EBF9FF"/>
<rect width="3.31793" height="5.46402" transform="matrix(-1 0 0 1 303.929 341.851)" fill="#EBF9FF"/>
<rect width="3.31793" height="5.46402" transform="matrix(-1 0 0 1 303.929 323.418)" fill="#EBF9FF"/>
<rect width="3.31793" height="5.46402" transform="matrix(-1 0 0 1 303.929 304.985)" fill="#EBF9FF"/>
<rect width="3.31793" height="5.46402" transform="matrix(-1 0 0 1 303.929 286.553)" fill="#EBF9FF"/>
<rect width="3.31793" height="5.46402" transform="matrix(-1 0 0 1 303.929 258.903)" fill="#EBF9FF"/>
<rect width="4.48166" height="3.50615" transform="matrix(-1 0 0 1 163.995 273.204)" fill="#EBF9FF"/>
<rect width="32.5112" height="161.146" transform="matrix(1 0 0 -1 142.145 437)" fill="white"/>
<rect width="8.15745" height="2.40397" transform="matrix(-1 0 0 1 155.296 273.449)" fill="#EBF9FF"/>
<rect width="3.31793" height="5.46402" transform="matrix(-1 0 0 1 153.606 342.396)" fill="#EBF9FF"/>
<rect width="3.31793" height="5.46402" transform="matrix(-1 0 0 1 153.606 333.18)" fill="#EBF9FF"/>
<rect width="3.31793" height="5.46402" transform="matrix(-1 0 0 1 153.606 314.746)" fill="#EBF9FF"/>
<rect width="3.31793" height="5.46402" transform="matrix(1 0 0 -1 150.288 292.561)" fill="#EBF9FF"/>
<rect width="3.31793" height="5.46402" transform="matrix(-1 0 0 1 160.059 360.829)" fill="#EBF9FF"/>
<rect width="3.31793" height="5.46402" transform="matrix(-1 0 0 1 160.059 333.18)" fill="#EBF9FF"/>
<rect width="3.31793" height="5.46402" transform="matrix(-1 0 0 1 160.059 323.963)" fill="#EBF9FF"/>
<rect width="3.31793" height="5.46402" transform="matrix(-1 0 0 1 160.059 305.53)" fill="#EBF9FF"/>
<rect width="3.31793" height="5.46402" transform="matrix(-1 0 0 1 160.059 296.313)" fill="#EBF9FF"/>
<rect width="3.31793" height="5.46402" transform="matrix(-1 0 0 1 166.511 360.829)" fill="#EBF9FF"/>
<rect width="3.31793" height="5.46402" transform="matrix(-1 0 0 1 166.511 342.396)" fill="#EBF9FF"/>
<rect width="3.31793" height="5.46402" transform="matrix(-1 0 0 1 166.511 323.963)" fill="#EBF9FF"/>
<rect width="3.31793" height="5.46402" transform="matrix(-1 0 0 1 166.511 296.313)" fill="#EBF9FF"/>
<path d="M153.496 337.923L104.367 281.233H80.5465L27.1402 355.406V388.932H153.496V337.923Z" fill="url(#paint0_linear_528_18624)"/>
<path d="M80.5473 281.233H104.368L138.812 320.977C132.565 320.958 125.142 314.078 119.054 317.199C115.175 319.189 113.688 324.507 109.973 326.828C106.003 329.31 100.809 327.525 97.144 324.556C93.4786 321.587 90.6398 317.547 86.8454 314.769C83.051 311.99 77.598 310.757 74.0013 313.821C71.2623 316.153 70.3811 320.282 67.7846 322.794C63.712 326.733 56.8125 325.052 53.0124 320.814C52.8307 320.611 52.6783 320.387 52.5067 320.176L80.5473 281.233Z" fill="url(#paint1_linear_528_18624)"/>
<path d="M223.207 177.097H279.278C278.815 174.857 278.563 172.533 278.563 170.145C278.563 152.414 292.026 138.041 308.634 138.041C310.62 138.041 312.56 138.252 314.438 138.644C320.179 123.905 333.791 113.538 349.675 113.538C353.75 113.538 357.672 114.226 361.354 115.489V177.097V193.046V207.633H223.207C215.308 207.633 208.906 200.797 208.906 192.365C208.906 183.933 215.309 177.097 223.207 177.097Z" fill="white"/>
<path d="M326.578 324.147C326.578 324.147 277.101 263.283 267.636 263.283C258.171 263.283 195.679 263.283 191.213 263.283C186.746 263.283 97.4202 388.932 97.4202 388.932H326.578V324.147Z" fill="url(#paint2_linear_528_18624)"/>
<path d="M317.977 313.778C317.866 313.737 317.756 313.693 317.646 313.653C311.118 311.287 302.733 309.69 298.32 315.345C293.058 322.088 297.211 335.086 289.926 339.154C284.514 342.176 278.487 336.874 274.132 332.301C268.069 325.934 261.453 320.165 254.399 315.092C250.289 312.137 245.864 309.353 240.946 308.703C236.029 308.053 230.5 310.041 228.123 314.682C225.657 319.496 227.151 325.385 227.893 330.813C228.636 336.242 227.873 343.005 223.192 345.269C217.874 347.84 212.269 342.646 208.449 337.933C202.844 331.017 197.238 324.1 191.632 317.183C187.311 311.85 180.382 306.052 174.915 310.01C172.107 312.043 171.127 315.911 169.117 318.829C165.088 324.675 156.77 325.997 150.726 322.676C149.404 321.95 148.201 321.035 147.108 319.987C168.491 290.742 189.124 263.283 191.212 263.283C195.678 263.283 258.171 263.283 267.636 263.283C274.617 263.283 303.371 296.402 317.977 313.778Z" fill="url(#paint3_linear_528_18624)"/>
<path d="M-14.0581 146.859C-0.564499 146.859 10.7494 156.797 13.8274 170.189C18.0001 167.666 22.8189 166.218 27.9569 166.218C42.6893 166.218 54.8231 178.064 56.476 193.319H69.4097C80.6967 193.319 89.8467 203.088 89.8467 215.138C89.8467 227.189 80.6967 236.957 69.4097 236.957H-31.9991V201.45V193.319V153.587C-27.0832 149.381 -20.8481 146.859 -14.0581 146.859Z" fill="white"/>
<path d="M-3.22746 227.488C-3.22746 225.091 -1.40699 223.147 0.838364 223.147H11.7451C13.9905 223.147 15.8109 221.203 15.8109 218.806C15.8109 216.409 17.6314 214.466 19.8768 214.466H27.0575C29.3028 214.466 31.1233 216.409 31.1233 218.806C31.1233 221.203 32.9438 223.147 35.1891 223.147H42.8513C45.0967 223.147 46.9172 225.091 46.9172 227.488C46.9172 229.885 48.7376 231.829 50.983 231.829H61.69C63.9354 231.829 65.7559 233.772 65.7559 236.169C65.7559 238.566 63.9354 240.51 61.69 240.51H26.1283H19.0475H-16.5227C-18.768 240.51 -20.5885 238.566 -20.5885 236.169C-20.5885 233.772 -18.768 231.829 -16.5227 231.829H-7.29295C-5.0476 231.829 -3.22746 229.885 -3.22746 227.488Z" fill="url(#paint4_linear_528_18624)"/>
<path d="M266.626 97.2337C265.239 97.2337 264.114 96.0328 264.114 94.5514C264.114 93.07 265.239 91.8691 266.626 91.8691C268.014 91.8691 269.139 93.07 269.139 94.5514C269.139 96.0328 268.014 97.2337 266.626 97.2337Z" fill="#B3E2FC"/>
<path d="M128.655 257.064C127.267 257.064 126.142 255.863 126.142 254.382C126.142 252.901 127.267 251.7 128.655 251.7C130.042 251.7 131.167 252.901 131.167 254.382C131.167 255.863 130.042 257.064 128.655 257.064Z" fill="#B3E2FC"/>
<path d="M280.378 313.473C278.991 313.473 277.866 312.272 277.866 310.79C277.866 309.309 278.991 308.108 280.378 308.108C281.766 308.108 282.891 309.309 282.891 310.79C282.891 312.272 281.766 313.473 280.378 313.473Z" fill="#B3E2FC"/>
<path d="M249.721 162.979H251.368V161.221C251.368 160.48 251.931 159.88 252.624 159.88C253.318 159.88 253.88 160.48 253.88 161.221V162.979H255.527C256.221 162.979 256.783 163.579 256.783 164.32C256.783 165.061 256.221 165.661 255.527 165.661H253.88V167.419C253.88 168.16 253.318 168.76 252.624 168.76C251.93 168.76 251.368 168.159 251.368 167.419V165.661H249.721C249.028 165.661 248.465 165.06 248.465 164.32C248.465 163.579 249.028 162.979 249.721 162.979Z" fill="#B3E2FC"/>
<path d="M90.2664 139.081H91.9129V137.323C91.9129 136.582 92.4755 135.982 93.1691 135.982C93.8628 135.982 94.4254 136.583 94.4254 137.323V139.081H96.0719C96.7659 139.081 97.3281 139.682 97.3281 140.422C97.3281 141.163 96.7655 141.764 96.0719 141.764H94.4254V143.521C94.4254 144.262 93.8628 144.863 93.1691 144.863C92.4755 144.863 91.9129 144.262 91.9129 143.521V141.764H90.2664C89.5724 141.764 89.0102 141.163 89.0102 140.422C89.0102 139.682 89.5728 139.081 90.2664 139.081Z" fill="#B3E2FC"/>
<path fill-rule="evenodd" clip-rule="evenodd" d="M315.541 191.908C313.318 191.908 311.516 193.832 311.516 196.205C311.516 198.579 309.714 200.503 307.493 200.503H298.356C296.133 200.503 294.331 202.427 294.331 204.8C294.331 207.173 296.133 209.097 298.356 209.097H300.599C302.822 209.097 304.624 211.021 304.624 213.394C304.624 215.767 306.426 217.691 308.649 217.691H313.068C315.291 217.691 317.093 215.767 317.093 213.394C317.093 211.021 318.895 209.097 321.118 209.097H324.807C327.03 209.097 328.832 211.021 328.832 213.394C328.832 215.767 330.634 217.691 332.857 217.691H366.951C369.174 217.691 370.976 215.767 370.976 213.394C370.976 211.021 372.778 209.097 375.001 209.097H375.784C378.007 209.097 379.809 207.173 379.809 204.8C379.809 202.427 378.007 200.503 375.784 200.502H365.183C362.961 200.502 361.159 198.578 361.159 196.205C361.159 193.832 359.356 191.908 357.134 191.908H349.547C347.324 191.908 345.522 189.984 345.522 187.611C345.522 185.238 343.72 183.314 341.497 183.314H334.389C332.166 183.314 330.364 185.238 330.364 187.611C330.364 189.984 328.562 191.908 326.339 191.908H315.541ZM347.932 200.503C350.155 200.503 351.957 202.427 351.957 204.8C351.957 207.173 350.155 209.097 347.932 209.097H344.603C342.38 209.097 340.578 207.173 340.578 204.8C340.578 202.427 342.38 200.503 344.603 200.503H347.932Z" fill="url(#paint5_linear_528_18624)"/>
<path d="M230.308 208.623V251.746H219.595C219.595 251.746 212.428 224.088 212.251 200.891C212.074 177.694 212.251 156.617 212.251 156.617H227.952L230.308 208.623Z" fill="url(#paint6_linear_528_18624)"/>
<path d="M202.308 88.8577C202.308 88.8577 211.553 103.674 221.242 104.25C230.93 104.826 229.206 116.057 224.033 116.609C218.859 117.162 202.503 112.204 194.915 89.3746L202.308 88.8577Z" fill="url(#paint7_linear_528_18624)"/>
<path d="M229.151 75.6677C221.9 73.2598 219.007 78.6555 217.957 86.1246C216.908 93.5937 217.702 96.7915 221.533 97.3285C224.255 97.7102 222.974 101.198 223.342 102.215C223.71 103.233 232.694 104.25 232.694 104.25C232.694 104.25 230.925 96.6928 232.014 93.06C233.103 89.4272 239.356 79.0562 229.151 75.6677Z" fill="url(#paint8_linear_528_18624)"/>
<path d="M228.202 82.8875C228.202 82.8875 223.895 83.178 219.242 80.7078C214.59 78.2373 212.548 71.9884 213.773 70.8262C214.998 69.6635 216.768 70.8262 216.768 70.8262C216.768 70.8262 216.359 64.8681 219.626 65.0134C222.893 65.1586 226.219 69.9544 226.219 69.9544C226.219 69.9544 240.725 72.3852 240.725 80.7078C240.725 84.9223 239.364 86.0846 239.364 86.0846C239.364 86.0846 237.73 95.2397 236.097 97.1289C234.463 99.0181 230.961 95.1546 230.806 91.5643C230.652 87.9738 230.516 82.161 228.202 82.8875Z" fill="url(#paint9_linear_528_18624)"/>
<path d="M229.019 85.3583C229.019 85.3583 229.699 83.1786 232.694 84.4865C235.688 85.7944 232.149 93.2059 229.019 91.462V85.3583Z" fill="url(#paint10_linear_528_18624)"/>
<path d="M236.058 105.973L234.904 100.44C234.904 100.44 232.647 98.9082 227.624 99.0359C222.602 99.1636 219.253 103.887 218.297 104.909C218.297 104.909 231.815 104.485 236.058 105.973Z" fill="#B3E2FC"/>
<path d="M236.058 105.973C236.058 105.973 239.337 113.812 239.124 126.335C238.911 138.857 235.285 156.617 232.726 156.617C230.167 156.617 214.812 156.617 212.252 156.617C209.693 156.617 210.973 137.263 210.973 129.75C210.973 122.236 214.513 108.948 218.297 104.909C222.08 100.869 236.058 105.973 236.058 105.973Z" fill="url(#paint11_linear_528_18624)"/>
<path d="M232.726 156.617C232.726 156.617 243.442 174.768 239.134 185.854C239.134 185.854 246.338 222.006 250.517 233.308C254.695 244.609 256.924 251.746 256.924 251.746H243.274C243.274 251.746 231.026 227.954 224.893 210.408C218.76 192.861 213.645 177.773 212.252 156.617H232.726Z" fill="url(#paint12_linear_528_18624)"/>
<path d="M256.924 251.746C256.924 251.746 258.956 260.152 258.16 261.85C257.365 263.549 252.725 263.265 245.964 263.265C239.202 263.265 234.96 263.283 230.983 263.283C227.006 263.283 226.475 258.841 232.308 257.515C238.142 256.188 243.274 251.746 243.274 251.746H256.924V251.746Z" fill="#001333"/>
<path d="M230.309 251.747C230.309 251.747 232.044 260.417 231.513 261.85C230.983 263.283 225.68 263.283 222.498 263.283C219.317 263.283 208.844 263.283 205.132 263.283C201.42 263.283 199.431 260.577 205.132 258.878C210.832 257.18 219.596 251.747 219.596 251.747H230.309V251.747Z" fill="#001333"/>
<path d="M203.217 76.4167C200.474 75.1604 193.508 73.8028 192.748 76.7773C191.988 79.7519 193.001 83.267 194.521 83.267C196.041 83.267 201.022 84.1527 202.035 82.7633C203.048 81.3739 204.499 77.0041 203.217 76.4167Z" fill="url(#paint13_linear_528_18624)"/>
<rect width="5.14209" height="7.92809" transform="matrix(-1 0 0 1 211.983 80.6121)" fill="url(#paint14_linear_528_18624)"/>
<path d="M128.4 97.1955C129.82 97.1955 130.971 95.9667 130.971 94.4506V66.7449C130.971 65.2288 129.82 64 128.4 64C126.98 64 125.829 65.2288 125.829 66.7449V94.4506C125.829 95.9667 126.98 97.1955 128.4 97.1955Z" fill="url(#paint15_linear_528_18624)"/>
<path d="M206.841 88.5402L130.97 93.845V67.3499L206.841 80.6121V88.5402Z" fill="#FFDA1E"/>
<path d="M230.819 80.4736C230.819 80.4736 230.593 87.7313 228.415 87.6626C226.237 87.5943 225.615 80.4736 225.615 80.4736H230.819Z" fill="url(#paint16_linear_528_18624)"/>
<path d="M185.868 92.6088L184.369 90.1633L178.086 91.3861L178.629 95.324L185.868 92.6088Z" fill="#B3E2FC"/>
<path d="M184.37 90.1632C184.37 90.1632 185.77 85.0473 185.869 81.9776C185.967 78.9079 187.147 77.0888 185.119 77.0888C183.092 77.0888 183.411 83.3416 182.985 83.626C182.56 83.9104 182.262 75.2697 178.63 74.2466C174.999 73.2235 174.04 79.8176 174.04 82.2051C174.04 84.5926 178.087 91.386 178.087 91.386L184.37 90.1632Z" fill="url(#paint17_linear_528_18624)"/>
<path d="M230.016 113.463C232.845 121.329 214.626 122.895 198.584 116.42C182.542 109.945 178.629 95.3243 178.629 95.3243L185.867 92.6091C185.867 92.6091 194.867 105.344 203.083 105.973C211.3 106.603 225.387 100.591 230.016 113.463Z" fill="url(#paint18_linear_528_18624)"/>
</g>
<defs>
<linearGradient id="paint0_linear_528_18624" x1="153.496" y1="388.932" x2="27.1401" y2="388.932" gradientUnits="userSpaceOnUse">
<stop stop-color="#B3E2FC"/>
<stop offset="1" stop-color="#2D9BEE"/>
</linearGradient>
<linearGradient id="paint1_linear_528_18624" x1="-23.451" y1="293.467" x2="-30.8114" y2="170.82" gradientUnits="userSpaceOnUse">
<stop stop-color="#B3E2FC"/>
<stop offset="1" stop-color="#2D9BEE"/>
</linearGradient>
<linearGradient id="paint2_linear_528_18624" x1="126.957" y1="509.293" x2="103.25" y2="340.921" gradientUnits="userSpaceOnUse">
<stop stop-color="#B3E2FC"/>
<stop offset="1" stop-color="#2D9BEE"/>
</linearGradient>
<linearGradient id="paint3_linear_528_18624" x1="76.8453" y1="341.854" x2="74.1817" y2="189.44" gradientUnits="userSpaceOnUse">
<stop stop-color="#B3E2FC"/>
<stop offset="1" stop-color="#2D9BEE"/>
</linearGradient>
<linearGradient id="paint4_linear_528_18624" x1="131.921" y1="216.204" x2="142.487" y2="297.915" gradientUnits="userSpaceOnUse">
<stop stop-color="#B3E2FC"/>
<stop offset="1" stop-color="#2D9BEE"/>
</linearGradient>
<linearGradient id="paint5_linear_528_18624" x1="415.752" y1="182.273" x2="434.375" y2="266.73" gradientUnits="userSpaceOnUse">
<stop stop-color="#B3E2FC"/>
<stop offset="1" stop-color="#2D9BEE"/>
</linearGradient>
<linearGradient id="paint6_linear_528_18624" x1="228.971" y1="134.456" x2="243.305" y2="217.322" gradientUnits="userSpaceOnUse">
<stop stop-color="#304DD9"/>
<stop offset="1" stop-color="#182C8C"/>
</linearGradient>
<linearGradient id="paint7_linear_528_18624" x1="200.368" y1="57.5222" x2="228.697" y2="96.6797" gradientUnits="userSpaceOnUse">
<stop stop-color="#B3E2FC"/>
<stop offset="1" stop-color="#2D9BEE"/>
</linearGradient>
<linearGradient id="paint8_linear_528_18624" x1="245.439" y1="63.6662" x2="245.439" y2="128.193" gradientUnits="userSpaceOnUse">
<stop stop-color="#FBB773"/>
<stop offset="1" stop-color="#FA6C69"/>
</linearGradient>
<linearGradient id="paint9_linear_528_18624" x1="242.215" y1="67.3664" x2="242.215" y2="103.542" gradientUnits="userSpaceOnUse">
<stop stop-color="#182C8C"/>
<stop offset="1" stop-color="#001333"/>
</linearGradient>
<linearGradient id="paint10_linear_528_18624" x1="251.683" y1="63.6665" x2="251.683" y2="128.193" gradientUnits="userSpaceOnUse">
<stop stop-color="#FBB773"/>
<stop offset="1" stop-color="#FA6C69"/>
</linearGradient>
<linearGradient id="paint11_linear_528_18624" x1="247.165" y1="79.8098" x2="251.215" y2="165.744" gradientUnits="userSpaceOnUse">
<stop stop-color="#B3E2FC"/>
<stop offset="1" stop-color="#2D9BEE"/>
</linearGradient>
<linearGradient id="paint12_linear_528_18624" x1="257.821" y1="159.31" x2="257.821" y2="258.26" gradientUnits="userSpaceOnUse">
<stop stop-color="#304DD9"/>
<stop offset="1" stop-color="#182C8C"/>
</linearGradient>
<linearGradient id="paint13_linear_528_18624" x1="240.456" y1="63.6665" x2="240.456" y2="128.193" gradientUnits="userSpaceOnUse">
<stop stop-color="#FBB773"/>
<stop offset="1" stop-color="#FA6C69"/>
</linearGradient>
<linearGradient id="paint14_linear_528_18624" x1="6.70154e-05" y1="7.92816" x2="5.14229" y2="7.92816" gradientUnits="userSpaceOnUse">
<stop stop-color="#304DD9"/>
<stop offset="1" stop-color="#182C8C"/>
</linearGradient>
<linearGradient id="paint15_linear_528_18624" x1="130.971" y1="97.1961" x2="125.829" y2="97.1961" gradientUnits="userSpaceOnUse">
<stop stop-color="#304DD9"/>
<stop offset="1" stop-color="#182C8C"/>
</linearGradient>
<linearGradient id="paint16_linear_528_18624" x1="241.31" y1="67.3665" x2="241.31" y2="103.542" gradientUnits="userSpaceOnUse">
<stop stop-color="#182C8C"/>
<stop offset="1" stop-color="#001333"/>
</linearGradient>
<linearGradient id="paint17_linear_528_18624" x1="203.102" y1="63.666" x2="203.102" y2="128.193" gradientUnits="userSpaceOnUse">
<stop stop-color="#FBB773"/>
<stop offset="1" stop-color="#FA6C69"/>
</linearGradient>
<linearGradient id="paint18_linear_528_18624" x1="229.138" y1="118.874" x2="183.319" y2="118.874" gradientUnits="userSpaceOnUse">
<stop stop-color="#B3E2FC"/>
<stop offset="1" stop-color="#2D9BEE"/>
</linearGradient>
<clipPath id="clip0_528_18624">
<rect width="366" height="370" rx="12" fill="white"/>
</clipPath>
</defs>
</svg>
