<svg width="20" height="16" viewBox="0 0 20 16" fill="none" xmlns="http://www.w3.org/2000/svg">
<path fill-rule="evenodd" clip-rule="evenodd" d="M18.75 9.25H1.25C0.55 9.25 0 8.7 0 8C0 7.3 0.55 6.75 1.25 6.75H18.75C19.45 6.75 20 7.3 20 8C20 8.7 19.45 9.25 18.75 9.25ZM18.75 3H1.25C0.55 3 0 2.45 0 1.75C0 1.05 0.55 0.5 1.25 0.5H18.75C19.45 0.5 20 1.05 20 1.75C20 2.45 19.45 3 18.75 3ZM1.25 13H18.75C19.45 13 20 13.55 20 14.25C20 14.95 19.45 15.5 18.75 15.5H1.25C0.55 15.5 0 14.95 0 14.25C0 13.55 0.55 13 1.25 13Z" fill="#071655"/>
</svg>
