<svg width="588" height="391" viewBox="0 0 588 391" fill="none" xmlns="http://www.w3.org/2000/svg">
<g clip-path="url(#clip0_321_11118)">
<path d="M367.069 343.698C453.898 343.698 524.288 341.127 524.288 337.956C524.288 334.784 453.898 332.213 367.069 332.213C280.239 332.213 209.849 334.784 209.849 337.956C209.849 341.127 280.239 343.698 367.069 343.698Z" fill="#D3E5F4"/>
<path d="M236.121 351.9C274.662 351.9 305.905 349.513 305.905 346.568C305.905 343.623 274.662 341.235 236.121 341.235C197.581 341.235 166.337 343.623 166.337 346.568C166.337 349.513 197.581 351.9 236.121 351.9Z" fill="#D3E5F4"/>
<path d="M454.259 69.6443L293.899 62.669L135.604 40.1777L100.029 226.628L98.5789 234.218L306.476 246.287H475.876L456.481 69.7396L454.259 69.6443Z" fill="#D3E5F4"/>
<path d="M135.604 40.1777L100.029 226.628L142.604 49.9715L301.841 70.8712L454.259 69.6443L293.899 62.669L135.604 40.1777Z" fill="#98CFE4"/>
<g opacity="0.5">
<path d="M177.352 114.608C165.611 114.608 156.06 124.153 156.06 135.883C156.06 147.613 165.611 157.158 177.352 157.158C189.093 157.158 198.645 147.614 198.645 135.883C198.645 124.151 189.095 114.608 177.352 114.608ZM177.352 156.406C166.026 156.406 156.812 147.199 156.812 135.883C156.812 124.566 166.027 115.36 177.352 115.36C188.677 115.36 197.892 124.567 197.892 135.883C197.892 147.198 188.679 156.406 177.352 156.406Z" fill="#98CFE4"/>
<path d="M177.353 147.223C183.622 147.223 188.703 142.146 188.703 135.883C188.703 129.62 183.622 124.542 177.353 124.542C171.085 124.542 166.003 129.62 166.003 135.883C166.003 142.146 171.085 147.223 177.353 147.223Z" fill="#98CFE4"/>
</g>
<g opacity="0.5">
<path d="M249.982 77.21C248.807 77.21 247.658 77.5582 246.68 78.2106C245.703 78.8631 244.941 79.7904 244.492 80.8754C244.042 81.9604 243.924 83.1542 244.153 84.306C244.383 85.4578 244.949 86.5158 245.78 87.3462C246.611 88.1766 247.67 88.7421 248.823 88.9712C249.975 89.2003 251.17 89.0828 252.256 88.6334C253.342 88.1839 254.27 87.4229 254.923 86.4465C255.576 85.47 255.925 84.322 255.925 83.1476C255.923 81.5734 255.296 80.0641 254.182 78.9509C253.068 77.8377 251.558 77.2116 249.982 77.21ZM249.982 88.3334C248.956 88.3334 247.952 88.0293 247.099 87.4595C246.245 86.8896 245.58 86.0797 245.187 85.1322C244.794 84.1846 244.691 83.1419 244.892 82.136C245.092 81.13 245.586 80.206 246.312 79.4808C247.038 78.7555 247.963 78.2616 248.969 78.0615C249.976 77.8614 251.02 77.9641 251.968 78.3566C252.917 78.7491 253.727 79.4138 254.298 80.2666C254.868 81.1194 255.172 82.122 255.172 83.1476C255.171 84.5226 254.624 85.8408 253.651 86.8131C252.678 87.7853 251.358 88.3321 249.982 88.3334Z" fill="#98CFE4"/>
<path d="M249.982 86.1653C251.65 86.1653 253.002 84.8142 253.002 83.1476C253.002 81.481 251.65 80.1299 249.982 80.1299C248.314 80.1299 246.962 81.481 246.962 83.1476C246.962 84.8142 248.314 86.1653 249.982 86.1653Z" fill="#98CFE4"/>
</g>
<path d="M274.132 256.907H251.708C238.761 256.907 228.268 274.828 228.268 296.938C228.268 299.82 228.504 302.619 228.784 305.335C230.639 323.313 235.111 335.716 251.708 336.965H274.935V336.934C285.835 336.308 294.85 322.977 297.056 305.335C297.403 302.549 297.576 299.745 297.574 296.938C297.569 274.828 287.075 256.907 274.132 256.907Z" fill="#252526"/>
<path d="M100.724 257.388H78.2998C65.3532 257.388 54.8586 275.309 54.8586 297.419C54.8573 300.226 55.0299 303.03 55.3754 305.816C57.6331 323.888 67.0402 337.446 78.2998 337.446H101.523V337.415C112.422 336.789 121.438 323.459 123.643 305.816C123.99 303.031 124.162 300.226 124.16 297.419C124.161 275.31 113.668 257.388 100.724 257.388Z" fill="#252526"/>
<path d="M141.584 223.083C139.715 220.865 136.202 218.847 133.779 218.598L126.735 217.874C125.434 217.741 124.026 218.491 122.847 219.79C121.74 221.039 120.942 222.532 120.519 224.146L119.766 226.933C119.317 228.596 119.312 230.066 119.666 231.152C120.098 232.477 121.067 233.224 122.418 233.032L142.62 230.225C145.077 229.884 145.555 227.789 143.686 225.572L141.584 223.083Z" fill="#FFCB6E"/>
<g style="mix-blend-mode:color-dodge" opacity="0.4">
<path d="M133.114 223.677C131.677 221.972 128.975 220.419 127.111 220.228L122.847 219.79C121.74 221.039 120.942 222.532 120.519 224.146L119.766 226.933C119.317 228.596 119.312 230.066 119.666 231.152L133.911 229.172C135.799 228.91 136.168 227.3 134.731 225.595L133.114 223.677Z" fill="white"/>
</g>
<path d="M434.171 247.231L324.951 247.858C324.17 247.86 323.422 248.171 322.869 248.722C322.317 249.274 322.006 250.022 322.004 250.803V299.748C322.006 300.528 322.317 301.276 322.869 301.828C323.422 302.38 324.17 302.691 324.951 302.693H439.754C440.535 302.691 441.284 302.38 441.836 301.828C442.389 301.276 442.7 300.528 442.703 299.748L442.984 274.858C442.984 273.238 435.793 247.231 434.171 247.231Z" fill="#E07E27"/>
<g style="mix-blend-mode:multiply" opacity="0.3">
<path d="M320.761 234.597H320.771L294.55 235.186L320.761 234.597Z" fill="white"/>
<path d="M294.544 234.937L294.555 235.437L320.766 234.848L320.793 234.847L320.766 234.347L294.544 234.937Z" fill="black"/>
</g>
<g style="mix-blend-mode:multiply" opacity="0.3">
<path d="M288.179 235.332L288.158 235.081H287.904L287.908 235.624L288.197 235.579L288.179 235.332H288.406H288.179Z" fill="black"/>
</g>
<path d="M188.627 231.825C135.503 233.688 166.287 230.907 129.717 230.907C111.875 230.907 67.3801 229.723 48.1282 246.899C46.1088 248.7 45.271 252.686 45.1894 257.794C45.1836 258.194 45.1836 258.6 45.1894 259.014C45.1894 259.195 45.1894 259.381 45.197 259.566C45.207 260.338 45.2346 261.132 45.2747 261.947C45.3387 263.226 45.4365 264.548 45.562 265.9C45.7188 267.589 45.9207 269.328 46.1577 271.091C46.2982 272.136 46.4496 273.188 46.6118 274.246C46.7573 275.186 46.9091 276.126 47.0684 277.075C47.5839 280.121 48.1671 283.162 48.7717 286.075C49.9457 291.73 51.1999 296.908 52.1845 300.738C53.0738 304.194 53.7436 306.555 53.9405 307.186C54.1713 307.93 57.7234 316.916 58.5261 316.916C62.7493 316.916 117.352 316.196 121.365 316.196L243.914 321.71C250.91 321.71 251.604 306.931 251.604 303.014C251.604 301.803 251.551 300.665 251.551 299.71C251.551 284.384 256.077 270.81 262.987 262.548V231.323C248.69 233.067 222.682 230.632 188.627 231.825Z" fill="#E29E24"/>
<path d="M393.147 253.891H196.841V324.783H393.147C393.926 324.775 394.67 324.459 395.215 323.904C395.761 323.349 396.065 322.601 396.06 321.823V256.847C396.064 256.07 395.76 255.322 395.214 254.768C394.668 254.214 393.925 253.899 393.147 253.891Z" fill="#E07E27"/>
<path d="M214.479 256.907C201.532 256.907 191.038 274.828 191.038 296.938C191.036 299.745 191.209 302.549 191.554 305.335C193.812 323.408 203.219 336.965 214.479 336.965H237.702L238.976 298.052L236.9 256.907H214.479Z" fill="#252526"/>
<path d="M236.9 256.907C223.954 256.907 213.459 274.828 213.459 296.938C213.457 299.745 213.63 302.549 213.976 305.335C216.233 323.408 225.641 336.965 236.9 336.965C248.16 336.965 257.562 323.408 259.821 305.335C260.167 302.549 260.34 299.745 260.337 296.938C260.337 274.828 249.849 256.907 236.9 256.907Z" fill="#4F4F4F"/>
<path d="M237.173 267.935C227.791 267.935 220.187 280.922 220.187 296.943C220.186 298.977 220.312 301.009 220.563 303.028C222.194 316.124 229.016 325.947 237.176 325.946C245.336 325.945 252.147 316.124 253.785 303.026C254.037 301.008 254.162 298.976 254.161 296.942C254.158 280.917 246.553 267.935 237.173 267.935Z" fill="#252526"/>
<path d="M244.295 269.506C242.05 267.884 239.654 267.061 237.173 267.061C234.692 267.061 232.297 267.884 230.05 269.506C227.929 271.038 226.037 273.219 224.406 275.988C221.121 281.599 219.311 289.039 219.311 296.939C219.309 299.009 219.435 301.077 219.688 303.132C220.505 309.665 222.641 315.62 225.708 319.901C227.261 322.07 229.008 323.767 230.901 324.944C232.899 326.184 235.009 326.815 237.172 326.815V325.073C229.647 325.073 223.03 315.754 221.426 302.916C221.18 300.933 221.056 298.937 221.057 296.939C221.057 289.344 222.782 282.216 225.913 276.868C228.959 271.667 232.957 268.802 237.172 268.802C241.388 268.802 245.384 271.666 248.429 276.867C251.565 282.214 253.285 289.343 253.285 296.938C253.286 298.936 253.163 300.932 252.917 302.915C251.312 315.754 244.69 325.071 237.173 325.073V326.815C239.335 326.815 241.438 326.188 243.445 324.942C245.337 323.767 247.082 322.07 248.636 319.901C251.699 315.62 253.835 309.665 254.657 303.13C254.91 301.076 255.036 299.008 255.033 296.938C255.033 289.043 253.224 281.598 249.939 275.987C248.314 273.219 246.416 271.038 244.295 269.506Z" fill="white"/>
<path d="M237.189 285.282C236.75 283.985 236.215 282.722 235.588 281.504C234.019 278.496 232.022 276.326 229.77 275.721C229.354 275.608 228.924 275.55 228.493 275.55C228.242 275.675 227.249 276.671 226.11 278.634C225.213 280.211 224.482 281.876 223.927 283.603C223.258 285.672 222.777 287.796 222.49 289.952C222.255 291.69 222.12 293.441 222.086 295.195C222.086 295.545 222.075 295.899 222.075 296.259C222.075 297.086 222.094 297.893 222.132 298.679C222.185 299.793 222.273 300.866 222.383 301.897C222.599 303.83 222.939 305.747 223.402 307.636C224.029 310.254 224.935 312.798 226.103 315.224C227.232 317.526 228.227 318.798 228.487 318.936C228.928 318.934 229.366 318.861 229.785 318.72C231.869 318.038 233.859 315.788 235.455 312.81C236.1 311.6 236.657 310.346 237.123 309.057C237.959 306.774 238.537 304.406 238.848 301.996C238.984 300.916 239.073 299.81 239.115 298.678C239.133 298.203 239.142 297.724 239.142 297.24C239.142 296.562 239.122 295.88 239.081 295.194C238.895 291.82 238.259 288.487 237.189 285.282Z" fill="#707070"/>
<g style="mix-blend-mode:lighten">
<path d="M222.08 296.258C222.08 297.085 222.099 297.891 222.137 298.678H244.273V295.194H222.091C222.085 295.546 222.08 295.901 222.08 296.258Z" fill="white"/>
<path d="M221.84 295.191C221.832 295.551 221.829 295.909 221.829 296.26C221.829 297.07 221.849 297.889 221.886 298.691L221.898 298.931H244.523V294.946H221.845L221.84 295.191ZM222.342 295.442H244.025V298.424H222.38C222.35 297.705 222.334 296.977 222.334 296.255C222.33 295.993 222.333 295.72 222.338 295.447L222.342 295.442Z" fill="black"/>
</g>
<g style="mix-blend-mode:lighten">
<path d="M228.064 295.196L227.347 293.191L225.578 288.223L223.932 283.6C223.263 285.669 222.782 287.794 222.495 289.949L224.362 295.192L224.89 296.67L224.943 296.82L224.818 297.071L224.009 298.681L222.394 301.897C222.61 303.83 222.95 305.747 223.413 307.636L225.46 303.559L227.058 300.378L227.911 298.679L228.6 297.3L228.726 297.05L228.6 296.681L228.064 295.196Z" fill="white"/>
<path d="M223.694 283.526C223.02 285.609 222.535 287.748 222.245 289.918L222.238 289.979L224.127 295.279L224.671 296.805L222.136 301.851L222.145 301.925C222.363 303.868 222.705 305.796 223.17 307.696L223.331 308.356L228.998 297.077L223.923 282.833L223.694 283.526ZM228.46 297.04L223.498 306.91C223.125 305.272 222.842 303.614 222.651 301.945L225.215 296.842L222.757 289.927C223.013 288.054 223.413 286.204 223.953 284.392L228.46 297.04Z" fill="black"/>
</g>
<g style="mix-blend-mode:lighten">
<path d="M227.853 288.989C225.279 288.989 223.193 292.552 223.193 296.947C223.193 297.505 223.227 298.062 223.295 298.615C223.744 302.208 225.613 304.902 227.852 304.902C230.091 304.902 231.959 302.207 232.409 298.615C232.477 298.062 232.511 297.505 232.51 296.947C232.511 292.549 230.426 288.989 227.853 288.989Z" fill="white"/>
<path d="M227.853 288.739C225.145 288.739 222.943 292.42 222.943 296.947C222.943 297.515 222.977 298.082 223.045 298.646C223.525 302.477 225.501 305.153 227.852 305.153C230.202 305.153 232.179 302.477 232.658 298.646C232.728 298.083 232.762 297.515 232.761 296.947C232.761 294.776 232.259 292.734 231.364 291.194C230.437 289.616 229.19 288.739 227.853 288.739ZM232.16 298.584C231.72 302.1 229.903 304.652 227.852 304.652C225.801 304.652 223.984 302.1 223.543 298.585C223.477 298.042 223.444 297.495 223.444 296.947C223.444 292.697 225.422 289.24 227.853 289.24C229.005 289.24 230.097 290.023 230.931 291.445C231.789 292.912 232.261 294.864 232.259 296.947C232.262 297.494 232.23 298.04 232.164 298.582L232.16 298.584Z" fill="black"/>
</g>
<path d="M227.575 291.452C226.13 291.452 224.959 293.65 224.959 296.36C224.959 299.071 226.13 301.269 227.575 301.269C229.02 301.269 230.189 299.071 230.189 296.36C230.189 293.65 229.018 291.452 227.575 291.452Z" fill="black"/>
<path d="M388.919 256.907C375.972 256.907 365.477 274.828 365.477 296.938C365.476 299.745 365.648 302.549 365.994 305.335C368.251 323.408 377.659 336.965 388.919 336.965H412.141L413.415 298.052L411.342 256.907H388.919Z" fill="#252526"/>
<path d="M411.342 256.907C398.395 256.907 387.901 274.828 387.901 296.938C387.899 299.745 388.072 302.549 388.418 305.335C390.675 323.408 400.082 336.965 411.342 336.965C422.602 336.965 432.004 323.408 434.263 305.335C434.609 302.549 434.782 299.745 434.779 296.938C434.779 274.828 424.286 256.907 411.342 256.907Z" fill="#4F4F4F"/>
<path d="M411.615 267.935C402.233 267.935 394.629 280.922 394.629 296.943C394.628 298.977 394.754 301.009 395.005 303.028C396.643 316.124 403.457 325.947 411.618 325.946C419.778 325.945 426.589 316.124 428.227 303.026C428.479 301.008 428.604 298.976 428.603 296.942C428.601 280.917 420.995 267.935 411.615 267.935Z" fill="#252526"/>
<path d="M418.737 269.506C416.492 267.884 414.096 267.061 411.617 267.061C409.137 267.061 406.739 267.884 404.492 269.506C402.371 271.038 400.479 273.219 398.848 275.988C395.563 281.599 393.753 289.039 393.753 296.939C393.751 299.009 393.876 301.077 394.129 303.132C394.946 309.665 397.082 315.62 400.15 319.901C401.703 322.07 403.45 323.767 405.343 324.944C407.342 326.184 409.45 326.815 411.614 326.815V325.073C404.095 325.073 397.472 315.754 395.868 302.916C395.622 300.933 395.498 298.937 395.499 296.939C395.499 289.344 397.224 282.216 400.356 276.868C403.401 271.667 407.4 268.802 411.614 268.802C415.828 268.802 419.826 271.666 422.871 276.867C426.007 282.214 427.728 289.343 427.728 296.938C427.729 298.936 427.606 300.932 427.359 302.915C425.755 315.754 419.132 325.071 411.615 325.073V326.815C413.775 326.815 415.88 326.188 417.887 324.942C419.779 323.767 421.524 322.07 423.079 319.901C426.141 315.62 428.277 309.665 429.094 303.13C429.349 301.076 429.477 299.008 429.476 296.938C429.476 289.043 427.666 281.598 424.381 275.987C422.756 273.219 420.858 271.038 418.737 269.506Z" fill="white"/>
<path d="M411.63 285.282C411.191 283.985 410.657 282.722 410.03 281.504C408.461 278.496 406.464 276.326 404.211 275.721C403.795 275.608 403.366 275.55 402.934 275.55C402.684 275.675 401.69 276.671 400.551 278.634C399.655 280.211 398.923 281.876 398.369 283.603C397.7 285.672 397.218 287.796 396.931 289.952C396.696 291.69 396.562 293.441 396.528 295.195C396.528 295.545 396.516 295.899 396.516 296.259C396.516 297.086 396.536 297.893 396.574 298.679C396.627 299.793 396.715 300.866 396.825 301.897C397.041 303.83 397.382 305.746 397.843 307.636C398.471 310.254 399.376 312.798 400.545 315.224C401.674 317.526 402.669 318.798 402.928 318.936C403.37 318.934 403.808 318.861 404.226 318.72C406.311 318.038 408.3 315.788 409.897 312.81C410.542 311.6 411.099 310.346 411.565 309.057C412.401 306.774 412.98 304.406 413.291 301.996C413.426 300.916 413.514 299.81 413.557 298.678C413.574 298.203 413.583 297.724 413.583 297.24C413.583 296.562 413.564 295.879 413.523 295.194C413.337 291.82 412.7 288.487 411.63 285.282Z" fill="#707070"/>
<g style="mix-blend-mode:lighten">
<path d="M396.521 296.258C396.521 297.085 396.541 297.891 396.579 298.678H418.715V295.194H396.533C396.527 295.546 396.521 295.901 396.521 296.258Z" fill="white"/>
<path d="M396.282 295.191C396.282 295.548 396.271 295.908 396.271 296.26C396.271 297.067 396.291 297.889 396.328 298.691L396.339 298.931H418.965V294.946H396.288L396.282 295.191ZM396.784 295.442H418.467V298.424H396.819C396.789 297.704 396.772 296.974 396.772 296.255C396.772 295.992 396.775 295.72 396.78 295.447L396.784 295.442Z" fill="black"/>
</g>
<g style="mix-blend-mode:lighten">
<path d="M402.506 295.196L401.789 293.191L400.02 288.223L398.374 283.6C397.705 285.669 397.223 287.794 396.937 289.949L398.804 295.192L399.332 296.67L399.385 296.82L399.259 297.071L398.45 298.681L396.836 301.897C397.053 303.83 397.393 305.746 397.855 307.636L399.903 303.559L401.5 300.378L402.353 298.679L403.044 297.3L403.169 297.05L403.044 296.681L402.506 295.196Z" fill="white"/>
<path d="M398.137 283.526C397.463 285.609 396.978 287.748 396.688 289.918L396.679 289.979L398.568 295.279L399.113 296.805L396.578 301.851L396.587 301.925C396.805 303.868 397.147 305.796 397.611 307.696L397.773 308.356L403.44 297.077L398.365 282.833L398.137 283.526ZM402.896 297.04L397.94 306.91C397.567 305.272 397.284 303.614 397.093 301.945L399.657 296.842L397.194 289.928C397.448 288.055 397.848 286.205 398.389 284.394L402.896 297.04Z" fill="black"/>
</g>
<g style="mix-blend-mode:lighten">
<path d="M402.295 288.989C399.721 288.989 397.635 292.552 397.635 296.947C397.635 297.505 397.669 298.062 397.737 298.615C398.186 302.208 400.054 304.902 402.293 304.902C404.532 304.902 406.401 302.207 406.85 298.615C406.919 298.062 406.953 297.505 406.952 296.947C406.953 292.549 404.867 288.989 402.295 288.989Z" fill="white"/>
<path d="M402.295 288.739C399.587 288.739 397.384 292.42 397.384 296.947C397.384 297.515 397.419 298.082 397.487 298.646C397.966 302.477 399.943 305.153 402.293 305.153C404.644 305.153 406.621 302.477 407.1 298.646C407.169 298.083 407.204 297.515 407.203 296.947C407.203 294.776 406.707 292.734 405.805 291.194C404.877 289.616 403.632 288.739 402.295 288.739ZM406.602 298.584C406.162 302.1 404.35 304.652 402.293 304.652C400.236 304.652 398.425 302.1 397.985 298.585C397.919 298.042 397.886 297.495 397.886 296.947C397.886 292.697 399.864 289.24 402.295 289.24C403.446 289.24 404.54 290.023 405.373 291.445C406.231 292.912 406.702 294.864 406.701 296.947C406.702 297.494 406.669 298.04 406.602 298.582V298.584Z" fill="black"/>
</g>
<path d="M402.017 301.269C403.461 301.269 404.632 299.072 404.632 296.36C404.632 293.649 403.461 291.452 402.017 291.452C400.572 291.452 399.401 293.649 399.401 296.36C399.401 299.072 400.572 301.269 402.017 301.269Z" fill="black"/>
<path d="M172.398 232.226C93.2217 224.373 29.3315 253.928 55.8042 270.865C61.7808 274.689 78.8301 274.7 99.419 274.886C129.854 275.159 194.995 263.983 194.995 263.983L257.071 244.168L305.185 231.863L262.974 231.318C253.443 231.323 172.398 232.226 172.398 232.226Z" fill="#FFCB6E"/>
<path d="M426.874 228.238C426.874 228.238 416.778 224.519 388.037 227.054C389.515 224.376 382.028 222.342 379.643 218.478L379.712 218.603C379.789 218.728 379.866 218.854 379.939 218.979C379.946 218.991 380.045 219.162 380.087 219.236L380.094 219.25C383.456 225.39 373.549 228.588 359.824 230.229L357.858 230.365C323.35 232.733 323.853 231.473 291.777 231.438C286.683 231.438 288.192 231.438 287.396 231.438C227.454 231.577 197.678 229.283 185.327 255.524C182.747 261.004 184.666 301.093 186.817 315.562C187.278 318.673 186.546 321.752 186.441 324.564H206.811V317.592C206.803 316.905 206.794 316.228 206.785 315.562C206.667 306.332 206.577 299.334 206.577 299.295C206.577 274.454 221.064 254.244 235.815 254.244C250.567 254.244 262.565 274.453 262.565 299.294C262.565 299.407 262.565 299.52 262.565 299.631C262.565 299.861 262.565 300.089 262.565 300.318C262.565 307.262 263.269 309.159 267.28 309.159H378.12C385.097 309.159 384.617 306.934 384.615 303.036V303.004C384.615 301.794 384.562 300.656 384.562 299.7C384.558 274.577 396.698 254.15 411.618 254.15C423.25 254.15 433.191 266.581 437.004 283.969H442.983V274.864C442.983 270.345 442.991 271.222 442.983 266.705C442.967 256.495 444.451 228.238 426.874 228.238Z" fill="#F4B942"/>
<path d="M367.809 239.211L362.181 239.642C359.263 239.863 357.297 241.608 357.81 243.518C358.323 245.428 361.127 246.806 364.045 246.584L369.673 246.153C372.59 245.93 374.557 244.186 374.044 242.276C373.531 240.366 370.725 238.986 367.809 239.211Z" fill="#FFCB6E"/>
<path d="M297.601 236.516C296.113 233.539 292.709 231.412 292.562 231.323L292.192 231.094L291.734 231.835L292.104 232.063C292.138 232.084 295.446 234.153 296.82 236.906C298.171 239.609 301.323 251.318 302.267 260.905V304.629H303.144V260.842C302.214 251.438 299.142 239.603 297.601 236.516Z" fill="white"/>
<path d="M379.927 219.359L379.756 218.958L378.954 219.302L379.126 219.702C381 224.062 387.108 239.389 387.092 253.584V254.025H387.97V253.59C387.977 247.561 386.89 240.644 384.74 233.037C383.423 228.382 381.815 223.814 379.927 219.359Z" fill="white"/>
<path d="M401.975 248.845C374.044 256.382 375.335 278.024 375.335 278.024C375.335 278.024 373.6 292.259 373.542 296.551C364.358 306.058 338.752 304.081 326.663 304.081H277.268C271.675 304.081 269.812 303.769 269.708 299.298C269.708 286.022 266.572 273.418 260.864 263.816C254.467 253.038 245.571 247.108 235.813 247.108C226.207 247.108 216.699 253.079 209.724 263.486C203.085 273.394 199.429 286.114 199.429 299.301L199.19 315.566L199.174 316.647L199.072 323.589L199.057 324.566V324.665L206.813 324.566L206.728 315.566L206.577 299.298C206.577 274.458 221.064 254.248 235.814 254.248C250.224 254.248 262.009 273.537 262.545 297.589C262.556 298.158 262.569 298.727 262.569 299.299C262.569 299.412 262.569 299.525 262.569 299.636C262.569 299.866 262.569 300.094 262.569 300.322C262.569 307.267 263.274 309.164 267.286 309.164H378.126C385.123 309.164 384.621 306.926 384.621 303.009C384.621 302.403 384.608 301.817 384.595 301.262C384.581 300.707 384.568 300.183 384.568 299.705C384.568 274.585 396.705 254.144 411.624 254.144C423.256 254.144 433.198 266.576 437.012 283.964H439.237C439.231 273.557 429.903 241.308 401.975 248.845Z" fill="#FFCB6E"/>
<path d="M362.985 301.897C372.127 300.143 374.541 295.892 375.84 290.979C376.17 288.629 377.085 284.107 377.085 284.104C377.7 280.445 378.288 278.134 379.229 276.404C385.646 256.297 397.758 250.869 407.515 247.746C405.504 247.108 365.206 242.078 362.985 301.897Z" fill="white"/>
<path d="M273.43 251.706H267.935C266.541 251.706 265.4 252.467 265.4 253.398V255.145C265.4 256.075 266.541 256.837 267.935 256.837H273.43C274.824 256.837 275.964 256.075 275.964 255.145V253.398C275.961 252.467 274.821 251.706 273.43 251.706Z" fill="#FFCB6E"/>
<path d="M196.899 315.565H56.636C54.9051 315.565 53.4878 317.06 53.4878 318.886V321.245C53.4878 323.071 54.9051 324.566 56.636 324.566H69.3594C71.0915 324.566 73.1222 323.589 73.8748 322.393C74.6273 321.198 76.658 320.221 78.3901 320.221H149.264C150.996 320.221 153.554 321.107 154.947 322.19L155.47 322.596C156.864 323.68 159.422 324.566 161.155 324.566H196.901C198.632 324.566 200.05 323.071 200.05 321.245V318.886C200.047 317.061 198.63 315.565 196.899 315.565Z" fill="#E07E27"/>
<path d="M191.573 315.566C190.75 315.568 189.961 315.895 189.379 316.477C188.796 317.058 188.468 317.846 188.465 318.669V321.465C188.468 322.287 188.797 323.075 189.379 323.656C189.961 324.237 190.75 324.564 191.573 324.566H206.811L206.727 315.566H191.573Z" fill="#F4B942"/>
<path d="M131.397 275.843C131.397 275.843 179.687 286.049 186.817 271.873C193.948 257.697 191.196 246.13 191.196 246.13L131.397 275.843Z" fill="white"/>
<path d="M147.375 269.524C147.375 269.524 174.494 275.255 178.496 267.294C182.498 259.332 180.954 252.838 180.954 252.838L147.375 269.524Z" fill="#E29E24"/>
<path d="M45.1845 259.014C45.1845 259.195 45.1845 259.381 45.192 259.566C45.202 260.338 45.2296 261.132 45.2698 261.947C45.3337 263.226 45.4316 264.548 45.557 265.9C45.7138 267.589 45.9157 269.327 46.1528 271.091C46.2933 272.136 46.4446 273.188 46.6068 274.246C54.0473 274.745 61.5102 274.82 68.9592 274.469L45.1895 257.802C45.1836 258.196 45.182 258.6 45.1845 259.014Z" fill="white"/>
<path d="M45.2697 261.941C45.3336 263.219 45.4315 264.542 45.5569 265.894C50.3984 266.038 54.111 265.822 54.111 265.822L45.1919 259.566C45.2019 260.338 45.2295 261.132 45.2697 261.941Z" fill="#E29E24"/>
<path d="M103.707 289.103C82.6118 288.951 64.1376 287.923 48.7703 286.069C49.9443 291.724 51.1985 296.902 52.1831 300.732C53.4901 300.869 54.8008 301 56.1153 301.124C72.4673 302.67 89.3259 303.217 103.608 303.318C105.399 303.331 107.183 303.337 108.958 303.338C137.73 303.338 163.736 301.7 176.33 300.263V285.948C164.402 287.459 135.459 289.33 103.707 289.103Z" fill="#FFCB6E"/>
<path d="M108.504 292.937C87.4082 292.785 68.9353 291.756 53.5667 289.903C54.4196 294.006 55.3126 297.858 56.1153 301.126C72.4673 302.673 89.326 303.219 103.608 303.321C105.4 303.333 107.183 303.34 108.958 303.341C137.73 303.341 163.736 301.703 176.33 300.265V290.318C162.469 291.697 136.588 293.138 108.504 292.937Z" fill="white"/>
<path d="M108.573 237.793C108.573 237.793 75.9531 240.676 63.0002 253.61C50.0473 266.544 108.573 237.793 108.573 237.793Z" fill="white"/>
<path d="M408.867 203.603C400.501 199.907 392.185 198.112 383.042 196.612C356.429 192.247 329.735 189.924 303.201 195.253C288.753 198.156 280.188 206.225 275.796 217.877L412.638 215.139C416.616 212.363 416.89 207.147 408.867 203.603Z" fill="#D66F36"/>
<path d="M412.633 215.139C409.693 214.41 296.458 212.883 293.978 212.923C291.229 212.963 261.445 214.145 259.087 216.325C256.795 218.44 248.155 228.046 248.979 230.307C249.768 232.471 285.779 231.698 287.736 232.618C292.946 235.065 298.169 237.296 303.876 238.075C313.606 239.405 325.018 236.143 334.879 235.367C348.55 234.292 362.642 234.297 376.096 231.472L410.204 227.512C408.406 226.882 415.199 215.774 412.633 215.139Z" fill="#963809"/>
<path d="M173.007 210.571C167.31 210.571 161.948 213.171 157.908 217.892C155.736 220.45 154.083 223.406 153.039 226.595H156.975C159.906 219.77 165.991 215.065 173.007 215.065C180.024 215.065 186.107 219.766 189.038 226.595H192.974C191.931 223.406 190.278 220.451 188.106 217.892C184.065 213.17 178.703 210.571 173.007 210.571Z" fill="#63270C"/>
<path d="M141.292 221.087C135.238 222.658 133.444 226.612 129.765 231.101L248.043 229.096C236.345 218.488 157.01 217.006 141.292 221.087Z" fill="#963809"/>
<path d="M288.13 195.434C288.13 195.385 288.13 195.337 288.122 195.288C288.115 195.239 288.122 195.194 288.115 195.148C288.107 195.101 288.115 195.076 288.104 195.038C288.094 194.999 288.104 194.982 288.098 194.959L288.076 194.719C288.056 194.548 288.032 194.376 288.005 194.207C288.005 194.177 287.995 194.148 287.989 194.118C287.977 194.035 287.96 193.952 287.943 193.867C287.935 193.829 287.929 193.794 287.921 193.758C287.914 193.722 287.899 193.655 287.886 193.603C287.874 193.55 287.865 193.514 287.854 193.466C287.842 193.418 287.826 193.355 287.811 193.297C287.796 193.239 287.786 193.204 287.772 193.158C287.727 193.006 287.681 192.857 287.627 192.708C287.619 192.682 287.609 192.656 287.6 192.633L287.543 192.48C287.531 192.447 287.517 192.416 287.506 192.383C287.405 192.133 287.289 191.888 287.161 191.65C284.495 186.701 267.623 186.963 262.635 186.919H192.975C192.898 186.919 192.82 186.919 192.741 186.919H192.654L192.546 186.926C192.497 186.926 192.45 186.926 192.401 186.936C192.352 186.946 192.303 186.943 192.255 186.947C179.726 188.043 144.377 216.332 126.547 231.266L126.495 231.309L126.456 231.342C125.291 232.379 127.989 233.052 133.32 233.458C138.041 233.818 144.829 233.96 152.824 233.971H153.396C154.298 233.971 155.214 233.971 156.145 233.971C164.944 233.971 174.968 233.992 185.193 234.017H188.516C208.792 234.07 229.423 234.143 242.527 234.18C247.152 234.194 250.84 234.199 253.241 234.199L268.341 231.881L268.968 231.785H268.999C269.07 231.785 269.14 231.785 269.208 231.785C269.275 231.785 269.333 231.785 269.387 231.778H269.473C269.529 231.778 269.583 231.77 269.635 231.767L269.823 231.749C269.891 231.74 269.96 231.733 270.025 231.723C270.091 231.713 270.151 231.705 270.215 231.694C270.392 231.666 270.566 231.632 270.738 231.59C270.785 231.58 270.831 231.567 270.877 231.556C270.888 231.556 270.901 231.556 270.912 231.546C270.957 231.535 271.001 231.523 271.046 231.51C271.241 231.455 271.432 231.393 271.62 231.323L271.753 231.27L271.774 231.263L271.908 231.209C271.983 231.177 272.057 231.146 272.133 231.111C272.258 231.057 272.373 230.998 272.495 230.937C272.733 230.812 272.97 230.679 273.202 230.532C273.317 230.459 273.432 230.383 273.546 230.304C273.603 230.265 273.659 230.224 273.715 230.179C273.827 230.097 273.94 230.011 274.052 229.928C274.163 229.845 274.274 229.751 274.381 229.659C274.489 229.566 274.597 229.471 274.706 229.373L274.866 229.224L275.025 229.071C275.078 229.018 275.13 228.968 275.183 228.913L275.338 228.754L275.455 228.628C275.488 228.596 275.519 228.561 275.552 228.526C275.563 228.512 275.576 228.498 275.587 228.487C275.622 228.448 275.658 228.409 275.693 228.362C275.729 228.314 275.796 228.245 275.848 228.187C275.899 228.13 275.941 228.081 275.986 228.026C276.031 227.971 276.076 227.919 276.124 227.863L276.259 227.696C276.393 227.528 276.528 227.355 276.659 227.181L276.792 227.004C276.837 226.944 276.88 226.879 276.924 226.825L277.031 226.675C277.121 226.549 277.21 226.418 277.299 226.285C277.338 226.23 277.377 226.171 277.416 226.113L277.666 225.725C277.747 225.599 277.826 225.474 277.903 225.349C277.946 225.282 277.988 225.215 278.029 225.147L278.147 224.949L278.272 224.749L278.389 224.547C278.429 224.479 278.467 224.41 278.506 224.343L278.68 224.032L278.814 223.781C278.853 223.711 278.889 223.641 278.928 223.569C278.967 223.498 278.991 223.453 279.02 223.394C279.079 223.287 279.133 223.178 279.189 223.072C279.266 222.928 279.337 222.785 279.411 222.638C279.557 222.347 279.702 222.05 279.844 221.751C279.864 221.711 279.883 221.667 279.904 221.626C279.955 221.515 280.008 221.406 280.058 221.295C280.127 221.144 280.2 220.99 280.268 220.837C280.324 220.712 280.378 220.594 280.433 220.471C280.489 220.349 280.551 220.204 280.61 220.068C280.669 219.931 280.728 219.8 280.785 219.664L280.96 219.255C281.01 219.129 281.06 219.004 281.113 218.887L281.283 218.475C281.349 218.316 281.408 218.153 281.478 217.991C281.548 217.83 281.604 217.689 281.66 217.535C281.732 217.355 281.803 217.173 281.873 216.99C281.933 216.835 281.999 216.679 282.053 216.524C282.064 216.495 282.075 216.467 282.085 216.44C282.138 216.302 282.188 216.167 282.241 216.03C282.293 215.893 282.346 215.749 282.398 215.609C282.408 215.584 282.418 215.559 282.425 215.534C282.485 215.375 282.551 215.214 282.604 215.054C282.672 214.867 282.74 214.678 282.809 214.496C282.878 214.314 282.942 214.12 283.011 213.937C283.11 213.659 283.21 213.379 283.308 213.1C283.472 212.634 283.637 212.17 283.8 211.704L283.906 211.394C283.934 211.313 283.963 211.23 283.992 211.144C284.355 210.092 284.713 209.048 285.067 208.03L285.218 207.588C285.285 207.398 285.35 207.212 285.419 207.019C285.476 206.854 285.532 206.691 285.59 206.528C285.596 206.507 285.604 206.485 285.613 206.464C285.652 206.355 285.689 206.246 285.728 206.137C285.804 205.92 285.882 205.705 285.957 205.492C285.972 205.45 285.989 205.408 286.002 205.366L286.093 205.116C286.209 204.789 286.328 204.452 286.446 204.103C286.463 204.059 286.478 204.014 286.494 203.968C286.517 203.898 286.542 203.826 286.565 203.754C286.589 203.681 286.614 203.608 286.64 203.537C286.714 203.314 286.788 203.088 286.859 202.859C286.884 202.784 286.908 202.71 286.93 202.632C286.93 202.624 286.937 202.614 286.939 202.604C287.008 202.386 287.074 202.166 287.139 201.944C287.166 201.853 287.193 201.764 287.219 201.671C287.245 201.578 287.268 201.498 287.29 201.413C287.405 201.003 287.511 200.589 287.608 200.171C287.627 200.092 287.647 200.01 287.663 199.929C287.663 199.911 287.669 199.894 287.676 199.876C287.687 199.826 287.697 199.773 287.708 199.721C287.715 199.695 287.72 199.669 287.724 199.643C287.76 199.48 287.792 199.316 287.824 199.153C287.831 199.104 287.84 199.058 287.849 199.011C287.864 198.936 287.876 198.862 287.889 198.786C287.901 198.709 287.91 198.652 287.923 198.584C287.938 198.485 287.953 198.386 287.967 198.286C287.98 198.186 287.994 198.107 288.005 198.015C288.025 197.867 288.043 197.718 288.058 197.57C288.058 197.549 288.058 197.53 288.058 197.509C288.066 197.445 288.072 197.384 288.077 197.315C288.077 197.27 288.086 197.227 288.089 197.182C288.089 197.161 288.089 197.142 288.089 197.12C288.089 197.043 288.101 196.961 288.107 196.881C288.107 196.871 288.107 196.862 288.107 196.85C288.107 196.837 288.107 196.79 288.107 196.758C288.107 196.645 288.118 196.531 288.122 196.419C288.122 196.357 288.122 196.293 288.122 196.234C288.122 196.005 288.122 195.778 288.122 195.551C288.133 195.528 288.131 195.48 288.13 195.434ZM282.209 196.904C281.999 199.661 280.912 202.687 280.216 204.631C279.948 205.383 279.682 206.135 279.414 206.913C279.215 207.484 279.015 208.065 278.809 208.667C275.717 217.645 273.147 226.259 267.361 226.564C267.253 226.571 267.146 226.574 267.039 226.574L254.593 227.026L252.837 227.062L251.108 227.1C245.28 227.225 233.189 227.499 223.029 227.825C215.576 228.065 202.961 228.209 189.406 228.28C188.382 228.286 187.352 228.291 186.314 228.295C175.597 228.343 164.502 228.348 155.059 228.323L151.967 228.311C146.932 228.294 142.477 228.266 138.958 228.23C134.368 228.182 133.103 228.237 132.459 228.17C141.342 220.803 150.238 213.72 161.67 205.551C180.208 192.299 187.686 189.777 190.605 189.565C190.753 189.554 190.89 189.547 191.015 189.547H259.365C259.659 189.547 260.026 189.547 260.433 189.556C263.452 189.567 268.505 189.589 273.151 190.168C280.401 191.07 281.483 192.718 281.582 192.902C282.178 194.009 282.32 195.416 282.209 196.904Z" fill="#F4B942"/>
<g style="mix-blend-mode:color-dodge" opacity="0.5">
<path d="M273.146 190.161C268.505 189.582 263.447 189.561 260.428 189.55C260.021 189.55 259.654 189.55 259.36 189.541H191.01C190.884 189.541 190.748 189.541 190.6 189.559C187.681 189.77 180.203 192.293 161.665 205.544C150.233 213.714 141.337 220.797 132.454 228.164C133.098 228.231 134.363 228.176 138.952 228.224C142.472 228.26 146.927 228.288 151.962 228.305L155.054 228.316C164.497 228.342 175.592 228.336 186.309 228.289C187.345 228.289 188.375 228.284 189.401 228.274C202.954 228.202 215.571 228.058 223.024 227.819C233.184 227.493 245.275 227.219 251.103 227.093L252.832 227.056L254.588 227.019L267.034 226.568C267.14 226.568 267.248 226.568 267.356 226.558C273.142 226.252 275.712 217.639 278.804 208.661C279.01 208.065 279.21 207.484 279.409 206.907C279.677 206.13 279.943 205.373 280.211 204.625C280.907 202.681 281.994 199.652 282.204 196.897C282.318 195.41 282.177 194.002 281.577 192.887C281.478 192.712 280.396 191.064 273.146 190.161Z" fill="#B6FFFB"/>
</g>
<path d="M288.319 235.514C281.671 237.86 289.877 245.539 292.905 242.42C294.441 240.835 301.708 234.554 301.708 234.554L299.644 232.244L288.319 235.514Z" fill="#E29E24"/>
<path d="M293.749 238.199C291.595 238.929 288.457 236.462 289.727 235.106L288.319 235.514C281.671 237.86 289.877 245.539 292.905 242.42C294.165 241.12 299.271 236.669 301.071 235.106L300.434 233.536C300.434 233.536 295.901 237.471 293.749 238.199Z" fill="#FFCB6E"/>
<path d="M316.6 230.251C316.176 228.637 315.379 227.145 314.272 225.895C313.092 224.597 311.682 223.846 310.384 223.979L303.341 224.703C300.918 224.954 297.405 226.971 295.536 229.189L293.434 231.68C291.564 233.898 292.043 235.992 294.499 236.334L314.701 239.142C316.052 239.33 317.022 238.583 317.453 237.262C317.808 236.178 317.802 234.707 317.354 233.042L316.6 230.251Z" fill="#FFCB6E"/>
<g style="mix-blend-mode:color-dodge" opacity="0.4">
<path d="M316.6 230.251C316.176 228.637 315.379 227.145 314.272 225.895L310.008 226.334C308.145 226.526 305.444 228.077 304.006 229.783L302.389 231.699C300.951 233.404 301.319 235.016 303.208 235.278L317.454 237.257C317.809 236.173 317.803 234.702 317.355 233.037L316.6 230.251Z" fill="white"/>
<path d="M316.842 230.186C316.407 228.534 315.591 227.007 314.459 225.726L314.374 225.632L309.984 226.085C308.059 226.283 305.292 227.869 303.816 229.621L302.199 231.537C301.375 232.513 301.07 233.526 301.377 234.313C301.628 234.968 302.268 235.398 303.176 235.525L317.421 237.504L317.629 237.534L317.694 237.333C318.07 236.165 318.04 234.616 317.597 232.971L316.842 230.186ZM317.273 236.98L303.241 235.029C302.522 234.93 302.026 234.613 301.843 234.135C301.607 233.524 301.875 232.694 302.579 231.861L304.196 229.944C305.6 228.278 308.218 226.769 310.032 226.583L314.171 226.157C315.205 227.36 315.953 228.783 316.358 230.317L317.111 233.102C317.502 234.561 317.559 235.927 317.273 236.981V236.98Z" fill="black"/>
</g>
<path d="M290.342 337.215C288.076 336.521 285.634 336.296 283.563 335.146C280.508 333.449 278.74 329.703 279.374 326.268L270.916 325.786L270.419 345.237L300.553 346.004C299.542 343.92 298.114 342.065 296.358 340.554C294.602 339.042 292.555 337.906 290.342 337.215Z" fill="#0E3759"/>
<path d="M301.836 345.05L270.766 344.255C270.261 344.282 269.786 344.498 269.434 344.86C269.082 345.222 268.88 345.702 268.867 346.207C268.854 346.711 269.032 347.202 269.365 347.581C269.698 347.96 270.162 348.199 270.664 348.252L301.735 349.041C302.001 349.055 302.268 349.015 302.519 348.923C302.77 348.832 303 348.692 303.195 348.511C303.391 348.329 303.548 348.111 303.658 347.868C303.768 347.625 303.828 347.362 303.835 347.096C303.842 346.829 303.795 346.564 303.698 346.316C303.6 346.067 303.454 345.841 303.268 345.65C303.082 345.459 302.859 345.307 302.613 345.204C302.367 345.1 302.103 345.046 301.836 345.046V345.05Z" fill="#3A7EAD"/>
<path d="M284.147 332.197L277.679 332.339L277.69 332.84L284.158 332.698L284.147 332.197Z" fill="white"/>
<path d="M285.002 334.984L278.534 335.127L278.545 335.628L285.013 335.486L285.002 334.984Z" fill="white"/>
<path d="M249.812 337.112C247.692 336.054 245.32 335.429 243.468 333.953C240.734 331.775 239.612 327.788 240.805 324.506L232.544 322.626L228.836 341.728L258.43 347.461C257.776 345.24 256.674 343.176 255.192 341.396C253.71 339.616 251.879 338.158 249.812 337.112Z" fill="#0E3759"/>
<path d="M259.852 346.734L229.339 340.823C228.824 340.734 228.294 340.851 227.863 341.148C227.432 341.445 227.135 341.899 227.036 342.412C226.936 342.926 227.042 343.458 227.33 343.894C227.618 344.33 228.066 344.636 228.578 344.747L259.091 350.659C259.593 350.716 260.098 350.582 260.505 350.284C260.912 349.985 261.192 349.544 261.288 349.049C261.384 348.553 261.29 348.04 261.023 347.611C260.757 347.182 260.339 346.869 259.852 346.734Z" fill="#3A7EAD"/>
<path d="M238.134 330.227L238.062 330.723L244.465 331.65L244.537 331.154L238.134 330.227Z" fill="white"/>
<path d="M238.512 333.12L238.44 333.616L244.843 334.543L244.915 334.047L238.512 333.12Z" fill="white"/>
<path d="M309.698 92.3875C309.698 92.3875 307.804 96.3376 307.527 96.1371C307.314 95.9817 308.472 93.8813 309.194 91.4138C309.38 90.7784 309.56 90.1505 309.722 89.5728C310.146 88.0552 309.358 87.3722 308.667 88.8923C308.346 89.5783 308.074 90.286 307.853 91.0102C307.654 91.7459 307.237 92.3587 306.975 92.9527C306.458 94.1295 306.097 94.9954 306.06 94.9478C306.022 94.9002 305.75 95.0493 305.927 94.3688C306.139 93.5505 306.965 91.9075 307.187 90.6819C307.313 89.9864 307.661 88.5514 307.661 88.5514C307.661 88.5514 307.787 86.2844 307.661 86.2343C306.971 85.9636 306.455 87.4875 306.407 88.4587C306.066 89.0627 305.741 90.5891 305.741 90.5891C305.741 90.5891 304.409 93.5304 304.001 93.3462C303.827 93.2698 304.434 91.3699 304.744 89.4174C305.031 87.604 305.032 85.7292 304.69 85.6227C304.109 85.4422 303.58 87.4248 303.58 87.4248C303.58 87.4248 303.281 88.8322 303.148 89.2921C302.99 89.8322 302.396 91.4138 302.396 91.4138C302.396 91.4138 300.088 96.8251 299.717 96.6221C299.345 96.4191 298.603 95.5067 298.633 95.1182C298.663 94.7297 299.078 94.0543 299.108 93.6708C299.139 93.2873 298.858 92.7647 298.395 92.6996C297.932 92.6344 297.095 94.444 297.095 94.444C297.095 94.444 296.423 95.9215 296.516 97.0369C296.839 100.901 297.459 100.684 297.488 101.18C297.522 101.768 293.674 108.667 293.674 108.667C293.674 108.667 282.463 129.074 281.819 130.155L262.84 144.699L267.083 156.228C267.083 156.228 289.734 142.373 290.648 141.331C291.563 140.29 301.184 108.44 302.329 105.891C302.329 105.891 304.781 103.343 306.272 101.693C307.762 100.042 308.463 97.8076 308.814 97.2838C309.609 95.8593 310.23 94.3446 310.663 92.7722C311.297 90.539 309.698 92.3875 309.698 92.3875Z" fill="#A3737A"/>
<path d="M186.969 117.147C186.969 117.147 182.18 110.862 182.13 110.277C182.087 109.776 182.732 109.909 182.506 106.037C182.441 104.92 181.565 103.552 181.565 103.552C181.565 103.552 180.474 101.886 180.029 102.011C179.583 102.136 179.377 102.698 179.461 103.074C179.545 103.45 180.053 104.064 180.137 104.44C180.221 104.816 179.615 105.818 179.276 106.079C178.938 106.339 175.89 101.302 175.89 101.302C175.89 101.302 175.081 99.8202 174.847 99.3077C174.65 98.8716 174.155 97.5206 174.155 97.5206C174.155 97.5206 173.35 95.6333 172.8 95.8914C172.477 96.0456 172.744 97.8966 173.286 99.6511C173.869 101.541 174.739 103.335 174.579 103.434C174.203 103.67 172.464 100.947 172.464 100.947C172.464 100.947 171.926 99.4856 171.503 98.9418C171.318 97.9943 170.589 96.5531 169.944 96.9178C169.819 96.9855 170.275 99.2124 170.275 99.2124C170.275 99.2124 170.825 100.591 171.048 101.256C171.441 102.438 172.492 103.948 172.818 104.728C173.089 105.376 172.805 105.253 172.769 105.321C172.733 105.388 172.258 104.569 171.579 103.475C171.236 102.924 170.738 102.376 170.435 101.676C170.113 100.99 169.744 100.328 169.329 99.6937C168.429 98.2876 167.746 99.0758 168.382 100.517C168.624 101.066 168.892 101.662 169.165 102.265C170.232 104.61 171.674 106.526 171.486 106.704C171.235 106.942 168.804 103.302 168.804 103.302C168.804 103.302 166.959 101.698 167.901 103.827C168.551 105.32 169.379 106.73 170.366 108.026C170.787 108.5 171.799 110.607 173.501 112.029C175.204 113.451 177.999 115.626 177.999 115.626C179.489 117.988 193.537 148.153 194.592 149.055C195.647 149.957 220.034 160.459 220.034 160.459L222.598 148.443L201.745 136.735C200.961 135.76 186.969 117.147 186.969 117.147Z" fill="#A3737A"/>
<path d="M284.354 256.051L268.636 192.539L244.59 194.361C244.59 194.361 266.264 265.094 267.385 271.424C268.203 276.046 268.553 328.662 268.553 328.662L282.616 328.375L286.702 276.775L287.376 268.254L284.354 256.052C284.354 256.052 284.358 256.055 284.354 256.051Z" fill="#4C96E0"/>
<mask id="mask0_321_11118" style="mask-type:luminance" maskUnits="userSpaceOnUse" x="244" y="192" width="44" height="137">
<path d="M244.59 194.361C244.59 194.361 266.264 265.094 267.385 271.424C268.203 276.046 268.553 328.662 268.553 328.662L282.616 328.375L286.702 276.775L287.376 268.254L284.354 256.052L268.636 192.54L244.59 194.361Z" fill="white"/>
</mask>
<g mask="url(#mask0_321_11118)">
<path d="M241.579 190.138L257.916 242.821L256.807 188.558L241.579 190.138Z" fill="#2A77B5"/>
<path d="M265.983 229.756H255.338L268.045 293.937V272.988L260.877 231.289L265.983 229.756Z" fill="#2A77B5"/>
<path d="M267.452 204.562C268.602 223.634 281.148 227.783 281.831 228.76L279.652 190.171C279.652 190.171 266.3 185.489 267.452 204.562Z" fill="#2A77B5"/>
<path d="M275.869 269.719C279.436 269.719 294.094 268.215 294.094 268.215C287.77 263.871 272.301 269.719 275.869 269.719Z" fill="#2A77B5"/>
</g>
<path d="M254.911 205.628L252.995 190.913L224.481 198.263L238.268 276.31L230.033 325.786L245.582 328.535L255.457 283.801L257.997 272.29L257.762 263.268L254.911 205.628Z" fill="#4C96E0"/>
<mask id="mask1_321_11118" style="mask-type:luminance" maskUnits="userSpaceOnUse" x="224" y="190" width="34" height="139">
<path d="M238.268 276.31L230.224 324.643L245.582 328.535L255.457 283.801L257.997 272.29L257.762 263.268L256.279 205.882L252.995 190.913L224.481 198.263L238.268 276.31Z" fill="white"/>
</mask>
<g mask="url(#mask1_321_11118)">
<path d="M241.563 189.402L207.372 191.959C207.372 191.959 211.009 235.526 226.938 230.848C241.157 226.674 241.642 196.96 241.582 190.599C241.578 189.829 241.563 189.402 241.563 189.402Z" fill="#2A77B5"/>
<path d="M246.021 271.654C254.299 274.61 258.43 274.745 262.201 271.334C262.197 271.334 254.765 272.595 246.021 271.654Z" fill="#2A77B5"/>
</g>
<path d="M275.148 134.674C273.424 135.73 244.544 140.42 244.544 140.42C243.415 140.903 238.721 143.977 236.288 141.577C233.855 139.177 207.638 138.093 207.638 138.093C207.638 140.138 204.832 156.177 204.832 156.177C204.832 156.177 217.5 161.158 221.213 163.729C221.23 168.443 221.523 215.541 221.523 215.541C234.91 217.281 273.767 213.285 273.767 213.285C273.767 213.285 267.63 162.001 267.166 159.411C269.739 158.361 276.745 154.747 276.745 154.747C276.544 150.743 275.148 134.674 275.148 134.674Z" fill="white"/>
<mask id="mask2_321_11118" style="mask-type:luminance" maskUnits="userSpaceOnUse" x="204" y="134" width="73" height="82">
<path d="M275.148 134.674C275.148 134.674 276.544 150.743 276.748 154.748C276.748 154.748 269.743 158.363 267.17 159.413C267.634 162.002 273.771 213.287 273.771 213.287C273.771 213.287 234.913 217.281 221.527 215.543C221.527 215.543 221.234 168.445 221.217 163.73C217.504 161.16 204.836 156.178 204.836 156.178C204.836 156.178 207.648 140.137 207.642 138.094C207.642 138.094 233.856 139.178 236.292 141.578C238.728 143.978 243.417 140.904 244.547 140.422C244.547 140.42 273.43 135.73 275.148 134.674Z" fill="white"/>
</mask>
<g mask="url(#mask2_321_11118)">
<path d="M220.655 185.444C216.617 156.973 206.515 209.545 206.515 209.545L209.99 227.256L276.215 226.746L276.192 212.854C276.192 212.854 224.694 213.915 220.655 185.444Z" fill="#D2D1E0"/>
</g>
<path d="M243.864 161.454L245.459 168.828L260.798 168.267L260.597 161.642L243.864 161.454ZM246.061 168.055L244.799 162.217L259.867 162.386L260.024 167.543L246.061 168.055Z" fill="#D2D1E0"/>
<path d="M231.61 165.937L232.183 177.956L251.331 176.099L250.954 165.196L231.61 165.937ZM232.897 177.132L232.395 166.659L250.218 165.975L250.549 175.419L232.897 177.132Z" fill="#D2D1E0"/>
<path d="M241.627 171.952L241.817 187.055L262.638 185.383L260.548 173.806L241.627 171.952ZM242.559 186.239L242.39 172.779L259.912 174.496L261.754 184.697L242.559 186.239Z" fill="#D2D1E0"/>
<path d="M248.344 138.048L248.303 137.999C246.45 135.708 246.195 133.192 246.01 130.251L236.352 124.015C237.017 126.344 236.814 130.966 235.874 134.995C235.14 138.128 233.965 140.904 232.406 141.963C234.94 144.476 241.143 145.794 244.684 145.36C248.225 144.927 251.768 143.147 253.617 140.097C252.116 139.826 249.337 139.215 248.344 138.048Z" fill="#A3737A"/>
<path d="M246.004 130.251L236.346 124.015C237.01 126.344 237.447 127.749 236.506 131.778C236.506 131.778 241.846 142.444 248.342 138.044L248.3 137.995C246.444 135.708 246.189 133.192 246.004 130.251Z" fill="#82575D"/>
<path d="M235.4 112.753L235.194 112.767C235.194 112.782 235.203 112.8 235.209 112.815L235.4 112.753Z" fill="#281C7F"/>
<path d="M253.968 118.665C253.064 116.826 252.295 114.924 251.667 112.974C251.309 111.864 250.971 110.692 250.162 109.857C249.553 109.231 248.736 108.855 247.914 108.57C245.259 107.632 242.402 107.416 239.636 107.944C238.408 108.179 237.166 108.585 236.249 109.429C235.332 110.272 234.811 111.597 235.202 112.762L235.408 112.748L235.217 112.81C235.217 112.795 235.207 112.777 235.202 112.762C233.748 112.859 232.282 113.102 230.981 113.752C229.619 114.434 228.448 115.614 228.066 117.09C227.731 118.383 228.022 119.746 228.317 121.051C228.555 122.111 228.792 123.172 229.03 124.234C229.191 124.957 229.349 125.738 229.052 126.418C228.755 127.099 228.068 127.532 227.768 128.205C228.6 128.57 229.512 128.713 230.416 128.619C231.32 128.524 232.183 128.197 232.922 127.668C233.091 128.365 233.01 129.099 232.693 129.743C234.466 129.762 236.204 129.259 237.692 128.296C237.894 128.141 238.122 128.025 238.366 127.954C238.53 127.926 238.696 127.92 238.861 127.936C239.989 127.996 241.15 128.035 242.247 127.754C243.345 127.474 244.407 126.829 244.934 125.823C245.41 124.915 245.415 123.804 245.952 122.929C246.807 123.516 247.791 123.888 248.821 124.011C249.851 124.135 250.895 124.007 251.865 123.639C251.89 123.532 251.882 123.419 251.843 123.317C251.804 123.214 251.734 123.125 251.644 123.062C252.509 123.449 253.463 123.594 254.404 123.482C253.5 122.911 252.79 122.081 252.365 121.101C253.67 121.711 255.151 121.831 256.537 121.438C255.288 121.068 254.54 119.828 253.968 118.665Z" fill="#281C7F"/>
<mask id="mask3_321_11118" style="mask-type:luminance" maskUnits="userSpaceOnUse" x="227" y="107" width="30" height="23">
<path d="M235.209 112.815C234.787 111.639 235.318 110.276 236.242 109.431C237.165 108.586 238.406 108.178 239.628 107.946C242.394 107.419 245.251 107.635 247.906 108.573C248.728 108.863 249.546 109.236 250.154 109.86C250.968 110.694 251.307 111.865 251.659 112.976C252.287 114.927 253.056 116.829 253.961 118.667C254.533 119.83 255.28 121.071 256.526 121.439C255.14 121.832 253.659 121.712 252.354 121.102C252.778 122.083 253.489 122.912 254.392 123.483C253.451 123.595 252.498 123.45 251.633 123.063C251.723 123.127 251.792 123.215 251.832 123.318C251.871 123.421 251.879 123.533 251.853 123.64C250.884 124.008 249.84 124.136 248.81 124.012C247.78 123.889 246.796 123.518 245.941 122.931C245.404 123.808 245.399 124.916 244.922 125.824C244.396 126.827 243.337 127.476 242.236 127.755C241.134 128.035 239.978 127.997 238.849 127.937C238.684 127.921 238.518 127.927 238.355 127.955C238.111 128.026 237.882 128.142 237.68 128.297C236.193 129.26 234.454 129.764 232.682 129.744C232.999 129.101 233.08 128.366 232.91 127.669C232.172 128.198 231.308 128.526 230.405 128.62C229.501 128.714 228.588 128.572 227.756 128.207C228.056 127.534 228.746 127.095 229.041 126.42C229.335 125.744 229.18 124.958 229.018 124.235L228.306 121.052C228.013 119.748 227.722 118.384 228.055 117.091C228.431 115.616 229.608 114.435 230.97 113.753C232.332 113.072 233.875 112.837 235.396 112.751L235.209 112.815Z" fill="white"/>
</mask>
<g mask="url(#mask3_321_11118)">
<path d="M258.891 122.062C254.398 123.772 250.016 110.582 244.901 111.275C242.682 111.575 240.169 111.619 238.897 113.461C238.771 111.847 239.944 110.232 241.516 109.842C239.988 109.915 238.778 111.11 237.779 112.267C237.293 112.83 236.81 113.677 237.29 114.245L235.599 114.562C233.82 115.024 232.223 116.017 231.021 117.407C230.571 117.929 230.168 118.534 230.123 119.229C230.048 120.37 230.942 121.311 231.424 122.349C232.343 124.332 231.562 126.942 229.703 128.094C230.447 128.182 231.2 128.115 231.917 127.897C232.633 127.68 233.296 127.315 233.865 126.828C233.395 128.011 232.639 129.059 231.664 129.878C230.689 130.697 229.526 131.262 228.279 131.521C228.131 131.533 227.99 131.594 227.879 131.693C227.617 131.993 228.042 132.404 228.409 132.559C230.447 133.408 232.639 133.828 234.847 133.791C237.056 133.753 239.232 133.261 241.241 132.343C242.722 131.657 244.202 130.598 244.618 129.019C244.754 128.504 244.821 127.877 245.291 127.624C245.508 127.529 245.744 127.486 245.981 127.499C247.658 127.45 249.333 127.371 251.007 127.262C252.969 127.136 254.984 126.948 256.733 126.051C257.086 125.869 257.475 125.57 257.426 125.174C257.399 124.943 257.224 124.76 257.057 124.6C255.934 123.524 254.668 122.608 253.295 121.878C255.619 122.298 256.79 123.119 258.891 122.062Z" fill="#0D0942"/>
</g>
<path d="M250.582 123.659C250.662 120.651 249.578 117.507 249.369 116.544C248.724 116.578 248.468 117.102 247.829 117.009L245.407 116.657C246.194 117.423 247.258 117.975 248.268 118.463C246.84 118.64 245.404 118.816 243.968 118.746C242.532 118.676 241.083 118.343 239.868 117.572C240.296 118.095 240.818 118.533 241.408 118.863C240.762 119.087 240.065 119.123 239.399 118.968C238.734 118.813 238.125 118.472 237.645 117.985C237.63 118.161 237.607 118.336 237.577 118.511C237.828 121.35 236.348 124.011 236.348 124.011L237.049 127.036L235.952 127.104L235.439 125.321C234.95 124.218 232.79 123.719 231.676 124.577C230.562 125.436 232.14 128.313 233.531 129.947C234.922 131.582 236.416 130.315 236.416 130.315C237.94 133.262 241.012 134.898 243.372 135.757C246.085 136.746 249.189 135.757 250.666 133.273C252.59 130.023 250.511 126.274 250.582 123.659Z" fill="#A3737A"/>
<path d="M233.584 125.156C233.434 125.079 233.269 125.034 233.1 125.025C232.931 125.016 232.762 125.044 232.604 125.105C232.507 125.135 232.417 125.186 232.342 125.256C232.268 125.326 232.21 125.412 232.174 125.507C232.061 125.851 232.3 126.234 232.695 126.867C232.791 127.021 232.896 127.192 233.009 127.379L233.44 127.129C233.326 126.937 233.218 126.764 233.12 126.609C232.869 126.206 232.611 125.79 232.651 125.669C232.651 125.649 232.697 125.614 232.791 125.576C232.885 125.542 232.985 125.528 233.085 125.535C233.185 125.541 233.282 125.569 233.371 125.616C233.694 125.769 234.316 126.272 234.839 127.917L235.317 127.767C234.767 126.023 234.071 125.386 233.584 125.156Z" fill="#82575D"/>
<path d="M243.105 121.276C242.868 121.258 242.63 121.25 242.394 121.251C241.921 121.253 241.449 121.282 240.979 121.339C240.51 121.389 240.045 121.464 239.581 121.552L238.889 121.696L238.202 121.86L238.336 122.343L239.002 122.155L239.673 121.986C240.124 121.885 240.575 121.789 241.031 121.721C241.484 121.647 241.942 121.599 242.401 121.577C242.63 121.567 242.859 121.566 243.088 121.577C243.311 121.583 243.533 121.607 243.752 121.649L243.825 121.39C243.705 121.36 243.584 121.336 243.461 121.319C243.342 121.299 243.224 121.286 243.105 121.276Z" fill="#351009"/>
<path d="M248.893 120.483C248.596 120.51 248.3 120.537 248.003 120.571C247.706 120.605 247.41 120.645 247.114 120.696C246.818 120.748 246.528 120.795 246.219 120.875L246.326 121.264C246.592 121.203 246.889 121.157 247.176 121.119C247.463 121.08 247.757 121.051 248.054 121.025C248.351 120.998 248.64 120.981 248.932 120.963C249.224 120.946 249.519 120.936 249.81 120.927L249.789 120.426C249.49 120.441 249.191 120.46 248.893 120.483Z" fill="#351009"/>
<path d="M245.785 123.606L246.767 126.639L244.915 126.843L244.97 127.342L247.433 127.071L246.262 123.452L245.785 123.606Z" fill="#82575D"/>
<path d="M248.063 122.34C247.742 122.377 247.531 122.86 247.593 123.423C247.654 123.986 247.969 124.412 248.288 124.377C248.606 124.342 248.819 123.857 248.758 123.295C248.696 122.734 248.384 122.305 248.063 122.34Z" fill="#3F1508"/>
<path d="M241.558 123.204C241.236 123.239 241.027 123.724 241.088 124.285C241.15 124.847 241.464 125.275 241.783 125.24C242.102 125.205 242.315 124.72 242.252 124.157C242.189 123.595 241.88 123.169 241.558 123.204Z" fill="#3F1508"/>
<path d="M244.55 132.182C247.401 132.288 247.413 129.021 247.413 129.021L241.843 129.311C241.843 129.311 241.696 132.075 244.55 132.182Z" fill="white"/>
<path d="M503.802 51.3889H489.568L466.991 305.242H481.226C487.792 305.242 493.588 299.923 494.172 293.363L514.63 63.2743C515.218 56.7075 510.368 51.3889 503.802 51.3889Z" fill="black"/>
<path d="M499.241 51.3889H343.817C336.461 51.3889 329.976 57.3479 329.333 64.6967L309.435 291.934C308.791 299.283 314.232 305.242 321.589 305.242H477.013C484.368 305.242 490.854 299.283 491.498 291.934L511.395 64.6967C512.039 57.3479 506.599 51.3889 499.241 51.3889Z" fill="#071655"/>
<path d="M323.226 276.237H475.469L494.717 59.7554H342.474L323.226 276.237Z" fill="black"/>
<path d="M316.57 273.273H468.813L493.004 73.8815L494.719 59.7554H342.474L316.57 273.273Z" fill="#F9E4E4"/>
<g opacity="0.5">
<path d="M321.508 273.273H468.813L493.004 73.8815C477.302 123.929 429.426 242.519 321.508 273.273Z" fill="#E5CCCC"/>
</g>
<g opacity="0.4">
<path d="M447.397 114.904H352.159C351.621 114.914 351.105 115.12 350.709 115.484C350.313 115.849 350.064 116.345 350.009 116.88C349.982 117.132 350.008 117.386 350.086 117.627C350.165 117.867 350.294 118.088 350.464 118.275C350.635 118.462 350.843 118.61 351.076 118.71C351.308 118.81 351.56 118.86 351.813 118.855H447.047C447.585 118.846 448.101 118.64 448.498 118.276C448.894 117.912 449.143 117.415 449.197 116.88C449.225 116.629 449.199 116.375 449.121 116.134C449.043 115.894 448.914 115.673 448.744 115.486C448.574 115.299 448.365 115.15 448.133 115.05C447.901 114.95 447.65 114.9 447.397 114.904Z" fill="#071655"/>
</g>
<g opacity="0.4">
<path d="M463.219 126.099H355.133C354.595 126.109 354.079 126.315 353.683 126.679C353.286 127.043 353.038 127.54 352.983 128.075C352.955 128.327 352.982 128.581 353.06 128.822C353.139 129.062 353.267 129.283 353.438 129.47C353.609 129.657 353.817 129.805 354.05 129.905C354.282 130.005 354.534 130.055 354.787 130.05H462.874C463.412 130.04 463.928 129.834 464.324 129.47C464.72 129.106 464.969 128.61 465.024 128.075C465.051 127.823 465.025 127.569 464.946 127.328C464.868 127.088 464.739 126.866 464.568 126.679C464.397 126.492 464.189 126.344 463.956 126.244C463.723 126.144 463.472 126.094 463.219 126.099Z" fill="#071655"/>
</g>
<g opacity="0.4">
<path d="M462.239 137.294H350.199C349.661 137.303 349.145 137.51 348.749 137.874C348.353 138.238 348.104 138.734 348.049 139.269C348.021 139.52 348.047 139.775 348.126 140.015C348.204 140.256 348.333 140.477 348.504 140.664C348.674 140.851 348.883 140.999 349.115 141.1C349.348 141.2 349.599 141.249 349.852 141.245H461.893C462.431 141.235 462.947 141.029 463.343 140.665C463.74 140.301 463.988 139.804 464.043 139.269C464.071 139.017 464.044 138.763 463.966 138.522C463.888 138.281 463.759 138.06 463.588 137.873C463.417 137.687 463.209 137.538 462.976 137.438C462.744 137.338 462.492 137.289 462.239 137.294Z" fill="#071655"/>
</g>
<g opacity="0.4">
<path d="M461.258 148.487H363.059C362.52 148.497 362.004 148.704 361.608 149.068C361.212 149.432 360.963 149.928 360.909 150.464C360.881 150.715 360.907 150.969 360.986 151.21C361.064 151.45 361.193 151.671 361.364 151.858C361.535 152.045 361.743 152.194 361.976 152.294C362.208 152.394 362.459 152.443 362.713 152.439H460.913C461.451 152.429 461.967 152.222 462.363 151.859C462.759 151.495 463.008 150.998 463.063 150.464C463.091 150.212 463.065 149.957 462.986 149.717C462.907 149.476 462.779 149.255 462.608 149.068C462.437 148.881 462.228 148.732 461.996 148.632C461.763 148.532 461.512 148.483 461.258 148.487Z" fill="#071655"/>
</g>
<g opacity="0.4">
<path d="M443.473 159.683H348.238C347.7 159.693 347.184 159.899 346.788 160.263C346.392 160.627 346.143 161.123 346.088 161.658C346.061 161.91 346.087 162.164 346.165 162.405C346.244 162.645 346.373 162.866 346.543 163.053C346.714 163.24 346.923 163.389 347.155 163.489C347.388 163.589 347.639 163.638 347.892 163.633H443.133C443.671 163.624 444.187 163.418 444.583 163.054C444.979 162.69 445.228 162.193 445.282 161.658C445.31 161.406 445.284 161.151 445.205 160.911C445.126 160.67 444.997 160.448 444.825 160.261C444.654 160.074 444.445 159.926 444.211 159.826C443.978 159.727 443.726 159.678 443.473 159.683Z" fill="#071655"/>
</g>
<g opacity="0.4">
<path d="M459.298 170.877H352.198C351.66 170.887 351.144 171.093 350.747 171.457C350.351 171.821 350.102 172.317 350.047 172.852C350.019 173.104 350.045 173.358 350.124 173.599C350.202 173.84 350.331 174.061 350.502 174.248C350.673 174.435 350.882 174.583 351.114 174.683C351.347 174.784 351.598 174.833 351.852 174.828H458.949C459.487 174.819 460.003 174.612 460.399 174.248C460.796 173.884 461.044 173.387 461.099 172.852C461.126 172.601 461.1 172.347 461.022 172.107C460.943 171.866 460.815 171.645 460.644 171.459C460.474 171.272 460.266 171.123 460.034 171.023C459.801 170.923 459.551 170.873 459.298 170.877Z" fill="#071655"/>
</g>
<g opacity="0.4">
<path d="M458.318 182.071H346.278C345.739 182.08 345.224 182.287 344.827 182.651C344.431 183.015 344.182 183.512 344.128 184.047C344.1 184.298 344.126 184.553 344.205 184.793C344.283 185.034 344.412 185.255 344.583 185.442C344.754 185.629 344.962 185.777 345.195 185.877C345.427 185.977 345.678 186.027 345.932 186.022H457.972C458.51 186.012 459.026 185.806 459.422 185.442C459.818 185.078 460.067 184.582 460.122 184.047C460.15 183.795 460.124 183.541 460.045 183.3C459.967 183.059 459.838 182.838 459.667 182.651C459.497 182.464 459.288 182.316 459.055 182.216C458.823 182.115 458.571 182.066 458.318 182.071Z" fill="#071655"/>
</g>
<g opacity="0.4">
<path d="M457.337 193.267H353.201C352.663 193.276 352.147 193.483 351.751 193.846C351.355 194.21 351.106 194.707 351.051 195.242C351.024 195.493 351.05 195.748 351.129 195.988C351.207 196.229 351.336 196.45 351.506 196.637C351.677 196.824 351.886 196.972 352.118 197.072C352.351 197.172 352.602 197.221 352.855 197.217H456.992C457.53 197.207 458.046 197.001 458.443 196.637C458.839 196.273 459.088 195.777 459.142 195.242C459.17 194.99 459.144 194.736 459.065 194.495C458.987 194.255 458.858 194.033 458.687 193.847C458.516 193.66 458.307 193.511 458.075 193.411C457.842 193.311 457.591 193.262 457.337 193.267Z" fill="#071655"/>
</g>
<g opacity="0.3">
<path d="M381.164 253.848H347.745C347.207 253.858 346.691 254.064 346.295 254.428C345.899 254.792 345.65 255.288 345.595 255.823C345.568 256.075 345.594 256.329 345.672 256.57C345.751 256.81 345.88 257.031 346.05 257.218C346.221 257.405 346.43 257.554 346.662 257.654C346.895 257.754 347.146 257.804 347.399 257.799H380.819C381.357 257.79 381.873 257.583 382.269 257.219C382.666 256.855 382.914 256.358 382.969 255.823C382.996 255.571 382.97 255.317 382.891 255.076C382.813 254.836 382.684 254.615 382.513 254.428C382.342 254.241 382.134 254.093 381.901 253.993C381.668 253.893 381.417 253.843 381.164 253.848Z" fill="#071655"/>
</g>
<path d="M383.148 249.858C380.782 248.118 378.17 246.082 375.726 244.039C375.151 240.292 372.625 235.494 370.061 233.262C368.141 231.591 366.715 231.795 365.856 232.259C365.573 232.403 365.329 232.613 365.146 232.872C364.962 233.131 364.845 233.431 364.803 233.745C364.494 236.159 369.389 240.921 374.218 244.979C374.293 245.771 374.243 246.453 374.039 246.958C373.825 247.483 373.472 247.725 372.857 247.764C370.157 247.938 368.682 246.511 367.255 245.132C365.653 243.579 363.994 241.971 360.984 243.455C358.324 244.764 358.26 246.078 358.409 247.209C358.432 247.338 358.441 247.47 358.437 247.602C358.424 247.602 358.093 247.915 356.03 248.175C351.42 248.765 348.936 245.418 348.099 243.998C347.995 243.833 347.832 243.715 347.642 243.668C347.453 243.621 347.253 243.65 347.084 243.747C346.645 243.972 346.457 244.499 346.695 244.898C347.699 246.587 350.614 250.459 356.092 249.769C358.156 249.508 359.163 249.151 359.683 248.496C360.141 247.918 360.06 247.313 360.003 246.866C359.92 246.232 359.855 245.739 361.592 244.879C363.495 243.943 364.443 244.731 366.088 246.326C367.585 247.778 369.448 249.585 372.826 249.368C374.099 249.286 375.058 248.605 375.527 247.449C375.673 247.079 375.768 246.691 375.81 246.296C378.387 248.393 380.774 250.181 382.127 251.184C382.47 251.434 382.974 251.34 383.256 250.974C383.535 250.6 383.488 250.108 383.148 249.858ZM366.399 233.817C366.406 233.754 366.411 233.719 366.524 233.658C366.675 233.575 366.844 233.532 367.016 233.532C367.703 233.532 368.483 234.108 368.941 234.506C370.861 236.177 372.669 239.372 373.598 242.221C369.435 238.576 366.221 235.199 366.399 233.813V233.817Z" fill="black"/>
<path d="M394.706 224.138C394.268 221.933 393.027 219.969 391.223 218.624C389.398 217.246 387.21 216.61 385.04 216.841L343.938 221.191C339.477 221.663 336.552 225.702 337.416 230.214L337.72 231.792C338.531 236.002 342.379 239.14 346.525 239.14C346.812 239.14 347.099 239.125 347.385 239.095L388.487 234.738C390.649 234.51 392.516 233.446 393.754 231.743C394.992 230.04 395.433 227.899 395.009 225.72L394.706 224.138ZM392.527 230.812C392.024 231.505 391.378 232.084 390.633 232.508C389.889 232.932 389.062 233.192 388.208 233.272L347.108 237.628C343.449 238.004 339.887 235.327 339.175 231.634L338.871 230.057C338.526 228.268 338.893 226.513 339.903 225.116C340.406 224.422 341.052 223.844 341.796 223.42C342.541 222.996 343.367 222.735 344.221 222.656L385.322 218.3C385.559 218.275 385.798 218.262 386.037 218.262C387.615 218.275 389.146 218.803 390.397 219.766C391.877 220.87 392.895 222.484 393.254 224.295L393.559 225.873C393.904 227.66 393.536 229.414 392.527 230.812Z" fill="#071655"/>
<path d="M343.749 227.319L342.229 233.531L343.094 233.44L343.456 231.889L346.58 231.557L347.513 232.971L348.391 232.878L344.577 227.231L343.749 227.319ZM343.624 231.18L344.332 228.14L346.16 230.911L343.624 231.18Z" fill="#071655"/>
<path d="M352.323 226.973C351.816 226.652 351.181 226.532 350.419 226.612L348.126 226.855L349.269 232.785L350.109 232.696L349.763 230.901L351.217 230.746C351.978 230.663 352.541 230.416 352.908 230.004C353.274 229.593 353.395 229.065 353.271 228.419C353.226 228.125 353.117 227.843 352.954 227.594C352.79 227.344 352.575 227.133 352.323 226.973ZM352.198 229.54C351.961 229.798 351.577 229.955 351.045 230.012L349.618 230.164L349.105 227.503L350.532 227.351C351.066 227.295 351.494 227.367 351.817 227.566C351.98 227.669 352.12 227.807 352.225 227.97C352.331 228.133 352.4 228.316 352.427 228.508C352.512 228.937 352.435 229.281 352.198 229.54Z" fill="#071655"/>
<path d="M358.303 226.339C357.796 226.018 357.162 225.898 356.4 225.978L354.106 226.221L355.248 232.151L356.089 232.062L355.743 230.266L357.196 230.112C357.958 230.029 358.522 229.781 358.888 229.37C359.255 228.959 359.375 228.431 359.251 227.786C359.205 227.491 359.097 227.21 358.933 226.96C358.77 226.711 358.555 226.499 358.303 226.339ZM358.177 228.905C357.941 229.165 357.557 229.323 357.026 229.378L355.597 229.53L355.084 226.869L356.513 226.717C357.044 226.661 357.473 226.733 357.797 226.932C357.961 227.036 358.1 227.174 358.205 227.337C358.31 227.5 358.379 227.683 358.407 227.875C358.492 228.304 358.417 228.647 358.181 228.905H358.177Z" fill="#071655"/>
<path d="M365.117 228.355C365.283 227.977 365.321 227.555 365.227 227.152C365.182 226.857 365.074 226.576 364.911 226.326C364.747 226.076 364.532 225.865 364.28 225.705C363.772 225.384 363.137 225.264 362.376 225.344L360.083 225.587L361.226 231.517L362.066 231.428L361.719 229.624L363.172 229.471C363.262 229.461 363.383 229.442 363.538 229.414L365.157 231.101L366.073 231.003L364.295 229.161C364.655 228.996 364.945 228.711 365.117 228.355ZM363.007 228.753L361.58 228.904L361.066 226.235L362.493 226.085C363.025 226.029 363.453 226.1 363.777 226.298C363.941 226.401 364.081 226.54 364.186 226.702C364.292 226.865 364.361 227.049 364.388 227.241C364.472 227.67 364.395 228.015 364.159 228.276C363.922 228.538 363.539 228.697 363.011 228.753H363.007Z" fill="#071655"/>
<path d="M371.833 225.781C371.48 225.353 371.023 225.021 370.506 224.816C369.976 224.604 369.402 224.527 368.834 224.592C368.284 224.639 367.756 224.833 367.307 225.155C366.889 225.458 366.572 225.878 366.395 226.363C366.211 226.873 366.174 227.425 366.287 227.956C366.39 228.507 366.631 229.023 366.987 229.456C367.343 229.889 367.803 230.225 368.324 230.433C368.857 230.646 369.434 230.722 370.003 230.656C370.552 230.609 371.077 230.415 371.524 230.094C371.94 229.792 372.256 229.373 372.432 228.89C372.614 228.378 372.65 227.825 372.536 227.294C372.434 226.738 372.192 226.218 371.833 225.781ZM371.621 228.58C371.497 228.939 371.268 229.253 370.965 229.483C370.642 229.723 370.259 229.868 369.858 229.903C369.441 229.95 369.018 229.891 368.63 229.73C368.247 229.573 367.909 229.323 367.649 229.001C367.383 228.674 367.204 228.286 367.126 227.873C367.042 227.475 367.067 227.062 367.2 226.677C367.327 226.316 367.558 226.001 367.865 225.772C368.191 225.532 368.577 225.387 368.98 225.351C369.395 225.304 369.815 225.363 370.2 225.524C370.58 225.684 370.914 225.936 371.172 226.256C371.438 226.583 371.618 226.97 371.695 227.384C371.781 227.784 371.756 228.199 371.621 228.585V228.58Z" fill="#071655"/>
<path d="M376.137 228.857L373.082 224.21L372.175 224.306L375.905 229.962L376.737 229.874L378.173 223.671L377.332 223.76L376.137 228.857Z" fill="#071655"/>
<path d="M380.76 228.695L380.391 226.781L383.34 226.468L383.201 225.749L380.252 226.061L379.902 224.24L383.211 223.889L383.069 223.152L378.919 223.592L380.063 229.521L384.33 229.068L384.188 228.331L380.76 228.695Z" fill="#071655"/>
<path d="M390.077 223.858C389.725 223.438 389.269 223.118 388.754 222.93C388.202 222.729 387.61 222.661 387.027 222.732L384.549 222.995L385.692 228.924L388.17 228.662C388.736 228.615 389.28 228.427 389.753 228.113C390.173 227.83 390.495 227.423 390.673 226.949C390.855 226.439 390.89 225.889 390.773 225.36C390.675 224.808 390.435 224.29 390.077 223.858ZM389.864 226.646C389.735 227.004 389.495 227.311 389.179 227.523C388.82 227.761 388.406 227.903 387.977 227.937L386.389 228.105L385.531 223.649L387.118 223.48C387.561 223.426 388.01 223.477 388.429 223.628C388.814 223.767 389.154 224.007 389.415 224.322C389.68 224.649 389.859 225.037 389.934 225.45C390.021 225.848 389.996 226.262 389.862 226.646H389.864Z" fill="#071655"/>
<path d="M448.085 45.4325H436.163L434.228 67.1631H446.143C450.164 67.1631 453.714 63.9047 454.071 59.8945L454.71 52.7136C455.077 48.6896 452.106 45.4325 448.085 45.4325Z" fill="#7C776D"/>
<path d="M445.107 45.4325H396.925C392.42 45.4325 388.449 49.0818 388.055 53.5783L387.58 59.0097C387.185 63.51 390.517 67.1556 395.022 67.1556H443.204C447.71 67.1556 451.681 63.5062 452.076 59.0097L452.551 53.5783C452.945 49.0818 449.612 45.4325 445.107 45.4325Z" fill="#D8D8D8"/>
<path d="M397.728 56.4619C397.145 56.4722 396.586 56.6957 396.157 57.0901C395.727 57.4846 395.458 58.0227 395.399 58.6024C395.369 58.8747 395.398 59.1503 395.483 59.4107C395.568 59.6711 395.707 59.9105 395.892 60.113C396.077 60.3154 396.302 60.4763 396.554 60.5849C396.806 60.6935 397.078 60.7474 397.352 60.7429C397.935 60.7327 398.494 60.5092 398.923 60.1147C399.353 59.7202 399.622 59.1822 399.681 58.6024C399.711 58.3301 399.682 58.0545 399.598 57.7939C399.513 57.5334 399.373 57.2939 399.188 57.0914C399.004 56.8889 398.778 56.7281 398.526 56.6195C398.274 56.511 398.002 56.4573 397.728 56.4619Z" fill="#7C776D"/>
<path d="M442.38 56.4619C441.797 56.4722 441.238 56.6957 440.809 57.0901C440.38 57.4846 440.11 58.0227 440.051 58.6024C440.021 58.8748 440.05 59.1504 440.135 59.4109C440.219 59.6714 440.359 59.9109 440.544 60.1134C440.728 60.3159 440.954 60.4768 441.206 60.5853C441.458 60.6938 441.73 60.7476 442.004 60.7429C442.587 60.7327 443.146 60.5092 443.576 60.1147C444.005 59.7202 444.274 59.1822 444.333 58.6024C444.363 58.3301 444.335 58.0545 444.25 57.7939C444.165 57.5334 444.025 57.2939 443.841 57.0914C443.656 56.8889 443.43 56.7281 443.178 56.6195C442.927 56.511 442.654 56.4573 442.38 56.4619Z" fill="#7C776D"/>
<g opacity="0.7">
<path d="M458.205 93.6633H362.971C361.878 93.6633 360.916 95.6685 360.821 98.1398C360.726 100.611 361.532 102.615 362.625 102.615H457.859C458.95 102.615 459.914 100.61 460.009 98.1398C460.104 95.6697 459.297 93.6633 458.205 93.6633Z" fill="white"/>
</g>
<path d="M496.408 42.4386C494.177 40.8498 491.654 39.7188 488.983 39.1111C486.312 38.5034 483.547 38.431 480.847 38.8983C469.513 40.8282 461.864 51.612 463.789 62.9372C464.617 67.7781 467.128 72.1718 470.88 75.3437C474.633 78.5156 479.385 80.2621 484.3 80.2753C485.49 80.2747 486.677 80.1737 487.849 79.9733C491.914 79.281 495.683 77.3997 498.678 74.5673C501.673 71.7349 503.761 68.0787 504.676 64.061C505.592 60.0433 505.294 55.8446 503.821 51.9958C502.349 48.147 499.766 44.8211 496.402 42.4386H496.408ZM500.547 70.9026C498.277 74.1028 495.109 76.5587 491.442 77.9596C487.776 79.3606 483.775 79.6436 479.948 78.773C476.12 77.9025 472.637 75.9173 469.938 73.0687C467.24 70.22 465.447 66.6358 464.788 62.7693C462.95 51.9892 470.225 41.7242 481.012 39.887C484.882 39.2278 488.86 39.7299 492.444 41.3298C496.028 42.9298 499.057 45.5558 501.147 48.8757C503.238 52.1956 504.296 56.0603 504.188 59.9811C504.08 63.9019 502.811 67.7026 500.541 70.9026H500.547Z" fill="#988575"/>
<path d="M496.277 69.7233C494.301 68.2069 492.204 67.7319 490.37 68.3886C488.536 69.0453 487.218 70.7434 486.656 73.1696C486.113 75.5156 486.344 78.2839 487.304 80.9645C488.265 83.6451 489.848 85.9285 491.76 87.396C493.156 88.4675 494.612 89.0252 495.993 89.0252C496.563 89.0266 497.13 88.929 497.667 88.7369C499.501 88.0802 500.819 86.3821 501.381 83.9559C501.924 81.6099 501.693 78.8416 500.733 76.161C499.772 73.4804 498.195 71.1908 496.277 69.7233ZM497.329 87.787C495.823 88.3234 494.067 87.9035 492.372 86.6015C490.616 85.2492 489.147 83.1276 488.25 80.6262C486.424 75.5382 487.528 70.4752 490.709 69.3323C491.139 69.1788 491.592 69.1012 492.049 69.1029C494.957 69.1029 498.212 72.0994 499.788 76.4969C501.613 81.5836 500.509 86.6466 497.329 87.787Z" fill="#988575"/>
<path d="M502.903 81.14C502.895 81.1181 502.883 81.0979 502.867 81.0807C502.851 81.0635 502.832 81.0495 502.811 81.0396C502.79 81.0297 502.767 81.0241 502.744 81.023C502.721 81.022 502.697 81.0255 502.676 81.0335L489.237 85.8445C489.215 85.8523 489.195 85.8643 489.178 85.8799C489.16 85.8955 489.146 85.9144 489.136 85.9355C489.126 85.9566 489.12 85.9794 489.119 86.0028C489.118 86.0261 489.121 86.0494 489.129 86.0714L492.919 96.6309C492.926 96.6528 492.939 96.673 492.954 96.6902C492.97 96.7074 492.989 96.7214 493.01 96.7313C493.031 96.7412 493.054 96.7468 493.077 96.7479C493.1 96.7489 493.124 96.7454 493.146 96.7374L506.584 91.9238C506.606 91.9161 506.626 91.9041 506.644 91.8885C506.661 91.8729 506.675 91.854 506.685 91.8329C506.695 91.8118 506.701 91.7889 506.702 91.7656C506.703 91.7423 506.7 91.719 506.692 91.697L502.903 81.14Z" fill="white"/>
<path d="M524.92 86.6466C524.294 84.9047 523.002 83.4824 521.327 82.6921C519.652 81.9019 517.731 81.8083 515.987 82.4321L482.433 94.4503C480.688 95.0745 479.262 96.3657 478.47 98.0399C477.677 99.7142 477.583 101.634 478.207 103.378L495.185 150.713C495.47 151.515 495.903 152.258 496.461 152.901C497.382 153.975 498.608 154.744 499.977 155.105C501.346 155.467 502.792 155.404 504.124 154.925L537.68 142.908C539.423 142.282 540.846 140.991 541.637 139.317C542.428 137.644 542.522 135.725 541.898 133.983L524.92 86.6466Z" fill="#FFD488"/>
<path d="M496.466 152.901C497.387 153.975 498.614 154.744 499.982 155.105C501.351 155.467 502.797 155.404 504.129 154.925L520.234 149.16L518.718 144.934L496.466 152.901Z" fill="#E29A1B"/>
<path d="M524.92 86.6466C524.294 84.9047 523.002 83.4824 521.327 82.6921C519.652 81.9019 517.731 81.8083 515.987 82.4321L491.027 91.3712L512.726 151.846L537.686 142.908C539.429 142.282 540.853 140.991 541.643 139.317C542.434 137.644 542.528 135.725 541.904 133.983L524.92 86.6466Z" fill="#F4B942"/>
<path d="M524.92 86.6466C524.294 84.9047 523.002 83.4824 521.327 82.6921C519.652 81.9019 517.731 81.8083 515.987 82.4321L515.84 82.4847C516.397 83.1287 516.831 83.8696 517.12 84.6703L534.103 132.005C534.727 133.748 534.633 135.667 533.842 137.34C533.051 139.014 531.627 140.305 529.883 140.93L511.211 147.619L512.727 151.846L537.687 142.908C539.431 142.282 540.854 140.991 541.645 139.317C542.436 137.644 542.529 135.725 541.906 133.983L524.92 86.6466Z" fill="#E29A1B"/>
<path d="M506.153 116.96C506.086 116.765 505.981 116.584 505.844 116.429C505.707 116.275 505.541 116.149 505.355 116.059C505.168 115.969 504.966 115.917 504.76 115.906C504.553 115.895 504.346 115.926 504.152 115.995C503.957 116.065 503.778 116.173 503.626 116.312C503.473 116.452 503.35 116.62 503.263 116.808C503.177 116.995 503.128 117.198 503.121 117.405C503.113 117.611 503.147 117.817 503.22 118.011L505.237 123.631C505.381 124.013 505.67 124.323 506.041 124.494C506.412 124.665 506.835 124.684 507.22 124.546C507.605 124.409 507.92 124.126 508.097 123.758C508.275 123.39 508.301 122.968 508.169 122.581L506.153 116.96Z" fill="white"/>
<path d="M474.776 105.928L464.853 103.367L464.274 113.305L466.934 113.909L466.553 116.579L464.078 116.66L463.934 119.12L466.12 120.145L463.791 121.58L463.581 125.159L466.15 127.328L463.333 129.407L463.137 132.762L466.041 136.89L467.907 139.548L471.425 139.752L472.888 138.259L474.808 136.289L477.226 133.807L478.793 106.971L476.553 106.391L474.776 105.928Z" fill="#B7B1A5"/>
<path d="M470.369 139.691L471.425 139.752L472.888 138.259L474.681 107.521L472.256 107.38L470.369 139.691Z" fill="#D8D8D8"/>
<path d="M472.888 138.259L474.808 136.289L476.775 102.59L474.976 102.485L472.888 138.259Z" fill="white"/>
<path d="M464.274 113.305L466.934 113.909L466.553 116.579L464.078 116.66L463.934 119.12L466.12 120.145L463.791 121.58L463.581 125.159L466.15 127.328L463.333 129.407L463.137 132.762L466.041 136.89L467.903 104.99L464.769 104.807L464.274 113.305Z" fill="#7C776D"/>
<path d="M473.625 82.4145L472.548 82.3518C470.39 82.2259 468.227 82.526 466.185 83.235C464.142 83.944 462.26 85.0481 460.644 86.4841C459.029 87.9202 457.713 89.6601 456.77 91.6045C455.828 93.5489 455.278 95.6597 455.153 97.8164L454.809 103.706C454.764 104.473 454.87 105.241 455.123 105.966C455.375 106.691 455.767 107.359 456.278 107.933C456.789 108.506 457.408 108.974 458.099 109.308C458.791 109.643 459.542 109.838 460.309 109.882L482.711 111.188C483.478 111.233 484.247 111.126 484.972 110.874C485.698 110.622 486.367 110.23 486.941 109.72C487.515 109.209 487.983 108.591 488.318 107.9C488.653 107.209 488.848 106.459 488.892 105.693L489.229 99.9368C489.485 95.5459 487.985 91.2331 485.059 87.9471C482.133 84.661 478.02 82.6709 473.625 82.4145Z" fill="#F4B942"/>
<path d="M483.305 86.297C484.618 89.0642 485.209 92.1179 485.026 95.1747L484.683 101.05C484.511 103.98 482.211 106.229 479.541 106.074L455.112 104.65C455.022 104.65 454.933 104.63 454.844 104.62C455.132 107.446 457.227 109.703 459.905 109.86L483.109 111.212C486.113 111.387 488.703 108.853 488.896 105.552L489.161 101.018C489.511 95.1183 487.172 89.7295 483.305 86.297Z" fill="#E29A1B"/>
<path d="M477.439 90.3034L467.976 89.752C467.138 89.7054 466.315 89.9921 465.688 90.5496C465.061 91.107 464.68 91.8899 464.629 92.7271L464.622 92.8411C464.576 93.6786 464.863 94.5005 465.421 95.1272C465.979 95.754 466.762 96.1346 467.6 96.1859L477.062 96.7373C477.9 96.7836 478.723 96.4968 479.35 95.9394C479.977 95.382 480.358 94.5993 480.41 93.7622L480.416 93.6482C480.463 92.8106 480.176 91.9886 479.618 91.3618C479.06 90.735 478.277 90.3544 477.439 90.3034Z" fill="#FFD488"/>
<path d="M477.674 90.3172L475.291 90.1781C476.9 90.2721 478.133 91.796 478.03 93.5618C477.928 95.3275 476.525 96.7023 474.915 96.6083L477.298 96.7474C478.908 96.8414 480.308 95.4704 480.414 93.7009C480.519 91.9313 479.283 90.4112 477.674 90.3172Z" fill="white"/>
<path d="M478.778 71.7159C477.022 71.6119 475.324 72.6007 473.999 74.4943C472.726 76.3139 471.94 78.7778 471.785 81.4283C471.631 84.0788 472.125 86.6178 473.178 88.5716C474.273 90.6055 475.843 91.7823 477.6 91.885H477.63C477.763 91.8888 477.893 91.8397 477.989 91.7484C478.086 91.6571 478.143 91.5311 478.147 91.3982C478.15 91.2652 478.101 91.1362 478.01 91.0395C477.918 90.9428 477.792 90.8863 477.659 90.8825C474.68 90.7083 472.494 86.4962 472.788 81.4834C473.081 76.4706 475.744 72.5406 478.719 72.711C481.694 72.8814 483.883 77.0972 483.591 82.11C483.519 83.4734 483.249 84.8191 482.79 86.1052C482.766 86.1676 482.754 86.2342 482.756 86.3012C482.757 86.3683 482.772 86.4343 482.8 86.4953C482.828 86.5564 482.867 86.6113 482.916 86.6569C482.966 86.7024 483.024 86.7376 483.087 86.7604C483.15 86.7832 483.217 86.7931 483.284 86.7896C483.351 86.7861 483.416 86.7691 483.477 86.7398C483.537 86.7105 483.591 86.6695 483.635 86.619C483.679 86.5685 483.713 86.5098 483.734 86.4461C484.225 85.0692 484.514 83.6286 484.593 82.1689C484.747 79.5171 484.253 76.9794 483.201 75.0257C482.106 72.9955 480.535 71.8187 478.778 71.7159Z" fill="#988575"/>
</g>
<defs>
<clipPath id="clip0_321_11118">
<rect width="587" height="391" fill="white" transform="translate(0.248779)"/>
</clipPath>
</defs>
</svg>
