<svg width="52" height="52" viewBox="0 0 52 52" fill="none" xmlns="http://www.w3.org/2000/svg">
<rect width="52" height="52" rx="4" fill="#0C288D" fill-opacity="0.2"/>
<g clip-path="url(#clip0_493_13539)">
<path d="M21.2125 38.0023C21.7896 38.509 22.3853 39.0318 22.9981 39.5737C23.0023 39.5774 23.0066 39.5812 23.0108 39.5849L25.0494 41.3458C25.3225 41.5817 25.6615 41.6997 26.0005 41.6997C26.3395 41.6997 26.6785 41.5816 26.9517 41.3458L28.9898 39.5849C28.9941 39.5812 28.9983 39.5775 29.0024 39.5738C33.0379 36.005 36.0636 33.2727 38.2526 30.608C40.8092 27.4958 42.0001 24.6818 42.0001 21.7523C42.0001 16.4521 37.8484 12.3004 32.5484 12.3004C30.1663 12.3004 27.8127 13.1974 26.0005 14.7522C24.1878 13.1973 21.8341 12.3004 19.452 12.3004C14.1518 12.3003 10 16.4521 10 21.7522C10 28.1589 14.4606 32.0748 21.2125 38.0023ZM20.1805 24.0904H24.0601V20.2107H27.9398V24.0904H31.8195V27.97H27.9398V31.8496H24.0601V27.97H20.1805V24.0904Z" fill="#0C288D"/>
</g>
<defs>
<clipPath id="clip0_493_13539">
<rect width="32" height="32" fill="white" transform="translate(10 11)"/>
</clipPath>
</defs>
</svg>
