<svg width="658" height="592" viewBox="0 0 658 592" fill="none" xmlns="http://www.w3.org/2000/svg">
<g clip-path="url(#clip0_528_19772)">
<path d="M568.593 191.457C565.435 191.45 562.29 191.847 559.233 192.639C555.399 184.65 545.879 179.001 534.735 179.001C522.351 179.001 511.966 185.993 509.176 195.405C506.942 194.686 504.609 194.323 502.262 194.327C491.952 194.327 483.593 201.146 483.593 209.572H594.892C594.892 199.567 583.118 191.457 568.593 191.457Z" fill="white"/>
<path d="M402.343 87.9244C399.171 87.9166 396.017 88.3794 392.981 89.2977C389.149 80.0009 379.627 73.4165 368.485 73.4165C356.099 73.4165 345.715 81.5522 342.924 92.5085C340.714 91.6772 338.372 91.253 336.01 91.2564C325.702 91.2564 317.343 99.1989 317.343 108.998H428.642C428.642 97.3615 416.864 87.9244 402.343 87.9244Z" fill="white"/>
<path d="M456.988 219.206V195.439H331.202V219.206H324.259C305.624 219.206 290.514 234.314 290.514 252.95V440.323C290.514 459.076 304.256 474.954 322.803 477.736C338.968 480.159 362.112 482.203 394.193 482.203C426.273 482.203 449.415 480.159 465.58 477.736C484.129 474.954 497.869 459.076 497.869 440.323V252.95C497.869 227.618 475.627 219.206 456.988 219.206Z" fill="#BEEAE3"/>
<path d="M474.468 465.46C474.468 471.332 438.529 476.109 394.193 476.109C349.856 476.109 313.915 471.341 313.915 465.46C313.915 459.578 349.856 454.809 394.193 454.809C438.529 454.809 474.468 459.576 474.468 465.46Z" fill="#22A497"/>
<path d="M365.057 447.917C365.057 450.717 352.33 452.988 336.629 452.988C320.928 452.988 308.2 450.715 308.2 447.917C308.2 445.12 320.929 442.845 336.629 442.845C352.328 442.845 365.057 445.106 365.057 447.917Z" fill="#FED49F"/>
<path d="M363.385 447.917C363.385 450.19 351.406 452.045 336.629 452.045C321.852 452.045 309.875 450.19 309.875 447.917C309.875 445.644 321.852 443.788 336.629 443.788C351.406 443.788 363.385 445.627 363.385 447.917Z" fill="#EF9337"/>
<path d="M308.2 458.248C308.2 461.048 320.929 463.319 336.629 463.319C352.328 463.319 365.057 461.046 365.057 458.248V447.917C365.057 450.717 352.33 452.988 336.629 452.988C320.928 452.988 308.2 450.715 308.2 447.917V458.248Z" fill="#EF9337"/>
<path d="M362.7 434.521C362.7 437.321 349.971 439.592 334.271 439.592C318.572 439.592 305.843 437.319 305.843 434.521C305.843 431.724 318.57 429.451 334.271 429.451C349.973 429.451 362.7 431.72 362.7 434.521Z" fill="#FED49F"/>
<path d="M361.026 434.521C361.026 436.794 349.049 438.649 334.272 438.649C319.495 438.649 307.516 436.8 307.516 434.521C307.516 432.243 319.495 430.392 334.272 430.392C349.049 430.392 361.026 432.241 361.026 434.521Z" fill="#EF9337"/>
<path d="M305.843 444.862C305.843 447.664 318.57 449.933 334.271 449.933C349.973 449.933 362.7 447.66 362.7 444.862V434.521C362.7 437.321 349.971 439.592 334.271 439.592C318.572 439.592 305.843 437.319 305.843 434.521V444.862Z" fill="#EF9337"/>
<path d="M362.7 423.023C362.7 425.823 349.971 428.094 334.271 428.094C318.572 428.094 305.843 425.821 305.843 423.023C305.843 420.226 318.57 417.951 334.271 417.951C349.973 417.951 362.7 420.222 362.7 423.023Z" fill="#FED49F"/>
<path d="M361.026 423.023C361.026 425.296 349.049 427.151 334.272 427.151C319.495 427.151 307.516 425.302 307.516 423.023C307.516 420.744 319.495 418.894 334.272 418.894C349.049 418.894 361.026 420.743 361.026 423.023Z" fill="#EF9337"/>
<path d="M305.843 433.364C305.843 436.165 318.57 438.435 334.271 438.435C349.973 438.435 362.7 436.162 362.7 433.364V423.023C362.7 425.823 349.971 428.094 334.271 428.094C318.572 428.094 305.843 425.821 305.843 423.023V433.364Z" fill="#EF9337"/>
<path d="M367.046 412.781C367.046 415.581 354.318 417.852 338.617 417.852C322.916 417.852 310.188 415.579 310.188 412.781C310.188 409.984 322.916 407.71 338.617 407.71C354.318 407.71 367.046 409.982 367.046 412.781Z" fill="#FED49F"/>
<path d="M365.37 412.781C365.37 415.054 353.392 416.909 338.615 416.909C323.839 416.909 311.861 415.06 311.861 412.781C311.861 410.502 323.839 408.654 338.615 408.654C353.392 408.654 365.37 410.502 365.37 412.781Z" fill="#FEB85F"/>
<path d="M310.188 423.122C310.188 425.923 322.915 428.193 338.616 428.193C354.317 428.193 367.045 425.92 367.045 423.122V412.781C367.045 415.581 354.317 417.852 338.616 417.852C322.915 417.852 310.188 415.579 310.188 412.781V423.122Z" fill="#EF9337"/>
<path d="M365.768 400.961C365.768 403.761 353.041 406.03 337.34 406.03C321.638 406.03 308.911 403.757 308.911 400.961C308.911 398.165 321.638 395.89 337.34 395.89C353.041 395.89 365.768 398.16 365.768 400.961Z" fill="#FED49F"/>
<path d="M364.097 400.961C364.097 403.234 352.118 405.089 337.341 405.089C322.564 405.089 310.587 403.24 310.587 400.961C310.587 398.683 322.564 396.834 337.341 396.834C352.118 396.834 364.097 398.681 364.097 400.961Z" fill="#EF9337"/>
<path d="M356.861 400.694C356.861 402.111 348.123 403.259 337.341 403.259C326.559 403.259 317.83 402.111 317.83 400.694C317.83 399.277 326.57 398.129 337.341 398.129C348.111 398.129 356.861 399.277 356.861 400.694Z" fill="#EF9337"/>
<path d="M308.911 411.302C308.911 414.104 321.638 416.373 337.34 416.373C353.041 416.373 365.768 414.1 365.768 411.302V400.961C365.768 403.761 353.041 406.03 337.34 406.03C321.638 406.03 308.911 403.757 308.911 400.961V411.302Z" fill="#FEB85F"/>
<path d="M372.701 388.378C372.701 391.177 359.974 393.449 344.272 393.449C328.571 393.449 315.844 391.176 315.844 388.378C315.844 385.58 328.571 383.307 344.272 383.307C359.974 383.307 372.701 385.576 372.701 388.378Z" fill="#FED49F"/>
<path d="M371.024 388.378C371.024 390.651 359.045 392.505 344.268 392.505C329.491 392.505 317.514 390.657 317.514 388.378C317.514 386.099 329.491 384.25 344.268 384.25C359.045 384.25 371.024 386.097 371.024 388.378Z" fill="#EF9337"/>
<path d="M315.844 398.72C315.844 401.52 328.571 403.789 344.272 403.789C359.974 403.789 372.701 401.516 372.701 398.72V388.378C372.701 391.178 359.974 393.449 344.272 393.449C328.571 393.449 315.844 391.176 315.844 388.378V398.72Z" fill="#FEB85F"/>
<path d="M370.344 374.989C370.344 377.789 357.614 380.06 341.913 380.06C326.212 380.06 313.486 377.787 313.486 374.989C313.486 372.192 326.214 369.919 341.913 369.919C357.612 369.919 370.344 372.19 370.344 374.989Z" fill="#FED49F"/>
<path d="M368.669 374.989C368.669 377.262 356.69 379.117 341.913 379.117C327.136 379.117 315.159 377.262 315.159 374.989C315.159 372.716 327.138 370.862 341.913 370.862C356.688 370.862 368.669 372.716 368.669 374.989Z" fill="#EF9337"/>
<path d="M313.486 385.334C313.486 388.134 326.214 390.405 341.913 390.405C357.612 390.405 370.344 388.132 370.344 385.334V374.99C370.344 377.789 357.614 380.06 341.913 380.06C326.212 380.06 313.486 377.787 313.486 374.99V385.334Z" fill="#FEB85F"/>
<path d="M370.344 363.493C370.344 366.295 357.614 368.564 341.913 368.564C326.212 368.564 313.486 366.291 313.486 363.493C313.486 360.696 326.214 358.423 341.913 358.423C357.612 358.423 370.344 360.692 370.344 363.493Z" fill="#FED49F"/>
<path d="M341.913 367.621C356.689 367.621 368.667 365.773 368.667 363.493C368.667 361.214 356.689 359.366 341.913 359.366C327.137 359.366 315.159 361.214 315.159 363.493C315.159 365.773 327.137 367.621 341.913 367.621Z" fill="#EF9337"/>
<path d="M313.486 373.836C313.486 376.636 326.214 378.905 341.913 378.905C357.612 378.905 370.344 376.632 370.344 373.836V363.493C370.344 366.295 357.614 368.564 341.913 368.564C326.212 368.564 313.486 366.291 313.486 363.493V373.836Z" fill="#FEB85F"/>
<path d="M374.687 353.251C374.687 356.051 361.958 358.322 346.259 358.322C330.559 358.322 317.83 356.049 317.83 353.251C317.83 350.454 330.557 348.18 346.259 348.18C361.96 348.18 374.687 350.452 374.687 353.251Z" fill="#FED49F"/>
<path d="M373.013 353.251C373.013 355.524 361.034 357.379 346.259 357.379C331.484 357.379 319.501 355.532 319.501 353.251C319.501 350.971 331.478 349.124 346.255 349.124C361.032 349.124 373.013 350.972 373.013 353.251Z" fill="#FEB85F"/>
<path d="M317.83 363.594C317.83 366.393 330.557 368.665 346.259 368.665C361.96 368.665 374.687 366.391 374.687 363.594V353.251C374.687 356.051 361.958 358.322 346.259 358.322C330.559 358.322 317.83 356.049 317.83 353.251V363.594Z" fill="#FEB85F"/>
<path d="M373.413 341.431C373.413 344.231 360.686 346.502 344.984 346.502C329.283 346.502 316.556 344.229 316.556 341.431C316.556 338.633 329.283 336.36 344.984 336.36C360.686 336.36 373.413 338.632 373.413 341.431Z" fill="#FED49F"/>
<path d="M371.741 341.431C371.741 343.704 359.761 345.559 344.985 345.559C330.208 345.559 318.23 343.71 318.23 341.431C318.23 339.152 330.208 337.304 344.985 337.304C359.761 337.304 371.741 339.152 371.741 341.431Z" fill="#FEB85F"/>
<path d="M364.504 341.164C364.504 342.581 355.764 343.731 344.994 343.731C334.223 343.731 325.474 342.581 325.474 341.164C325.474 339.747 334.214 338.599 344.994 338.599C355.774 338.599 364.504 339.757 364.504 341.164Z" fill="#FED49F"/>
<path d="M364.504 341.431C364.504 342.7 355.764 343.731 344.994 343.731C334.223 343.731 325.474 342.7 325.474 341.431C325.474 340.162 334.214 339.132 344.994 339.132C355.774 339.132 364.504 340.162 364.504 341.431Z" fill="#EF9337"/>
<path d="M316.556 351.772C316.556 354.573 329.283 356.843 344.984 356.843C360.686 356.843 373.413 354.57 373.413 351.772V341.431C373.413 344.231 360.686 346.502 344.984 346.502C329.283 346.502 316.556 344.229 316.556 341.431V351.772Z" fill="#FEB85F"/>
<path d="M478.834 455.754C478.834 458.555 466.106 460.826 450.405 460.826C434.704 460.826 421.977 458.553 421.977 455.754C421.977 452.954 434.706 450.683 450.405 450.683C466.105 450.683 478.834 452.954 478.834 455.754Z" fill="#FED49F"/>
<path d="M477.161 455.754C477.161 458.027 465.182 459.883 450.405 459.883C435.629 459.883 423.651 458.034 423.651 455.754C423.651 453.473 435.629 451.626 450.405 451.626C465.182 451.626 477.161 453.475 477.161 455.754Z" fill="#EF9337"/>
<path d="M421.979 466.102C421.979 468.902 434.708 471.173 450.407 471.173C466.107 471.173 478.836 468.9 478.836 466.102V455.76C478.836 458.561 466.108 460.832 450.407 460.832C434.706 460.832 421.979 458.559 421.979 455.76V466.102Z" fill="#FEB85F"/>
<path d="M476.478 442.367C476.478 445.169 463.749 447.44 448.05 447.44C432.35 447.44 419.621 445.167 419.621 442.367C419.621 439.568 432.348 437.298 448.05 437.298C463.751 437.298 476.478 439.568 476.478 442.367Z" fill="#FED49F"/>
<path d="M474.803 442.367C474.803 444.64 462.824 446.497 448.049 446.497C433.274 446.497 421.293 444.648 421.293 442.367C421.293 440.087 433.272 438.24 448.049 438.24C462.826 438.24 474.803 440.089 474.803 442.367Z" fill="#EF9337"/>
<path d="M419.621 452.71C419.621 455.511 432.348 457.781 448.05 457.781C463.751 457.781 476.478 455.508 476.478 452.71V442.367C476.478 445.169 463.749 447.44 448.05 447.44C432.35 447.44 419.621 445.167 419.621 442.367V452.71Z" fill="#EF9337"/>
<path d="M476.478 430.869C476.478 433.671 463.749 435.942 448.05 435.942C432.35 435.942 419.621 433.669 419.621 430.869C419.621 428.07 432.348 425.798 448.05 425.798C463.751 425.798 476.478 428.07 476.478 430.869Z" fill="#FED49F"/>
<path d="M474.803 430.869C474.803 433.142 462.824 434.999 448.049 434.999C433.274 434.999 421.293 433.15 421.293 430.869C421.293 428.589 433.272 426.742 448.049 426.742C462.826 426.742 474.803 428.596 474.803 430.869Z" fill="#EF9337"/>
<path d="M419.621 441.212C419.621 444.013 432.348 446.283 448.05 446.283C463.751 446.283 476.478 444.01 476.478 441.212V430.869C476.478 433.671 463.749 435.942 448.05 435.942C432.35 435.942 419.621 433.669 419.621 430.869V441.212Z" fill="#EF9337"/>
<path d="M480.821 420.629C480.821 423.429 468.094 425.7 452.392 425.7C436.691 425.7 423.964 423.427 423.964 420.629C423.964 417.831 436.691 415.558 452.392 415.558C468.094 415.558 480.821 417.827 480.821 420.629Z" fill="#FED49F"/>
<path d="M479.147 420.629C479.147 422.902 467.168 424.757 452.393 424.757C437.618 424.757 425.637 422.908 425.637 420.629C425.637 418.35 437.616 416.501 452.393 416.501C467.17 416.501 479.147 418.348 479.147 420.629Z" fill="#EF9337"/>
<path d="M423.964 430.97C423.964 433.771 436.691 436.041 452.392 436.041C468.094 436.041 480.821 433.767 480.821 430.97V420.629C480.821 423.429 468.094 425.7 452.392 425.7C436.691 425.7 423.964 423.427 423.964 420.629V430.97Z" fill="#EF9337"/>
<path d="M479.547 408.809C479.547 411.609 466.819 413.878 451.118 413.878C435.417 413.878 422.689 411.605 422.689 408.809C422.689 406.013 435.417 403.736 451.118 403.736C466.819 403.736 479.547 406.008 479.547 408.809Z" fill="#FED49F"/>
<path d="M477.873 408.809C477.873 411.082 465.894 412.935 451.117 412.935C436.341 412.935 424.363 411.088 424.363 408.809C424.363 406.53 436.341 404.68 451.117 404.68C465.894 404.68 477.873 406.528 477.873 408.809Z" fill="#EF9337"/>
<path d="M470.638 408.542C470.638 409.959 461.9 411.107 451.118 411.107C440.336 411.107 431.607 409.959 431.607 408.542C431.607 407.125 440.347 405.977 451.118 405.977C461.889 405.977 470.638 407.125 470.638 408.542Z" fill="#EF9337"/>
<path d="M422.689 419.15C422.689 421.949 435.417 424.221 451.118 424.221C466.819 424.221 479.547 421.947 479.547 419.15V408.809C479.547 411.609 466.819 413.878 451.118 413.878C435.417 413.878 422.689 411.605 422.689 408.809V419.15Z" fill="#EF9337"/>
<path d="M486.477 396.226C486.477 399.025 473.75 401.296 458.049 401.296C442.347 401.296 429.62 399.023 429.62 396.226C429.62 393.428 442.347 391.155 458.049 391.155C473.75 391.155 486.477 393.424 486.477 396.226Z" fill="#FED49F"/>
<path d="M484.805 396.226C484.805 398.499 472.826 400.353 458.049 400.353C443.272 400.353 431.295 398.504 431.295 396.226C431.295 393.947 443.272 392.098 458.049 392.098C472.826 392.098 484.805 393.945 484.805 396.226Z" fill="#EF9337"/>
<path d="M429.62 406.566C429.62 409.366 442.347 411.637 458.049 411.637C473.75 411.637 486.477 409.364 486.477 406.566V396.226C486.477 399.025 473.75 401.297 458.049 401.297C442.347 401.297 429.62 399.023 429.62 396.226V406.566Z" fill="#FEB85F"/>
<path d="M484.12 382.839C484.12 385.639 471.391 387.91 455.689 387.91C439.988 387.91 427.263 385.637 427.263 382.839C427.263 380.041 439.99 377.768 455.689 377.768C471.389 377.768 484.12 380.038 484.12 382.839Z" fill="#FED49F"/>
<path d="M482.446 382.839C482.446 385.112 470.467 386.967 455.69 386.967C440.913 386.967 428.936 385.118 428.936 382.839C428.936 380.56 440.915 378.712 455.69 378.712C470.465 378.712 482.446 380.558 482.446 382.839Z" fill="#EF9337"/>
<path d="M427.263 393.174C427.263 395.976 439.99 398.247 455.689 398.247C471.389 398.247 484.12 395.974 484.12 393.174V382.833C484.12 385.633 471.391 387.904 455.689 387.904C439.988 387.904 427.263 385.631 427.263 382.833V393.174Z" fill="#FEB85F"/>
<path d="M484.12 371.341C484.12 374.141 471.391 376.412 455.689 376.412C439.988 376.412 427.263 374.139 427.263 371.341C427.263 368.543 439.99 366.276 455.695 366.276C471.4 366.276 484.12 368.549 484.12 371.341Z" fill="#FED49F"/>
<path d="M482.446 371.341C482.446 373.614 470.467 375.469 455.69 375.469C440.913 375.469 428.936 373.62 428.936 371.341C428.936 369.062 440.92 367.223 455.695 367.223C470.47 367.223 482.446 369.061 482.446 371.341Z" fill="#EF9337"/>
<path d="M427.263 381.684C427.263 384.483 439.99 386.753 455.689 386.753C471.389 386.753 484.12 384.479 484.12 381.684V371.341C484.12 374.141 471.391 376.412 455.689 376.412C439.988 376.412 427.263 374.139 427.263 371.341V381.684Z" fill="#FEB85F"/>
<path d="M488.466 361.099C488.466 363.899 475.736 366.17 460.037 366.17C444.338 366.17 431.608 363.897 431.608 361.099C431.608 358.301 444.336 356.028 460.037 356.028C475.738 356.028 488.466 358.3 488.466 361.099Z" fill="#FED49F"/>
<path d="M486.789 361.099C486.789 363.372 474.81 365.227 460.035 365.227C445.26 365.227 433.279 363.378 433.279 361.099C433.279 358.82 445.258 356.972 460.035 356.972C474.812 356.972 486.789 358.82 486.789 361.099Z" fill="#FEB85F"/>
<path d="M431.607 371.44C431.607 374.241 444.335 376.512 460.036 376.512C475.737 376.512 488.465 374.239 488.465 371.44V361.099C488.465 363.899 475.735 366.17 460.036 366.17C444.337 366.17 431.607 363.897 431.607 361.099V371.44Z" fill="#FEB85F"/>
<path d="M487.19 349.279C487.19 352.079 474.463 354.35 458.762 354.35C443.06 354.35 430.333 352.077 430.333 349.279C430.333 346.481 443.06 344.208 458.762 344.208C474.463 344.208 487.19 346.477 487.19 349.279Z" fill="#FED49F"/>
<path d="M485.515 349.279C485.515 351.552 473.538 353.407 458.761 353.407C443.984 353.407 432.007 351.558 432.007 349.279C432.007 347 443.984 345.151 458.761 345.151C473.538 345.151 485.515 346.998 485.515 349.279Z" fill="#FEB85F"/>
<path d="M478.281 349.012C478.281 350.429 469.541 351.577 458.761 351.577C447.981 351.577 439.25 350.429 439.25 349.012C439.25 347.595 447.99 346.447 458.761 346.447C469.531 346.447 478.281 347.595 478.281 349.012Z" fill="#FED49F"/>
<path d="M478.281 349.279C478.281 350.548 469.541 351.577 458.761 351.577C447.981 351.577 439.25 350.548 439.25 349.279C439.25 348.01 447.99 346.979 458.761 346.979C469.531 346.979 478.281 348.008 478.281 349.279Z" fill="#EF9337"/>
<path d="M430.333 359.62C430.333 362.421 443.06 364.691 458.762 364.691C474.463 364.691 487.19 362.417 487.19 359.62V349.279C487.19 352.079 474.463 354.35 458.762 354.35C443.06 354.35 430.333 352.077 430.333 349.279V359.62Z" fill="#FEB85F"/>
<g opacity="0.47">
<path d="M428.952 403.13V395.61C429.831 395.135 430.304 394.629 430.304 394.095V384.65C430.668 384.334 430.861 384.01 430.861 383.676V373.334C430.85 373.169 430.806 373.007 430.732 372.86C430.657 372.712 430.554 372.581 430.427 372.474C432.308 371.813 433.363 371.072 433.363 370.29V359.947C433.236 359.782 433.167 359.579 433.167 359.37C433.167 359.161 433.236 358.957 433.363 358.792V348.449C433.363 347.644 432.242 346.881 430.247 346.205H368.412V348.55C368.412 349.54 370.102 350.463 373.023 351.245V358.792C373.15 358.957 373.219 359.161 373.219 359.37C373.219 359.579 373.15 359.782 373.023 359.947V370.29C373.033 370.455 373.077 370.616 373.152 370.764C373.227 370.912 373.33 371.043 373.456 371.15C371.575 371.811 370.52 372.552 370.52 373.334V382.784C370.155 383.099 369.952 383.424 369.952 383.758V394.072C369.073 394.547 368.6 395.053 368.6 395.578V405.918C368.6 406.909 370.289 407.834 373.21 408.614V416.161C373.338 416.326 373.408 416.53 373.408 416.739C373.408 416.949 373.338 417.152 373.21 417.318V427.659C373.221 427.824 373.265 427.985 373.339 428.133C373.414 428.281 373.517 428.412 373.644 428.519C371.763 429.182 370.708 429.922 370.708 430.704V441.045C370.708 443.845 384.216 446.116 400.879 446.116C417.543 446.116 431.049 443.843 431.049 441.045V430.704C431.038 430.539 430.994 430.378 430.92 430.23C430.845 430.082 430.741 429.951 430.615 429.844C432.496 429.182 433.551 428.441 433.551 427.659V417.318C433.423 417.152 433.354 416.949 433.354 416.739C433.354 416.53 433.423 416.326 433.551 416.161V405.82C433.56 404.835 431.871 403.911 428.952 403.13Z" fill="#CE4825"/>
</g>
<path d="M372.384 430.907C372.384 433.707 385.111 435.978 400.812 435.978C416.514 435.978 429.241 433.705 429.241 430.907C429.241 428.109 416.514 425.834 400.812 425.834C385.111 425.834 372.384 428.106 372.384 430.907Z" fill="#FED49F"/>
<g opacity="0.47">
<path d="M374.055 430.907C374.055 433.18 386.034 435.035 400.811 435.035C415.588 435.035 427.565 433.186 427.565 430.907C427.565 428.628 415.588 426.778 400.811 426.778C386.034 426.778 374.055 428.626 374.055 430.907Z" fill="#CE4825"/>
</g>
<path d="M429.241 441.248C429.241 444.047 416.514 446.319 400.812 446.319C385.111 446.319 372.384 444.046 372.384 441.248V430.907C372.384 433.707 385.111 435.978 400.812 435.978C416.514 435.978 429.241 433.705 429.241 430.907V441.248Z" fill="#EF9337"/>
<path d="M374.74 417.521C374.74 420.32 387.469 422.591 403.171 422.591C418.872 422.591 431.597 420.318 431.597 417.521C431.597 414.723 418.87 412.45 403.171 412.45C387.471 412.45 374.74 414.719 374.74 417.521Z" fill="#FEB85F"/>
<path d="M376.415 417.521C376.415 419.794 388.394 421.648 403.171 421.648C417.948 421.648 429.925 419.799 429.925 417.521C429.925 415.242 417.946 413.391 403.171 413.391C388.396 413.391 376.415 415.24 376.415 417.521Z" fill="#FEB85F"/>
<path d="M431.597 427.861C431.597 430.663 418.87 432.932 403.171 432.932C387.471 432.932 374.74 430.659 374.74 427.861V417.521C374.74 420.32 387.469 422.591 403.171 422.591C418.872 422.591 431.597 420.318 431.597 417.521V427.861Z" fill="#EF9337"/>
<path d="M374.74 406.023C374.74 408.822 387.469 411.094 403.171 411.094C418.872 411.094 431.597 408.82 431.597 406.023C431.597 403.225 418.87 400.95 403.171 400.95C387.471 400.95 374.74 403.214 374.74 406.023Z" fill="#FED49F"/>
<path d="M376.415 406.023C376.415 408.296 388.394 410.15 403.171 410.15C417.948 410.15 429.925 408.301 429.925 406.023C429.925 403.744 417.946 401.893 403.171 401.893C388.396 401.893 376.415 403.742 376.415 406.023Z" fill="#FEB85F"/>
<path d="M431.597 416.363C431.597 419.165 418.87 421.434 403.171 421.434C387.471 421.434 374.74 419.161 374.74 416.363V406.023C374.74 408.822 387.469 411.093 403.171 411.093C418.872 411.093 431.597 408.82 431.597 406.023V416.363Z" fill="#EF9337"/>
<path d="M370.397 395.781C370.397 398.58 383.125 400.851 398.826 400.851C414.527 400.851 427.255 398.578 427.255 395.781C427.255 392.983 414.527 390.712 398.826 390.712C383.125 390.712 370.397 392.985 370.397 395.781Z" fill="#FEB85F"/>
<path d="M372.071 395.781C372.071 398.054 384.05 399.908 398.825 399.908C413.6 399.908 425.58 398.059 425.58 395.781C425.58 393.502 413.602 391.659 398.825 391.659C384.049 391.659 372.071 393.502 372.071 395.781Z" fill="#FEB85F"/>
<path d="M427.255 406.121C427.255 408.923 414.527 411.192 398.826 411.192C383.125 411.192 370.397 408.919 370.397 406.121V395.781C370.397 398.58 383.125 400.851 398.826 400.851C414.527 400.851 427.255 398.578 427.255 395.781V406.121Z" fill="#FEB85F"/>
<path d="M371.672 383.961C371.672 386.76 384.399 389.029 400.101 389.029C415.802 389.029 428.529 386.756 428.529 383.961C428.529 381.165 415.802 378.89 400.101 378.89C384.399 378.89 371.672 381.159 371.672 383.961Z" fill="#FEB85F"/>
<path d="M373.344 383.961C373.344 386.234 385.323 388.088 400.1 388.088C414.877 388.088 426.854 386.239 426.854 383.961C426.854 381.682 414.877 379.833 400.1 379.833C385.323 379.833 373.344 381.68 373.344 383.961Z" fill="#FEB85F"/>
<path d="M380.58 383.703C380.58 385.12 389.32 386.268 400.1 386.268C410.88 386.268 419.62 385.12 419.62 383.703C419.62 382.286 410.88 381.138 400.1 381.138C389.32 381.138 380.58 382.277 380.58 383.703Z" fill="#FEB85F"/>
<path d="M380.58 383.961C380.58 385.23 389.32 386.258 400.1 386.258C410.88 386.258 419.62 385.23 419.62 383.961C419.62 382.691 410.88 381.661 400.1 381.661C389.32 381.661 380.58 382.689 380.58 383.961Z" fill="#FEB85F"/>
<path d="M428.529 394.311C428.529 397.112 415.802 399.381 400.101 399.381C384.399 399.381 371.672 397.108 371.672 394.311V383.97C371.672 386.77 384.399 389.039 400.101 389.039C415.802 389.039 428.529 386.766 428.529 383.97V394.311Z" fill="#EF9337"/>
<path d="M372.198 373.537C372.198 376.338 384.926 378.608 400.627 378.608C416.328 378.608 429.055 376.334 429.055 373.537C429.055 370.739 416.328 368.466 400.627 368.466C384.926 368.466 372.198 370.735 372.198 373.537Z" fill="#FEB85F"/>
<path d="M373.865 373.537C373.865 375.81 385.844 377.664 400.621 377.664C415.398 377.664 427.375 375.817 427.375 373.537C427.375 371.256 415.398 369.409 400.621 369.409C385.844 369.409 373.865 371.258 373.865 373.537Z" fill="#EF9337"/>
<path d="M429.055 383.879C429.055 386.679 416.328 388.948 400.627 388.948C384.926 388.948 372.198 386.675 372.198 383.879V373.537C372.198 376.338 384.926 378.607 400.627 378.607C416.328 378.607 429.055 376.334 429.055 373.537V383.879Z" fill="#FEB85F"/>
<path d="M374.555 360.15C374.555 362.952 387.284 365.221 402.983 365.221C418.683 365.221 431.412 362.948 431.412 360.15C431.412 357.352 418.685 355.079 402.983 355.079C387.282 355.079 374.555 357.351 374.555 360.15Z" fill="#FED49F"/>
<path d="M376.229 360.15C376.229 362.423 388.206 364.278 402.983 364.278C417.76 364.278 429.744 362.431 429.744 360.15C429.744 357.869 417.765 356.023 402.988 356.023C388.211 356.023 376.229 357.871 376.229 360.15Z" fill="#EF9337"/>
<path d="M431.412 370.493C431.412 373.292 418.685 375.564 402.983 375.564C387.282 375.564 374.555 373.29 374.555 370.493V360.15C374.555 362.952 387.284 365.221 402.983 365.221C418.683 365.221 431.412 362.948 431.412 360.15V370.493Z" fill="#FEB85F"/>
<path d="M374.555 348.66C374.555 351.461 387.284 353.73 402.983 353.73C418.683 353.73 431.412 351.457 431.412 348.66C431.412 345.862 418.685 343.589 402.983 343.589C387.282 343.589 374.555 345.852 374.555 348.66Z" fill="#FED49F"/>
<path d="M376.229 348.66C376.229 350.933 388.206 352.787 402.983 352.787C417.76 352.787 429.744 350.933 429.744 348.66C429.744 346.386 417.765 344.532 402.988 344.532C388.211 344.532 376.229 346.373 376.229 348.66Z" fill="#EF9337"/>
<path d="M431.412 358.995C431.412 361.794 418.685 364.065 402.983 364.065C387.282 364.065 374.555 361.792 374.555 358.995V348.66C374.555 351.461 387.284 353.731 402.983 353.731C418.683 353.731 431.412 351.457 431.412 348.66V358.995Z" fill="#FEB85F"/>
<path d="M370.211 338.412C370.211 341.212 382.938 343.481 398.64 343.481C414.341 343.481 427.068 341.208 427.068 338.412C427.068 335.616 414.341 333.339 398.64 333.339C382.938 333.339 370.211 335.61 370.211 338.412Z" fill="#FED49F"/>
<path d="M371.886 338.412C371.886 340.685 383.865 342.538 398.64 342.538C413.415 342.538 425.388 340.691 425.388 338.412C425.388 336.133 413.411 334.282 398.634 334.282C383.857 334.282 371.886 336.131 371.886 338.412Z" fill="#EF9337"/>
<path d="M427.068 348.752C427.068 351.552 414.341 353.823 398.64 353.823C382.938 353.823 370.211 351.55 370.211 348.752V338.412C370.211 341.212 382.938 343.481 398.64 343.481C414.341 343.481 427.068 341.208 427.068 338.412V348.752Z" fill="#FEB85F"/>
<path d="M371.486 326.59C371.486 329.39 384.214 331.661 399.915 331.661C415.616 331.661 428.344 329.388 428.344 326.59C428.344 323.792 415.616 321.519 399.915 321.519C384.214 321.519 371.486 323.79 371.486 326.59Z" fill="#FED49F"/>
<path d="M373.16 326.59C373.16 328.863 385.137 330.717 399.914 330.717C414.691 330.717 426.668 328.869 426.668 326.59C426.668 324.311 414.691 322.462 399.914 322.462C385.137 322.462 373.16 324.311 373.16 326.59Z" fill="#FEB85F"/>
<path d="M380.395 326.323C380.395 327.74 389.133 328.89 399.915 328.89C410.697 328.89 419.435 327.74 419.435 326.323C419.435 324.906 410.695 323.758 399.915 323.758C389.135 323.758 380.395 324.908 380.395 326.323Z" fill="#FED49F"/>
<path d="M380.395 326.59C380.395 327.859 389.133 328.89 399.915 328.89C410.697 328.89 419.435 327.859 419.435 326.59C419.435 325.321 410.695 324.29 399.915 324.29C389.135 324.29 380.395 325.321 380.395 326.59Z" fill="#FED49F"/>
<path d="M428.344 336.931C428.344 339.732 415.616 342.003 399.915 342.003C384.214 342.003 371.486 339.73 371.486 336.931V326.59C371.486 329.39 384.214 331.661 399.915 331.661C415.616 331.661 428.344 329.388 428.344 326.59V336.931Z" fill="#FEB85F"/>
<path d="M476.066 454.5C476.066 457.301 463.339 459.573 447.638 459.573C431.936 459.573 419.209 457.299 419.209 454.5C419.209 451.7 431.936 449.429 447.638 449.429C463.339 449.429 476.066 451.706 476.066 454.5Z" fill="#FED49F"/>
<path d="M474.394 454.5C474.394 456.773 462.415 458.629 447.638 458.629C432.861 458.629 420.882 456.78 420.882 454.5C420.882 452.219 432.861 450.372 447.638 450.372C462.415 450.372 474.394 452.221 474.394 454.5Z" fill="#EF9337"/>
<path d="M419.209 464.842C419.209 467.642 431.936 469.913 447.638 469.913C463.339 469.913 476.066 467.64 476.066 464.842V454.5C476.066 457.301 463.339 459.573 447.638 459.573C431.936 459.573 419.209 457.299 419.209 454.5V464.842Z" fill="#FEB85F"/>
<path d="M473.71 441.113C473.71 443.915 460.981 446.186 445.281 446.186C429.582 446.186 416.853 443.913 416.853 441.113C416.853 438.314 429.58 436.044 445.281 436.044C460.982 436.044 473.71 438.314 473.71 441.113Z" fill="#FED49F"/>
<path d="M472.036 441.113C472.036 443.386 460.056 445.243 445.281 445.243C430.506 445.243 418.525 443.394 418.525 441.113C418.525 438.833 430.505 436.986 445.281 436.986C460.058 436.986 472.036 438.834 472.036 441.113Z" fill="#FEB85F"/>
<path d="M416.853 451.456C416.853 454.257 429.58 456.527 445.281 456.527C460.982 456.527 473.71 454.254 473.71 451.456V441.113C473.71 443.915 460.981 446.186 445.281 446.186C429.582 446.186 416.853 443.913 416.853 441.113V451.456Z" fill="#FEB85F"/>
<g opacity="0.47">
<path d="M351.237 453.935C350.89 454.278 350.707 454.629 350.707 454.987L350.597 461.556C356.713 461.327 365.807 460.419 369.069 457.112C374.159 451.961 370.884 461.042 374.269 462.834C376.542 464.041 408.028 466.562 426.826 468.083V454.987C426.826 454.039 425.538 453.126 423.239 452.318C423.585 451.975 423.769 451.624 423.769 451.266V438.636C423.613 438.433 423.528 438.185 423.528 437.929C423.528 437.673 423.613 437.425 423.769 437.222V427.998C427.338 427.05 429.402 425.914 429.402 424.703V412.065C429.402 411.425 428.825 410.807 427.749 410.226V397.618C427.749 394.195 408.871 391.42 388.506 391.42C368.141 391.42 351.629 394.195 351.629 397.618V410.258C351.629 410.898 352.209 411.516 353.283 412.097V421.29C349.714 422.237 347.649 423.374 347.649 424.582V437.222C347.805 437.425 347.89 437.673 347.89 437.929C347.89 438.185 347.805 438.433 347.649 438.636V451.276C347.649 452.223 348.937 453.128 351.237 453.935Z" fill="#CE4825"/>
</g>
<path d="M424.956 454.42C424.956 457.676 410.158 460.317 391.903 460.317C373.648 460.317 358.853 457.676 358.853 454.42C358.853 451.164 373.65 448.525 391.903 448.525C410.156 448.525 424.956 451.164 424.956 454.42Z" fill="#FED49F"/>
<path d="M423.011 454.42C423.011 457.072 409.085 459.22 391.904 459.22C374.723 459.22 360.795 457.072 360.795 454.42C360.795 451.768 374.721 449.622 391.9 449.622C409.079 449.622 423.011 451.77 423.011 454.42Z" fill="#EF9337"/>
<path d="M358.853 466.445C358.853 469.699 373.65 472.34 391.903 472.34C410.156 472.34 424.956 469.699 424.956 466.445V454.42C424.956 457.676 410.158 460.317 391.903 460.317C373.648 460.317 358.853 457.676 358.853 454.42V466.445Z" fill="#FEB85F"/>
<path d="M422.215 438.857C422.215 442.113 407.418 444.754 389.165 444.754C370.912 444.754 356.112 442.113 356.112 438.857C356.112 435.601 370.91 432.962 389.165 432.962C407.419 432.962 422.215 435.605 422.215 438.857Z" fill="#FED49F"/>
<path d="M420.274 438.857C420.274 441.509 406.347 443.657 389.169 443.657C371.99 443.657 358.062 441.509 358.062 438.857C358.062 436.205 371.988 434.059 389.169 434.059C406.349 434.059 420.274 436.207 420.274 438.857Z" fill="#EF9337"/>
<path d="M356.112 450.882C356.112 454.138 370.91 456.777 389.165 456.777C407.419 456.777 422.215 454.138 422.215 450.882V438.857C422.215 442.113 407.418 444.754 389.165 444.754C370.912 444.754 356.112 442.113 356.112 438.857V450.882Z" fill="#FEB85F"/>
<path d="M389.165 431.386C407.419 431.386 422.217 428.746 422.217 425.49C422.217 422.233 407.419 419.593 389.165 419.593C370.91 419.593 356.112 422.233 356.112 425.49C356.112 428.746 370.91 431.386 389.165 431.386Z" fill="#FED49F"/>
<path d="M420.274 425.49C420.274 428.142 406.347 430.29 389.169 430.29C371.99 430.29 358.062 428.14 358.062 425.49C358.062 422.84 371.988 420.692 389.169 420.692C406.349 420.692 420.274 422.84 420.274 425.49Z" fill="#EF9337"/>
<path d="M356.112 437.514C356.112 440.77 370.91 443.409 389.165 443.409C407.419 443.409 422.215 440.77 422.215 437.514V425.49C422.215 428.746 407.418 431.386 389.165 431.386C370.912 431.386 356.112 428.746 356.112 425.49V437.514Z" fill="#FEB85F"/>
<path d="M427.266 413.582C427.266 416.839 412.468 419.477 394.216 419.477C375.963 419.477 361.163 416.839 361.163 413.582C361.163 410.326 375.961 407.688 394.216 407.688C412.47 407.688 427.266 410.326 427.266 413.582Z" fill="#FED49F"/>
<path d="M425.321 413.583C425.321 416.234 411.394 418.381 394.215 418.381C377.037 418.381 363.108 416.233 363.108 413.583C363.108 410.932 377.035 408.784 394.215 408.784C411.396 408.784 425.321 410.932 425.321 413.583Z" fill="#EF9337"/>
<path d="M361.163 425.605C361.163 428.862 375.961 431.502 394.216 431.502C412.47 431.502 427.266 428.862 427.266 425.605V413.583C427.266 416.839 412.468 419.478 394.216 419.478C375.963 419.478 361.163 416.839 361.163 413.583V425.605Z" fill="#FEB85F"/>
<path d="M425.785 399.84C425.785 403.096 410.987 405.735 392.734 405.735C374.481 405.735 359.682 403.096 359.682 399.84C359.682 396.584 374.479 393.945 392.734 393.945C410.989 393.945 425.785 396.584 425.785 399.84Z" fill="#FED49F"/>
<path d="M423.839 399.84C423.839 402.492 409.913 404.638 392.734 404.638C375.555 404.638 361.627 402.49 361.627 399.84C361.627 397.19 375.553 395.042 392.734 395.042C409.915 395.042 423.839 397.19 423.839 399.84Z" fill="#FEB85F"/>
<path d="M415.429 399.531C415.429 401.177 405.268 402.513 392.734 402.513C380.2 402.513 370.039 401.177 370.039 399.531C370.039 397.885 380.2 396.548 392.734 396.548C405.268 396.548 415.429 397.883 415.429 399.531Z" fill="#FED49F"/>
<path d="M415.429 399.84C415.429 401.315 405.268 402.513 392.734 402.513C380.2 402.513 370.039 401.315 370.039 399.84C370.039 398.364 380.2 397.167 392.734 397.167C405.268 397.167 415.429 398.364 415.429 399.84Z" fill="#EF9337"/>
<path d="M359.682 411.863C359.682 415.119 374.479 417.759 392.734 417.759C410.989 417.759 425.785 415.119 425.785 411.863V399.84C425.785 403.096 410.987 405.735 392.734 405.735C374.481 405.735 359.682 403.096 359.682 399.84V411.863Z" fill="#FEB85F"/>
<path d="M365.108 277.474L363.635 272.996L322.92 286.582L324.367 291.069C326.451 297.826 337.263 300.262 348.513 296.508C359.763 292.753 367.192 284.233 365.108 277.474Z" fill="#EF9337"/>
<path d="M346.87 291.486C335.62 295.239 324.81 292.812 322.726 286.046C320.643 279.28 328.07 270.767 339.322 267.013C350.573 263.258 361.38 265.687 363.465 272.453C365.551 279.219 358.122 287.732 346.87 291.486Z" fill="#FEB85F"/>
<path d="M338.822 267.712C350.072 263.957 360.882 266.386 362.968 273.152C363.837 275.968 363.047 279.092 361.02 282.055C363.417 278.893 364.411 275.497 363.472 272.457C361.388 265.698 350.576 263.262 339.328 267.016C332.768 269.206 327.513 273.015 324.678 277.15C327.602 273.284 332.628 269.776 338.822 267.712Z" fill="#FED49F"/>
<path d="M326.889 284.794C325.336 279.759 331.179 273.294 339.915 270.379C348.652 267.463 357.022 269.187 358.575 274.22C360.129 279.253 354.285 285.72 345.549 288.635C336.813 291.55 328.433 289.827 326.889 284.794Z" fill="#CE4825"/>
<path d="M327.252 284.536C325.701 279.501 331.545 273.036 340.281 270.121C349.017 267.206 357.386 268.929 358.939 273.962C360.492 278.995 354.649 285.462 345.914 288.378C337.18 291.293 328.806 289.569 327.252 284.536Z" fill="#EF9337"/>
<path d="M339.419 285.349C338.5 285.306 337.617 284.981 336.89 284.417L334.842 285.606L333.598 283.462L335.57 282.326C335.289 281.43 335.357 280.461 335.759 279.613C336.246 278.687 336.997 277.926 337.917 277.427L339.494 280.145C338.595 280.73 338.314 281.313 338.65 281.894C339.002 282.5 339.562 282.579 340.33 282.132C340.586 281.984 340.801 281.775 340.955 281.522C341.109 281.27 341.197 280.982 341.211 280.687C341.237 280.368 341.237 280.048 341.211 279.729L341.142 278.668C341.122 278.295 341.131 277.921 341.169 277.55C341.212 277.164 341.31 276.786 341.459 276.427C341.817 275.595 342.498 274.888 343.501 274.305C345.558 273.112 347.366 273.199 348.924 274.565L350.896 273.428L352.14 275.573L350.168 276.709C350.612 278.452 349.837 279.888 347.844 281.019L347.749 281.073L346.319 278.611C347.112 278.093 347.352 277.563 347.037 277.02C346.704 276.447 346.172 276.371 345.442 276.794C344.927 277.092 344.64 277.615 344.582 278.363C344.565 278.674 344.571 278.986 344.601 279.297L344.681 280.113C344.765 280.97 344.61 281.834 344.232 282.608C343.807 283.461 343.131 284.165 342.296 284.625C341.43 285.146 340.428 285.398 339.419 285.349Z" fill="#98210D"/>
<path d="M339.116 284.824C338.198 284.782 337.315 284.456 336.589 283.892L334.541 285.082L333.295 282.937L335.267 281.801C334.986 280.906 335.054 279.938 335.456 279.09C335.942 278.164 336.693 277.402 337.612 276.902L339.192 279.623C338.293 280.207 338.011 280.789 338.347 281.369C338.698 281.975 339.258 282.055 340.027 281.61C340.283 281.461 340.497 281.251 340.651 280.999C340.804 280.746 340.892 280.459 340.906 280.164C340.933 279.845 340.933 279.525 340.906 279.206L340.836 278.143C340.817 277.771 340.826 277.398 340.862 277.027C340.907 276.641 341.005 276.262 341.152 275.902C341.511 275.073 342.191 274.366 343.194 273.783C345.251 272.588 347.059 272.674 348.617 274.04L350.589 272.904L351.836 275.048L349.864 276.185C350.307 277.93 349.532 279.367 347.54 280.496L347.443 280.551L346.013 278.088C346.808 277.57 347.048 277.04 346.733 276.497C346.399 275.921 345.867 275.845 345.136 276.27C344.622 276.569 344.334 277.092 344.278 277.84C344.259 278.151 344.266 278.464 344.297 278.774L344.376 279.59C344.46 280.447 344.305 281.311 343.927 282.085C343.501 282.938 342.826 283.642 341.991 284.102C341.125 284.622 340.125 284.873 339.116 284.824Z" fill="#FEB85F"/>
<path d="M328.389 285.228C326.836 280.195 332.682 273.728 341.416 270.814C347.307 268.848 353.032 268.994 356.612 270.841C353.202 268.359 346.841 267.931 340.28 270.121C331.543 273.036 325.694 279.501 327.251 284.534C327.757 286.175 328.99 287.459 330.717 288.351C329.587 287.527 328.782 286.482 328.389 285.228Z" fill="#FED49F"/>
<path d="M460.85 322.923L420.788 344.26L424.357 350.961L464.419 329.624L460.85 322.923Z" fill="#EF9337"/>
<path d="M371.85 217.13L343.612 234.562L346.528 239.285L374.765 221.852L371.85 217.13Z" fill="#EF9337"/>
<path d="M310.827 292.322L307.447 299.12L348.093 319.323L351.472 312.525L310.827 292.322Z" fill="#EF9337"/>
<g opacity="0.56">
<path d="M462.61 436.076V245.045C462.609 244.56 462.705 244.079 462.891 243.631C463.076 243.182 463.348 242.775 463.692 242.431C464.035 242.088 464.442 241.816 464.891 241.63C465.339 241.445 465.82 241.349 466.305 241.349H483.732C484.712 241.35 485.651 241.74 486.343 242.433C487.035 243.126 487.424 244.066 487.424 245.045V434.197C487.424 452.95 473.682 468.83 455.137 471.608C446.882 472.847 430.395 474.525 430.395 470.792C430.395 468.867 462.61 462.819 462.61 436.076Z" fill="white"/>
</g>
<g opacity="0.32">
<path d="M322.93 438.776C322.93 438.776 310.547 336.624 308.507 336.624L301.811 244.049C301.325 244.049 300.845 244.144 300.396 244.33C299.948 244.515 299.54 244.787 299.197 245.131C298.854 245.474 298.582 245.881 298.396 246.33C298.21 246.778 298.115 247.259 298.115 247.744V436.899C298.115 455.651 311.858 471.529 330.402 474.31C338.657 475.547 355.145 477.225 355.145 473.491C355.145 471.567 322.93 465.52 322.93 438.776Z" fill="#22A497"/>
</g>
<path d="M419.735 291.795L416.791 288.292L378.285 320.646L381.202 324.169C389.025 333.481 403.994 333.78 414.634 324.842C425.273 315.903 427.558 301.114 419.735 291.795Z" fill="#EF9337"/>
<path d="M411.06 320.587C400.418 329.528 385.452 329.229 377.628 319.917C369.805 310.605 372.088 295.811 382.73 286.87C393.371 277.929 408.338 278.23 416.161 287.54C423.984 296.851 421.7 311.648 411.06 320.587Z" fill="#FEB85F"/>
<path d="M382.668 288.044C393.31 279.104 408.278 279.405 416.101 288.715C419.363 292.598 420.861 297.428 420.736 302.403C421.149 297.025 419.681 291.723 416.162 287.533C408.339 278.223 393.37 277.922 382.73 286.862C376.525 292.075 373.168 299.277 372.992 306.221C373.498 299.656 376.817 292.969 382.668 288.044Z" fill="#FED49F"/>
<path d="M381.661 316.812C375.833 309.877 377.816 298.588 386.077 291.643C394.338 284.699 405.802 284.697 411.628 291.632C417.455 298.567 415.475 309.856 407.213 316.799C398.95 323.741 387.488 323.747 381.661 316.812Z" fill="#CE4825"/>
<path d="M381.91 316.319C376.083 309.385 378.064 298.093 386.327 291.151C394.589 284.208 406.051 284.203 411.878 291.137C417.705 298.072 415.723 309.364 407.463 316.306C399.202 323.248 387.736 323.254 381.91 316.319Z" fill="#EF9337"/>
<path d="M383.828 316.992C378.001 310.057 379.982 298.767 388.245 291.825C393.818 287.143 400.843 285.622 406.619 287.251C400.546 284.637 392.535 285.938 386.33 291.151C378.067 298.093 376.086 309.385 381.912 316.319C383.79 318.53 386.293 320.121 389.092 320.881C387.056 320.015 385.253 318.683 383.828 316.992Z" fill="#FED49F"/>
<path d="M392.847 313.397C391.404 313.164 390.061 312.513 388.983 311.525L386.119 313.188L383.984 309.512L386.742 307.911C386.204 306.252 386.177 304.783 386.659 303.505C387.189 302.13 388.152 301.037 389.546 300.226L392.255 304.888C391.004 305.721 390.668 306.635 391.245 307.629C391.849 308.668 392.688 308.876 393.762 308.252C394.49 307.829 394.857 307.081 394.865 306.009C394.862 305.484 394.82 304.961 394.738 304.443L394.492 302.698C394.412 302.094 394.374 301.485 394.378 300.876C394.387 300.267 394.478 299.662 394.651 299.078C395.066 297.769 395.975 296.707 397.378 295.892C400.255 294.221 402.939 294.61 405.431 297.059L408.189 295.456L410.324 299.133L407.566 300.736C408.462 303.646 407.515 305.889 404.724 307.464L404.59 307.54L402.139 303.317C403.242 302.58 403.524 301.746 402.984 300.815C402.409 299.828 401.612 299.631 400.593 300.226C399.873 300.643 399.522 301.459 399.538 302.673C399.555 303.186 399.607 303.697 399.695 304.202L399.924 305.547C400.159 307.037 400.052 308.376 399.602 309.565C399.132 310.853 398.215 311.928 397.017 312.595C395.764 313.344 394.288 313.628 392.847 313.397Z" fill="#98210D"/>
<path d="M392.33 312.505C390.887 312.272 389.544 311.622 388.466 310.635L385.609 312.29L383.475 308.614L386.233 307.013C385.695 305.353 385.667 303.884 386.149 302.607C386.68 301.231 387.642 300.138 389.036 299.328L391.743 303.99C390.494 304.823 390.158 305.737 390.735 306.731C391.338 307.769 392.177 307.977 393.253 307.354C393.98 306.93 394.347 306.183 394.353 305.109C394.351 304.585 394.309 304.062 394.228 303.545L393.982 301.8C393.902 301.196 393.863 300.587 393.866 299.978C393.876 299.369 393.969 298.764 394.141 298.18C394.555 296.87 395.464 295.807 396.869 294.992C399.747 293.322 402.431 293.711 404.921 296.159L407.677 294.559L409.814 298.235L407.056 299.836C407.95 302.748 407.003 304.991 404.215 306.564L404.08 306.642L401.629 302.42C402.733 301.682 403.014 300.847 402.472 299.915C401.9 298.93 401.103 298.734 400.081 299.326C399.364 299.746 399.012 300.561 399.026 301.774C399.044 302.287 399.097 302.798 399.185 303.304L399.415 304.649C399.649 306.138 399.542 307.477 399.093 308.665C398.621 309.952 397.704 311.028 396.507 311.696C395.253 312.449 393.774 312.735 392.33 312.505Z" fill="#FEB85F"/>
<path d="M444.929 265.056L446.46 260.597L405.81 246.826L404.251 251.275C401.83 257.92 408.971 266.391 420.206 270.197C431.44 274.002 442.508 271.701 444.929 265.056Z" fill="#EF9337"/>
<path d="M421.931 265.202C410.699 261.398 403.557 252.925 405.978 246.28C408.399 239.635 419.467 237.334 430.702 241.139C441.936 244.945 449.076 253.416 446.655 260.061C444.234 266.706 433.164 269.007 421.931 265.202Z" fill="#FEB85F"/>
<path d="M429.875 241.391C441.108 245.197 448.249 253.668 445.83 260.313C444.821 263.084 442.305 265.096 438.903 266.228C442.72 265.158 445.565 263.052 446.654 260.061C449.075 253.416 441.932 244.945 430.701 241.139C424.151 238.921 417.661 238.783 412.896 240.365C417.572 239.058 423.698 239.298 429.875 241.391Z" fill="#FED49F"/>
<path d="M410.045 247.792C411.846 242.842 420.41 241.221 429.131 244.176C437.852 247.131 443.486 253.56 441.68 258.509C439.875 263.459 431.313 265.081 422.592 262.126C413.871 259.171 408.24 252.741 410.045 247.792Z" fill="#CE4825"/>
<path d="M410.497 247.813C412.301 242.863 420.864 241.242 429.587 244.195C438.31 247.148 443.938 253.581 442.135 258.53C440.332 263.48 431.768 265.101 423.047 262.146C414.326 259.191 408.694 252.762 410.497 247.813Z" fill="#EF9337"/>
<path d="M410.992 249.051C412.797 244.102 421.361 242.48 430.082 245.435C435.965 247.428 440.436 251.001 442.173 254.636C440.951 250.595 436.145 246.415 429.595 244.195C420.872 241.242 412.308 242.869 410.505 247.813C409.918 249.423 410.126 251.192 410.962 252.946C410.544 251.68 410.554 250.311 410.992 249.051Z" fill="#FED49F"/>
<path d="M420.464 254.194C419.914 253.521 419.59 252.691 419.538 251.823L417.329 250.97L418.138 248.875L420.265 249.697C420.784 248.986 421.559 248.503 422.427 248.352C423.452 248.2 424.501 248.331 425.457 248.731L424.432 251.383C423.413 251.042 422.795 251.155 422.576 251.722C422.349 252.313 422.649 252.769 423.478 253.09C423.745 253.198 424.034 253.24 424.321 253.215C424.607 253.189 424.884 253.096 425.128 252.942C425.384 252.79 425.625 252.615 425.849 252.419L426.607 251.785C426.877 251.565 427.163 251.367 427.463 251.192C427.787 251.01 428.133 250.874 428.494 250.787C429.347 250.593 430.315 250.706 431.398 251.126C433.618 251.982 434.715 253.359 434.69 255.257L436.817 256.079L436.008 258.163L433.881 257.342C432.858 258.627 431.28 258.846 429.145 258L429.043 257.96L429.973 255.554C430.871 255.856 431.423 255.741 431.629 255.21C431.847 254.649 431.562 254.216 430.772 253.91C430.218 253.695 429.642 253.772 429.043 254.141C428.799 254.297 428.569 254.473 428.355 254.668L427.787 255.175C427.179 255.718 426.43 256.078 425.626 256.215C424.695 256.369 423.74 256.259 422.868 255.899C421.927 255.56 421.096 254.97 420.464 254.194Z" fill="#98210D"/>
<path d="M420.668 253.687C420.118 253.013 419.794 252.183 419.742 251.315L417.533 250.463L418.342 248.368L420.469 249.19C420.987 248.477 421.763 247.995 422.631 247.845C423.656 247.694 424.704 247.825 425.661 248.224L424.635 250.876C423.618 250.535 423 250.648 422.78 251.215C422.55 251.806 422.85 252.262 423.68 252.582C423.947 252.69 424.236 252.733 424.524 252.707C424.811 252.682 425.088 252.588 425.332 252.435C425.587 252.282 425.829 252.107 426.053 251.912L426.811 251.279C427.08 251.058 427.366 250.859 427.667 250.684C427.99 250.502 428.337 250.365 428.698 250.279C429.55 250.086 430.518 250.198 431.602 250.616C433.822 251.475 434.919 252.853 434.894 254.749L437.021 255.572L436.212 257.665L434.085 256.844C433.06 258.129 431.481 258.348 429.349 257.502L429.245 257.462L430.175 255.056C431.076 255.357 431.628 255.242 431.833 254.712C432.049 254.151 431.763 253.718 430.977 253.412C430.422 253.197 429.845 253.274 429.245 253.643C429.002 253.8 428.772 253.976 428.558 254.17L427.989 254.677C427.38 255.219 426.632 255.58 425.828 255.717C424.897 255.871 423.941 255.761 423.068 255.401C422.127 255.059 421.297 254.466 420.668 253.687Z" fill="#FEB85F"/>
<path d="M329.477 183.335V200.887C329.477 206.973 358.458 211.906 394.193 211.906C429.928 211.906 458.917 206.971 458.917 200.887V183.335H329.477Z" fill="#22A497"/>
<path d="M458.915 183.007C458.915 189.092 429.933 194.024 394.197 194.024C358.46 194.024 329.48 189.099 329.48 183.007C329.48 176.915 358.462 171.989 394.197 171.989C429.932 171.989 458.915 176.921 458.915 183.007Z" fill="#62C2C4"/>
<path d="M445.64 181.399C445.64 184.649 422.606 187.284 394.192 187.284C365.779 187.284 342.743 184.653 342.743 181.399C342.743 178.145 365.777 175.527 394.192 175.527C422.608 175.527 445.64 178.154 445.64 181.399Z" fill="#62C2C4"/>
<path d="M344.961 183.115C351.369 180.7 370.982 178.948 394.192 178.948C417.402 178.948 437.015 180.708 443.423 183.115C444.861 182.573 445.64 181.999 445.64 181.41C445.64 178.162 422.606 175.527 394.192 175.527C365.779 175.527 342.743 178.154 342.743 181.399C342.743 181.999 343.524 182.573 344.961 183.115Z" fill="#22A497"/>
<path d="M426.116 184.449H362.269L365.707 181.496H422.677L426.116 184.449Z" fill="#032635"/>
<path d="M422.676 181.496H365.707V184.449H422.676V181.496Z" fill="#19586B"/>
<path d="M280.102 134.693C274.127 145.653 260.038 149.495 248.633 143.28C237.228 137.065 232.827 123.136 238.802 112.176C244.776 101.216 258.865 97.3729 270.271 103.59C281.676 109.807 286.07 123.733 280.102 134.693Z" fill="#EF9337"/>
<path d="M277.85 133.475C275.71 137.4 272.454 140.602 268.495 142.676C264.535 144.751 260.049 145.604 255.604 145.129C251.159 144.654 246.955 142.871 243.523 140.007C240.091 137.142 237.586 133.325 236.324 129.036C235.062 124.748 235.1 120.181 236.433 115.915C237.766 111.648 240.334 107.872 243.813 105.065C247.292 102.258 251.526 100.546 255.978 100.144C260.43 99.7433 264.901 100.671 268.826 102.811C271.432 104.232 273.733 106.152 275.596 108.462C277.46 110.772 278.851 113.427 279.689 116.274C280.527 119.122 280.796 122.106 280.48 125.058C280.165 128.009 279.271 130.869 277.85 133.475Z" fill="#FEB85F"/>
<path d="M275.555 132.217C273.662 135.688 270.783 138.52 267.281 140.354C263.78 142.189 259.813 142.944 255.882 142.524C251.951 142.104 248.233 140.528 245.198 137.995C242.163 135.462 239.947 132.086 238.831 128.293C237.715 124.501 237.748 120.463 238.927 116.69C240.105 112.916 242.377 109.577 245.453 107.094C248.529 104.612 252.273 103.097 256.21 102.742C260.147 102.387 264.101 103.207 267.572 105.099C272.227 107.637 275.682 111.92 277.179 117.005C278.676 122.091 278.092 127.563 275.555 132.217Z" fill="#EF9337"/>
<path d="M263.549 130.929C262.623 132.061 261.386 132.896 259.99 133.333V136.644H255.74V133.456C254.035 133.087 252.751 132.373 251.889 131.314C250.964 130.163 250.502 128.782 250.502 127.171H255.893C255.985 128.67 256.606 129.42 257.757 129.42C258.958 129.42 259.559 128.798 259.56 127.556C259.56 126.715 259.098 126.02 258.174 125.472C257.718 125.211 257.244 124.985 256.755 124.796L255.124 124.133C254.562 123.898 254.016 123.625 253.491 123.316C252.969 123.004 252.491 122.621 252.072 122.18C251.148 121.163 250.686 119.844 250.688 118.221C250.688 114.895 252.372 112.769 255.74 111.845V108.661H259.99V111.851C262.959 112.539 264.423 114.485 264.381 117.689V117.842H259.498C259.417 116.52 258.834 115.859 257.749 115.859C256.613 115.859 256.044 116.449 256.044 117.63C256.044 118.462 256.574 119.176 257.632 119.77C258.084 120.014 258.552 120.225 259.034 120.403L260.312 120.88C261.719 121.425 262.823 122.19 263.623 123.176C264.502 124.229 264.973 125.563 264.949 126.934C264.965 128.389 264.47 129.803 263.549 130.929Z" fill="#98210D"/>
<path d="M262.518 130.929C261.592 132.061 260.355 132.896 258.959 133.333V136.644H254.718V133.456C253.013 133.087 251.73 132.373 250.867 131.314C249.943 130.163 249.48 128.782 249.48 127.171H254.871C254.964 128.67 255.585 129.42 256.735 129.42C257.936 129.42 258.537 128.798 258.539 127.556C258.539 126.715 258.076 126.02 257.152 125.472C256.697 125.211 256.222 124.985 255.733 124.796L254.101 124.133C253.539 123.897 252.993 123.625 252.468 123.316C251.946 123.003 251.47 122.621 251.051 122.18C250.126 121.163 249.664 119.844 249.664 118.221C249.664 114.895 251.349 112.769 254.718 111.845V108.661H258.969V111.851C261.936 112.539 263.4 114.485 263.36 117.689V117.842H258.476C258.395 116.517 257.815 115.855 256.735 115.855C255.599 115.855 255.031 116.445 255.031 117.626C255.031 118.458 255.56 119.172 256.618 119.767C257.07 120.01 257.538 120.221 258.02 120.399L259.298 120.877C260.705 121.421 261.809 122.186 262.611 123.172C263.49 124.225 263.961 125.559 263.937 126.931C263.949 128.389 263.447 129.804 262.518 130.929Z" fill="#FEB85F"/>
<path d="M249.176 140.576C248.931 140.453 248.689 140.332 248.443 140.198C243.789 137.661 240.333 133.379 238.836 128.294C237.339 123.209 237.923 117.738 240.46 113.084C242.997 108.43 247.279 104.974 252.364 103.477C257.449 101.98 262.92 102.564 267.574 105.101C267.823 105.234 268.056 105.372 268.29 105.512C263.663 103.223 258.33 102.814 253.407 104.37C248.485 105.926 244.355 109.326 241.884 113.859C239.413 118.392 238.792 123.705 240.151 128.685C241.51 133.666 244.743 137.927 249.174 140.576H249.176Z" fill="#FED49F"/>
<path d="M282.997 338.294H181.345V381.312H282.997V338.294Z" fill="#FFD2A1"/>
<path d="M258.583 357.468H156.931V403.568H258.583V357.468Z" fill="#FFD2A1"/>
<path d="M237.798 380.858H136.146V430.651H237.798V380.858Z" fill="#FFD2A1"/>
<path d="M214.862 405.543H113.21V455.337H214.862V405.543Z" fill="#FFD2A1"/>
<path d="M193.718 431.14H92.0664V480.934H193.718V431.14Z" fill="#FFD2A1"/>
<path d="M282.997 357.468H258.582V380.858H237.798L237.63 405.543H214.861V431.14H193.718V480.934H298.45V462.764V431.14V338.294H282.997V357.468Z" fill="#EF9337"/>
<path d="M214.862 430.089H92.0664V432.191H214.862V430.089Z" fill="#EF9337"/>
<path d="M237.633 404.447H113.21V406.549H237.633V404.447Z" fill="#EF9337"/>
<path d="M258.572 379.806H136.146V381.909H258.572V379.806Z" fill="#EF9337"/>
<path d="M283.013 356.417H156.933V358.519H283.013V356.417Z" fill="#EF9337"/>
<path d="M298.446 337.662H181.345V339.764H298.446V337.662Z" fill="#EF9337"/>
<path fill-rule="evenodd" clip-rule="evenodd" d="M239.215 119.111C239.215 119.111 239.363 120.816 239.215 121.829C239.067 122.843 237.959 125.597 237.959 125.597L237.237 126.207C237.237 126.207 236.518 121.498 237.51 117.221C237.868 115.662 238.298 114.23 238.69 113.017L238.732 112.902C238.758 112.826 238.787 112.748 238.808 112.669C238.866 112.508 238.901 112.387 238.918 112.343V112.318C239.509 110.591 239.961 109.432 239.865 109.235C239.698 108.892 238.965 108.928 238.965 108.928C238.965 108.325 238.325 107.619 237.902 107.776C237.48 107.933 236.372 109.219 236.372 109.219C236.271 108.674 235.209 108.325 235.209 108.325C235.209 108.325 231.759 112.406 230.877 114.715C230.822 114.868 230.767 115.021 230.719 115.181C230.022 117.367 230.026 120.106 230.022 120.27C229.973 120.138 229.481 118.825 229.431 118.272C229.451 117.714 229.507 117.159 229.6 116.609C229.789 115.234 230.051 113.51 229.979 113.264C229.873 112.885 229.289 112.608 229.289 112.608C229.289 112.608 227.594 115.912 227.374 117.507C227.154 119.102 229.632 127.707 229.445 128.919C229.34 129.577 229.115 130.711 228.92 131.611C228.895 131.746 228.872 131.863 228.842 131.975C228.812 132.087 228.782 132.229 228.759 132.354C228.679 132.733 228.628 132.975 228.628 132.975L233.881 137.972C233.881 137.972 233.943 137.57 234.053 136.983C234.188 136.279 234.37 135.307 234.561 134.477C234.739 133.697 234.908 133.043 235.038 132.841C235.065 132.798 235.1 132.761 235.141 132.733C235.188 132.681 235.24 132.635 235.298 132.596H235.309C235.372 132.541 235.445 132.492 235.531 132.429C235.564 132.411 235.596 132.389 235.625 132.365C235.735 132.291 235.857 132.215 235.991 132.128C236.879 131.56 238.181 130.848 239.045 130.264C239.151 130.198 239.249 130.126 239.34 130.075C239.495 129.967 239.643 129.85 239.783 129.724C239.862 129.663 239.927 129.586 239.973 129.497C240.234 128.832 240.53 126.349 240.92 122.964C241.31 119.579 243.21 116.946 243.21 116.946L242.477 116.037C240.499 116.382 239.215 119.111 239.215 119.111Z" fill="#EF7D60"/>
<path d="M236.041 108.757C236.041 108.757 233.853 111.934 232.847 114.072C231.841 116.211 231.536 119.299 231.536 119.299C231.536 119.299 232.576 113.3 236.378 109.217C236.306 109.038 236.19 108.879 236.041 108.757Z" fill="#C64020"/>
<path d="M235.207 113.987C233.692 116.882 233.709 118.836 233.709 118.836C233.709 118.836 234.955 115.029 236.171 113.015C237.388 111.002 238.979 108.93 238.979 108.93C237.485 110.425 236.215 112.129 235.207 113.987Z" fill="#C64020"/>
<path fill-rule="evenodd" clip-rule="evenodd" d="M227.507 132.765L225.723 136.299C227.7 136.985 235.253 138.675 235.253 138.675L235.785 136.023C233.983 132.083 227.507 132.765 227.507 132.765Z" fill="#5CCBB8"/>
<path d="M286.144 122.03C286.246 127.607 283.009 132.765 283.009 132.765C283.009 132.765 284.844 130.262 285.526 127.999C286.208 125.735 286.701 121.911 286.701 121.911C286.508 121.903 286.316 121.944 286.144 122.03Z" fill="#C64020"/>
<path d="M283.762 124.995C283.317 127.302 281.701 130.969 281.701 130.969C281.701 130.969 283.027 129.524 283.827 126.358C284.317 124.304 284.508 122.189 284.395 120.079C284.395 120.079 284.209 122.687 283.762 124.995Z" fill="#C64020"/>
<g style="mix-blend-mode:multiply" opacity="0.91">
<path d="M219.093 262.614C206.237 262.758 207.824 260.248 207.824 260.248L212.371 254.73C211.18 254.919 210.003 255.19 208.849 255.539L176.253 267.587L174.045 280.435L175.149 283.011C175.149 283.011 168.97 322.222 166.543 327.077C164.117 331.932 160.482 335.411 159.868 336.626C167.144 332.837 172.469 337.995 172.469 337.995C172.596 346.864 168.61 371.165 167.104 379.985C167.737 379.145 168.449 378.297 168.97 377.984C170.131 377.272 172.001 376.92 172.001 376.92C170.785 367.924 176.547 337.082 178.221 334.906C179.15 333.695 180.815 332.335 182.103 331.36C185.825 320.481 194.83 293.505 196.423 282.651C196.423 282.651 208.093 277.329 212.192 276.264C212.192 276.264 231.074 272.182 235.164 271.758C235.164 271.758 228.568 281.932 227.863 284.957C232.01 279.403 241.159 278.232 241.775 280.363C242.375 282.447 233.916 318.752 233.66 319.848C233.849 319.504 235.893 315.655 236.691 314.861C237.524 314.029 241.917 311.072 241.917 311.072C236.613 301.12 249.873 261.019 249.873 261.019C249.873 261.019 231.955 262.472 219.093 262.614Z" fill="white"/>
<path d="M249.834 260.578C249.656 260.591 231.788 262.027 219.087 262.169C210.042 262.27 208.51 261.033 208.256 260.654C208.215 260.605 208.196 260.541 208.201 260.478L212.715 255.007C212.772 254.938 212.806 254.854 212.813 254.766C212.821 254.677 212.801 254.588 212.757 254.511C212.713 254.434 212.646 254.372 212.566 254.334C212.486 254.296 212.396 254.283 212.308 254.297C211.097 254.488 209.901 254.763 208.728 255.119H208.703L176.107 267.174C176.035 267.2 175.971 267.246 175.922 267.305C175.873 267.364 175.84 267.435 175.827 267.511L173.618 280.358C173.603 280.441 173.613 280.528 173.647 280.606L174.702 283.068C174.323 285.51 168.451 322.279 166.159 326.88C164.554 330.075 162.408 332.691 160.987 334.421C160.243 335.328 159.707 335.984 159.472 336.429C159.431 336.512 159.417 336.605 159.433 336.696C159.448 336.787 159.492 336.871 159.558 336.936C159.624 337.001 159.708 337.043 159.8 337.057C159.891 337.071 159.985 337.056 160.067 337.014C166.435 333.699 171.175 337.438 172.027 338.19C172.097 347.351 167.949 372.408 166.668 379.913C166.652 380.009 166.668 380.109 166.715 380.195C166.762 380.281 166.836 380.349 166.926 380.388C167.016 380.426 167.116 380.434 167.211 380.409C167.306 380.384 167.39 380.328 167.449 380.25C168.407 378.977 168.924 378.518 169.193 378.356C170.271 377.694 172.063 377.352 172.08 377.348C172.19 377.327 172.289 377.265 172.354 377.174C172.42 377.083 172.448 376.97 172.432 376.859C171.218 367.867 176.96 337.27 178.566 335.169C179.278 334.243 180.557 333.085 182.366 331.706C182.435 331.653 182.488 331.581 182.515 331.498C186.268 320.53 195.131 293.968 196.819 282.951C198.431 282.22 208.588 277.647 212.281 276.7C212.459 276.662 228.913 273.101 234.285 272.32C232.709 274.796 228.034 282.269 227.435 284.866C227.412 284.964 227.423 285.067 227.467 285.158C227.511 285.249 227.586 285.322 227.677 285.364C227.769 285.406 227.872 285.416 227.97 285.391C228.068 285.365 228.154 285.307 228.214 285.226C231.229 281.185 237.361 279.371 240.255 279.897C240.877 280.009 241.276 280.227 241.352 280.49C241.782 282.117 236.065 307.648 233.231 319.756C233.211 319.856 233.226 319.961 233.276 320.051C233.326 320.141 233.406 320.21 233.502 320.246C233.604 320.283 233.715 320.281 233.815 320.242C233.915 320.203 233.998 320.129 234.048 320.034C235.114 318.038 236.446 315.71 236.988 315.168C237.624 314.533 240.642 312.45 242.15 311.436C242.239 311.376 242.303 311.284 242.33 311.179C242.356 311.074 242.342 310.963 242.292 310.868C237.137 301.196 250.147 261.557 250.278 261.16C250.3 261.091 250.305 261.019 250.292 260.948C250.279 260.877 250.249 260.811 250.204 260.755C250.16 260.698 250.102 260.654 250.036 260.626C249.97 260.597 249.898 260.585 249.827 260.591L249.834 260.578ZM243.477 282.208C240.028 296.862 239.31 306.517 241.35 310.917C240.314 311.62 237.105 313.815 236.376 314.543C235.997 314.922 235.393 315.869 234.792 316.903C236.876 307.892 242.748 282.125 242.199 280.231C242.074 279.803 241.665 279.246 240.414 279.018C237.692 278.522 232.593 279.818 229.129 282.93C231.065 278.893 235.478 272.07 235.533 271.987C235.578 271.918 235.603 271.837 235.604 271.754C235.605 271.671 235.583 271.59 235.54 271.519C235.497 271.449 235.434 271.392 235.36 271.355C235.286 271.319 235.202 271.304 235.12 271.313C231.053 271.735 212.872 275.669 212.082 275.83C207.995 276.893 196.72 282.026 196.243 282.244C196.176 282.275 196.118 282.321 196.074 282.38C196.03 282.438 196.002 282.507 195.991 282.579C194.413 293.333 185.531 319.979 181.733 331.072C179.918 332.456 178.619 333.65 177.875 334.62C176.874 335.923 174.923 345.199 173.597 353.265C172.754 358.392 170.896 370.741 171.514 376.564C170.879 376.713 169.619 377.052 168.737 377.598C168.391 377.828 168.078 378.104 167.807 378.418C169.333 369.345 173.021 346.483 172.9 337.976C172.9 337.919 172.887 337.862 172.864 337.809C172.841 337.756 172.808 337.709 172.766 337.669C172.726 337.63 169.735 334.798 165.204 334.798C163.828 334.806 162.464 335.063 161.179 335.555L161.654 334.976C163.1 333.214 165.282 330.555 166.93 327.27C169.358 322.408 175.323 284.682 175.577 283.078C175.589 282.996 175.578 282.913 175.547 282.837L174.491 280.375L176.636 267.905L208.989 255.95C209.715 255.729 210.478 255.536 211.262 255.382L207.474 259.976C207.46 259.991 207.451 260.006 207.44 260.021C207.35 260.18 207.305 260.36 207.308 260.542C207.312 260.724 207.363 260.902 207.459 261.057C208.243 262.463 212.154 263.141 219.083 263.059C230.434 262.931 245.891 261.775 249.238 261.516C248.49 263.88 245.728 272.648 243.477 282.216V282.208Z" fill="black"/>
</g>
<path fill-rule="evenodd" clip-rule="evenodd" d="M232.9 322.04C232.877 321.159 232.924 320.062 232.989 319.221C233.036 318.464 233.085 317.918 233.085 317.918L224.88 319.943L224.472 321.288L223.616 324.129C223.616 324.129 222.858 324.482 222.76 324.887C222.661 325.292 223.264 326.353 223.264 326.353C223.264 326.353 225.991 326.304 226.952 326.656C227.681 326.921 229.162 329.53 229.85 330.788C230.068 331.195 230.202 331.458 230.202 331.458C230.548 331.429 230.885 331.332 231.193 331.171C231.501 331.011 231.773 330.79 231.994 330.522C233.525 328.763 233.356 325.145 233.356 325.145L233.405 324.976L233.828 323.478H233.085C232.964 323.239 232.909 322.695 232.9 322.04Z" fill="#62C2C4"/>
<path d="M224.928 324.696L226.146 324.217C231.677 324.16 232.893 322.063 232.893 322.063V322.04C232.87 321.159 232.918 320.062 232.982 319.221L229.26 319.358L224.465 321.288L223.609 324.129C223.609 324.129 222.852 324.482 222.753 324.887C222.655 325.292 223.257 326.353 223.257 326.353C223.257 326.353 225.985 326.304 226.945 326.656C227.674 326.921 229.156 329.53 229.843 330.788L231.987 330.522C233.518 328.763 233.349 325.145 233.349 325.145L233.399 324.976C231.821 326.075 224.928 324.696 224.928 324.696Z" fill="#85D4DD"/>
<path fill-rule="evenodd" clip-rule="evenodd" d="M169.306 380.456C169.194 380.151 168.169 380.111 168.169 380.111L168.322 376.173L159.221 383.866L159.452 388.98C159.452 388.98 168.258 391.886 169.323 390.558C170.387 389.23 168.434 382.65 168.434 382.65C168.434 382.65 169.427 380.759 169.306 380.456Z" fill="white"/>
<path d="M169.716 380.305C169.582 379.937 169.108 379.776 168.623 379.712L168.76 376.19C168.763 376.105 168.742 376.021 168.698 375.948C168.654 375.875 168.59 375.816 168.514 375.779C168.437 375.742 168.351 375.728 168.267 375.738C168.182 375.749 168.103 375.785 168.038 375.84L158.946 383.532C158.895 383.576 158.854 383.63 158.827 383.691C158.8 383.753 158.787 383.82 158.79 383.887L159.022 389.001C159.026 389.09 159.057 389.175 159.111 389.246C159.165 389.316 159.238 389.369 159.323 389.397C159.344 389.397 161.567 390.136 163.894 390.693C165.886 391.172 167.18 391.344 168.036 391.344C169.061 391.344 169.459 391.096 169.671 390.831C170.762 389.458 169.328 384.142 168.913 382.686C169.9 380.769 169.775 380.451 169.716 380.305ZM168.98 390.291C168.565 390.808 164.827 390.274 159.876 388.666L159.668 384.061L167.845 377.149L167.731 380.094C167.729 380.152 167.738 380.209 167.758 380.263C167.778 380.317 167.808 380.367 167.847 380.409C167.886 380.451 167.933 380.485 167.986 380.509C168.038 380.533 168.094 380.547 168.152 380.549C168.388 380.558 168.623 380.593 168.851 380.655C168.626 381.274 168.357 381.875 168.046 382.455C167.993 382.555 167.981 382.672 168.013 382.78C168.936 385.908 169.55 389.575 168.98 390.291Z" fill="black"/>
<path d="M169.306 380.456C168.521 383.37 162.43 386.258 162.047 386.434C166.169 384.05 168.169 380.111 168.169 380.111L168.322 376.173L159.221 383.866L159.452 388.98C159.452 388.98 168.258 391.886 169.323 390.558C170.387 389.23 168.434 382.65 168.434 382.65C168.434 382.65 169.427 380.759 169.306 380.456Z" fill="#62C2C4"/>
<path fill-rule="evenodd" clip-rule="evenodd" d="M222.926 138.36L222.907 138.406C218.505 150.771 212.761 161.269 206.556 168.024C205.955 168.676 205.359 169.286 204.754 169.867C194.702 179.492 182.118 184.727 182.118 184.727C175.246 192.047 174.99 199.446 174.99 199.446C176.625 200.415 176.862 201.989 178.525 202.34C190.979 204.943 203.415 191.956 203.415 191.956C208.571 183.089 219.041 175.889 222.49 173.667C222.626 173.585 222.755 173.508 222.859 173.44C223.286 173.165 223.551 173.006 223.617 172.972C223.623 172.97 223.627 172.966 223.63 172.96C232.022 163.516 236.956 139.953 236.956 139.953C232.374 136.309 223.634 136.307 223.634 136.307C223.405 136.991 223.164 137.678 222.926 138.36Z" fill="#033347"/>
<path fill-rule="evenodd" clip-rule="evenodd" d="M235.04 341.225C234.695 340.353 234.174 339.458 233.525 339.458C232.708 339.458 231.82 340.713 231.274 341.602C230.988 342.098 230.795 342.49 230.795 342.49L232.564 342.619L235.549 342.843C235.416 342.296 235.248 341.759 235.046 341.234L235.04 341.225Z" fill="#000100"/>
<path fill-rule="evenodd" clip-rule="evenodd" d="M231.453 336.574L220.781 340.77L221.446 343.371C221.446 343.371 228.347 344.812 232.054 343.371C232.054 343.371 232.272 343.026 232.56 342.613C232.959 342.045 233.507 341.365 233.823 341.325C234.369 341.244 235.545 342.841 235.545 342.841C235.545 342.841 247.183 343.272 250.776 335.453C250.861 335.279 250.937 335.1 251.002 334.917L236.53 336.156L231.453 336.574Z" fill="#5C1213"/>
<path fill-rule="evenodd" clip-rule="evenodd" d="M172.698 400.243C171.008 399.611 170.425 401.569 170.236 402.643C170.194 402.863 170.165 403.085 170.148 403.308L171.724 403.397L175.439 403.613C175.35 403.202 175.21 402.804 175.024 402.427C174.557 401.428 173.725 400.646 172.698 400.243Z" fill="#000100"/>
<path fill-rule="evenodd" clip-rule="evenodd" d="M160.575 399.315L158.389 403.052V403.403L158.768 405.691C158.768 405.691 166.043 407.612 170.093 405.282L171.734 403.403L172.48 402.554C172.48 402.554 173.679 402.401 175.448 403.619C175.448 403.619 185.813 402.554 187.024 394.061L175.228 396.394L160.575 399.315Z" fill="#5C1213"/>
<path fill-rule="evenodd" clip-rule="evenodd" d="M249.454 259.885C249.443 259.875 249.429 259.87 249.414 259.869C244.147 257.5 225.769 252.874 213.113 254.619C213.095 254.62 213.077 254.62 213.058 254.619C212.825 254.651 212.602 254.683 212.376 254.723C211.186 254.912 210.009 255.182 208.855 255.532L176.254 267.587L174.045 280.435L175.149 283.011C175.149 283.011 168.97 322.222 166.544 327.077C166.354 327.444 166.165 327.812 165.96 328.166C163.575 332.447 160.429 335.512 159.868 336.626C159.26 337.842 155.923 363.016 158.501 382.578L158.732 384.156C158.732 384.156 163.102 384.404 165.631 382.123C165.631 382.123 166.305 381.059 167.104 379.985C167.737 379.145 168.449 378.297 168.97 377.984C170.131 377.272 172.001 376.92 172.001 376.92C172.01 376.855 172.026 376.791 172.033 376.73C172.425 374.137 176.733 346.288 180.493 336.019C180.493 336.019 181.093 334.315 182.063 331.488C182.073 331.445 182.086 331.403 182.103 331.362C182.535 330.104 183.031 328.632 183.584 326.99C187.81 314.463 195.014 292.259 196.423 282.665C196.423 282.665 208.094 277.342 212.193 276.277C212.193 276.277 231.074 272.195 235.164 271.771C235.164 271.771 228.568 281.945 227.864 284.97C227.159 287.995 226.248 315.412 223.719 321.07L223.462 322.07C223.462 322.07 230.01 323.824 233.651 319.886V319.869C233.84 319.524 235.884 315.675 236.681 314.882C237.515 314.05 241.908 311.093 241.908 311.093V311.036C242.042 309.883 244.34 291.264 246.798 280.835C248.67 272.879 250.397 266.747 250.881 263.355C251.04 262.154 251.047 261.288 250.848 260.817C250.767 260.578 250.278 260.262 249.454 259.885Z" fill="#000100"/>
<path fill-rule="evenodd" clip-rule="evenodd" d="M183.427 392.038C183.427 392.038 180.289 393.102 177.663 392.246C177.104 392.025 176.585 391.714 176.127 391.325C173.085 388.963 168.452 383.256 168.452 383.256C168.452 383.256 169.524 388.196 168.675 389.62C168.419 390.045 166.834 387.234 166.451 387.546C164.784 388.916 159.462 389.003 159.462 389.003C159.462 389.003 158.062 399.921 157.946 400.986C157.831 402.05 158.401 403.412 158.401 403.412C158.401 403.412 163.748 404.772 168.872 403.412C168.872 403.412 169.495 403.052 170.247 402.655C170.916 402.292 171.613 401.984 172.331 401.734C172.914 401.575 174.147 402.039 175.045 402.439C175.661 402.712 176.117 402.952 176.117 402.952C176.117 402.952 186.026 400.637 187.036 394.066C186.633 393.471 186.098 392.978 185.471 392.626C184.845 392.273 184.145 392.072 183.427 392.038Z" fill="#98210D"/>
<path d="M208.855 255.539L176.253 267.587L174.045 280.435L175.149 283.011C175.149 283.011 168.97 322.222 166.543 327.077C166.354 327.444 166.165 327.812 165.96 328.166C174.62 326.84 183.576 326.988 183.576 326.988C187.802 314.461 195.006 292.257 196.415 282.663C196.415 282.663 208.086 277.34 212.185 276.275C207.533 275.772 200.882 272.536 200.882 272.536C200.882 272.536 200.962 271.225 203.076 267.27C205.189 263.315 211.872 255.416 211.872 255.416L213.009 254.744L213.041 254.64C212.808 254.672 212.585 254.704 212.359 254.744C211.174 254.929 210.004 255.195 208.855 255.539Z" fill="#000100"/>
<path fill-rule="evenodd" clip-rule="evenodd" d="M248.277 333.239C248.277 333.239 243.498 333.286 240.466 332.229C239.664 331.949 238.791 331.326 237.944 330.564C235.567 328.418 233.349 325.154 233.349 325.154C233.349 325.154 233.078 328.996 232.356 328.996C231.445 328.996 230.572 326.465 228.947 325.857C227.321 325.249 223.264 326.363 223.264 326.363C223.264 326.363 219.974 336.023 220.781 340.77C220.781 340.77 226.337 342.331 231.275 341.602C231.525 341.57 231.773 341.53 232.012 341.482C232.012 341.482 233.677 340.619 233.828 340.569C233.932 340.537 234.622 340.962 235.039 341.225C235.215 341.337 235.334 341.414 235.334 341.414C235.334 341.414 242.343 341.793 246.156 339.798C249.046 338.302 250.302 336.364 250.774 335.442C250.865 335.266 250.943 335.085 251.007 334.898C251.007 334.898 250.463 333.438 248.277 333.239Z" fill="#98210D"/>
<path fill-rule="evenodd" clip-rule="evenodd" d="M217.455 168.783C217.455 168.783 216.589 174.726 217.701 174.423C218.06 174.316 218.381 174.109 218.627 173.827C218.873 173.545 219.034 173.199 219.091 172.83C219.107 172.64 218.927 172.311 218.523 171.566C218.12 170.822 217.455 168.783 217.455 168.783Z" fill="#C64020"/>
<path fill-rule="evenodd" clip-rule="evenodd" d="M202.941 147.422C196.264 149.777 190.581 158.877 190.581 158.877C190.829 164.472 192.174 167.13 193.167 169.731C193.686 171.115 194.114 172.485 194.216 174.277C194.245 174.897 194.226 175.518 194.159 176.135C194.102 176.671 194.006 177.207 193.896 177.743C193.481 179.536 192.877 181.281 192.094 182.947C191.646 183.949 191.14 184.924 190.579 185.868C193.61 184.515 198.184 183.947 201.641 183.706C204.411 183.517 206.468 183.54 206.468 183.54V182.178C208.481 183.338 210.694 184.112 212.992 184.46C213.181 184.271 213.37 184.081 213.56 183.892C216.865 180.274 217.987 173.998 218.027 171.509C218.027 170.941 217.458 169.339 217.394 168.289C217.329 167.24 218.563 164.237 218.563 164.237C219.012 159.843 218.153 155.649 218.153 155.649C218.153 155.649 209.616 145.077 202.941 147.422Z" fill="#EF7D60"/>
<path d="M211.433 168.431C210.782 169.665 210.496 171.06 210.609 172.451C210.609 172.451 210.969 169.645 212.225 168.431C212.225 168.431 211.729 169.721 212.225 170.441C212.225 170.441 214.452 168.168 213.757 165.55C213.757 165.55 212.607 166.308 211.433 168.431Z" fill="#C64020"/>
<path d="M210.609 174.43C209.175 174.671 208.753 172.222 208.753 172.222L196.497 168.283L193.167 169.731C193.686 171.115 194.114 172.485 194.216 174.277C194.263 175.444 194.155 176.612 193.896 177.751C202.646 175.247 206.847 176.135 206.847 176.135L206.468 182.185C208.482 183.346 210.694 184.12 212.992 184.468C210.393 180.009 210.609 174.43 210.609 174.43Z" fill="#C64020"/>
<path fill-rule="evenodd" clip-rule="evenodd" d="M214.722 147.856C214.722 147.856 210.777 144.365 209.663 144.213C208.549 144.062 200.514 147.903 195.054 150.737C189.876 153.427 187.491 152.675 187.258 152.594L189.292 154.027C188.836 164.184 192.901 170.14 193.615 173.398C193.967 175.038 193.67 176.127 193.67 176.127C201.37 176.262 208.752 172.222 208.752 172.222C208.142 165.45 212.648 163.023 213.809 163.929C214.97 164.834 214.266 171.06 214.266 171.06L214.817 170.755C215.007 168.434 215.396 166.134 215.98 163.879C216.94 160.184 218.158 155.638 218.158 155.638C218.476 157.133 218.644 158.655 218.662 160.184C218.662 160.184 221.504 153.058 220.585 151.946C219.666 150.834 214.722 147.856 214.722 147.856Z" fill="#98210D"/>
<path d="M210.321 161.252C210.321 161.252 207.49 162.972 206.935 165.55C206.935 165.55 208.603 162.845 210.876 162.519C213.15 162.193 215.801 162.436 216.525 161.788L217.518 158.037C217.518 158.037 215.428 160.595 210.321 161.252Z" fill="#5C1213"/>
<path d="M212.225 160.17C212.225 160.17 215.814 159.29 217.517 158.047L218.01 156.189C218.01 156.189 215.089 159.237 212.225 160.17Z" fill="#5C1213"/>
<path d="M209.123 146.881C216.48 149.746 219.975 154.579 219.975 154.579C220.97 153.543 220.583 151.953 220.583 151.953C216.386 146.433 209.123 146.881 209.123 146.881Z" fill="#5C1213"/>
<path fill-rule="evenodd" clip-rule="evenodd" d="M176.805 254.234L165.022 267.259C165.022 267.259 172.658 267.122 179.229 265.365C185.8 263.607 181.351 255.022 181.351 255.022L176.805 254.234Z" fill="#000100"/>
<path fill-rule="evenodd" clip-rule="evenodd" d="M206.477 182.178C206.477 182.178 196.72 179.001 189.139 183.748V186.478C189.139 186.478 184.873 189.647 181.32 191.647V191.656L181.176 191.726C180.486 192.129 179.772 192.488 179.037 192.8C176.501 193.821 175.347 194.161 174.89 194.617C174.434 195.074 173.674 209.377 175.796 224.546C175.928 225.498 176 226.458 176.012 227.419C176.012 227.419 176.012 227.539 176.012 227.747C176.158 243.323 164.302 267.617 164.302 267.617C164.302 267.617 171.746 264.031 175.084 260.493L174.476 267.617C174.476 267.617 198.136 267.969 208.854 255.539L213.4 255.331C213.4 255.331 213.12 254.882 212.728 254.259L212.711 254.234C212.383 253.706 211.983 253.05 211.614 252.433C211.078 251.537 210.621 250.728 210.599 250.559C210.517 250.103 212.567 247.529 212.413 246.686C212.36 246.491 212.268 246.308 212.142 246.15L212.053 246.038C211.334 245.091 209.741 243.683 209.381 242.668C208.924 241.378 211.783 224.898 214.72 219.848C217.296 215.271 219.496 210.493 221.299 205.56C223.762 198.811 225.671 190.815 224.421 184.252C224.423 184.252 215.859 181.979 206.477 182.178Z" fill="#033347"/>
<path d="M183.84 206.782C182.84 212.046 182.262 218.539 181.65 225.412C180.482 238.554 179.273 252.143 174.99 260.443L175.18 260.542C179.483 252.207 180.694 238.593 181.864 225.432C182.476 218.564 183.052 212.076 184.05 206.822C186.892 191.857 192.824 185.227 192.885 185.157L192.726 185.011C192.667 185.076 186.695 191.759 183.84 206.782Z" fill="#032635"/>
<path fill-rule="evenodd" clip-rule="evenodd" d="M191.666 181.138L190.579 182.95C198.289 179.624 206.477 182.181 206.477 182.181C201.575 177.885 191.666 181.138 191.666 181.138Z" fill="#5CCBB8"/>
<g style="mix-blend-mode:multiply" opacity="0.91">
<path d="M211.793 211.4C211.713 211.449 211.386 211.639 210.278 212.269C210.194 212.318 210.129 212.392 210.092 212.481C210.054 212.57 210.048 212.669 210.072 212.762C210.097 212.855 210.151 212.938 210.227 212.997C210.304 213.056 210.397 213.089 210.494 213.09C210.564 213.089 210.634 213.072 210.696 213.038C211.31 212.718 211.833 212.425 212.268 212.139C212.366 212.076 212.436 211.978 212.461 211.864C212.486 211.751 212.465 211.632 212.403 211.534C212.341 211.436 212.242 211.367 212.129 211.342C212.015 211.317 211.897 211.338 211.799 211.4H211.793Z" fill="black"/>
</g>
<path d="M198.53 204.831L198.994 190.798C198.994 190.798 196.969 210.707 193.167 218.655C189.438 226.442 181.961 240.77 179.432 240.77C176.591 240.77 176.085 229.804 176.023 227.747C176.169 243.323 164.312 267.617 164.312 267.617C164.312 267.617 171.757 264.031 175.094 260.493L174.486 267.617C174.486 267.617 198.147 267.969 208.865 255.539L213.411 255.331C213.411 255.331 213.131 254.882 212.739 254.259L212.721 254.234L206.51 255.331L211.625 252.433C211.089 251.537 210.632 250.728 210.609 250.559C210.528 250.103 212.577 247.529 212.424 246.686C212.371 246.491 212.279 246.308 212.153 246.15L212.064 246.038C212.064 246.038 209.848 250.559 201.813 252.45C201.813 252.45 208.12 246.341 209.39 242.668C208.933 241.378 211.791 224.898 214.729 219.848C217.305 215.271 219.505 210.493 221.308 205.56L205.83 193.522C205.83 193.522 201.396 197.547 198.53 204.831Z" fill="#032635"/>
<path d="M181.717 191.422L181.321 191.647C181.452 191.573 181.584 191.499 181.717 191.422Z" fill="#033347"/>
<path d="M189.14 183.748V186.478C189.14 186.478 185.183 189.417 181.717 191.421L192.808 185.083C192.808 185.083 199.274 181.899 206.478 182.178C206.478 182.178 196.721 179.001 189.14 183.748Z" fill="#033347"/>
<g style="mix-blend-mode:multiply" opacity="0.91">
<path d="M172.18 344.015C170.388 351.403 159.222 383.868 159.222 383.868C166.312 371.508 172.18 344.015 172.18 344.015Z" fill="white"/>
<path d="M172.279 343.587C172.167 343.561 172.049 343.58 171.951 343.641C171.853 343.702 171.783 343.799 171.756 343.911C169.989 351.196 158.921 383.402 158.809 383.726C158.774 383.829 158.778 383.941 158.821 384.042C158.864 384.142 158.943 384.222 159.042 384.267C159.099 384.293 159.16 384.306 159.222 384.305C159.299 384.305 159.374 384.285 159.441 384.246C159.507 384.207 159.563 384.152 159.601 384.086C166.644 371.809 172.548 344.381 172.609 344.106C172.633 343.994 172.611 343.876 172.55 343.779C172.488 343.682 172.391 343.613 172.279 343.587ZM162.09 376.814C163.651 372.209 165.735 366.017 167.651 360.177C166.098 365.649 164.191 371.669 162.09 376.814Z" fill="black"/>
</g>
<g style="mix-blend-mode:multiply" opacity="0.91">
<path d="M227.864 284.955C231.509 276.963 240.542 279.499 241.774 278.047C243.005 276.594 245.354 267.249 245.354 267.249L235.165 271.754C232.389 275.956 229.948 280.37 227.864 284.955Z" fill="white"/>
<path d="M245.178 266.859L234.987 271.354C234.91 271.389 234.844 271.444 234.798 271.515C232.012 275.738 229.559 280.171 227.461 284.775C227.418 284.88 227.417 284.998 227.458 285.104C227.5 285.21 227.581 285.296 227.685 285.343C227.741 285.368 227.801 285.381 227.863 285.381C227.947 285.381 228.029 285.357 228.1 285.312C228.171 285.266 228.227 285.202 228.263 285.125C230.725 279.73 235.709 279.344 239.01 279.09C240.585 278.967 241.624 278.888 242.106 278.317C243.365 276.83 245.534 268.32 245.777 267.355C245.797 267.276 245.795 267.192 245.771 267.114C245.746 267.035 245.699 266.965 245.636 266.912C245.574 266.859 245.497 266.825 245.416 266.814C245.334 266.802 245.251 266.814 245.176 266.848L245.178 266.859ZM241.439 277.762C241.194 278.054 240.05 278.141 238.944 278.226C236.571 278.416 233.044 278.685 230.259 281.019C231.839 277.96 233.575 274.984 235.461 272.104L244.704 268.024C243.92 271.023 242.301 276.747 241.439 277.762Z" fill="black"/>
</g>
<path d="M212.376 254.731C210.223 257.047 208.259 259.533 206.504 262.163C206.504 262.163 229.822 263.084 250.865 260.798C250.863 260.798 236.599 252.768 212.376 254.731Z" fill="#03212B"/>
<path d="M177.494 336.743C173.327 345.348 172.001 376.918 172.001 376.918C172.01 376.853 172.026 376.789 172.033 376.728C172.425 374.135 176.733 346.286 180.493 336.018C180.493 336.018 181.093 334.313 182.063 331.487C182.073 331.443 182.086 331.401 182.103 331.36C179.415 332.46 177.494 336.743 177.494 336.743Z" fill="#03212B"/>
<path d="M241.913 311.074V311.018C242.048 309.864 244.346 291.246 246.804 280.816C248.676 272.86 250.403 266.729 250.886 263.336C249.604 266.048 238.335 290.414 241.913 311.074Z" fill="#03212B"/>
<g style="mix-blend-mode:screen" opacity="0.4">
<path d="M188.637 228.74C188.637 228.74 190.883 229.586 194.56 227.294C198.237 225.002 199.021 220.776 199.021 220.776C199.021 220.776 193.291 219.941 188.637 228.74Z" fill="#033347"/>
</g>
<g style="mix-blend-mode:screen" opacity="0.7">
<path d="M212.816 214.393C211.869 215.804 211.257 216.734 211.257 216.734C211.257 216.734 211.872 215.834 212.816 214.393Z" fill="white"/>
<path d="M206.479 182.178C206.479 182.178 218.713 182.831 222.201 185.868C222.201 185.868 223.273 195.706 219.981 202.253C217.797 206.594 214.677 211.548 212.815 214.393C214.959 211.228 218.876 205.645 221.822 202.707C221.822 202.707 225.887 196.962 224.423 184.252C224.424 184.252 216.956 181.897 206.479 182.178Z" fill="white"/>
<path d="M224.557 183.833C224.481 183.81 216.898 181.46 206.467 181.749C206.351 181.748 206.239 181.793 206.156 181.874C206.073 181.955 206.025 182.065 206.023 182.181C206.022 182.297 206.067 182.409 206.148 182.492C206.229 182.576 206.339 182.623 206.455 182.625C206.575 182.625 218.275 183.286 221.783 186.099C221.936 187.926 221.971 189.76 221.89 191.592C221.761 194.539 221.257 198.748 219.59 202.061C217.438 206.338 214.335 211.263 212.477 214.112C211.564 215.461 210.962 216.385 210.89 216.503C210.827 216.6 210.805 216.717 210.829 216.83C210.852 216.943 210.919 217.042 211.015 217.105C211.111 217.169 211.228 217.193 211.341 217.171C211.454 217.149 211.554 217.083 211.619 216.988C211.636 216.961 212.216 216.115 213.1 214.76C215.222 211.625 219.202 205.956 222.132 203.016C222.15 202.999 222.167 202.98 222.181 202.959C222.35 202.719 226.326 196.93 224.86 184.206C224.851 184.121 224.818 184.041 224.764 183.975C224.71 183.908 224.638 183.859 224.557 183.833ZM221.484 202.425C220.504 203.43 219.575 204.483 218.702 205.581C219.293 204.524 219.859 203.467 220.372 202.446C223.687 195.858 222.681 186.224 222.645 185.816C222.633 185.707 222.58 185.607 222.498 185.534C221.295 184.487 219.139 183.718 216.792 183.157C219.235 183.464 221.654 183.941 224.03 184.585C225.307 196.324 221.768 201.993 221.484 202.425Z" fill="black"/>
</g>
<g style="mix-blend-mode:screen" opacity="0.7">
<path d="M249.414 259.869C244.146 257.5 225.768 252.874 213.113 254.619C213.094 254.62 213.076 254.62 213.058 254.619C230.418 254.41 250.245 260.599 250.846 260.782C250.389 260.47 249.925 260.165 249.453 259.877C249.441 259.87 249.427 259.868 249.414 259.869Z" fill="white"/>
<path d="M251.094 260.428C250.603 260.093 250.147 259.798 249.702 259.523C249.655 259.491 249.604 259.466 249.55 259.451C244.648 257.265 226.154 252.378 213.054 254.185H213.022C212.912 254.194 212.809 254.243 212.735 254.325C212.66 254.406 212.619 254.512 212.62 254.623C212.623 254.739 212.67 254.849 212.753 254.931C212.836 255.012 212.947 255.058 213.063 255.058C229.649 254.859 248.582 260.551 250.685 261.194H250.717C250.818 261.227 250.927 261.223 251.025 261.181C251.122 261.14 251.202 261.065 251.248 260.969C251.294 260.874 251.305 260.765 251.276 260.663C251.248 260.56 251.184 260.472 251.096 260.413L251.094 260.428ZM225.844 254.992C231.871 255.595 237.833 256.725 243.663 258.369C237.795 256.9 231.848 255.772 225.849 254.992H225.844Z" fill="black"/>
</g>
<path d="M238.96 334.904C238.96 334.904 241.576 336.739 244.495 336.929C247.414 337.118 248.704 334.582 248.704 334.582C248.704 334.582 245.52 336.364 238.96 334.904Z" fill="#5C1213"/>
<path d="M179.327 397.644C179.327 397.644 185.595 399.003 184.889 393.621C184.892 393.621 182.97 396.987 179.327 397.644Z" fill="#5C1213"/>
<path d="M174.39 201.342C173.592 209.909 176.094 222.803 176.005 227.419C175.916 232.036 174.679 238.641 174.679 238.641C174.679 238.641 180.866 227.808 177.983 221.665C175.1 215.522 174.39 201.342 174.39 201.342Z" fill="#032635"/>
<path d="M160.55 371.432C158.396 368.617 159.868 336.624 159.868 336.624C155.166 365.037 158.731 384.154 158.731 384.154C161.383 379.106 165.702 364.694 165.702 364.694C162.605 371.665 160.55 371.432 160.55 371.432Z" fill="#03212B"/>
<path d="M223.721 321.055C223.721 321.055 227.13 314.296 228.682 304.835C230.233 295.373 227.865 284.945 227.865 284.945C227.865 284.945 226.465 308.661 223.721 321.055Z" fill="#03212B"/>
<path fill-rule="evenodd" clip-rule="evenodd" d="M263.604 145.615C263.267 146.261 262.92 146.903 262.579 147.54L262.554 147.581C256.284 159.115 248.982 168.592 241.803 174.303C241.11 174.854 240.424 175.364 239.736 175.845C228.314 183.801 215.07 187.01 215.07 187.01C207.146 193.174 204.186 201.158 204.186 201.158C205.56 202.304 207.115 203.215 208.787 203.853C220.686 208.358 234.988 197.458 234.988 197.458C241.458 189.503 252.918 184.009 256.669 182.352C256.819 182.293 256.955 182.236 257.071 182.183C257.535 181.979 257.828 181.863 257.891 181.84C257.896 181.842 257.901 181.842 257.906 181.84C267.661 173.813 276.195 151.302 276.195 151.302C272.238 146.973 263.604 145.615 263.604 145.615Z" fill="#033347"/>
<path fill-rule="evenodd" clip-rule="evenodd" d="M265.456 146.195C265.456 146.195 270.932 148.163 275.874 151.243L277.799 147.631C277.799 147.631 272.997 143.52 267.731 141.726L265.456 146.195Z" fill="#5CCBB8"/>
<path fill-rule="evenodd" clip-rule="evenodd" d="M251.954 163.847L246.586 169.685L247.431 179.058L260.437 174.336C260.437 174.336 257.749 166.624 251.954 163.847Z" fill="#032635"/>
<path d="M539.306 456.887C535.546 456.878 531.805 457.428 528.206 458.517C523.66 447.489 512.369 439.683 499.156 439.683C484.468 439.683 472.152 449.332 468.849 462.325C466.227 461.338 463.449 460.835 460.649 460.838C448.423 460.838 438.509 470.258 438.509 481.879H570.499C570.495 468.08 556.533 456.887 539.306 456.887Z" fill="white"/>
<path d="M319.864 460.561C316.693 460.554 313.538 461.016 310.503 461.935C306.671 452.636 297.148 446.053 286.007 446.053C273.62 446.053 263.236 454.199 260.446 465.145C258.236 464.314 255.893 463.889 253.532 463.891C243.222 463.891 234.864 471.834 234.864 481.635H346.164C346.164 469.998 334.389 460.561 319.864 460.561Z" fill="white"/>
<path d="M629.427 479.007H32.3604V482.862H629.427V479.007Z" fill="#CE4825"/>
</g>
<defs>
<clipPath id="clip0_528_19772">
<rect width="657.487" height="591" fill="white" transform="translate(0.512695 0.5)"/>
</clipPath>
</defs>
</svg>
