<svg width="20" height="20" viewBox="0 0 20 20" fill="none" xmlns="http://www.w3.org/2000/svg">
<circle cx="10" cy="10" r="9.5" stroke="#1839BC"/>
<circle cx="10" cy="10" r="9.375" fill="#E2E7FD"/>
<path fill-rule="evenodd" clip-rule="evenodd" d="M6.75918 13.2409C6.37409 12.8558 6.26361 12.2684 6.38438 11.4977C5.75399 11.0381 5.41675 10.5446 5.41675 9.99999C5.41675 9.45539 5.75399 8.96191 6.38438 8.50232C6.26361 7.73158 6.37409 7.14417 6.75918 6.75908C7.14426 6.374 7.73167 6.26352 8.50241 6.38429C8.962 5.7539 9.45548 5.41666 10.0001 5.41666C10.5447 5.41666 11.0382 5.7539 11.4978 6.38429C12.2685 6.26352 12.8559 6.374 13.241 6.75908C13.6261 7.14417 13.7366 7.73158 13.6158 8.50232C14.2462 8.96191 14.5834 9.45539 14.5834 9.99999C14.5834 10.5446 14.2462 11.0381 13.6158 11.4977C13.7366 12.2684 13.6261 12.8558 13.241 13.2409C12.8559 13.626 12.2685 13.7365 11.4978 13.6157C11.0382 14.2461 10.5447 14.5833 10.0001 14.5833C9.45548 14.5833 8.962 14.2461 8.50241 13.6157C7.73167 13.7365 7.14426 13.626 6.75918 13.2409ZM8.60532 12.7491C8.77446 12.7129 8.94839 12.785 9.04237 12.9302C9.40936 13.4972 9.7366 13.75 10.0001 13.75C10.2636 13.75 10.5908 13.4972 10.9578 12.9302C11.0518 12.785 11.2257 12.7129 11.3948 12.7491C12.0553 12.8906 12.4654 12.838 12.6517 12.6516C12.838 12.4653 12.8907 12.0552 12.7492 11.3947C12.713 11.2256 12.7851 11.0517 12.9303 10.9577C13.4973 10.5907 13.7501 10.2635 13.7501 9.99999C13.7501 9.7365 13.4973 9.40927 12.9303 9.04228C12.7851 8.9483 12.713 8.77437 12.7492 8.60523C12.8907 7.9448 12.838 7.53465 12.6517 7.34834C12.4654 7.16203 12.0553 7.10939 11.3948 7.25083C11.2257 7.28705 11.0518 7.21501 10.9578 7.0698C10.5908 6.50279 10.2636 6.24999 10.0001 6.24999C9.7366 6.24999 9.40936 6.50279 9.04237 7.0698C8.94839 7.21501 8.77446 7.28705 8.60532 7.25083C7.94489 7.10939 7.53474 7.16203 7.34843 7.34834C7.16212 7.53465 7.10948 7.9448 7.25092 8.60523C7.28714 8.77437 7.2151 8.9483 7.06989 9.04228C6.50288 9.40927 6.25008 9.7365 6.25008 9.99999C6.25008 10.2635 6.50288 10.5907 7.06989 10.9577C7.2151 11.0517 7.28714 11.2256 7.25092 11.3947C7.10948 12.0552 7.16212 12.4653 7.34843 12.6516C7.53474 12.838 7.94489 12.8906 8.60532 12.7491ZM11.3721 8.45536L9.58341 10.2441L8.62804 9.2887L8.03879 9.87795L9.58341 11.4226L11.9614 9.04462L11.3721 8.45536Z" fill="#071655"/>
</svg>
