<svg width="32" height="32" viewBox="0 0 32 32" fill="none" xmlns="http://www.w3.org/2000/svg">
<rect width="32" height="32" rx="16" fill="white"/>
<rect width="16" height="16" transform="translate(8 8)" fill="white"/>
<path d="M19.332 9.33398H12.6654C10.8244 9.33398 9.33203 10.8264 9.33203 12.6673V19.334C9.33203 21.1749 10.8244 22.6673 12.6654 22.6673H19.332C21.173 22.6673 22.6654 21.1749 22.6654 19.334V12.6673C22.6654 10.8264 21.173 9.33398 19.332 9.33398Z" fill="#003E51"/>
<path d="M19.332 9.33398H12.6654C10.8244 9.33398 9.33203 10.8264 9.33203 12.6673V19.334C9.33203 21.1749 10.8244 22.6673 12.6654 22.6673H19.332C21.173 22.6673 22.6654 21.1749 22.6654 19.334V12.6673C22.6654 10.8264 21.173 9.33398 19.332 9.33398Z" fill="black" fill-opacity="0.2"/>
<path d="M18.6639 15.5802C18.7461 16.135 18.6514 16.7017 18.393 17.1995C18.1347 17.6974 17.726 18.1011 17.225 18.3533C16.7239 18.6055 16.1562 18.6933 15.6024 18.6042C15.0486 18.515 14.537 18.2536 14.1404 17.857C13.7438 17.4604 13.4824 16.9488 13.3932 16.395C13.3041 15.8412 13.3919 15.2735 13.6441 14.7725C13.8963 14.2714 14.3 13.8627 14.7979 13.6044C15.2957 13.346 15.8624 13.2513 16.4172 13.3335C16.9831 13.4175 17.5071 13.6812 17.9117 14.0857C18.3162 14.4903 18.5799 15.0143 18.6639 15.5802Z" fill="white"/>
<path d="M19.668 12.334H19.678" stroke="white" stroke-width="2" stroke-linecap="round" stroke-linejoin="round"/>
</svg>
