<svg width="61" height="60" viewBox="0 0 61 60" fill="none" xmlns="http://www.w3.org/2000/svg">
<rect x="0.5" width="60" height="60" rx="4" fill="#FAB839" fill-opacity="0.12"/>
<g clip-path="url(#clip0_302_11998)">
<path d="M34.5278 23.2538C35.0231 22.0734 34.6056 20.6776 33.4846 19.9728L35.7235 15.3951C36.1002 14.6272 35.361 13.7806 34.5484 14.0519L32.0942 14.8702L31.037 14.165C30.6971 13.9388 30.2526 13.9497 29.9248 14.1916L28.9438 14.9167L26.4623 14.0555C25.6465 13.7729 24.8983 14.623 25.2763 15.3951L27.5153 19.9728C26.3945 20.6775 25.9766 22.0731 26.472 23.2538C23.5914 24.1265 21.4885 26.807 21.4885 29.9688V39.1617C21.4885 41.8294 23.6591 44 26.3269 44H34.673C37.3407 44 39.5113 41.8294 39.5113 39.1617V29.9688C39.5113 26.807 37.4085 24.1265 34.5278 23.2538ZM28.4098 29.7269C29.1277 29.7269 29.7119 30.3111 29.7119 31.029C29.7119 31.7469 29.1277 32.3311 28.4098 32.3311C27.6919 32.3311 27.1077 31.7469 27.1077 31.029C27.1077 30.3111 27.6919 29.7269 28.4098 29.7269ZM28.9275 21.5017H32.0724C32.4728 21.5017 32.7981 21.8271 32.7981 22.2275C32.7981 22.6278 32.4728 22.9532 32.0724 22.9532H28.9275C28.5271 22.9532 28.2017 22.6278 28.2017 22.2275C28.2017 21.8271 28.5271 21.5017 28.9275 21.5017ZM32.5901 37.3473C31.8722 37.3473 31.288 36.7631 31.288 36.0452C31.288 35.3273 31.8722 34.7431 32.5901 34.7431C33.308 34.7431 33.8922 35.3273 33.8922 36.0452C33.8922 36.7631 33.308 37.3473 32.5901 37.3473ZM33.692 31.713L28.6759 36.7292C28.4872 36.9185 28.2392 37.0128 27.9919 37.0128C27.1387 37.0128 26.696 35.973 27.3078 35.3612L32.324 30.345C32.702 29.967 33.3146 29.967 33.692 30.345C34.07 30.7224 34.07 31.3351 33.692 31.713Z" fill="#FAB839"/>
</g>
<defs>
<clipPath id="clip0_302_11998">
<rect width="30" height="30" fill="white" transform="translate(15.5 14)"/>
</clipPath>
</defs>
</svg>
