<?xml version="1.0" standalone="no"?>
<!DOCTYPE svg PUBLIC "-//W3C//DTD SVG 20010904//EN"
 "http://www.w3.org/TR/2001/REC-SVG-20010904/DTD/svg10.dtd">
<svg version="1.0" xmlns="http://www.w3.org/2000/svg"
 width="204.000000pt" height="192.000000pt" viewBox="0 0 204.000000 192.000000"
 preserveAspectRatio="xMidYMid meet">

<g transform="translate(0.000000,192.000000) scale(0.100000,-0.100000)"
fill="#000000" stroke="none">
<path d="M484 1845 c-14 -19 -30 -35 -34 -35 -5 0 -13 14 -19 32 -16 44 -22
31 -10 -22 5 -24 9 -55 7 -69 -3 -21 -7 -16 -33 34 -33 65 -79 100 -96 74 -8
-12 -10 -12 -18 0 -5 7 -14 10 -21 6 -9 -6 -9 -9 1 -16 10 -6 8 -9 -8 -9 -18
0 -23 -6 -23 -27 0 -24 1 -25 13 -10 6 9 29 23 49 32 33 13 37 13 32 0 -4 -10
0 -15 15 -15 12 0 21 -5 21 -11 0 -5 -4 -7 -10 -4 -22 14 -8 -16 14 -31 15 -9
23 -21 19 -30 -4 -12 -9 -11 -22 7 -35 48 -60 69 -75 63 -21 -8 -21 -24 -1
-24 30 0 68 -50 85 -111 10 -33 6 -34 -30 -14 -31 17 -97 19 -127 2 -29 -17
-74 -73 -50 -64 10 4 16 2 14 -5 -4 -18 20 -20 36 -3 18 17 43 20 52 5 4 -6
12 -10 18 -9 25 3 47 -1 47 -9 0 -4 -16 -9 -35 -10 -53 -4 -84 -19 -97 -47
-14 -31 -5 -43 17 -22 25 26 80 32 120 13 19 -9 35 -19 35 -21 0 -3 -14 -12
-30 -20 -38 -20 -89 -72 -102 -104 -5 -14 -6 -37 -3 -52 9 -40 34 -26 41 22 4
22 11 42 16 45 5 3 6 -7 2 -23 -6 -27 -4 -26 33 15 21 23 41 42 43 42 3 0 5
-35 5 -77 0 -79 26 -173 47 -173 6 0 8 7 4 15 -3 8 -1 15 5 15 7 0 8 19 4 54
-5 36 -3 56 4 61 9 5 9 10 0 21 -6 7 -8 21 -5 31 11 28 38 -22 46 -86 7 -55 7
-55 9 -12 0 24 3 42 6 39 6 -6 32 -222 32 -261 -1 -26 -2 -27 -14 -11 -11 15
-13 -1 -11 -97 l2 -114 3 92 c2 51 8 93 13 93 5 0 7 -13 5 -29 -2 -18 2 -35
11 -42 15 -12 20 -34 6 -25 -4 2 -9 -39 -10 -92 -3 -127 -5 -145 -19 -160 -7
-7 -13 -22 -13 -32 0 -10 6 -21 13 -23 8 -4 6 -6 -4 -6 -9 -1 -16 -7 -16 -15
0 -8 6 -12 13 -9 10 4 11 -3 4 -29 -6 -18 -14 -34 -19 -36 -6 -2 -15 -19 -22
-39 -9 -29 -9 -37 2 -44 11 -7 8 -11 -11 -16 l-25 -7 25 -6 c34 -9 62 0 56 16
-10 25 6 74 23 75 10 0 11 2 4 6 -20 8 -16 53 5 53 13 0 14 2 4 9 -11 7 -11
23 -1 92 l13 84 7 -55 c9 -78 37 -160 66 -195 29 -35 28 -33 -17 60 l-35 70
-5 440 c-3 242 -4 442 -2 445 2 2 7 -1 11 -9 7 -10 9 -9 14 3 4 10 13 13 22 9
13 -5 14 -7 3 -14 -9 -6 -3 -9 17 -9 23 0 27 3 15 10 -12 8 -11 10 8 10 12 0
22 -4 22 -10 0 -5 5 -10 10 -10 19 0 10 29 -15 49 -14 11 -39 22 -54 26 -20 4
-30 14 -34 31 -3 19 -1 24 10 20 9 -4 13 -1 10 6 -5 17 54 38 71 25 8 -6 12
-5 12 2 0 7 5 9 10 6 17 -11 11 11 -8 28 -28 26 -95 21 -150 -9 l-47 -26 38
34 c40 36 47 51 20 42 -10 -3 2 12 27 35 25 22 48 41 53 41 4 0 7 5 7 10 0 16
-66 12 -80 -5 -7 -8 -18 -15 -25 -15 -7 0 -27 -17 -44 -37 l-30 -38 -1 31 c0
16 5 35 10 40 6 6 13 21 15 35 3 13 12 29 20 35 8 6 15 16 15 23 0 21 -19 11
-46 -24z m-214 -185 c12 -8 11 -10 -6 -10 -12 0 -27 -7 -34 -15 -7 -8 -20 -15
-29 -15 -11 1 -8 5 9 15 14 8 21 14 17 15 -13 0 3 20 16 20 7 0 19 -5 27 -10z
m330 0 c0 -5 -5 -10 -11 -10 -5 0 -7 5 -4 10 3 6 8 10 11 10 2 0 4 -4 4 -10z
m-290 -34 c0 -2 -7 -7 -16 -10 -8 -3 -12 -2 -9 4 6 10 25 14 25 6z m111 -59
c-1 -12 -15 -9 -19 4 -3 6 1 10 8 8 6 -3 11 -8 11 -12z m59 -7 c0 -5 -4 -10
-10 -10 -5 0 -10 5 -10 10 0 6 5 10 10 10 6 0 10 -4 10 -10z m45 -20 c3 -5 -1
-10 -10 -10 -9 0 -13 5 -10 10 3 6 8 10 10 10 2 0 7 -4 10 -10z m-87 -32 c-6
-18 -28 -21 -28 -4 0 9 7 16 16 16 9 0 14 -5 12 -12z m42 -17 c0 -6 -4 -13
-10 -16 -5 -3 -10 1 -10 9 0 9 5 16 10 16 6 0 10 -4 10 -9z m-160 -75 c0 -3
-4 -8 -10 -11 -5 -3 -10 -1 -10 4 0 6 5 11 10 11 6 0 10 -2 10 -4z m198 -33
c2 -12 14 -33 28 -48 23 -25 24 -31 24 -172 0 -81 -2 -144 -4 -142 -3 3 -12
54 -21 114 -9 61 -22 135 -30 165 -26 110 -27 112 -13 108 7 -3 14 -14 16 -25z"/>
<path d="M1593 1798 c4 -13 9 -43 13 -68 l7 -45 -30 31 c-36 36 -101 44 -140
19 -35 -24 -28 -35 19 -30 33 5 48 1 80 -21 43 -30 62 -52 29 -35 -27 15 -98
16 -132 3 -16 -6 -29 -21 -33 -37 -8 -33 -2 -42 18 -26 18 15 81 12 119 -6 15
-7 27 -15 27 -17 0 -2 -29 -3 -64 -3 -62 0 -116 -17 -123 -39 -3 -7 11 -10 38
-8 51 3 99 -5 99 -17 0 -5 -43 -9 -95 -9 -52 0 -95 4 -95 9 0 4 -11 6 -25 3
-25 -4 -35 12 -12 21 8 4 9 6 0 6 -6 1 -18 -5 -26 -13 -7 -8 -24 -12 -39 -9
-22 4 -25 9 -24 56 0 33 -8 71 -22 102 -12 28 -27 69 -32 93 -10 37 -14 42
-38 41 -22 -1 -23 -3 -6 -6 16 -3 25 -16 34 -51 7 -26 24 -73 37 -106 28 -68
27 -102 -2 -99 -11 2 -33 0 -48 -3 -23 -5 -26 -8 -16 -21 11 -12 8 -13 -17 -7
-44 10 -51 17 -24 25 14 3 -15 5 -65 2 -100 -4 -119 -8 -110 -23 3 -5 -3 -10
-14 -10 -11 0 -23 5 -27 12 -5 8 -9 7 -13 -5 -6 -16 -9 -15 -45 4 -21 11 -45
18 -54 16 -12 -3 -10 -5 6 -6 27 -1 28 -9 5 -28 -16 -13 -14 -14 20 -11 23 3
36 0 34 -6 -2 -7 -47 -12 -111 -14 l-107 -3 3 -423 3 -424 41 -81 c23 -44 38
-78 33 -75 -23 14 -5 -18 34 -58 65 -69 174 -135 237 -144 40 -5 161 -5 205 1
35 4 151 45 181 63 105 65 203 209 202 297 0 11 -5 0 -12 -25 -20 -70 -54
-129 -106 -185 -43 -44 -130 -106 -130 -91 0 3 14 13 31 22 25 13 29 18 18 26
-11 8 -9 8 5 4 14 -5 31 6 66 42 53 55 92 131 109 209 10 52 7 587 -5 771 -5
75 -8 82 -27 82 -20 0 -20 -1 -2 -13 17 -13 18 -36 22 -298 2 -156 5 -294 7
-306 2 -13 1 -23 -2 -23 -13 0 -430 209 -436 218 -4 6 -9 90 -13 187 -6 191
-7 190 51 160 38 -20 49 -19 41 4 -5 18 -4 18 37 -2 29 -15 43 -17 46 -9 2 7
13 10 28 6 20 -5 24 -2 24 15 0 14 6 21 20 21 11 0 20 5 20 10 0 6 23 10 52
10 36 0 49 3 42 10 -7 7 -30 8 -66 2 -50 -8 -55 -7 -46 7 8 13 27 15 114 13
69 -3 109 0 118 8 9 7 16 7 20 1 4 -5 2 -12 -3 -15 -5 -4 -8 -23 -6 -44 2 -20
1 -57 -3 -82 -7 -42 -7 -41 -13 35 -3 44 -5 -17 -5 -135 0 -118 2 -166 3 -107
3 91 7 112 23 130 11 11 23 36 26 54 3 18 10 36 15 39 16 9 10 -34 -16 -110
-14 -41 -25 -96 -25 -123 -1 -26 -7 -64 -14 -85 -7 -20 -12 -49 -10 -65 1 -15
3 -98 4 -183 1 -85 5 -146 9 -135 8 19 15 -15 27 -125 9 -78 36 -179 49 -184
20 -7 29 12 15 29 -10 11 -10 15 -1 15 7 0 9 5 6 10 -4 6 -11 8 -16 5 -5 -4
-9 -1 -9 4 0 6 4 11 9 11 5 0 8 11 7 25 0 14 -4 25 -8 25 -4 0 -4 7 -1 17 4
10 2 14 -4 10 -5 -3 -10 -1 -11 6 -1 7 -3 35 -6 64 -2 28 -8 58 -12 65 -5 7
-10 27 -11 43 -1 17 -5 46 -8 65 -4 19 -6 49 -4 65 1 17 2 65 1 108 0 49 4 77
11 77 7 0 7 4 -1 12 -16 16 -15 38 2 57 8 9 17 39 20 66 18 138 36 225 47 225
14 0 19 -34 15 -107 -2 -40 -1 -73 4 -73 16 0 44 76 42 118 -3 68 12 54 54
-53 l12 -30 10 25 c9 20 11 21 11 6 1 -11 3 -17 6 -14 9 8 -16 120 -32 145
-19 29 -11 30 20 1 24 -23 42 -56 38 -71 -1 -5 4 -5 10 -1 9 5 10 -1 5 -22 -4
-16 -5 -26 -1 -22 4 3 11 24 15 45 12 49 -18 117 -61 139 -33 16 -39 39 -9 31
10 -3 21 0 23 7 4 10 9 2 22 -40 3 -8 9 -12 15 -9 5 3 10 2 10 -2 0 -5 9 -9
21 -9 19 0 20 5 16 39 -6 45 -41 87 -73 87 -23 0 -43 32 -25 38 6 2 9 8 5 13
-8 14 2 11 43 -11 20 -11 39 -18 41 -16 10 11 -13 48 -38 61 -41 21 -64 19
-110 -10 -46 -29 -50 -22 -15 29 14 20 25 40 25 43 0 4 -11 -4 -25 -17 -14
-13 -25 -20 -25 -16 0 10 62 66 73 66 4 0 7 -7 7 -15 0 -19 7 -19 27 0 24 24
9 83 -25 96 -39 15 -68 3 -99 -41 -15 -22 -31 -40 -34 -40 -4 0 -12 20 -18 45
-6 25 -16 45 -22 45 -7 0 -9 -9 -6 -22z m115 -58 c-5 -17 -14 -33 -19 -36 -12
-7 -11 -2 7 34 20 40 26 41 12 2z m-688 -220 c12 -8 9 -10 -12 -10 -16 0 -28
-4 -28 -9 0 -6 -12 -6 -29 -1 -16 4 -32 6 -35 2 -3 -3 -6 0 -6 7 0 8 12 11 34
10 19 -2 38 0 42 4 10 9 16 9 34 -3z m154 4 c27 -10 18 -21 -14 -16 -16 2 -30
8 -30 13 0 10 21 12 44 3z m-41 -83 c9 -35 -6 -44 -47 -27 -41 17 -45 29 -14
50 25 18 53 7 61 -23z m137 -13 c0 -29 -1 -30 -22 -16 -23 15 -41 67 -19 54 6
-4 11 -2 11 5 0 8 4 8 15 -1 8 -7 15 -26 15 -42z m419 35 c0 -12 -2 -13 -6 -5
-4 10 -8 10 -19 1 -14 -11 -20 1 -7 14 13 13 33 7 32 -10z m-500 -23 c-2 8 1
17 6 20 6 3 11 -10 13 -27 2 -18 -1 -33 -5 -33 -20 0 -53 33 -53 53 1 22 1 22
21 -3 12 -13 19 -18 18 -10z m-322 3 c2 -6 -10 -14 -27 -18 -35 -8 -45 -3 -37
18 6 16 59 17 64 0z m158 -15 c-3 -8 -17 -20 -31 -27 -32 -14 -34 -14 -34 4 0
8 6 15 13 15 7 0 19 9 27 20 16 22 34 13 25 -12z m-91 -15 c-25 -18 -46 -16
-42 4 3 19 51 35 57 20 2 -6 -4 -16 -15 -24z m716 8 c0 -6 -4 -13 -10 -16 -5
-3 -10 1 -10 9 0 9 5 16 10 16 6 0 10 -4 10 -9z m178 -47 c32 -49 24 -51 -16
-3 -19 22 -27 39 -20 39 7 0 23 -16 36 -36z m-64 -50 c23 -50 15 -53 -13 -4
-12 22 -18 40 -13 40 4 0 16 -16 26 -36z m-912 -131 c37 -33 7 -113 -43 -113
-28 0 -69 39 -69 67 0 55 70 84 112 46z m725 -75 c-3 -8 -6 -5 -6 6 -1 11 2
17 5 13 3 -3 4 -12 1 -19z m-300 -195 l222 -108 0 -47 1 -48 -95 0 c-84 0 -95
2 -95 18 0 9 7 26 15 36 22 29 19 73 -5 86 -11 6 -20 17 -20 25 0 8 -2 15 -4
15 -2 0 -11 3 -20 6 -12 5 -16 0 -16 -19 0 -14 -7 -27 -15 -31 -8 -3 -15 -18
-15 -34 0 -48 -96 -120 -143 -107 -16 4 -18 4 -8 -3 11 -8 11 -11 0 -15 -8 -4
-5 -5 6 -4 12 1 19 -3 17 -11 -2 -9 4 -12 16 -8 11 4 30 -5 52 -25 19 -17 27
-28 18 -25 -20 6 -25 -10 -5 -17 7 -3 5 -6 -5 -6 -12 -1 -18 6 -18 19 0 16 -7
20 -37 21 -30 0 -34 2 -18 8 11 5 24 6 29 3 5 -3 6 -1 3 5 -3 5 -21 8 -39 6
-25 -3 -29 -2 -18 6 12 9 11 11 -8 11 -15 0 -21 4 -16 12 5 7 2 9 -9 5 -11 -4
-14 -2 -11 8 4 10 -3 12 -33 8 -38 -5 -40 -4 -52 33 -7 22 -15 45 -17 52 -4 8
3 12 20 12 14 0 26 -4 26 -10 0 -5 9 -24 21 -42 14 -23 19 -26 14 -10 -4 13
-2 22 4 22 6 0 11 -4 11 -10 0 -5 8 -10 18 -9 9 0 12 3 5 5 -8 4 -10 21 -6 52
l5 47 -56 -3 c-50 -4 -56 -2 -56 16 0 11 -7 23 -16 26 -18 7 -54 -10 -54 -25
0 -6 -11 -24 -25 -41 -15 -18 -25 -42 -25 -61 0 -18 -4 -37 -8 -44 -11 -18
-193 -27 -204 -11 -10 17 -10 88 0 88 5 0 64 30 133 67 221 119 304 162 309
163 3 0 105 -48 227 -107z m-239 -115 c-6 -18 -28 -21 -28 -4 0 9 7 16 16 16
9 0 14 -5 12 -12z m-118 -83 c10 -12 10 -15 -4 -15 -9 0 -16 7 -16 15 0 8 2
15 4 15 2 0 9 -7 16 -15z m-27 -42 c24 -5 27 -9 27 -49 0 -42 -16 -67 -29 -46
-3 6 -20 10 -37 10 -40 -1 -50 6 -57 39 -8 42 9 66 41 58 15 -3 39 -9 55 -12z
m355 -47 c-7 -7 -19 -11 -27 -8 -11 4 -10 7 5 13 29 12 36 10 22 -5z m-151
-21 c37 -15 60 -12 33 5 -13 8 -12 10 3 10 11 0 17 -8 17 -24 0 -14 5 -28 10
-31 13 -8 13 -42 1 -50 -9 -5 -159 40 -171 52 -9 9 26 22 45 17 16 -4 17 -3 5
5 -13 10 -13 12 0 21 19 12 14 13 57 -5z m-327 -5 c0 -5 -5 -10 -11 -10 -5 0
-7 5 -4 10 3 6 8 10 11 10 2 0 4 -4 4 -10z m440 -20 c0 -5 -12 -10 -27 -9
l-28 1 25 8 c14 4 26 8 28 9 1 1 2 -3 2 -9z m50 -36 c0 -2 -9 0 -20 6 -11 6
-20 13 -20 16 0 2 9 0 20 -6 11 -6 20 -13 20 -16z m-55 6 c-3 -6 1 -13 9 -16
9 -3 16 -14 16 -23 0 -12 2 -13 8 -3 10 15 36 -10 46 -45 4 -13 13 -23 19 -23
7 0 3 -6 -7 -12 -19 -10 -30 -3 -27 17 1 3 -7 13 -16 23 -60 63 -79 92 -58 92
9 0 13 -5 10 -10z m-173 -87 c16 -9 -33 -32 -119 -53 -74 -19 -133 -26 -133
-14 0 3 11 22 25 42 24 36 26 36 32 14 3 -15 11 -21 20 -18 7 3 16 0 19 -8 3
-8 15 -11 30 -8 20 4 22 6 10 16 -12 9 -21 44 -17 67 1 7 113 -25 133 -38z
m-152 -5 c0 -5 -4 -8 -10 -8 -5 0 -10 10 -10 23 0 18 2 19 10 7 5 -8 10 -18
10 -22z m456 16 c-3 -7 2 -10 13 -7 10 2 24 -3 31 -12 12 -14 12 -18 -1 -27
-11 -7 -9 -9 9 -5 12 3 20 1 16 -4 -3 -5 -13 -9 -22 -9 -21 1 -54 25 -45 33 3
4 2 7 -4 7 -6 0 -13 8 -15 18 -3 12 0 19 9 19 8 0 12 -6 9 -13z m-15 -63 c-11
-7 -9 -10 9 -13 24 -3 41 -28 20 -28 -6 0 -8 5 -5 10 3 6 -1 10 -10 10 -9 0
-13 -4 -10 -10 3 -5 1 -10 -4 -10 -6 0 -11 7 -11 15 0 8 -5 15 -11 15 -5 0 -7
5 -4 10 3 6 14 10 23 10 14 0 14 -2 3 -9z m-243 -45 c9 -10 -20 -36 -40 -36
-10 0 -16 -4 -13 -10 3 -5 22 -10 42 -10 20 0 34 -3 30 -6 -3 -3 -39 -3 -79 1
-40 5 -67 10 -60 12 10 4 10 8 1 19 -9 12 -5 14 26 14 34 0 36 2 24 17 -13 15
-11 16 25 10 21 -3 41 -8 44 -11z m-280 -33 c48 -35 62 -48 37 -35 -29 15 -90
62 -81 62 4 0 24 -12 44 -27z m379 -69 c-3 -3 -12 -4 -19 -1 -8 3 -5 6 6 6 11
1 17 -2 13 -5z"/>
<path d="M778 1188 c-24 -20 -28 -44 -12 -67 19 -26 55 -27 77 -3 22 24 21 45
-1 65 -22 20 -43 22 -64 5z m50 -41 c4 -20 -25 -34 -40 -19 -15 15 -1 44 19
40 10 -2 19 -11 21 -21z"/>
<path d="M924 1765 c-7 -19 -14 -39 -14 -44 0 -6 -11 -36 -25 -67 -26 -59 -31
-99 -15 -124 6 -10 8 -3 3 23 l-6 37 68 0 c52 0 71 4 80 17 11 15 15 15 29 4
9 -7 16 -20 16 -28 0 -19 -27 -28 -45 -13 -9 8 -15 8 -15 2 0 -6 10 -14 22
-18 16 -5 27 0 41 17 13 17 34 26 70 30 l52 7 -59 -1 c-85 -3 -92 14 -37 88
24 31 41 59 38 62 -3 2 -24 -23 -46 -56 -23 -34 -45 -61 -49 -61 -9 0 -92 126
-92 139 0 5 12 12 28 14 l27 4 -28 2 c-23 1 -31 -5 -43 -34z m56 -70 c34 -54
40 -69 30 -80 -16 -20 -134 -21 -128 -2 3 6 16 42 29 80 13 37 24 67 25 67 1
0 20 -29 44 -65z"/>
<path d="M1038 1783 c7 -3 16 -2 19 1 4 3 -2 6 -13 5 -11 0 -14 -3 -6 -6z"/>
<path d="M1203 1280 c-13 -5 -23 -15 -23 -23 0 -16 41 -57 58 -57 16 0 27 50
15 68 -12 20 -23 23 -50 12z m24 -32 c-3 12 -1 22 4 22 14 0 23 -30 12 -41
-15 -15 -43 1 -43 25 1 20 1 20 16 -4 14 -24 15 -24 11 -2z"/>
<path d="M1305 1270 c-3 -5 -8 -22 -11 -35 -4 -21 0 -25 19 -25 13 0 32 6 43
14 15 12 17 18 8 33 -13 21 -49 29 -59 13z m43 -12 c8 -8 8 -15 1 -24 -14 -17
-49 3 -42 23 6 16 25 17 41 1z"/>
<path d="M1153 1203 c-15 -5 -18 -59 -4 -67 14 -9 71 15 71 29 0 8 -10 21 -22
29 -24 17 -26 17 -45 9z m57 -35 c0 -10 -42 -27 -52 -21 -6 3 -5 30 1 50 2 7
51 -21 51 -29z"/>
<path d="M493 1160 c0 -25 2 -35 4 -22 2 12 2 32 0 45 -2 12 -4 2 -4 -23z"/>
<path d="M1343 1188 c-31 -15 -29 -36 3 -49 51 -19 83 11 48 45 -18 18 -21 19
-51 4z m47 -29 c0 -23 -19 -25 -46 -5 -18 14 -18 15 6 24 30 12 40 7 40 -19z"/>
<path d="M1213 1130 c-39 -16 -24 -78 16 -65 22 7 38 46 26 64 -7 13 -12 13
-42 1z m37 -19 c0 -10 -7 -24 -16 -32 -13 -10 -17 -10 -25 2 -13 20 -11 27 9
38 25 15 32 13 32 -8z"/>
<path d="M1297 1133 c-4 -3 -7 -13 -7 -22 0 -13 2 -14 9 -2 13 20 41 6 41 -21
0 -21 0 -21 -15 -2 -13 16 -14 16 -9 2 3 -10 1 -18 -5 -18 -6 0 -11 5 -11 10
0 6 -4 10 -10 10 -5 0 -7 -7 -4 -15 8 -19 60 -20 67 -1 3 8 -3 26 -14 40 -21
27 -31 31 -42 19z"/>
<path d="M1585 811 c-3 -5 -1 -12 5 -16 5 -3 10 1 10 9 0 18 -6 21 -15 7z"/>
<path d="M493 765 c0 -27 2 -38 4 -22 2 15 2 37 0 50 -2 12 -4 0 -4 -28z"/>
<path d="M1592 755 c0 -16 2 -22 5 -12 2 9 2 23 0 30 -3 6 -5 -1 -5 -18z"/>
<path d="M1602 695 c0 -16 2 -22 5 -12 2 9 2 23 0 30 -3 6 -5 -1 -5 -18z"/>
<path d="M476 654 c-4 -31 -5 -59 -2 -61 2 -3 8 21 11 52 4 31 5 58 3 61 -3 2
-8 -21 -12 -52z"/>
<path d="M1611 614 c0 -11 3 -14 6 -6 3 7 2 16 -1 19 -3 4 -6 -2 -5 -13z"/>
<path d="M1624 565 c6 -39 67 -208 73 -201 3 2 0 21 -7 40 -6 20 -9 40 -6 45
3 5 -1 12 -10 15 -11 4 -15 14 -12 31 4 16 1 25 -7 25 -7 0 -18 17 -24 38 -8
29 -10 30 -7 7z"/>
<path d="M462 560 c0 -14 2 -19 5 -12 2 6 2 18 0 25 -3 6 -5 1 -5 -13z"/>
<path d="M486 533 c-6 -14 -5 -15 5 -6 7 7 10 15 7 18 -3 3 -9 -2 -12 -12z"/>
<path d="M447 513 c-4 -10 -13 -36 -21 -58 -18 -46 -20 -64 -7 -49 12 12 44
114 38 120 -2 3 -7 -3 -10 -13z"/>
<path d="M1712 470 c0 -14 2 -19 5 -12 2 6 2 18 0 25 -3 6 -5 1 -5 -13z"/>
<path d="M548 443 c-16 -2 -28 -6 -28 -7 0 -2 9 -25 21 -51 15 -34 24 -44 32
-36 7 7 14 7 24 -1 10 -8 17 -8 25 0 14 14 23 92 10 92 -5 0 -7 -12 -4 -26 4
-24 3 -26 -19 -18 -13 4 -32 8 -41 8 -22 0 -24 26 -3 26 8 0 15 5 15 10 0 6
-1 9 -2 9 -2 -1 -15 -4 -30 -6z m76 -78 c-6 -16 -24 -21 -24 -7 0 11 11 22 21
22 5 0 6 -7 3 -15z"/>
<path d="M1483 438 c-16 -20 -23 -52 -15 -63 4 -5 21 -10 39 -10 17 0 30 2 27
4 -2 2 2 11 10 20 11 12 12 19 3 31 -18 22 -34 22 -40 0 -4 -14 0 -20 11 -20
15 -1 14 -2 -1 -11 -28 -16 -46 5 -29 32 15 23 10 36 -5 17z"/>
<path d="M267 406 c-9 -24 -10 -23 18 -30 13 -3 29 -16 35 -27 10 -17 8 -21
-10 -26 -16 -4 -21 -12 -18 -28 5 -22 4 -22 -31 -8 -20 8 -42 20 -49 26 -20
16 -10 50 18 64 23 12 23 13 4 13 -54 0 -56 -58 -5 -166 28 -59 74 -105 106
-104 6 1 -7 10 -27 21 -37 19 -51 38 -82 113 -18 44 -29 45 102 -3 85 -32 134
-42 75 -16 -30 13 -38 28 -34 61 1 7 -5 14 -14 18 -8 3 -15 12 -15 20 0 8 -13
25 -29 38 -15 13 -30 30 -33 38 -3 11 -6 10 -11 -4z m87 -133 c6 -19 4 -22
-11 -17 -19 7 -43 32 -43 45 0 12 34 16 41 4 4 -5 10 -20 13 -32z"/>
<path d="M325 399 c-4 -6 -4 -13 -1 -16 3 -4 6 -1 6 7 0 10 4 10 18 -1 15 -13
16 -12 3 4 -16 20 -18 20 -26 6z"/>
<path d="M1818 376 c-15 -8 -29 -12 -31 -10 -2 3 -7 -10 -11 -27 -7 -38 -6
-39 35 -48 57 -12 46 -38 -24 -55 -28 -7 -29 -6 -22 23 4 18 2 32 -6 37 -8 4
-10 3 -5 -4 13 -21 -5 -60 -31 -67 -48 -12 -14 -17 39 -6 53 12 157 58 170 76
14 19 8 55 -12 75 -23 23 -64 26 -102 6z m96 -12 c28 -27 19 -62 -21 -83 -28
-15 -33 -14 -33 4 0 10 -10 15 -29 15 -16 0 -34 6 -40 14 -9 11 -5 19 19 40
36 29 81 34 104 10z"/>
<path d="M400 327 c-20 -15 -11 -70 12 -75 25 -5 70 45 59 66 -11 21 -50 26
-71 9z m51 -8 c16 -8 18 -13 9 -24 -7 -8 -23 -14 -36 -13 -27 3 -28 3 -14 29
12 22 15 23 41 8z"/>
<path d="M1381 316 c-8 -13 -10 -29 -6 -35 4 -7 1 -20 -7 -29 -11 -15 -11 -15
2 -5 14 11 42 17 66 14 7 0 14 -10 17 -21 5 -18 0 -20 -51 -20 -30 0 -53 -3
-50 -6 4 -3 81 -8 173 -10 145 -4 165 -3 153 9 -8 9 -17 12 -24 6 -6 -5 -49
-8 -95 -6 -81 2 -84 3 -97 30 -11 22 -11 31 -1 43 6 8 10 16 8 17 -24 17 -60
37 -67 37 -5 0 -14 -11 -21 -24z m58 -10 c9 -10 9 -16 1 -21 -12 -7 -40 11
-40 26 0 14 26 10 39 -5z"/>
<path d="M535 321 c-16 -27 -15 -62 2 -67 10 -3 26 -10 37 -15 13 -8 16 -7 11
1 -3 6 4 19 17 30 20 17 21 20 8 34 -20 20 -66 30 -75 17z m69 -21 c9 -9 0
-30 -15 -30 -5 0 -8 6 -6 12 1 7 -8 14 -21 16 -12 2 -20 8 -16 13 6 10 42 3
58 -11z m-34 -36 c0 -2 -9 -4 -20 -4 -11 0 -20 4 -20 9 0 5 9 7 20 4 11 -3 20
-7 20 -9z"/>
<path d="M1554 316 c11 -9 14 -16 8 -16 -7 0 -12 -6 -12 -14 0 -18 -16 -29
-30 -21 -6 3 -6 15 0 30 7 19 6 23 -5 18 -19 -7 -19 -49 -1 -56 8 -3 28 -1 45
6 22 8 31 18 31 34 0 13 -4 23 -9 23 -5 0 -18 3 -28 6 -16 5 -16 4 1 -10z"/>
<path d="M1659 323 c-12 -3 -16 -14 -15 -36 1 -27 6 -32 29 -35 55 -6 79 45
32 66 -14 7 -27 11 -28 11 -1 -1 -9 -3 -18 -6z m43 -31 c-12 -2 -22 -10 -22
-18 0 -15 -16 -19 -23 -6 -3 4 -1 17 4 29 8 21 11 22 36 10 26 -11 26 -12 5
-15z"/>
<path d="M674 311 c-2 -2 -4 -14 -4 -26 0 -11 -5 -26 -11 -32 -7 -7 3 -9 33
-6 50 5 50 5 42 26 -3 9 -18 18 -32 20 -21 3 -19 4 10 6 21 0 38 -4 41 -11 3
-7 5 -4 4 7 -1 17 -8 20 -40 20 -21 0 -40 -2 -43 -4z"/>
<path d="M1892 225 c-12 -25 -20 -45 -17 -45 7 0 47 81 43 86 -3 2 -14 -17
-26 -41z"/>
<path d="M855 242 c-2 -2 -21 -10 -42 -18 l-38 -15 35 6 c19 4 50 9 68 12 28
5 32 3 32 -15 0 -11 5 -24 10 -27 14 -9 12 -42 -2 -48 -7 -2 4 -8 25 -12 21
-4 41 -5 44 -1 4 3 -3 6 -15 6 -28 0 -37 17 -20 37 7 9 8 14 2 10 -11 -6 -30
36 -25 56 1 5 -3 6 -8 3 -5 -4 -12 -2 -16 3 -5 9 -42 11 -50 3z"/>
<path d="M1211 234 c-11 -8 -21 -25 -21 -37 0 -41 -12 -66 -34 -70 -17 -4 -17
-5 5 -6 23 -1 28 4 33 34 6 32 8 34 31 23 29 -13 33 -35 8 -41 -17 -4 -17 -5
0 -6 14 -1 17 -6 12 -23 -15 -49 -31 -72 -55 -79 -23 -6 -23 -7 -3 -8 26 -1
51 22 59 55 3 13 9 24 13 24 3 0 6 15 5 32 -1 25 -8 37 -27 48 -15 8 -27 23
-27 33 0 17 6 18 63 12 54 -6 64 -5 64 9 0 12 -4 13 -14 5 -7 -7 -20 -8 -30
-3 -32 14 -60 13 -82 -2z"/>
<path d="M448 213 c6 -2 18 -2 25 0 6 3 1 5 -13 5 -14 0 -19 -2 -12 -5z"/>
<path d="M490 210 c0 -6 17 -10 37 -10 43 0 41 5 -4 13 -19 4 -33 2 -33 -3z"/>
<path d="M675 210 c-15 -6 -6 -9 33 -9 33 -1 51 3 47 9 -7 12 -52 12 -80 0z"/>
<path d="M970 210 c0 -5 5 -10 10 -10 6 0 10 5 10 10 0 6 -4 10 -10 10 -5 0
-10 -4 -10 -10z"/>
<path d="M370 200 c0 -5 5 -10 10 -10 6 0 10 5 10 10 0 6 -4 10 -10 10 -5 0
-10 -4 -10 -10z"/>
<path d="M635 200 c-3 -5 -1 -10 4 -10 6 0 11 5 11 10 0 6 -2 10 -4 10 -3 0
-8 -4 -11 -10z"/>
<path d="M408 177 c-3 -19 -2 -25 4 -19 6 6 8 18 6 28 -3 14 -5 12 -10 -9z"/>
<path d="M882 178 c-7 -7 -12 -24 -12 -39 0 -22 -5 -28 -27 -32 l-28 -4 27 -2
c19 -1 29 -9 36 -28 6 -16 15 -34 20 -41 13 -19 136 -32 207 -22 l60 9 -63 -4
c-89 -5 -184 10 -199 31 -20 27 -28 85 -13 94 10 6 9 9 -1 12 -12 4 -12 7 0
21 16 20 11 23 -7 5z"/>
<path d="M1326 174 c19 -15 18 -15 -3 -11 -15 3 -23 0 -23 -8 0 -8 8 -11 20
-8 27 7 36 23 19 34 -24 15 -34 10 -13 -7z"/>
<path d="M1765 180 c-4 -7 1 -13 14 -17 26 -7 27 -20 4 -27 -11 -3 -8 -4 6 -3
30 2 39 25 14 34 -10 3 -21 11 -24 16 -4 5 -10 4 -14 -3z"/>
<path d="M370 171 c0 -8 -7 -11 -15 -7 -8 3 -15 1 -15 -4 0 -6 6 -10 14 -10
17 0 31 18 22 27 -3 4 -6 1 -6 -6z"/>
<path d="M485 169 c-4 -6 1 -16 11 -23 9 -7 14 -18 10 -24 -5 -8 -2 -10 8 -6
20 8 20 23 1 30 -8 4 -15 10 -15 15 0 4 7 5 17 2 11 -4 14 -3 9 5 -9 15 -33
16 -41 1z"/>
<path d="M728 150 c3 -23 9 -30 26 -29 18 1 18 2 3 6 -14 4 -18 12 -14 29 2
14 0 24 -8 24 -7 0 -10 -11 -7 -30z"/>
<path d="M981 164 c0 -11 3 -14 6 -6 3 7 2 16 -1 19 -3 4 -6 -2 -5 -13z"/>
<path d="M1378 173 c6 -2 12 -9 12 -15 0 -6 -7 -8 -15 -4 -11 4 -15 -1 -15
-17 0 -17 2 -19 10 -7 8 12 10 12 16 -3 9 -26 19 -21 19 11 1 27 -11 42 -30
41 -5 0 -4 -3 3 -6z"/>
<path d="M1700 165 c0 -8 5 -15 10 -15 6 0 10 4 10 9 0 5 8 12 18 14 10 3 6 5
-10 6 -19 1 -28 -4 -28 -14z"/>
<path d="M560 140 c0 -16 5 -30 10 -30 6 0 10 11 10 24 0 13 6 27 13 29 6 3 2
6 -10 6 -19 1 -23 -4 -23 -29z"/>
<path d="M610 140 c0 -16 5 -30 10 -30 6 0 10 14 10 30 0 17 -4 30 -10 30 -5
0 -10 -13 -10 -30z"/>
<path d="M654 155 c-9 -23 3 -45 26 -45 11 0 20 4 20 9 0 5 -8 8 -17 7 -13 -1
-18 6 -17 22 1 26 -4 28 -12 7z"/>
<path d="M1427 163 c-14 -13 -7 -43 12 -53 15 -7 23 -6 35 6 19 19 20 26 4 42
-13 13 -41 16 -51 5z m43 -21 c0 -10 -3 -22 -7 -25 -10 -11 -32 13 -26 29 8
20 33 17 33 -4z"/>
<path d="M1513 163 c-18 -7 -16 -50 2 -57 22 -8 45 3 38 20 -3 8 -9 14 -14 14
-4 0 -6 -7 -3 -15 4 -8 2 -15 -4 -15 -13 0 -24 29 -16 42 3 5 13 7 21 4 8 -3
11 -1 8 4 -7 11 -13 11 -32 3z"/>
<path d="M1581 138 c0 -18 3 -27 6 -20 4 10 8 10 19 1 11 -9 14 -6 14 20 0 24
-4 31 -20 31 -16 0 -20 -6 -19 -32z m29 12 c0 -5 -4 -10 -10 -10 -5 0 -10 5
-10 10 0 6 5 10 10 10 6 0 10 -4 10 -10z"/>
<path d="M1640 151 c0 -15 5 -18 23 -13 18 5 19 7 4 10 -9 2 -15 8 -12 13 4 5
1 9 -4 9 -6 0 -11 -9 -11 -19z"/>
<path d="M425 140 c-19 -8 -19 -9 3 -9 12 -1 22 4 22 9 0 6 -1 10 -2 9 -2 0
-12 -4 -23 -9z"/>
<path d="M1736 135 c4 -8 8 -15 10 -15 2 0 4 7 4 15 0 8 -4 15 -10 15 -5 0 -7
-7 -4 -15z"/>
<path d="M1028 113 c17 -2 47 -2 65 0 17 2 3 4 -33 4 -36 0 -50 -2 -32 -4z"/>
<path d="M1653 113 c9 -2 23 -2 30 0 6 3 -1 5 -18 5 -16 0 -22 -2 -12 -5z"/>
<path d="M388 103 c7 -3 16 -2 19 1 4 3 -2 6 -13 5 -11 0 -14 -3 -6 -6z"/>
<path d="M1768 103 c7 -3 16 -2 19 1 4 3 -2 6 -13 5 -11 0 -14 -3 -6 -6z"/>
<path d="M428 93 c7 -3 16 -2 19 1 4 3 -2 6 -13 5 -11 0 -14 -3 -6 -6z"/>
<path d="M763 93 c9 -2 25 -2 35 0 9 3 1 5 -18 5 -19 0 -27 -2 -17 -5z"/>
<path d="M957 70 c-17 -27 -8 -45 9 -18 5 7 12 5 22 -8 14 -18 14 -18 8 6 -3
14 -6 31 -6 38 0 21 -15 13 -33 -18z"/>
<path d="M1072 83 c-2 -26 -17 -30 -26 -8 -10 27 -26 16 -25 -17 1 -18 3 -25
6 -15 6 22 19 22 32 0 14 -25 23 -11 18 29 -2 19 -4 23 -5 11z"/>
<path d="M1112 92 c-19 -12 -9 -57 13 -57 22 0 40 27 32 49 -7 17 -24 20 -45
8z m34 -13 c3 -6 1 -16 -5 -22 -9 -9 -14 -8 -21 3 -9 15 -4 30 10 30 5 0 12
-5 16 -11z"/>
<path d="M1298 93 c12 -2 30 -2 40 0 9 3 -1 5 -23 4 -22 0 -30 -2 -17 -4z"/>
<path d="M1728 93 c7 -3 16 -2 19 1 4 3 -2 6 -13 5 -11 0 -14 -3 -6 -6z"/>
<path d="M488 83 c12 -2 30 -2 40 0 9 3 -1 5 -23 4 -22 0 -30 -2 -17 -4z"/>
<path d="M658 83 c18 -2 45 -2 60 0 15 2 0 4 -33 4 -33 0 -45 -2 -27 -4z"/>
<path d="M1393 83 c9 -2 25 -2 35 0 9 3 1 5 -18 5 -19 0 -27 -2 -17 -5z"/>
<path d="M1673 83 c9 -2 23 -2 30 0 6 3 -1 5 -18 5 -16 0 -22 -2 -12 -5z"/>
<path d="M1508 73 c29 -2 74 -2 100 0 26 2 2 3 -53 3 -55 0 -76 -1 -47 -3z"/>
</g>
</svg>
