<svg width="198" height="134" viewBox="0 0 198 134" fill="none" xmlns="http://www.w3.org/2000/svg">
<g opacity="0.1">
<path d="M176.241 106.194C199.745 92.6243 223.934 85.579 243.983 85.0767C264.12 84.5721 279.558 90.6419 286.48 102.631C293.402 114.621 290.94 131.026 280.435 148.212C269.975 165.325 251.779 182.75 228.275 196.32C204.772 209.89 180.583 216.935 160.533 217.437C140.397 217.942 124.958 211.872 118.036 199.883C111.114 187.893 113.577 171.488 124.082 154.302C134.542 137.189 152.738 119.764 176.241 106.194Z" stroke="#071655" stroke-width="4"/>
<path d="M247.321 125.239C260.89 148.743 267.936 172.932 268.438 192.981C268.943 213.118 262.873 228.556 250.883 235.478C238.894 242.4 222.489 239.938 205.302 229.433C188.19 218.973 170.764 200.777 157.195 177.273C143.625 153.77 136.58 129.581 136.077 109.531C135.573 89.3949 141.643 73.9563 153.632 67.0342C165.621 60.1121 182.027 62.5748 199.213 73.08C216.325 83.5398 233.751 101.736 247.321 125.239Z" stroke="#071655" stroke-width="4"/>
<path d="M247.321 125.239C260.89 148.743 267.936 172.932 268.438 192.981C268.943 213.118 262.873 228.556 250.883 235.478C238.894 242.4 222.489 239.938 205.302 229.433C188.19 218.973 170.764 200.777 157.195 177.273C143.625 153.77 136.58 129.581 136.077 109.531C135.573 89.3949 141.643 73.9563 153.632 67.0342C165.621 60.1121 182.027 62.5748 199.213 73.08C216.325 83.5398 233.751 101.736 247.321 125.239Z" stroke="#071655" stroke-width="4"/>
<path d="M215.725 100.995C241.94 108.019 264.026 120.142 278.558 133.964C293.154 147.845 299.778 163.054 296.195 176.427C292.612 189.799 279.271 199.658 259.69 204.382C240.193 209.086 215.005 208.542 188.79 201.517C162.576 194.493 140.49 182.371 125.957 168.549C111.362 154.667 104.737 139.458 108.32 126.086C111.903 112.713 125.245 102.854 144.826 98.1301C164.322 93.4262 189.511 93.9708 215.725 100.995Z" stroke="#071655" stroke-width="4"/>
<path d="M252.52 164.724C245.495 190.939 233.373 213.025 219.551 227.557C205.669 242.153 190.46 248.777 177.088 245.194C163.715 241.611 153.857 228.27 149.132 208.689C144.428 189.192 144.973 164.004 151.997 137.789C159.021 111.575 171.144 89.4887 184.966 74.9563C198.848 60.3609 214.056 53.7361 227.429 57.3193C240.801 60.9024 250.66 74.244 255.385 93.825C260.088 113.321 259.544 138.51 252.52 164.724Z" stroke="#071655" stroke-width="4"/>
<path d="M176.241 106.194C199.745 92.6243 223.934 85.579 243.983 85.0767C264.12 84.5721 279.558 90.6419 286.48 102.631C293.402 114.621 290.94 131.026 280.435 148.212C269.975 165.325 251.779 182.75 228.275 196.32C204.772 209.89 180.583 216.935 160.533 217.437C140.397 217.942 124.958 211.872 118.036 199.883C111.114 187.893 113.577 171.488 124.082 154.302C134.542 137.189 152.738 119.764 176.241 106.194Z" stroke="#071655" stroke-width="4"/>
<path d="M247.321 125.239C260.89 148.743 267.936 172.932 268.438 192.981C268.943 213.118 262.873 228.556 250.883 235.478C238.894 242.4 222.489 239.938 205.302 229.433C188.19 218.973 170.764 200.777 157.195 177.273C143.625 153.77 136.58 129.581 136.077 109.531C135.573 89.3949 141.643 73.9563 153.632 67.0342C165.621 60.1121 182.027 62.5748 199.213 73.08C216.325 83.5398 233.751 101.736 247.321 125.239Z" stroke="#071655" stroke-width="4"/>
<path d="M247.321 125.239C260.89 148.743 267.936 172.932 268.438 192.981C268.943 213.118 262.873 228.556 250.883 235.478C238.894 242.4 222.489 239.938 205.302 229.433C188.19 218.973 170.764 200.777 157.195 177.273C143.625 153.77 136.58 129.581 136.077 109.531C135.573 89.3949 141.643 73.9563 153.632 67.0342C165.621 60.1121 182.027 62.5748 199.213 73.08C216.325 83.5398 233.751 101.736 247.321 125.239Z" stroke="#071655" stroke-width="4"/>
<path d="M215.725 100.995C241.94 108.019 264.026 120.142 278.558 133.964C293.154 147.845 299.778 163.054 296.195 176.427C292.612 189.799 279.271 199.658 259.69 204.382C240.193 209.086 215.005 208.542 188.79 201.517C162.576 194.493 140.49 182.371 125.957 168.549C111.362 154.667 104.737 139.458 108.32 126.086C111.903 112.713 125.245 102.854 144.826 98.1301C164.322 93.4262 189.511 93.9708 215.725 100.995Z" stroke="#071655" stroke-width="4"/>
<path d="M252.52 164.724C245.495 190.939 233.373 213.025 219.551 227.557C205.669 242.153 190.46 248.777 177.088 245.194C163.715 241.611 153.857 228.27 149.132 208.689C144.428 189.192 144.973 164.004 151.997 137.789C159.021 111.575 171.144 89.4887 184.966 74.9563C198.848 60.3609 214.056 53.7361 227.429 57.3193C240.801 60.9024 250.66 74.244 255.385 93.825C260.088 113.321 259.544 138.51 252.52 164.724Z" stroke="#071655" stroke-width="4"/>
<path d="M188.791 100.996C215.005 93.9715 240.194 93.4268 259.69 98.1308C279.271 102.855 292.613 112.714 296.196 126.086C299.779 139.459 293.154 154.668 278.559 168.55C264.026 182.372 241.94 194.494 215.726 201.518C189.511 208.542 164.323 209.087 144.826 204.383C125.245 199.659 111.904 189.8 108.321 176.427C104.738 163.055 111.362 147.846 125.958 133.964C140.49 120.142 162.576 108.02 188.791 100.996Z" stroke="#071655" stroke-width="4"/>
<path d="M252.52 137.789C259.544 164.004 260.089 189.192 255.385 208.689C250.66 228.27 240.802 241.611 227.429 245.194C214.057 248.777 198.848 242.153 184.966 227.557C171.144 213.025 159.022 190.939 151.997 164.724C144.973 138.51 144.429 113.321 149.133 93.825C153.857 74.244 163.716 60.9025 177.088 57.3193C190.461 53.7362 205.669 60.3609 219.551 74.9563C233.373 89.4887 245.496 111.575 252.52 137.789Z" stroke="#071655" stroke-width="4"/>
<path d="M252.52 137.789C259.544 164.004 260.089 189.192 255.385 208.689C250.66 228.27 240.802 241.611 227.429 245.194C214.057 248.777 198.848 242.153 184.966 227.557C171.144 213.025 159.022 190.939 151.997 164.724C144.973 138.51 144.429 113.321 149.133 93.825C153.857 74.244 163.716 60.9025 177.088 57.3193C190.461 53.7362 205.669 60.3609 219.551 74.9563C233.373 89.4887 245.496 111.575 252.52 137.789Z" stroke="#071655" stroke-width="4"/>
<path d="M228.275 106.193C251.778 119.763 269.974 137.189 280.434 154.301C290.939 171.487 293.402 187.893 286.48 199.882C279.558 211.871 264.119 217.941 243.983 217.437C223.933 216.934 199.744 209.889 176.241 196.319C152.737 182.75 134.541 165.324 124.082 148.212C113.576 131.025 111.114 114.62 118.036 102.631C124.958 90.6413 140.396 84.5715 160.533 85.076C180.583 85.5783 204.772 92.6236 228.275 106.193Z" stroke="#071655" stroke-width="4"/>
<path d="M247.321 177.274C233.752 200.777 216.326 218.973 199.214 229.433C182.027 239.938 165.622 242.401 153.633 235.479C141.643 228.556 135.573 213.118 136.078 192.981C136.58 172.932 143.626 148.743 157.195 125.239C170.765 101.736 188.191 83.5399 205.303 73.0801C222.489 62.5749 238.894 60.1122 250.884 67.0343C262.873 73.9565 268.943 89.395 268.439 109.532C267.936 129.581 260.891 153.77 247.321 177.274Z" stroke="#071655" stroke-width="4"/>
<path d="M202.257 99.2224C229.397 99.2224 253.868 105.216 271.482 114.805C289.173 124.437 299.508 137.413 299.508 151.257C299.508 165.101 289.173 178.077 271.482 187.708C253.868 197.298 229.397 203.291 202.257 203.291C175.118 203.291 150.647 197.298 133.032 187.708C115.341 178.077 105.006 165.101 105.006 151.257C105.006 137.413 115.341 124.437 133.032 114.805C150.647 105.216 175.118 99.2224 202.257 99.2224Z" stroke="#071655" stroke-width="4"/>
<path d="M254.291 151.257C254.291 178.396 248.298 202.867 238.708 220.482C229.077 238.173 216.101 248.508 202.256 248.508C188.412 248.508 175.436 238.173 165.805 220.482C156.215 202.867 150.222 178.396 150.222 151.257C150.222 124.117 156.215 99.6463 165.805 82.0317C175.436 64.3407 188.412 54.0054 202.256 54.0054C216.101 54.0054 229.077 64.3407 238.708 82.0317C248.298 99.6463 254.291 124.117 254.291 151.257Z" stroke="#071655" stroke-width="4"/>
<path d="M254.291 151.257C254.291 178.396 248.298 202.867 238.708 220.482C229.077 238.173 216.101 248.508 202.256 248.508C188.412 248.508 175.436 238.173 165.805 220.482C156.215 202.867 150.222 178.396 150.222 151.257C150.222 124.117 156.215 99.6463 165.805 82.0317C175.436 64.3407 188.412 54.0054 202.256 54.0054C216.101 54.0054 229.077 64.3407 238.708 82.0317C248.298 99.6463 254.291 124.117 254.291 151.257Z" stroke="#071655" stroke-width="4"/>
<path d="M239.051 114.464C258.241 133.654 271.307 155.195 276.981 174.432C282.68 193.752 280.813 210.235 271.024 220.024C261.235 229.814 244.751 231.681 225.431 225.982C206.195 220.307 184.654 207.242 165.463 188.051C146.273 168.861 133.207 147.319 127.532 128.083C121.833 108.763 123.701 92.2797 133.49 82.4904C143.279 72.701 159.763 70.8338 179.083 76.5329C198.319 82.2073 219.86 95.2732 239.051 114.464Z" stroke="#071655" stroke-width="4"/>
<path d="M239.052 188.051C219.861 207.241 198.32 220.307 179.083 225.981C159.764 231.68 143.28 229.813 133.491 220.024C123.701 210.235 121.834 193.751 127.533 174.431C133.208 155.195 146.274 133.654 165.464 114.463C184.654 95.2727 206.196 82.2069 225.432 76.5324C244.752 70.8334 261.235 72.7006 271.025 82.4899C280.814 92.2792 282.681 108.763 276.982 128.083C271.308 147.319 258.242 168.86 239.052 188.051Z" stroke="#071655" stroke-width="4"/>
<path d="M202.257 99.2224C229.397 99.2224 253.868 105.216 271.482 114.805C289.173 124.437 299.508 137.413 299.508 151.257C299.508 165.101 289.173 178.077 271.482 187.708C253.868 197.298 229.397 203.291 202.257 203.291C175.118 203.291 150.647 197.298 133.032 187.708C115.341 178.077 105.006 165.101 105.006 151.257C105.006 137.413 115.341 124.437 133.032 114.805C150.647 105.216 175.118 99.2224 202.257 99.2224Z" stroke="#071655" stroke-width="4"/>
<path d="M254.291 151.257C254.291 178.396 248.298 202.867 238.708 220.482C229.077 238.173 216.101 248.508 202.256 248.508C188.412 248.508 175.436 238.173 165.805 220.482C156.215 202.867 150.222 178.396 150.222 151.257C150.222 124.117 156.215 99.6463 165.805 82.0317C175.436 64.3407 188.412 54.0054 202.256 54.0054C216.101 54.0054 229.077 64.3407 238.708 82.0317C248.298 99.6463 254.291 124.117 254.291 151.257Z" stroke="#071655" stroke-width="4"/>
<path d="M254.291 151.257C254.291 178.396 248.298 202.867 238.708 220.482C229.077 238.173 216.101 248.508 202.256 248.508C188.412 248.508 175.436 238.173 165.805 220.482C156.215 202.867 150.222 178.396 150.222 151.257C150.222 124.117 156.215 99.6463 165.805 82.0317C175.436 64.3407 188.412 54.0054 202.256 54.0054C216.101 54.0054 229.077 64.3407 238.708 82.0317C248.298 99.6463 254.291 124.117 254.291 151.257Z" stroke="#071655" stroke-width="4"/>
<path d="M239.051 114.464C258.241 133.654 271.307 155.195 276.981 174.432C282.68 193.752 280.813 210.235 271.024 220.024C261.235 229.814 244.751 231.681 225.431 225.982C206.195 220.307 184.654 207.242 165.463 188.051C146.273 168.861 133.207 147.319 127.532 128.083C121.833 108.763 123.701 92.2797 133.49 82.4904C143.279 72.701 159.763 70.8338 179.083 76.5329C198.319 82.2073 219.86 95.2732 239.051 114.464Z" stroke="#071655" stroke-width="4"/>
<path d="M239.052 188.051C219.861 207.241 198.32 220.307 179.083 225.981C159.764 231.68 143.28 229.813 133.491 220.024C123.701 210.235 121.834 193.751 127.533 174.431C133.208 155.195 146.274 133.654 165.464 114.463C184.654 95.2727 206.196 82.2069 225.432 76.5324C244.752 70.8334 261.235 72.7006 271.025 82.4899C280.814 92.2792 282.681 108.763 276.982 128.083C271.308 147.319 258.242 168.86 239.052 188.051Z" stroke="#071655" stroke-width="4"/>
<path d="M202.257 99.2224C229.397 99.2224 253.868 105.216 271.482 114.805C289.173 124.437 299.508 137.413 299.508 151.257C299.508 165.101 289.173 178.077 271.482 187.708C253.868 197.298 229.397 203.291 202.257 203.291C175.118 203.291 150.647 197.298 133.032 187.708C115.341 178.077 105.006 165.101 105.006 151.257C105.006 137.413 115.341 124.437 133.032 114.805C150.647 105.216 175.118 99.2224 202.257 99.2224Z" stroke="#071655" stroke-width="4"/>
<path d="M254.291 151.257C254.291 178.396 248.298 202.867 238.708 220.482C229.077 238.173 216.101 248.508 202.256 248.508C188.412 248.508 175.436 238.173 165.805 220.482C156.215 202.867 150.222 178.396 150.222 151.257C150.222 124.117 156.215 99.6463 165.805 82.0317C175.436 64.3407 188.412 54.0054 202.256 54.0054C216.101 54.0054 229.077 64.3407 238.708 82.0317C248.298 99.6463 254.291 124.117 254.291 151.257Z" stroke="#071655" stroke-width="4"/>
<path d="M254.291 151.257C254.291 178.396 248.298 202.867 238.708 220.482C229.077 238.173 216.101 248.508 202.256 248.508C188.412 248.508 175.436 238.173 165.805 220.482C156.215 202.867 150.222 178.396 150.222 151.257C150.222 124.117 156.215 99.6463 165.805 82.0317C175.436 64.3407 188.412 54.0054 202.256 54.0054C216.101 54.0054 229.077 64.3407 238.708 82.0317C248.298 99.6463 254.291 124.117 254.291 151.257Z" stroke="#071655" stroke-width="4"/>
<path d="M239.051 114.464C258.241 133.654 271.307 155.195 276.981 174.432C282.68 193.752 280.813 210.235 271.024 220.024C261.235 229.814 244.751 231.681 225.431 225.982C206.195 220.307 184.654 207.242 165.463 188.051C146.273 168.861 133.207 147.319 127.532 128.083C121.833 108.763 123.701 92.2797 133.49 82.4904C143.279 72.701 159.763 70.8338 179.083 76.5329C198.319 82.2073 219.86 95.2732 239.051 114.464Z" stroke="#071655" stroke-width="4"/>
<path d="M239.052 188.051C219.861 207.241 198.32 220.307 179.083 225.981C159.764 231.68 143.28 229.813 133.491 220.024C123.701 210.235 121.834 193.751 127.533 174.431C133.208 155.195 146.274 133.654 165.464 114.463C184.654 95.2727 206.196 82.2069 225.432 76.5324C244.752 70.8334 261.235 72.7006 271.025 82.4899C280.814 92.2792 282.681 108.763 276.982 128.083C271.308 147.319 258.242 168.86 239.052 188.051Z" stroke="#071655" stroke-width="4"/>
<path d="M239.051 114.463C258.242 133.653 271.307 155.194 276.982 174.431C282.681 193.751 280.814 210.234 271.024 220.023C261.235 229.813 244.752 231.68 225.432 225.981C206.195 220.307 184.654 207.241 165.464 188.05C146.273 168.86 133.207 147.318 127.533 128.082C121.834 108.762 123.701 92.2787 133.49 82.4894C143.28 72.7001 159.763 70.8329 179.083 76.5319C198.319 82.2064 219.861 95.2722 239.051 114.463Z" stroke="#071655" stroke-width="4"/>
<path d="M239.051 188.051C219.861 207.241 198.319 220.307 179.083 225.981C159.763 231.681 143.28 229.813 133.49 220.024C123.701 210.235 121.834 193.751 127.533 174.431C133.207 155.195 146.273 133.654 165.463 114.463C184.654 95.2727 206.195 82.2069 225.432 76.5324C244.751 70.8334 261.235 72.7006 271.024 82.4899C280.814 92.2792 282.681 108.763 276.982 128.083C271.307 147.319 258.241 168.86 239.051 188.051Z" stroke="#071655" stroke-width="4"/>
<path d="M239.051 188.051C219.861 207.241 198.319 220.307 179.083 225.981C159.763 231.681 143.28 229.813 133.49 220.024C123.701 210.235 121.834 193.751 127.533 174.431C133.207 155.195 146.273 133.654 165.463 114.463C184.654 95.2727 206.195 82.2069 225.432 76.5324C244.751 70.8334 261.235 72.7006 271.024 82.4899C280.814 92.2792 282.681 108.763 276.982 128.083C271.307 147.319 258.241 168.86 239.051 188.051Z" stroke="#071655" stroke-width="4"/>
<path d="M254.292 151.257C254.292 178.396 248.299 202.867 238.709 220.482C229.078 238.173 216.102 248.508 202.257 248.508C188.413 248.508 175.437 238.173 165.806 220.482C156.216 202.867 150.223 178.396 150.223 151.257C150.223 124.117 156.216 99.6462 165.806 82.0317C175.437 64.3407 188.413 54.0054 202.257 54.0054C216.102 54.0054 229.078 64.3407 238.709 82.0317C248.299 99.6462 254.292 124.117 254.292 151.257Z" stroke="#071655" stroke-width="4"/>
<path d="M202.258 203.291C175.118 203.291 150.647 197.298 133.033 187.708C115.342 178.077 105.006 165.101 105.006 151.257C105.006 137.413 115.342 124.437 133.033 114.805C150.647 105.216 175.118 99.2227 202.258 99.2227C229.397 99.2227 253.868 105.216 271.482 114.805C289.174 124.437 299.509 137.413 299.509 151.257C299.509 165.101 289.174 178.077 271.482 187.708C253.868 197.298 229.397 203.291 202.258 203.291Z" stroke="#071655" stroke-width="4"/>
</g>
</svg>
