<svg width="32" height="32" viewBox="0 0 32 32" fill="none" xmlns="http://www.w3.org/2000/svg">
<rect width="32" height="32" rx="16" fill="white"/>
<path d="M22.3999 22.4002V17.7122C22.3999 15.4082 21.9039 13.6482 19.2159 13.6482C17.9199 13.6482 17.0559 14.3522 16.7039 15.0242H16.6719V13.8562H14.1279V22.4002H16.7839V18.1602C16.7839 17.0402 16.9919 15.9682 18.3679 15.9682C19.7279 15.9682 19.7439 17.2322 19.7439 18.2242V22.3842H22.3999V22.4002Z" fill="#003E51"/>
<path d="M22.3999 22.4002V17.7122C22.3999 15.4082 21.9039 13.6482 19.2159 13.6482C17.9199 13.6482 17.0559 14.3522 16.7039 15.0242H16.6719V13.8562H14.1279V22.4002H16.7839V18.1602C16.7839 17.0402 16.9919 15.9682 18.3679 15.9682C19.7279 15.9682 19.7439 17.2322 19.7439 18.2242V22.3842H22.3999V22.4002Z" fill="black" fill-opacity="0.2"/>
<path d="M9.80762 13.8562H12.4636V22.4002H9.80762V13.8562Z" fill="#003E51"/>
<path d="M9.80762 13.8562H12.4636V22.4002H9.80762V13.8562Z" fill="black" fill-opacity="0.2"/>
<path d="M11.1356 9.6001C10.2876 9.6001 9.59961 10.2881 9.59961 11.1361C9.59961 11.9841 10.2876 12.6881 11.1356 12.6881C11.9836 12.6881 12.6716 11.9841 12.6716 11.1361C12.6716 10.2881 11.9836 9.6001 11.1356 9.6001Z" fill="#003E51"/>
<path d="M11.1356 9.6001C10.2876 9.6001 9.59961 10.2881 9.59961 11.1361C9.59961 11.9841 10.2876 12.6881 11.1356 12.6881C11.9836 12.6881 12.6716 11.9841 12.6716 11.1361C12.6716 10.2881 11.9836 9.6001 11.1356 9.6001Z" fill="black" fill-opacity="0.2"/>
</svg>
