<svg width="225" height="88" viewBox="0 0 225 88" fill="none" xmlns="http://www.w3.org/2000/svg">
<rect x="0.873779" y="0.5" width="223" height="87" rx="7.5" fill="white" stroke="#E6E6E6"/>
<path d="M73.7818 62V57.888H72.5338V56.864H73.7818V55.552H72.5338V54.528H73.7818V50.576H75.4458L76.9658 54.528H78.8538V50.576H80.1178V54.528H81.3658V55.552H80.1178V56.864H81.3658V57.888H80.1178V62H78.4378L76.9178 57.888H75.0298V62H73.7818ZM75.0298 56.864H76.5338L76.0538 55.552H74.9978L75.0298 56.864ZM78.8538 59.744H78.9178L78.8698 57.888H78.1978L78.8538 59.744ZM74.9978 54.528H75.6698L74.9978 52.544H74.9338L74.9978 54.528ZM77.8138 56.864H78.8858L78.8538 55.552H77.3338L77.8138 56.864ZM83.498 59.52C84.522 58.6347 85.3274 57.9093 85.914 57.344C86.5114 56.768 87.0074 56.1707 87.402 55.552C87.7967 54.9333 87.994 54.3147 87.994 53.696C87.994 53.056 87.8394 52.5547 87.53 52.192C87.2314 51.8293 86.7567 51.648 86.106 51.648C85.4767 51.648 84.986 51.8507 84.634 52.256C84.2927 52.6507 84.1114 53.184 84.09 53.856H82.33C82.362 52.64 82.7247 51.712 83.418 51.072C84.122 50.4213 85.0127 50.096 86.09 50.096C87.2527 50.096 88.1594 50.416 88.81 51.056C89.4714 51.696 89.802 52.5493 89.802 53.616C89.802 54.384 89.6047 55.1253 89.21 55.84C88.826 56.544 88.362 57.1787 87.818 57.744C87.2847 58.2987 86.602 58.944 85.77 59.68L85.05 60.32H90.122V61.84H82.346V60.512L83.498 59.52ZM99.2444 51.904H93.8844V55.088C94.1084 54.7893 94.4391 54.5387 94.8764 54.336C95.3244 54.1333 95.7991 54.032 96.3004 54.032C97.1964 54.032 97.9217 54.224 98.4764 54.608C99.0417 54.992 99.4417 55.4773 99.6764 56.064C99.9217 56.6507 100.044 57.2693 100.044 57.92C100.044 58.7093 99.8897 59.4133 99.5804 60.032C99.2817 60.64 98.8284 61.12 98.2204 61.472C97.6231 61.824 96.8871 62 96.0124 62C94.8497 62 93.9164 61.712 93.2124 61.136C92.5084 60.56 92.0871 59.7973 91.9484 58.848H93.7244C93.8417 59.3493 94.1031 59.7493 94.5084 60.048C94.9137 60.336 95.4204 60.48 96.0284 60.48C96.7857 60.48 97.3511 60.2507 97.7244 59.792C98.1084 59.3333 98.3004 58.7253 98.3004 57.968C98.3004 57.2 98.1084 56.6133 97.7244 56.208C97.3404 55.792 96.7751 55.584 96.0284 55.584C95.5057 55.584 95.0631 55.7173 94.7004 55.984C94.3484 56.24 94.0924 56.592 93.9324 57.04H92.2044V50.304H99.2444V51.904ZM101.943 56.016C101.943 54.1707 102.252 52.7307 102.871 51.696C103.5 50.6507 104.578 50.128 106.103 50.128C107.628 50.128 108.7 50.6507 109.319 51.696C109.948 52.7307 110.263 54.1707 110.263 56.016C110.263 57.8827 109.948 59.344 109.319 60.4C108.7 61.4453 107.628 61.968 106.103 61.968C104.578 61.968 103.5 61.4453 102.871 60.4C102.252 59.344 101.943 57.8827 101.943 56.016ZM108.471 56.016C108.471 55.152 108.412 54.4213 108.295 53.824C108.188 53.2267 107.964 52.7413 107.623 52.368C107.282 51.984 106.775 51.792 106.103 51.792C105.431 51.792 104.924 51.984 104.583 52.368C104.242 52.7413 104.012 53.2267 103.895 53.824C103.788 54.4213 103.735 55.152 103.735 56.016C103.735 56.912 103.788 57.664 103.895 58.272C104.002 58.88 104.226 59.3707 104.567 59.744C104.919 60.1173 105.431 60.304 106.103 60.304C106.775 60.304 107.282 60.1173 107.623 59.744C107.975 59.3707 108.204 58.88 108.311 58.272C108.418 57.664 108.471 56.912 108.471 56.016ZM114.433 59.808L112.497 64.224H111.313L112.449 59.808H114.433ZM115.787 56.016C115.787 54.1707 116.096 52.7307 116.715 51.696C117.344 50.6507 118.422 50.128 119.947 50.128C121.472 50.128 122.544 50.6507 123.163 51.696C123.792 52.7307 124.107 54.1707 124.107 56.016C124.107 57.8827 123.792 59.344 123.163 60.4C122.544 61.4453 121.472 61.968 119.947 61.968C118.422 61.968 117.344 61.4453 116.715 60.4C116.096 59.344 115.787 57.8827 115.787 56.016ZM122.315 56.016C122.315 55.152 122.256 54.4213 122.139 53.824C122.032 53.2267 121.808 52.7413 121.467 52.368C121.126 51.984 120.619 51.792 119.947 51.792C119.275 51.792 118.768 51.984 118.427 52.368C118.086 52.7413 117.856 53.2267 117.739 53.824C117.632 54.4213 117.579 55.152 117.579 56.016C117.579 56.912 117.632 57.664 117.739 58.272C117.846 58.88 118.07 59.3707 118.411 59.744C118.763 60.1173 119.275 60.304 119.947 60.304C120.619 60.304 121.126 60.1173 121.467 59.744C121.819 59.3707 122.048 58.88 122.155 58.272C122.262 57.664 122.315 56.912 122.315 56.016ZM126.037 56.016C126.037 54.1707 126.346 52.7307 126.965 51.696C127.594 50.6507 128.672 50.128 130.197 50.128C131.722 50.128 132.794 50.6507 133.413 51.696C134.042 52.7307 134.357 54.1707 134.357 56.016C134.357 57.8827 134.042 59.344 133.413 60.4C132.794 61.4453 131.722 61.968 130.197 61.968C128.672 61.968 127.594 61.4453 126.965 60.4C126.346 59.344 126.037 57.8827 126.037 56.016ZM132.565 56.016C132.565 55.152 132.506 54.4213 132.389 53.824C132.282 53.2267 132.058 52.7413 131.717 52.368C131.376 51.984 130.869 51.792 130.197 51.792C129.525 51.792 129.018 51.984 128.677 52.368C128.336 52.7413 128.106 53.2267 127.989 53.824C127.882 54.4213 127.829 55.152 127.829 56.016C127.829 56.912 127.882 57.664 127.989 58.272C128.096 58.88 128.32 59.3707 128.661 59.744C129.013 60.1173 129.525 60.304 130.197 60.304C130.869 60.304 131.376 60.1173 131.717 59.744C132.069 59.3707 132.298 58.88 132.405 58.272C132.512 57.664 132.565 56.912 132.565 56.016ZM136.287 56.016C136.287 54.1707 136.596 52.7307 137.215 51.696C137.844 50.6507 138.922 50.128 140.447 50.128C141.972 50.128 143.044 50.6507 143.663 51.696C144.292 52.7307 144.607 54.1707 144.607 56.016C144.607 57.8827 144.292 59.344 143.663 60.4C143.044 61.4453 141.972 61.968 140.447 61.968C138.922 61.968 137.844 61.4453 137.215 60.4C136.596 59.344 136.287 57.8827 136.287 56.016ZM142.815 56.016C142.815 55.152 142.756 54.4213 142.639 53.824C142.532 53.2267 142.308 52.7413 141.967 52.368C141.626 51.984 141.119 51.792 140.447 51.792C139.775 51.792 139.268 51.984 138.927 52.368C138.586 52.7413 138.356 53.2267 138.239 53.824C138.132 54.4213 138.079 55.152 138.079 56.016C138.079 56.912 138.132 57.664 138.239 58.272C138.346 58.88 138.57 59.3707 138.911 59.744C139.263 60.1173 139.775 60.304 140.447 60.304C141.119 60.304 141.626 60.1173 141.967 59.744C142.319 59.3707 142.548 58.88 142.655 58.272C142.762 57.664 142.815 56.912 142.815 56.016Z" fill="#052A44"/>
<path d="M78.3018 30.296H74.8098L74.2098 32H72.7818L75.7698 23.648H77.3538L80.3418 32H78.9018L78.3018 30.296ZM77.9178 29.18L76.5618 25.304L75.1938 29.18H77.9178ZM84.197 30.776L86.069 25.388H87.521L85.001 32H83.369L80.861 25.388H82.325L84.197 30.776ZM88.099 28.664C88.099 28 88.235 27.412 88.507 26.9C88.787 26.388 89.163 25.992 89.635 25.712C90.115 25.424 90.643 25.28 91.219 25.28C91.739 25.28 92.191 25.384 92.575 25.592C92.967 25.792 93.279 26.044 93.511 26.348V25.388H94.891V32H93.511V31.016C93.279 31.328 92.963 31.588 92.563 31.796C92.163 32.004 91.707 32.108 91.195 32.108C90.627 32.108 90.107 31.964 89.635 31.676C89.163 31.38 88.787 30.972 88.507 30.452C88.235 29.924 88.099 29.328 88.099 28.664ZM93.511 28.688C93.511 28.232 93.415 27.836 93.223 27.5C93.039 27.164 92.795 26.908 92.491 26.732C92.187 26.556 91.859 26.468 91.507 26.468C91.155 26.468 90.827 26.556 90.523 26.732C90.219 26.9 89.971 27.152 89.779 27.488C89.595 27.816 89.503 28.208 89.503 28.664C89.503 29.12 89.595 29.52 89.779 29.864C89.971 30.208 90.219 30.472 90.523 30.656C90.835 30.832 91.163 30.92 91.507 30.92C91.859 30.92 92.187 30.832 92.491 30.656C92.795 30.48 93.039 30.224 93.223 29.888C93.415 29.544 93.511 29.144 93.511 28.688ZM97.3838 24.512C97.1358 24.512 96.9278 24.428 96.7598 24.26C96.5918 24.092 96.5078 23.884 96.5078 23.636C96.5078 23.388 96.5918 23.18 96.7598 23.012C96.9278 22.844 97.1358 22.76 97.3838 22.76C97.6238 22.76 97.8278 22.844 97.9958 23.012C98.1638 23.18 98.2478 23.388 98.2478 23.636C98.2478 23.884 98.1638 24.092 97.9958 24.26C97.8278 24.428 97.6238 24.512 97.3838 24.512ZM98.0558 25.388V32H96.6878V25.388H98.0558ZM101.22 23.12V32H99.8519V23.12H101.22ZM102.56 28.664C102.56 28 102.696 27.412 102.968 26.9C103.248 26.388 103.624 25.992 104.096 25.712C104.576 25.424 105.104 25.28 105.68 25.28C106.2 25.28 106.652 25.384 107.036 25.592C107.428 25.792 107.74 26.044 107.972 26.348V25.388H109.352V32H107.972V31.016C107.74 31.328 107.424 31.588 107.024 31.796C106.624 32.004 106.168 32.108 105.656 32.108C105.088 32.108 104.568 31.964 104.096 31.676C103.624 31.38 103.248 30.972 102.968 30.452C102.696 29.924 102.56 29.328 102.56 28.664ZM107.972 28.688C107.972 28.232 107.876 27.836 107.684 27.5C107.5 27.164 107.256 26.908 106.952 26.732C106.648 26.556 106.32 26.468 105.968 26.468C105.616 26.468 105.288 26.556 104.984 26.732C104.68 26.9 104.432 27.152 104.24 27.488C104.056 27.816 103.964 28.208 103.964 28.664C103.964 29.12 104.056 29.52 104.24 29.864C104.432 30.208 104.68 30.472 104.984 30.656C105.296 30.832 105.624 30.92 105.968 30.92C106.32 30.92 106.648 30.832 106.952 30.656C107.256 30.48 107.5 30.224 107.684 29.888C107.876 29.544 107.972 29.144 107.972 28.688ZM112.517 26.372C112.749 26.052 113.065 25.792 113.465 25.592C113.873 25.384 114.325 25.28 114.821 25.28C115.405 25.28 115.933 25.42 116.405 25.7C116.877 25.98 117.249 26.38 117.521 26.9C117.793 27.412 117.929 28 117.929 28.664C117.929 29.328 117.793 29.924 117.521 30.452C117.249 30.972 116.873 31.38 116.393 31.676C115.921 31.964 115.397 32.108 114.821 32.108C114.309 32.108 113.853 32.008 113.453 31.808C113.061 31.608 112.749 31.352 112.517 31.04V32H111.149V23.12H112.517V26.372ZM116.537 28.664C116.537 28.208 116.441 27.816 116.249 27.488C116.065 27.152 115.817 26.9 115.505 26.732C115.201 26.556 114.873 26.468 114.521 26.468C114.177 26.468 113.849 26.556 113.537 26.732C113.233 26.908 112.985 27.164 112.793 27.5C112.609 27.836 112.517 28.232 112.517 28.688C112.517 29.144 112.609 29.544 112.793 29.888C112.985 30.224 113.233 30.48 113.537 30.656C113.849 30.832 114.177 30.92 114.521 30.92C114.873 30.92 115.201 30.832 115.505 30.656C115.817 30.472 116.065 30.208 116.249 29.864C116.441 29.52 116.537 29.12 116.537 28.664ZM120.65 23.12V32H119.282V23.12H120.65ZM128.506 28.532C128.506 28.78 128.49 29.004 128.458 29.204H123.406C123.446 29.732 123.642 30.156 123.994 30.476C124.346 30.796 124.778 30.956 125.29 30.956C126.026 30.956 126.546 30.648 126.85 30.032H128.326C128.126 30.64 127.762 31.14 127.234 31.532C126.714 31.916 126.066 32.108 125.29 32.108C124.658 32.108 124.09 31.968 123.586 31.688C123.09 31.4 122.698 31 122.41 30.488C122.13 29.968 121.99 29.368 121.99 28.688C121.99 28.008 122.126 27.412 122.398 26.9C122.678 26.38 123.066 25.98 123.562 25.7C124.066 25.42 124.642 25.28 125.29 25.28C125.914 25.28 126.47 25.416 126.958 25.688C127.446 25.96 127.826 26.344 128.098 26.84C128.37 27.328 128.506 27.892 128.506 28.532ZM127.078 28.1C127.07 27.596 126.89 27.192 126.538 26.888C126.186 26.584 125.75 26.432 125.23 26.432C124.758 26.432 124.354 26.584 124.018 26.888C123.682 27.184 123.482 27.588 123.418 28.1H127.078ZM134.337 30.896H137.157V32H132.969V23.66H134.337V30.896ZM141.169 32.108C140.545 32.108 139.981 31.968 139.477 31.688C138.973 31.4 138.577 31 138.289 30.488C138.001 29.968 137.857 29.368 137.857 28.688C137.857 28.016 138.005 27.42 138.301 26.9C138.597 26.38 139.001 25.98 139.513 25.7C140.025 25.42 140.597 25.28 141.229 25.28C141.861 25.28 142.433 25.42 142.945 25.7C143.457 25.98 143.861 26.38 144.157 26.9C144.453 27.42 144.601 28.016 144.601 28.688C144.601 29.36 144.449 29.956 144.145 30.476C143.841 30.996 143.425 31.4 142.897 31.688C142.377 31.968 141.801 32.108 141.169 32.108ZM141.169 30.92C141.521 30.92 141.849 30.836 142.153 30.668C142.465 30.5 142.717 30.248 142.909 29.912C143.101 29.576 143.197 29.168 143.197 28.688C143.197 28.208 143.105 27.804 142.921 27.476C142.737 27.14 142.493 26.888 142.189 26.72C141.885 26.552 141.557 26.468 141.205 26.468C140.853 26.468 140.525 26.552 140.221 26.72C139.925 26.888 139.689 27.14 139.513 27.476C139.337 27.804 139.249 28.208 139.249 28.688C139.249 29.4 139.429 29.952 139.789 30.344C140.157 30.728 140.617 30.92 141.169 30.92ZM145.497 28.664C145.497 28 145.633 27.412 145.905 26.9C146.185 26.388 146.561 25.992 147.033 25.712C147.513 25.424 148.041 25.28 148.617 25.28C149.137 25.28 149.589 25.384 149.973 25.592C150.365 25.792 150.677 26.044 150.909 26.348V25.388H152.289V32H150.909V31.016C150.677 31.328 150.361 31.588 149.961 31.796C149.561 32.004 149.105 32.108 148.593 32.108C148.025 32.108 147.505 31.964 147.033 31.676C146.561 31.38 146.185 30.972 145.905 30.452C145.633 29.924 145.497 29.328 145.497 28.664ZM150.909 28.688C150.909 28.232 150.813 27.836 150.621 27.5C150.437 27.164 150.193 26.908 149.889 26.732C149.585 26.556 149.257 26.468 148.905 26.468C148.553 26.468 148.225 26.556 147.921 26.732C147.617 26.9 147.369 27.152 147.177 27.488C146.993 27.816 146.901 28.208 146.901 28.664C146.901 29.12 146.993 29.52 147.177 29.864C147.369 30.208 147.617 30.472 147.921 30.656C148.233 30.832 148.561 30.92 148.905 30.92C149.257 30.92 149.585 30.832 149.889 30.656C150.193 30.48 150.437 30.224 150.621 29.888C150.813 29.544 150.909 29.144 150.909 28.688ZM157.422 25.28C157.942 25.28 158.406 25.388 158.814 25.604C159.23 25.82 159.554 26.14 159.786 26.564C160.018 26.988 160.134 27.5 160.134 28.1V32H158.778V28.304C158.778 27.712 158.63 27.26 158.334 26.948C158.038 26.628 157.634 26.468 157.122 26.468C156.61 26.468 156.202 26.628 155.898 26.948C155.602 27.26 155.454 27.712 155.454 28.304V32H154.086V25.388H155.454V26.144C155.678 25.872 155.962 25.66 156.306 25.508C156.658 25.356 157.03 25.28 157.422 25.28ZM164.54 28.664C164.54 28 164.676 27.412 164.948 26.9C165.228 26.388 165.604 25.992 166.076 25.712C166.556 25.424 167.084 25.28 167.66 25.28C168.18 25.28 168.632 25.384 169.016 25.592C169.408 25.792 169.72 26.044 169.952 26.348V25.388H171.332V32H169.952V31.016C169.72 31.328 169.404 31.588 169.004 31.796C168.604 32.004 168.148 32.108 167.636 32.108C167.068 32.108 166.548 31.964 166.076 31.676C165.604 31.38 165.228 30.972 164.948 30.452C164.676 29.924 164.54 29.328 164.54 28.664ZM169.952 28.688C169.952 28.232 169.856 27.836 169.664 27.5C169.48 27.164 169.236 26.908 168.932 26.732C168.628 26.556 168.3 26.468 167.948 26.468C167.596 26.468 167.268 26.556 166.964 26.732C166.66 26.9 166.412 27.152 166.22 27.488C166.036 27.816 165.944 28.208 165.944 28.664C165.944 29.12 166.036 29.52 166.22 29.864C166.412 30.208 166.66 30.472 166.964 30.656C167.276 30.832 167.604 30.92 167.948 30.92C168.3 30.92 168.628 30.832 168.932 30.656C169.236 30.48 169.48 30.224 169.664 29.888C169.856 29.544 169.952 29.144 169.952 28.688ZM181.133 25.28C181.653 25.28 182.117 25.388 182.525 25.604C182.941 25.82 183.265 26.14 183.497 26.564C183.737 26.988 183.857 27.5 183.857 28.1V32H182.501V28.304C182.501 27.712 182.353 27.26 182.057 26.948C181.761 26.628 181.357 26.468 180.845 26.468C180.333 26.468 179.925 26.628 179.621 26.948C179.325 27.26 179.177 27.712 179.177 28.304V32H177.821V28.304C177.821 27.712 177.673 27.26 177.377 26.948C177.081 26.628 176.677 26.468 176.165 26.468C175.653 26.468 175.245 26.628 174.941 26.948C174.645 27.26 174.497 27.712 174.497 28.304V32H173.129V25.388H174.497V26.144C174.721 25.872 175.005 25.66 175.349 25.508C175.693 25.356 176.061 25.28 176.453 25.28C176.981 25.28 177.453 25.392 177.869 25.616C178.285 25.84 178.605 26.164 178.829 26.588C179.029 26.188 179.341 25.872 179.765 25.64C180.189 25.4 180.645 25.28 181.133 25.28ZM188.466 32.108C187.842 32.108 187.278 31.968 186.774 31.688C186.27 31.4 185.874 31 185.586 30.488C185.298 29.968 185.154 29.368 185.154 28.688C185.154 28.016 185.302 27.42 185.598 26.9C185.894 26.38 186.298 25.98 186.81 25.7C187.322 25.42 187.894 25.28 188.526 25.28C189.158 25.28 189.73 25.42 190.242 25.7C190.754 25.98 191.158 26.38 191.454 26.9C191.75 27.42 191.898 28.016 191.898 28.688C191.898 29.36 191.746 29.956 191.442 30.476C191.138 30.996 190.722 31.4 190.194 31.688C189.674 31.968 189.098 32.108 188.466 32.108ZM188.466 30.92C188.818 30.92 189.146 30.836 189.45 30.668C189.762 30.5 190.014 30.248 190.206 29.912C190.398 29.576 190.494 29.168 190.494 28.688C190.494 28.208 190.402 27.804 190.218 27.476C190.034 27.14 189.79 26.888 189.486 26.72C189.182 26.552 188.854 26.468 188.502 26.468C188.15 26.468 187.822 26.552 187.518 26.72C187.222 26.888 186.986 27.14 186.81 27.476C186.634 27.804 186.546 28.208 186.546 28.688C186.546 29.4 186.726 29.952 187.086 30.344C187.454 30.728 187.914 30.92 188.466 30.92ZM199.238 25.388V32H197.87V31.22C197.654 31.492 197.37 31.708 197.018 31.868C196.674 32.02 196.306 32.096 195.914 32.096C195.394 32.096 194.926 31.988 194.51 31.772C194.102 31.556 193.778 31.236 193.538 30.812C193.306 30.388 193.19 29.876 193.19 29.276V25.388H194.546V29.072C194.546 29.664 194.694 30.12 194.99 30.44C195.286 30.752 195.69 30.908 196.202 30.908C196.714 30.908 197.118 30.752 197.414 30.44C197.718 30.12 197.87 29.664 197.87 29.072V25.388H199.238ZM204.379 25.28C204.899 25.28 205.363 25.388 205.771 25.604C206.187 25.82 206.511 26.14 206.743 26.564C206.975 26.988 207.091 27.5 207.091 28.1V32H205.735V28.304C205.735 27.712 205.587 27.26 205.291 26.948C204.995 26.628 204.591 26.468 204.079 26.468C203.567 26.468 203.159 26.628 202.855 26.948C202.559 27.26 202.411 27.712 202.411 28.304V32H201.043V25.388H202.411V26.144C202.635 25.872 202.919 25.66 203.263 25.508C203.615 25.356 203.987 25.28 204.379 25.28ZM210.432 26.504V30.164C210.432 30.412 210.488 30.592 210.6 30.704C210.72 30.808 210.92 30.86 211.2 30.86H212.04V32H210.96C210.344 32 209.872 31.856 209.544 31.568C209.216 31.28 209.052 30.812 209.052 30.164V26.504H208.272V25.388H209.052V23.744H210.432V25.388H212.04V26.504H210.432Z" fill="#626262"/>
<rect opacity="0.1" x="16.3738" y="24" width="40" height="40" rx="8" fill="#534DE5"/>
<path fill-rule="evenodd" clip-rule="evenodd" d="M29.6667 43.2929L31.081 44.7071L36.3739 39.4142L41.6667 44.7071L43.081 43.2929L36.3739 36.5858L29.6667 43.2929ZM31.081 49.7071L36.3739 44.4142L41.6667 49.7071L43.081 48.2929L36.3739 41.5858L29.6667 48.2929L31.081 49.7071Z" fill="#052A44"/>
</svg>
