<svg width="720" height="1024" viewBox="0 0 720 1024" fill="none" xmlns="http://www.w3.org/2000/svg">
<rect width="720" height="1024" fill="white"/>
<path d="M112.819 397.032C168.347 349.193 197.286 383.742 246.906 304.373C286.355 241.274 327.965 232.22 459.023 263.36C615.023 300.425 636.108 386.44 647.282 449.31C658.457 512.18 631.131 590.728 503.23 647.373C443.191 673.964 182.835 709.668 102.626 606.112C51.8027 540.493 64.3359 438.803 112.819 397.032Z" fill="#EEF1FD"/>
<path d="M475.808 328.815H489.576V315.011H475.808V328.815Z" fill="#F8FBFF"/>
<path d="M475.808 349.196H489.576V335.393H475.808V349.196Z" fill="#F8FBFF"/>
<path d="M475.808 369.578H489.576V355.774H475.808V369.578Z" fill="#F8FBFF"/>
<path d="M475.808 397.581H489.576V383.778H475.808V397.581Z" fill="#F8FBFF"/>
<path d="M475.808 420.708H489.576V406.904H475.808V420.708Z" fill="#F8FBFF"/>
<path d="M414.113 276.473H427.882V262.67H414.113V276.473Z" fill="#F8FBFF"/>
<path d="M414.113 296.855H427.882V283.051H414.113V296.855Z" fill="#F8FBFF"/>
<path d="M414.113 317.236H427.882V303.433H414.113V317.236Z" fill="#F8FBFF"/>
<path d="M414.113 345.244H427.882V331.44H414.113V345.244Z" fill="#F8FBFF"/>
<path d="M414.113 368.37H427.882V354.567H414.113V368.37Z" fill="#F8FBFF"/>
<path d="M455.243 295.139H469.011V281.335H455.243V295.139Z" fill="#F8FBFF"/>
<path d="M455.243 315.52H469.011V301.717H455.243V315.52Z" fill="#F8FBFF"/>
<path d="M455.243 335.902H469.011V322.099H455.243V335.902Z" fill="#F8FBFF"/>
<path d="M455.243 363.905H469.011V350.102H455.243V363.905Z" fill="#F8FBFF"/>
<path d="M455.243 387.032H469.011V373.228H455.243V387.032Z" fill="#F8FBFF"/>
<path d="M434.678 350.136H448.447V336.332H434.678V350.136Z" fill="#F8FBFF"/>
<path d="M434.678 324.097H448.447V310.293H434.678V324.097Z" fill="#F8FBFF"/>
<path d="M434.678 370.518H448.447V356.714H434.678V370.518Z" fill="#F8FBFF"/>
<path d="M434.678 390.9H448.447V377.096H434.678V390.9Z" fill="#F8FBFF"/>
<path d="M434.678 418.903H448.447V405.099H434.678V418.903Z" fill="#F8FBFF"/>
<path d="M434.678 442.029H448.447V428.226H434.678V442.029Z" fill="#F8FBFF"/>
<path d="M131.52 440.225H145.288V426.421H131.52V440.225Z" fill="#F8FBFF"/>
<path d="M131.52 460.606H145.288V446.803H131.52V460.606Z" fill="#F8FBFF"/>
<path d="M131.52 480.988H145.288V467.184H131.52V480.988Z" fill="#F8FBFF"/>
<path d="M131.52 515.894H145.288V502.091H131.52V515.894Z" fill="#F8FBFF"/>
<path d="M131.52 573.585H145.288V559.781H131.52V573.585Z" fill="#F8FBFF"/>
<path d="M154.666 414.122H168.434V400.318H154.666V414.122Z" fill="#F8FBFF"/>
<path d="M154.666 434.503H168.434V420.7H154.666V434.503Z" fill="#F8FBFF"/>
<path d="M154.666 454.885H168.434V441.082H154.666V454.885Z" fill="#F8FBFF"/>
<path d="M154.666 482.892H168.434V469.088H154.666V482.892Z" fill="#F8FBFF"/>
<path d="M154.666 506.019H168.434V492.215H154.666V506.019Z" fill="#F8FBFF"/>
<path d="M198.373 412.406H212.141V398.602H198.373V412.406Z" fill="#F8FBFF"/>
<path d="M198.373 432.787H212.141V418.984H198.373V432.787Z" fill="#F8FBFF"/>
<path d="M198.373 453.169H212.141V439.365H198.373V453.169Z" fill="#F8FBFF"/>
<path d="M198.373 481.172H212.141V467.369H198.373V481.172Z" fill="#F8FBFF"/>
<path d="M198.373 504.302H212.141V490.499H198.373V504.302Z" fill="#F8FBFF"/>
<path d="M177.808 467.403H191.576V453.599H177.808V467.403Z" fill="#F8FBFF"/>
<path d="M177.808 441.367H191.576V427.564H177.808V441.367Z" fill="#F8FBFF"/>
<path d="M177.808 487.784H191.576V473.981H177.808V487.784Z" fill="#F8FBFF"/>
<path d="M177.808 508.166H191.576V494.363H177.808V508.166Z" fill="#F8FBFF"/>
<path d="M177.808 543.073H191.576V529.269H177.808V543.073Z" fill="#F8FBFF"/>
<path d="M177.808 587.59H191.576V573.787H177.808V587.59Z" fill="#F8FBFF"/>
<path d="M474.011 317.405C474.011 320.206 471.737 322.486 468.944 322.486C466.15 322.486 463.876 320.206 463.876 317.405C463.876 314.604 466.15 312.324 468.944 312.324C471.737 312.324 474.011 314.604 474.011 317.405ZM471.672 317.405C471.672 315.897 470.448 314.67 468.944 314.67C467.44 314.67 466.215 315.897 466.215 317.405C466.215 318.913 467.44 320.14 468.944 320.14C470.448 320.14 471.672 318.916 471.672 317.405Z" fill="#455964"/>
<path d="M470.114 321.316H467.774V369.698H470.114V321.316Z" fill="#455964"/>
<path d="M472.693 377.353H465.195V369.497C465.195 368.321 466.146 367.367 467.32 367.367H470.571C471.745 367.367 472.696 368.321 472.696 369.497V377.353H472.693Z" fill="#455964"/>
<path d="M472.693 375.951H465.195V377.353H472.693V375.951Z" fill="#3838BA"/>
<path d="M502.333 289.798H499.994V338.179H502.333V289.798Z" fill="#455964"/>
<path d="M506.231 286.32C506.231 289.12 503.957 291.4 501.163 291.4C498.37 291.4 496.095 289.12 496.095 286.32C496.095 283.519 498.37 281.239 501.163 281.239C503.957 281.235 506.231 283.515 506.231 286.32ZM503.891 286.32C503.891 284.812 502.667 283.584 501.163 283.584C499.659 283.584 498.435 284.812 498.435 286.32C498.435 287.827 499.659 289.055 501.163 289.055C502.667 289.055 503.891 287.827 503.891 286.32Z" fill="#455964"/>
<path d="M491.024 336.5H502.333V338.845H493.364V372.593H491.024V336.5Z" fill="#455964"/>
<path d="M495.51 377.353H488.012V369.497C488.012 368.321 488.964 367.367 490.138 367.367H493.389C494.562 367.367 495.514 368.321 495.514 369.497V377.353H495.51Z" fill="#455964"/>
<path d="M495.51 375.951H488.012V377.353H495.51V375.951Z" fill="#3838BA"/>
<path d="M522.749 272.48H520.41V320.861H522.749V272.48Z" fill="#455964"/>
<path d="M521.579 264.664C524.373 264.664 526.647 266.944 526.647 269.745C526.647 272.545 524.373 274.825 521.579 274.825C518.786 274.825 516.512 272.545 516.512 269.745C516.512 266.944 518.786 264.664 521.579 264.664ZM521.579 272.48C523.083 272.48 524.308 271.252 524.308 269.745C524.308 268.237 523.083 267.009 521.579 267.009C520.075 267.009 518.851 268.237 518.851 269.745C518.851 271.252 520.075 272.48 521.579 272.48Z" fill="#455964"/>
<path d="M540.688 319.925H520.297V322.271H538.348V368.598H540.688V319.925Z" fill="#455964"/>
<path d="M543.358 377.353H535.86V369.497C535.86 368.321 536.812 367.367 537.985 367.367H541.237C542.41 367.367 543.362 368.321 543.362 369.497V377.353H543.358Z" fill="#455964"/>
<path d="M543.358 375.951H535.86V377.353H543.358V375.951Z" fill="#3838BA"/>
<path d="M564.875 298.146C564.875 300.946 562.601 303.226 559.804 303.226C557.01 303.226 554.736 300.946 554.736 298.146C554.736 295.345 557.01 293.065 559.804 293.065C562.601 293.061 564.875 295.341 564.875 298.146ZM562.536 298.146C562.536 296.638 561.312 295.41 559.804 295.41C558.3 295.41 557.076 296.638 557.076 298.146C557.076 299.653 558.3 300.881 559.804 300.881C561.308 300.881 562.536 299.653 562.536 298.146Z" fill="#455964"/>
<path d="M560.974 302.053H558.634V377.587H560.974V302.053Z" fill="#455964"/>
<path d="M563.553 377.353H556.055V369.497C556.055 368.321 557.007 367.367 558.18 367.367H561.431C562.605 367.367 563.557 368.321 563.557 369.497V377.353H563.553Z" fill="#455964"/>
<path d="M563.553 375.951H556.055V377.353H563.553V375.951Z" fill="#3838BA"/>
<path d="M598.806 340.182C598.806 342.983 596.532 345.263 593.738 345.263C590.941 345.263 588.667 342.983 588.667 340.182C588.667 337.381 590.941 335.098 593.738 335.098C596.532 335.102 598.806 337.381 598.806 340.182ZM596.466 340.182C596.466 338.674 595.242 337.447 593.738 337.447C592.234 337.447 591.01 338.674 591.01 340.182C591.01 341.69 592.234 342.917 593.738 342.917C595.242 342.921 596.466 341.694 596.466 340.182Z" fill="#455964"/>
<path d="M590.229 338.886H578.92V374.979H581.259V341.231H590.229V338.886Z" fill="#455964"/>
<path d="M583.835 377.353H576.337V369.497C576.337 368.321 577.289 367.367 578.462 367.367H581.713C582.887 367.367 583.839 368.321 583.839 369.497V377.353H583.835Z" fill="#455964"/>
<path d="M583.835 375.951H576.337V377.353H583.835V375.951Z" fill="#3838BA"/>
<path d="M600.684 660.285H455.132C453.719 660.285 452.574 659.137 452.574 657.721V377.193C452.574 375.776 453.719 374.629 455.132 374.629H600.684C602.097 374.629 603.242 375.776 603.242 377.193V657.721C603.242 659.137 602.097 660.285 600.684 660.285Z" fill="#071655"/>
<path d="M591.308 646.27H464.508C463.255 646.27 462.241 645.254 462.241 643.997V390.916C462.241 389.66 463.255 388.644 464.508 388.644H591.308C592.561 388.644 593.575 389.66 593.575 390.916V643.997C593.575 645.254 592.561 646.27 591.308 646.27Z" fill="#98ABB2"/>
<path d="M588.954 411.833H466.862C465.671 411.833 464.704 410.864 464.704 409.669V392.195C464.704 391 465.671 390.031 466.862 390.031H588.954C590.145 390.031 591.112 391 591.112 392.195V409.669C591.112 410.864 590.145 411.833 588.954 411.833Z" fill="#98ABB2"/>
<path d="M517.351 405.718H474.088C473.194 405.718 472.471 404.993 472.471 404.097V397.771C472.471 396.875 473.194 396.15 474.088 396.15H517.351C518.245 396.15 518.968 396.875 518.968 397.771V404.097C518.968 404.989 518.245 405.718 517.351 405.718Z" fill="#F8FBFF"/>
<path d="M587.446 394.402C587.446 395.513 586.541 396.416 585.426 396.416C584.311 396.416 583.406 395.513 583.406 394.402C583.406 393.291 584.311 392.388 585.426 392.388C586.541 392.388 587.446 393.287 587.446 394.402Z" fill="#F8FBFF"/>
<path d="M587.446 400.932C587.446 402.043 586.541 402.946 585.426 402.946C584.311 402.946 583.406 402.043 583.406 400.932C583.406 399.821 584.311 398.918 585.426 398.918C586.541 398.918 587.446 399.821 587.446 400.932Z" fill="#F8FBFF"/>
<path d="M587.446 407.462C587.446 408.573 586.541 409.476 585.426 409.476C584.311 409.476 583.406 408.573 583.406 407.462C583.406 406.351 584.311 405.448 585.426 405.448C586.541 405.448 587.446 406.351 587.446 407.462Z" fill="#F8FBFF"/>
<path d="M544.891 395.134H536.633C536.027 395.134 535.536 394.642 535.536 394.034C535.536 393.426 536.027 392.934 536.633 392.934H544.891C545.497 392.934 545.988 393.426 545.988 394.034C545.991 394.639 545.497 395.134 544.891 395.134Z" fill="#455964"/>
<path d="M544.891 402.032H536.634C536.027 402.032 535.537 401.54 535.537 400.932C535.537 400.324 536.027 399.832 536.634 399.832H544.891C545.498 399.832 545.988 400.324 545.988 400.932C545.992 401.54 545.498 402.032 544.891 402.032Z" fill="#455964"/>
<path d="M545.32 408.934H536.205C535.835 408.934 535.533 408.632 535.533 408.26V407.404C535.533 407.033 535.835 406.73 536.205 406.73H545.32C545.69 406.73 545.992 407.033 545.992 407.404V408.26C545.992 408.632 545.69 408.934 545.32 408.934Z" fill="#455964"/>
<path d="M560.305 395.134H552.047C551.441 395.134 550.95 394.642 550.95 394.034C550.95 393.426 551.441 392.934 552.047 392.934H560.305C560.911 392.934 561.402 393.426 561.402 394.034C561.406 394.639 560.911 395.134 560.305 395.134Z" fill="#455964"/>
<path d="M560.305 402.032H552.048C551.441 402.032 550.951 401.54 550.951 400.932C550.951 400.324 551.441 399.832 552.048 399.832H560.305C560.912 399.832 561.402 400.324 561.402 400.932C561.406 401.54 560.912 402.032 560.305 402.032Z" fill="#455964"/>
<path d="M560.734 408.934H551.619C551.249 408.934 550.947 408.632 550.947 408.26V407.404C550.947 407.033 551.249 406.73 551.619 406.73H560.734C561.104 406.73 561.406 407.033 561.406 407.404V408.26C561.406 408.632 561.104 408.934 560.734 408.934Z" fill="#455964"/>
<path d="M575.719 395.134H567.462C566.855 395.134 566.365 394.642 566.365 394.034C566.365 393.426 566.855 392.934 567.462 392.934H575.719C576.326 392.934 576.816 393.426 576.816 394.034C576.82 394.639 576.326 395.134 575.719 395.134Z" fill="#455964"/>
<path d="M575.719 402.032H567.462C566.855 402.032 566.365 401.54 566.365 400.932C566.365 400.324 566.855 399.832 567.462 399.832H575.719C576.326 399.832 576.816 400.324 576.816 400.932C576.82 401.54 576.326 402.032 575.719 402.032Z" fill="#455964"/>
<path d="M576.148 408.934H567.033C566.663 408.934 566.361 408.632 566.361 408.26V407.404C566.361 407.033 566.663 406.73 567.033 406.73H576.148C576.518 406.73 576.82 407.033 576.82 407.404V408.26C576.82 408.632 576.518 408.934 576.148 408.934Z" fill="#455964"/>
<path d="M588.954 439.939H466.862C465.671 439.939 464.704 438.97 464.704 437.775V420.301C464.704 419.106 465.671 418.137 466.862 418.137H588.954C590.145 418.137 591.112 419.106 591.112 420.301V437.775C591.112 438.97 590.145 439.939 588.954 439.939Z" fill="#98ABB2"/>
<path d="M517.351 433.82H474.088C473.194 433.82 472.471 433.095 472.471 432.199V425.873C472.471 424.977 473.194 424.252 474.088 424.252H517.351C518.245 424.252 518.968 424.977 518.968 425.873V432.199C518.968 433.095 518.245 433.82 517.351 433.82Z" fill="#F8FBFF"/>
<path d="M587.446 422.508C587.446 423.619 586.541 424.522 585.426 424.522C584.311 424.522 583.406 423.619 583.406 422.508C583.406 421.397 584.311 420.494 585.426 420.494C586.541 420.494 587.446 421.393 587.446 422.508Z" fill="white"/>
<path d="M587.446 429.038C587.446 430.149 586.541 431.052 585.426 431.052C584.311 431.052 583.406 430.149 583.406 429.038C583.406 427.927 584.311 427.024 585.426 427.024C586.541 427.024 587.446 427.927 587.446 429.038Z" fill="#FF7761"/>
<path d="M587.446 435.568C587.446 436.679 586.541 437.582 585.426 437.582C584.311 437.582 583.406 436.679 583.406 435.568C583.406 434.458 584.311 433.554 585.426 433.554C586.541 433.554 587.446 434.458 587.446 435.568Z" fill="#FF7761"/>
<path d="M544.891 423.24H536.634C536.027 423.24 535.537 422.748 535.537 422.14C535.537 421.532 536.027 421.04 536.634 421.04H544.891C545.498 421.04 545.988 421.532 545.988 422.14C545.992 422.745 545.498 423.24 544.891 423.24Z" fill="#455964"/>
<path d="M544.891 430.138H536.634C536.027 430.138 535.537 429.646 535.537 429.038C535.537 428.43 536.027 427.938 536.634 427.938H544.891C545.498 427.938 545.988 428.43 545.988 429.038C545.992 429.646 545.498 430.138 544.891 430.138Z" fill="#455964"/>
<path d="M544.891 437.04H536.634C536.027 437.04 535.537 436.548 535.537 435.94C535.537 435.332 536.027 434.84 536.634 434.84H544.891C545.498 434.84 545.988 435.332 545.988 435.94C545.992 436.548 545.498 437.04 544.891 437.04Z" fill="#455964"/>
<path d="M560.305 423.24H552.048C551.441 423.24 550.951 422.748 550.951 422.14C550.951 421.532 551.441 421.04 552.048 421.04H560.305C560.912 421.04 561.402 421.532 561.402 422.14C561.406 422.745 560.912 423.24 560.305 423.24Z" fill="#455964"/>
<path d="M560.305 430.138H552.048C551.441 430.138 550.951 429.646 550.951 429.038C550.951 428.43 551.441 427.938 552.048 427.938H560.305C560.912 427.938 561.402 428.43 561.402 429.038C561.406 429.646 560.912 430.138 560.305 430.138Z" fill="#455964"/>
<path d="M560.305 437.04H552.048C551.441 437.04 550.951 436.548 550.951 435.94C550.951 435.332 551.441 434.84 552.048 434.84H560.305C560.912 434.84 561.402 435.332 561.402 435.94C561.406 436.548 560.912 437.04 560.305 437.04Z" fill="#455964"/>
<path d="M575.719 423.24H567.462C566.855 423.24 566.365 422.748 566.365 422.14C566.365 421.532 566.855 421.04 567.462 421.04H575.719C576.326 421.04 576.816 421.532 576.816 422.14C576.82 422.745 576.326 423.24 575.719 423.24Z" fill="#455964"/>
<path d="M575.719 430.138H567.462C566.855 430.138 566.365 429.646 566.365 429.038C566.365 428.43 566.855 427.938 567.462 427.938H575.719C576.326 427.938 576.816 428.43 576.816 429.038C576.82 429.646 576.326 430.138 575.719 430.138Z" fill="#455964"/>
<path d="M575.719 437.04H567.462C566.855 437.04 566.365 436.548 566.365 435.94C566.365 435.332 566.855 434.84 567.462 434.84H575.719C576.326 434.84 576.816 435.332 576.816 435.94C576.82 436.548 576.326 437.04 575.719 437.04Z" fill="#455964"/>
<path d="M588.954 468.045H466.862C465.671 468.045 464.704 467.076 464.704 465.881V448.407C464.704 447.212 465.671 446.243 466.862 446.243H588.954C590.145 446.243 591.112 447.212 591.112 448.407V465.881C591.112 467.076 590.145 468.045 588.954 468.045Z" fill="#98ABB2"/>
<path d="M517.351 461.926H474.088C473.194 461.926 472.471 461.201 472.471 460.305V453.979C472.471 453.083 473.194 452.358 474.088 452.358H517.351C518.245 452.358 518.968 453.083 518.968 453.979V460.305C518.968 461.201 518.245 461.926 517.351 461.926Z" fill="#F8FBFF"/>
<path d="M587.446 450.614C587.446 451.725 586.541 452.628 585.426 452.628C584.311 452.628 583.406 451.725 583.406 450.614C583.406 449.503 584.311 448.6 585.426 448.6C586.541 448.6 587.446 449.499 587.446 450.614Z" fill="#F8FBFF"/>
<path d="M587.446 457.144C587.446 458.255 586.541 459.158 585.426 459.158C584.311 459.158 583.406 458.255 583.406 457.144C583.406 456.033 584.311 455.13 585.426 455.13C586.541 455.13 587.446 456.029 587.446 457.144Z" fill="#F8FBFF"/>
<path d="M587.446 463.674C587.446 464.785 586.541 465.688 585.426 465.688C584.311 465.688 583.406 464.785 583.406 463.674C583.406 462.563 584.311 461.66 585.426 461.66C586.541 461.66 587.446 462.563 587.446 463.674Z" fill="#F8FBFF"/>
<path d="M544.891 451.346H536.634C536.027 451.346 535.537 450.854 535.537 450.246C535.537 449.638 536.027 449.146 536.634 449.146H544.891C545.498 449.146 545.988 449.638 545.988 450.246C545.992 450.85 545.498 451.346 544.891 451.346Z" fill="#455964"/>
<path d="M544.891 458.244H536.634C536.027 458.244 535.537 457.752 535.537 457.144C535.537 456.536 536.027 456.044 536.634 456.044H544.891C545.498 456.044 545.988 456.536 545.988 457.144C545.992 457.752 545.498 458.244 544.891 458.244Z" fill="#455964"/>
<path d="M544.891 465.146H536.634C536.027 465.146 535.537 464.654 535.537 464.046C535.537 463.437 536.027 462.946 536.634 462.946H544.891C545.498 462.946 545.988 463.437 545.988 464.046C545.992 464.654 545.498 465.146 544.891 465.146Z" fill="#455964"/>
<path d="M560.305 451.346H552.048C551.441 451.346 550.951 450.854 550.951 450.246C550.951 449.638 551.441 449.146 552.048 449.146H560.305C560.912 449.146 561.402 449.638 561.402 450.246C561.406 450.85 560.912 451.346 560.305 451.346Z" fill="#455964"/>
<path d="M560.305 458.244H552.048C551.441 458.244 550.951 457.752 550.951 457.144C550.951 456.536 551.441 456.044 552.048 456.044H560.305C560.912 456.044 561.402 456.536 561.402 457.144C561.406 457.752 560.912 458.244 560.305 458.244Z" fill="#455964"/>
<path d="M560.305 465.146H552.048C551.441 465.146 550.951 464.654 550.951 464.046C550.951 463.437 551.441 462.946 552.048 462.946H560.305C560.912 462.946 561.402 463.437 561.402 464.046C561.406 464.654 560.912 465.146 560.305 465.146Z" fill="#455964"/>
<path d="M575.719 451.346H567.462C566.855 451.346 566.365 450.854 566.365 450.246C566.365 449.638 566.855 449.146 567.462 449.146H575.719C576.326 449.146 576.816 449.638 576.816 450.246C576.82 450.85 576.326 451.346 575.719 451.346Z" fill="#455964"/>
<path d="M575.719 458.244H567.462C566.855 458.244 566.365 457.752 566.365 457.144C566.365 456.536 566.855 456.044 567.462 456.044H575.719C576.326 456.044 576.816 456.536 576.816 457.144C576.82 457.752 576.326 458.244 575.719 458.244Z" fill="#455964"/>
<path d="M575.719 465.146H567.462C566.855 465.146 566.365 464.654 566.365 464.046C566.365 463.437 566.855 462.946 567.462 462.946H575.719C576.326 462.946 576.816 463.437 576.816 464.046C576.82 464.654 576.326 465.146 575.719 465.146Z" fill="#455964"/>
<path d="M588.954 496.151H466.862C465.671 496.151 464.704 495.182 464.704 493.987V476.513C464.704 475.318 465.671 474.349 466.862 474.349H588.954C590.145 474.349 591.112 475.318 591.112 476.513V493.987C591.112 495.182 590.145 496.151 588.954 496.151Z" fill="#98ABB2"/>
<path d="M517.351 490.032H474.088C473.194 490.032 472.471 489.307 472.471 488.411V482.085C472.471 481.189 473.194 480.464 474.088 480.464H517.351C518.245 480.464 518.968 481.189 518.968 482.085V488.411C518.968 489.307 518.245 490.032 517.351 490.032Z" fill="#F8FBFF"/>
<path d="M587.446 478.72C587.446 479.83 586.541 480.734 585.426 480.734C584.311 480.734 583.406 479.83 583.406 478.72C583.406 477.609 584.311 476.706 585.426 476.706C586.541 476.706 587.446 477.605 587.446 478.72Z" fill="#DFDFDF"/>
<path d="M587.446 485.25C587.446 486.361 586.541 487.264 585.426 487.264C584.311 487.264 583.406 486.361 583.406 485.25C583.406 484.139 584.311 483.236 585.426 483.236C586.541 483.236 587.446 484.135 587.446 485.25Z" fill="#DFDFDF"/>
<path d="M587.446 491.78C587.446 492.891 586.541 493.794 585.426 493.794C584.311 493.794 583.406 492.891 583.406 491.78C583.406 490.669 584.311 489.766 585.426 489.766C586.541 489.766 587.446 490.669 587.446 491.78Z" fill="#DFDFDF"/>
<path d="M544.891 479.452H536.634C536.027 479.452 535.537 478.96 535.537 478.352C535.537 477.744 536.027 477.252 536.634 477.252H544.891C545.498 477.252 545.988 477.744 545.988 478.352C545.992 478.956 545.498 479.452 544.891 479.452Z" fill="#455964"/>
<path d="M544.891 486.35H536.634C536.027 486.35 535.537 485.858 535.537 485.25C535.537 484.642 536.027 484.15 536.634 484.15H544.891C545.498 484.15 545.988 484.642 545.988 485.25C545.992 485.858 545.498 486.35 544.891 486.35Z" fill="#455964"/>
<path d="M544.891 493.252H536.634C536.027 493.252 535.537 492.76 535.537 492.152C535.537 491.544 536.027 491.052 536.634 491.052H544.891C545.498 491.052 545.988 491.544 545.988 492.152C545.992 492.76 545.498 493.252 544.891 493.252Z" fill="#455964"/>
<path d="M560.305 479.452H552.048C551.441 479.452 550.951 478.96 550.951 478.352C550.951 477.744 551.441 477.252 552.048 477.252H560.305C560.912 477.252 561.402 477.744 561.402 478.352C561.406 478.956 560.912 479.452 560.305 479.452Z" fill="#455964"/>
<path d="M560.305 486.35H552.048C551.441 486.35 550.951 485.858 550.951 485.25C550.951 484.642 551.441 484.15 552.048 484.15H560.305C560.912 484.15 561.402 484.642 561.402 485.25C561.406 485.858 560.912 486.35 560.305 486.35Z" fill="#455964"/>
<path d="M560.305 493.252H552.048C551.441 493.252 550.951 492.76 550.951 492.152C550.951 491.544 551.441 491.052 552.048 491.052H560.305C560.912 491.052 561.402 491.544 561.402 492.152C561.406 492.76 560.912 493.252 560.305 493.252Z" fill="#455964"/>
<path d="M575.719 479.452H567.462C566.855 479.452 566.365 478.96 566.365 478.352C566.365 477.744 566.855 477.252 567.462 477.252H575.719C576.326 477.252 576.816 477.744 576.816 478.352C576.82 478.956 576.326 479.452 575.719 479.452Z" fill="#455964"/>
<path d="M575.719 486.35H567.462C566.855 486.35 566.365 485.858 566.365 485.25C566.365 484.642 566.855 484.15 567.462 484.15H575.719C576.326 484.15 576.816 484.642 576.816 485.25C576.82 485.858 576.326 486.35 575.719 486.35Z" fill="#455964"/>
<path d="M575.719 493.252H567.462C566.855 493.252 566.365 492.76 566.365 492.152C566.365 491.544 566.855 491.052 567.462 491.052H575.719C576.326 491.052 576.816 491.544 576.816 492.152C576.82 492.76 576.326 493.252 575.719 493.252Z" fill="#455964"/>
<path d="M588.954 524.257H466.862C465.671 524.257 464.704 523.288 464.704 522.093V504.619C464.704 503.424 465.671 502.455 466.862 502.455H588.954C590.145 502.455 591.112 503.424 591.112 504.619V522.093C591.112 523.288 590.145 524.257 588.954 524.257Z" fill="#98ABB2"/>
<path d="M517.351 518.138H474.088C473.194 518.138 472.471 517.413 472.471 516.517V510.191C472.471 509.295 473.194 508.57 474.088 508.57H517.351C518.245 508.57 518.968 509.295 518.968 510.191V516.517C518.968 517.413 518.245 518.138 517.351 518.138Z" fill="#F8FBFF"/>
<path d="M587.446 506.826C587.446 507.937 586.541 508.84 585.426 508.84C584.311 508.84 583.406 507.937 583.406 506.826C583.406 505.715 584.311 504.812 585.426 504.812C586.541 504.812 587.446 505.711 587.446 506.826Z" fill="#F8FBFF"/>
<path d="M587.446 513.356C587.446 514.467 586.541 515.37 585.426 515.37C584.311 515.37 583.406 514.467 583.406 513.356C583.406 512.245 584.311 511.342 585.426 511.342C586.541 511.342 587.446 512.242 587.446 513.356Z" fill="#F8FBFF"/>
<path d="M587.446 519.886C587.446 520.997 586.541 521.9 585.426 521.9C584.311 521.9 583.406 520.997 583.406 519.886C583.406 518.775 584.311 517.872 585.426 517.872C586.541 517.872 587.446 518.775 587.446 519.886Z" fill="#F8FBFF"/>
<path d="M544.891 507.558H536.634C536.027 507.558 535.537 507.066 535.537 506.458C535.537 505.85 536.027 505.358 536.634 505.358H544.891C545.498 505.358 545.988 505.85 545.988 506.458C545.992 507.062 545.498 507.558 544.891 507.558Z" fill="#455964"/>
<path d="M544.891 514.456H536.634C536.027 514.456 535.537 513.964 535.537 513.356C535.537 512.748 536.027 512.256 536.634 512.256H544.891C545.498 512.256 545.988 512.748 545.988 513.356C545.992 513.964 545.498 514.456 544.891 514.456Z" fill="#455964"/>
<path d="M544.891 521.358H536.634C536.027 521.358 535.537 520.866 535.537 520.258C535.537 519.649 536.027 519.158 536.634 519.158H544.891C545.498 519.158 545.988 519.649 545.988 520.258C545.992 520.866 545.498 521.358 544.891 521.358Z" fill="#455964"/>
<path d="M560.305 507.558H552.048C551.441 507.558 550.951 507.066 550.951 506.458C550.951 505.85 551.441 505.358 552.048 505.358H560.305C560.912 505.358 561.402 505.85 561.402 506.458C561.406 507.062 560.912 507.558 560.305 507.558Z" fill="#455964"/>
<path d="M560.305 514.456H552.048C551.441 514.456 550.951 513.964 550.951 513.356C550.951 512.748 551.441 512.256 552.048 512.256H560.305C560.912 512.256 561.402 512.748 561.402 513.356C561.406 513.964 560.912 514.456 560.305 514.456Z" fill="#455964"/>
<path d="M560.305 521.358H552.048C551.441 521.358 550.951 520.866 550.951 520.258C550.951 519.649 551.441 519.158 552.048 519.158H560.305C560.912 519.158 561.402 519.649 561.402 520.258C561.406 520.866 560.912 521.358 560.305 521.358Z" fill="#455964"/>
<path d="M575.719 507.558H567.462C566.855 507.558 566.365 507.066 566.365 506.458C566.365 505.85 566.855 505.358 567.462 505.358H575.719C576.326 505.358 576.816 505.85 576.816 506.458C576.82 507.062 576.326 507.558 575.719 507.558Z" fill="#455964"/>
<path d="M575.719 514.456H567.462C566.855 514.456 566.365 513.964 566.365 513.356C566.365 512.748 566.855 512.256 567.462 512.256H575.719C576.326 512.256 576.816 512.748 576.816 513.356C576.82 513.964 576.326 514.456 575.719 514.456Z" fill="#455964"/>
<path d="M575.719 521.358H567.462C566.855 521.358 566.365 520.866 566.365 520.258C566.365 519.649 566.855 519.158 567.462 519.158H575.719C576.326 519.158 576.816 519.649 576.816 520.258C576.82 520.866 576.326 521.358 575.719 521.358Z" fill="#455964"/>
<path d="M588.954 552.362H466.862C465.671 552.362 464.704 551.393 464.704 550.199V532.724C464.704 531.53 465.671 530.561 466.862 530.561H588.954C590.145 530.561 591.112 531.53 591.112 532.724V550.199C591.112 551.393 590.145 552.362 588.954 552.362Z" fill="#98ABB2"/>
<path d="M517.351 546.244H474.088C473.194 546.244 472.471 545.519 472.471 544.623V538.297C472.471 537.401 473.194 536.676 474.088 536.676H517.351C518.245 536.676 518.968 537.401 518.968 538.297V544.623C518.968 545.519 518.245 546.244 517.351 546.244Z" fill="#F8FBFF"/>
<path d="M587.446 534.932C587.446 536.042 586.541 536.946 585.426 536.946C584.311 536.946 583.406 536.042 583.406 534.932C583.406 533.821 584.311 532.917 585.426 532.917C586.541 532.917 587.446 533.817 587.446 534.932Z" fill="#F8FBFF"/>
<path d="M587.446 541.462C587.446 542.573 586.541 543.476 585.426 543.476C584.311 543.476 583.406 542.573 583.406 541.462C583.406 540.351 584.311 539.448 585.426 539.448C586.541 539.448 587.446 540.347 587.446 541.462Z" fill="#F8FBFF"/>
<path d="M587.446 547.992C587.446 549.103 586.541 550.006 585.426 550.006C584.311 550.006 583.406 549.103 583.406 547.992C583.406 546.881 584.311 545.978 585.426 545.978C586.541 545.978 587.446 546.881 587.446 547.992Z" fill="#F8FBFF"/>
<path d="M544.891 535.663H536.633C536.027 535.663 535.536 535.172 535.536 534.563C535.536 533.955 536.027 533.464 536.633 533.464H544.891C545.497 533.464 545.988 533.955 545.988 534.563C545.991 535.168 545.497 535.663 544.891 535.663Z" fill="#455964"/>
<path d="M544.891 542.561H536.634C536.027 542.561 535.537 542.07 535.537 541.461C535.537 540.853 536.027 540.362 536.634 540.362H544.891C545.498 540.362 545.988 540.853 545.988 541.461C545.992 542.07 545.498 542.561 544.891 542.561Z" fill="#455964"/>
<path d="M545.32 549.463H536.205C535.835 549.463 535.533 549.161 535.533 548.79V547.934C535.533 547.562 535.835 547.26 536.205 547.26H545.32C545.69 547.26 545.992 547.562 545.992 547.934V548.79C545.992 549.161 545.69 549.463 545.32 549.463Z" fill="#455964"/>
<path d="M560.305 535.663H552.047C551.441 535.663 550.95 535.172 550.95 534.563C550.95 533.955 551.441 533.464 552.047 533.464H560.305C560.911 533.464 561.402 533.955 561.402 534.563C561.406 535.168 560.911 535.663 560.305 535.663Z" fill="#455964"/>
<path d="M560.305 542.561H552.048C551.441 542.561 550.951 542.07 550.951 541.461C550.951 540.853 551.441 540.362 552.048 540.362H560.305C560.912 540.362 561.402 540.853 561.402 541.461C561.406 542.07 560.912 542.561 560.305 542.561Z" fill="#455964"/>
<path d="M560.734 549.463H551.619C551.249 549.463 550.947 549.161 550.947 548.79V547.934C550.947 547.562 551.249 547.26 551.619 547.26H560.734C561.104 547.26 561.406 547.562 561.406 547.934V548.79C561.406 549.161 561.104 549.463 560.734 549.463Z" fill="#455964"/>
<path d="M575.719 535.663H567.462C566.855 535.663 566.365 535.172 566.365 534.563C566.365 533.955 566.855 533.464 567.462 533.464H575.719C576.326 533.464 576.816 533.955 576.816 534.563C576.82 535.168 576.326 535.663 575.719 535.663Z" fill="#455964"/>
<path d="M575.719 542.561H567.462C566.855 542.561 566.365 542.07 566.365 541.461C566.365 540.853 566.855 540.362 567.462 540.362H575.719C576.326 540.362 576.816 540.853 576.816 541.461C576.82 542.07 576.326 542.561 575.719 542.561Z" fill="#455964"/>
<path d="M576.148 549.463H567.033C566.663 549.463 566.361 549.161 566.361 548.79V547.934C566.361 547.562 566.663 547.26 567.033 547.26H576.148C576.518 547.26 576.82 547.562 576.82 547.934V548.79C576.82 549.161 576.518 549.463 576.148 549.463Z" fill="#455964"/>
<path d="M588.954 579.398H466.862C465.671 579.398 464.704 578.429 464.704 577.234V559.76C464.704 558.565 465.671 557.596 466.862 557.596H588.954C590.145 557.596 591.112 558.565 591.112 559.76V577.234C591.112 578.429 590.145 579.398 588.954 579.398Z" fill="#98ABB2"/>
<path d="M517.351 573.283H474.088C473.194 573.283 472.471 572.558 472.471 571.662V565.336C472.471 564.44 473.194 563.715 474.088 563.715H517.351C518.245 563.715 518.968 564.44 518.968 565.336V571.662C518.968 572.558 518.245 573.283 517.351 573.283Z" fill="#DFDFDF"/>
<path d="M587.446 561.967C587.446 563.077 586.541 563.981 585.426 563.981C584.311 563.981 583.406 563.077 583.406 561.967C583.406 560.856 584.311 559.953 585.426 559.953C586.541 559.953 587.446 560.856 587.446 561.967Z" fill="#DFDFDF"/>
<path d="M587.446 568.497C587.446 569.608 586.541 570.511 585.426 570.511C584.311 570.511 583.406 569.608 583.406 568.497C583.406 567.386 584.311 566.483 585.426 566.483C586.541 566.483 587.446 567.386 587.446 568.497Z" fill="#DFDFDF"/>
<path d="M587.446 575.031C587.446 576.142 586.541 577.045 585.426 577.045C584.311 577.045 583.406 576.142 583.406 575.031C583.406 573.92 584.311 573.017 585.426 573.017C586.541 573.017 587.446 573.916 587.446 575.031Z" fill="#DFDFDF"/>
<path d="M544.891 562.699H536.634C536.027 562.699 535.537 562.207 535.537 561.599C535.537 560.991 536.027 560.499 536.634 560.499H544.891C545.498 560.499 545.988 560.991 545.988 561.599C545.992 562.207 545.498 562.699 544.891 562.699Z" fill="#455964"/>
<path d="M544.891 569.6H536.634C536.027 569.6 535.537 569.109 535.537 568.5C535.537 567.892 536.027 567.401 536.634 567.401H544.891C545.498 567.401 545.988 567.892 545.988 568.5C545.992 569.105 545.498 569.6 544.891 569.6Z" fill="#455964"/>
<path d="M544.891 576.502H536.634C536.027 576.502 535.537 576.01 535.537 575.402C535.537 574.794 536.027 574.302 536.634 574.302H544.891C545.498 574.302 545.988 574.794 545.988 575.402C545.992 576.007 545.498 576.502 544.891 576.502Z" fill="#455964"/>
<path d="M560.305 562.699H552.048C551.441 562.699 550.951 562.207 550.951 561.599C550.951 560.991 551.441 560.499 552.048 560.499H560.305C560.912 560.499 561.402 560.991 561.402 561.599C561.406 562.207 560.912 562.699 560.305 562.699Z" fill="#455964"/>
<path d="M560.305 569.6H552.048C551.441 569.6 550.951 569.109 550.951 568.5C550.951 567.892 551.441 567.401 552.048 567.401H560.305C560.912 567.401 561.402 567.892 561.402 568.5C561.406 569.105 560.912 569.6 560.305 569.6Z" fill="#455964"/>
<path d="M560.305 576.502H552.048C551.441 576.502 550.951 576.01 550.951 575.402C550.951 574.794 551.441 574.302 552.048 574.302H560.305C560.912 574.302 561.402 574.794 561.402 575.402C561.406 576.007 560.912 576.502 560.305 576.502Z" fill="#455964"/>
<path d="M575.719 562.699H567.462C566.855 562.699 566.365 562.207 566.365 561.599C566.365 560.991 566.855 560.499 567.462 560.499H575.719C576.326 560.499 576.816 560.991 576.816 561.599C576.82 562.207 576.326 562.699 575.719 562.699Z" fill="#455964"/>
<path d="M575.719 569.6H567.462C566.855 569.6 566.365 569.109 566.365 568.5C566.365 567.892 566.855 567.401 567.462 567.401H575.719C576.326 567.401 576.816 567.892 576.816 568.5C576.82 569.105 576.326 569.6 575.719 569.6Z" fill="#455964"/>
<path d="M575.719 576.502H567.462C566.855 576.502 566.365 576.01 566.365 575.402C566.365 574.794 566.855 574.302 567.462 574.302H575.719C576.326 574.302 576.816 574.794 576.816 575.402C576.82 576.007 576.326 576.502 575.719 576.502Z" fill="#455964"/>
<path d="M588.954 642.336H466.862C465.671 642.336 464.704 641.368 464.704 640.173V585.717C464.704 584.522 465.671 583.553 466.862 583.553H588.954C590.145 583.553 591.112 584.522 591.112 585.717V640.173C591.112 641.368 590.145 642.336 588.954 642.336Z" fill="#98ABB2"/>
<path d="M476.453 587.753V638.749C476.453 639.466 475.871 640.049 475.156 640.049H470.804C470.088 640.049 469.507 639.466 469.507 638.749V587.753C469.507 587.035 470.088 586.452 470.804 586.452H475.156C475.871 586.452 476.453 587.035 476.453 587.753Z" fill="#F8FBFF"/>
<path d="M486.498 587.753V638.749C486.498 639.466 485.916 640.049 485.201 640.049H480.848C480.133 640.049 479.552 639.466 479.552 638.749V587.753C479.552 587.035 480.133 586.452 480.848 586.452H485.201C485.916 586.452 486.498 587.035 486.498 587.753Z" fill="#F8FBFF"/>
<path d="M496.542 587.753V638.749C496.542 639.466 495.961 640.049 495.245 640.049H490.893C490.178 640.049 489.596 639.466 489.596 638.749V587.753C489.596 587.035 490.178 586.452 490.893 586.452H495.245C495.961 586.452 496.542 587.035 496.542 587.753Z" fill="#F8FBFF"/>
<path d="M506.587 587.753V638.749C506.587 639.466 506.006 640.049 505.29 640.049H500.938C500.222 640.049 499.641 639.466 499.641 638.749V587.753C499.641 587.035 500.222 586.452 500.938 586.452H505.29C506.006 586.452 506.587 587.035 506.587 587.753Z" fill="#F8FBFF"/>
<path d="M516.632 587.753V638.749C516.632 639.466 516.051 640.049 515.335 640.049H510.983C510.267 640.049 509.686 639.466 509.686 638.749V587.753C509.686 587.035 510.267 586.452 510.983 586.452H515.335C516.051 586.452 516.632 587.035 516.632 587.753Z" fill="#F8FBFF"/>
<path d="M569.318 604.674C570.434 604.674 571.338 605.577 571.338 606.688C571.338 607.799 570.434 608.702 569.318 608.702C568.203 608.702 567.298 607.799 567.298 606.688C567.295 605.577 568.199 604.674 569.318 604.674Z" fill="#DFDFDF"/>
<path d="M575.872 604.674C576.987 604.674 577.892 605.577 577.892 606.688C577.892 607.799 576.987 608.702 575.872 608.702C574.757 608.702 573.852 607.799 573.852 606.688C573.848 605.577 574.757 604.674 575.872 604.674Z" fill="#F8FBFF"/>
<path d="M582.425 604.674C583.541 604.674 584.445 605.577 584.445 606.688C584.445 607.799 583.541 608.702 582.425 608.702C581.31 608.702 580.406 607.799 580.406 606.688C580.406 605.577 581.31 604.674 582.425 604.674Z" fill="#DFDFDF"/>
<path d="M569.318 596.304C570.434 596.304 571.338 597.207 571.338 598.318C571.338 599.429 570.434 600.332 569.318 600.332C568.203 600.332 567.298 599.429 567.298 598.318C567.295 597.204 568.199 596.304 569.318 596.304Z" fill="#DFDFDF"/>
<path d="M575.872 596.304C576.987 596.304 577.892 597.207 577.892 598.318C577.892 599.429 576.987 600.332 575.872 600.332C574.757 600.332 573.852 599.429 573.852 598.318C573.848 597.204 574.757 596.304 575.872 596.304Z" fill="#DFDFDF"/>
<path d="M582.425 596.304C583.541 596.304 584.445 597.207 584.445 598.318C584.445 599.429 583.541 600.332 582.425 600.332C581.31 600.332 580.406 599.429 580.406 598.318C580.406 597.204 581.31 596.304 582.425 596.304Z" fill="#F8FBFF"/>
<path d="M569.318 587.931C570.434 587.931 571.338 588.834 571.338 589.945C571.338 591.056 570.434 591.959 569.318 591.959C568.203 591.959 567.298 591.056 567.298 589.945C567.295 588.834 568.199 587.931 569.318 587.931Z" fill="#DFDFDF"/>
<path d="M575.872 587.931C576.987 587.931 577.892 588.834 577.892 589.945C577.892 591.056 576.987 591.959 575.872 591.959C574.757 591.959 573.852 591.056 573.852 589.945C573.848 588.834 574.757 587.931 575.872 587.931Z" fill="#DFDFDF"/>
<path d="M582.425 587.931C583.541 587.931 584.445 588.834 584.445 589.945C584.445 591.056 583.541 591.959 582.425 591.959C581.31 591.959 580.406 591.056 580.406 589.945C580.406 588.834 581.31 587.931 582.425 587.931Z" fill="#DFDFDF"/>
<path d="M549.625 604.674C550.74 604.674 551.645 605.577 551.645 606.688C551.645 607.799 550.74 608.702 549.625 608.702C548.51 608.702 547.605 607.799 547.605 606.688C547.601 605.577 548.506 604.674 549.625 604.674Z" fill="#DFDFDF"/>
<path d="M556.178 604.674C557.294 604.674 558.198 605.577 558.198 606.688C558.198 607.799 557.294 608.702 556.178 608.702C555.063 608.702 554.159 607.799 554.159 606.688C554.155 605.577 555.059 604.674 556.178 604.674Z" fill="#DFDFDF"/>
<path d="M562.732 604.674C563.847 604.674 564.752 605.577 564.752 606.688C564.752 607.799 563.847 608.702 562.732 608.702C561.617 608.702 560.712 607.799 560.712 606.688C560.709 605.577 561.617 604.674 562.732 604.674Z" fill="#DFDFDF"/>
<path d="M549.625 596.304C550.74 596.304 551.645 597.207 551.645 598.318C551.645 599.429 550.74 600.332 549.625 600.332C548.51 600.332 547.605 599.429 547.605 598.318C547.601 597.204 548.506 596.304 549.625 596.304Z" fill="#DFDFDF"/>
<path d="M556.178 596.304C557.294 596.304 558.198 597.207 558.198 598.318C558.198 599.429 557.294 600.332 556.178 600.332C555.063 600.332 554.159 599.429 554.159 598.318C554.155 597.204 555.059 596.304 556.178 596.304Z" fill="#DFDFDF"/>
<path d="M562.732 596.304C563.847 596.304 564.752 597.207 564.752 598.318C564.752 599.429 563.847 600.332 562.732 600.332C561.617 600.332 560.712 599.429 560.712 598.318C560.709 597.204 561.617 596.304 562.732 596.304Z" fill="#F8FBFF"/>
<path d="M549.625 587.931C550.74 587.931 551.645 588.834 551.645 589.945C551.645 591.056 550.74 591.959 549.625 591.959C548.51 591.959 547.605 591.056 547.605 589.945C547.601 588.834 548.506 587.931 549.625 587.931Z" fill="#F8FBFF"/>
<path d="M556.178 587.931C557.294 587.931 558.198 588.834 558.198 589.945C558.198 591.056 557.294 591.959 556.178 591.959C555.063 591.959 554.159 591.056 554.159 589.945C554.155 588.834 555.059 587.931 556.178 587.931Z" fill="#DFDFDF"/>
<path d="M562.732 591.959C563.848 591.959 564.752 591.057 564.752 589.945C564.752 588.833 563.848 587.931 562.732 587.931C561.617 587.931 560.712 588.833 560.712 589.945C560.712 591.057 561.617 591.959 562.732 591.959Z" fill="#F8FBFF"/>
<path d="M535.537 604.674C536.652 604.674 537.557 605.577 537.557 606.688C537.557 607.799 536.652 608.702 535.537 608.702C534.421 608.702 533.517 607.799 533.517 606.688C533.513 605.577 534.418 604.674 535.537 604.674Z" fill="#DFDFDF"/>
<path d="M542.09 604.674C543.205 604.674 544.11 605.577 544.11 606.688C544.11 607.799 543.205 608.702 542.09 608.702C540.975 608.702 540.07 607.799 540.07 606.688C540.067 605.577 540.971 604.674 542.09 604.674Z" fill="#DFDFDF"/>
<path d="M535.537 596.304C536.652 596.304 537.557 597.207 537.557 598.318C537.557 599.429 536.652 600.332 535.537 600.332C534.421 600.332 533.517 599.429 533.517 598.318C533.513 597.204 534.418 596.304 535.537 596.304Z" fill="#DFDFDF"/>
<path d="M542.09 596.304C543.205 596.304 544.11 597.207 544.11 598.318C544.11 599.429 543.205 600.332 542.09 600.332C540.975 600.332 540.07 599.429 540.07 598.318C540.067 597.204 540.971 596.304 542.09 596.304Z" fill="#DFDFDF"/>
<path d="M535.537 587.931C536.652 587.931 537.557 588.834 537.557 589.945C537.557 591.056 536.652 591.959 535.537 591.959C534.422 591.959 533.517 591.056 533.517 589.945C533.513 588.834 534.418 587.931 535.537 587.931Z" fill="#DFDFDF"/>
<path d="M542.09 587.931C543.206 587.931 544.11 588.834 544.11 589.945C544.11 591.056 543.206 591.959 542.09 591.959C540.975 591.959 540.07 591.056 540.07 589.945C540.067 588.834 540.971 587.931 542.09 587.931Z" fill="#F8FBFF"/>
<path d="M534.956 632.12H586.509C587.126 632.12 587.628 632.623 587.628 633.242V636.141C587.628 636.76 587.126 637.263 586.509 637.263H534.956C534.338 637.263 533.837 636.76 533.837 636.141V633.242C533.837 632.623 534.338 632.12 534.956 632.12Z" fill="#3838BA"/>
<path d="M534.956 624.683H586.509C587.126 624.683 587.628 625.186 587.628 625.805V628.704C587.628 629.323 587.126 629.826 586.509 629.826H534.956C534.338 629.826 533.837 629.323 533.837 628.704V625.805C533.837 625.186 534.338 624.683 534.956 624.683Z" fill="#DFDFDF"/>
<path d="M534.956 617.246H586.509C587.126 617.246 587.628 617.749 587.628 618.368V621.267C587.628 621.886 587.126 622.389 586.509 622.389H534.956C534.338 622.389 533.837 621.886 533.837 621.267V618.368C533.837 617.749 534.338 617.246 534.956 617.246Z" fill="#DFDFDF"/>
<path d="M133.893 359.296C123.373 359.296 114.963 350.22 116.034 339.45C116.863 331.128 123.493 324.387 131.779 323.425C133.741 323.196 135.644 323.294 137.453 323.658C139.797 312.215 149.899 303.609 162.004 303.609C168.518 303.609 174.45 306.1 178.904 310.183C181.461 299.027 191.419 290.705 203.324 290.705C208.05 290.705 212.471 292.02 216.245 294.299C220.71 276.559 235.369 263.538 252.773 263.538C267.755 263.538 280.702 273.179 286.867 287.176L300.57 293.768V359.791L133.893 359.296Z" fill="#EEF1FD"/>
<path d="M326.127 378.464C332.278 378.464 337.316 373.923 337.327 368.372C337.327 363.503 332.652 359.427 326.367 358.345C326.48 357.479 326.545 356.597 326.545 355.698C326.545 343.77 316.228 334.104 303.498 334.104C302.005 334.104 300.549 334.242 299.139 334.494C293.762 320.519 276.634 310.296 256.319 310.296C237.665 310.296 221.695 318.916 215.043 331.146C214.4 331.103 213.753 331.074 213.096 331.074C198.583 331.074 186.816 342.098 186.816 355.698C186.816 357.825 187.103 359.89 187.648 361.86C187.372 361.849 187.096 361.846 186.816 361.846C178.69 361.846 172.1 366.143 172.1 371.446C172.1 371.603 172.107 371.763 172.118 371.923C172.401 375.645 175.998 378.464 180.132 378.464H326.127Z" fill="#F8FBFF"/>
<path d="M268.776 362.687L262.197 352.085L255.52 341.326C255.149 340.729 254.281 340.729 253.907 341.326L247.23 352.085L240.651 362.687C240.258 363.32 240.712 364.14 241.457 364.14H247.593V379.091H261.83V364.14H267.966C268.714 364.14 269.168 363.32 268.776 362.687Z" fill="#E9E9E9"/>
<path d="M474.011 317.802C474.011 315.001 471.737 312.721 468.944 312.721C466.15 312.721 463.876 315.001 463.876 317.802C463.876 320.198 465.543 322.212 467.774 322.741V367.764H467.585C466.266 367.764 465.195 368.835 465.195 370.16V376.348V377.75H472.693V376.348V370.16C472.693 368.838 471.625 367.764 470.302 367.764H470.113V322.741C472.344 322.209 474.011 320.198 474.011 317.802ZM466.212 317.802C466.212 316.294 467.436 315.067 468.94 315.067C470.444 315.067 471.668 316.294 471.668 317.802C471.668 319.31 470.444 320.537 468.94 320.537C467.436 320.537 466.212 319.31 466.212 317.802Z" fill="#455964"/>
<path d="M501.163 281.629C498.37 281.629 496.095 283.909 496.095 286.709C496.095 289.106 497.763 291.12 499.993 291.648V336.89H491.024V367.757H490.403C489.084 367.757 488.012 368.827 488.012 370.153V376.341V377.743H495.51V376.341V370.153C495.51 368.911 494.57 367.891 493.363 367.771V339.235H502.333V338.569V336.89V291.652C504.563 291.12 506.231 289.109 506.231 286.713C506.231 283.909 503.957 281.629 501.163 281.629ZM501.163 289.448C499.659 289.448 498.435 288.221 498.435 286.713C498.435 285.205 499.659 283.978 501.163 283.978C502.667 283.978 503.891 285.205 503.891 286.713C503.891 288.221 502.667 289.448 501.163 289.448Z" fill="#455964"/>
<path d="M540.968 367.764H540.688V320.322H522.749V275.08C524.98 274.549 526.647 272.538 526.647 270.142C526.647 267.341 524.373 265.061 521.58 265.061C518.786 265.061 516.512 267.341 516.512 270.142C516.512 272.538 518.179 274.552 520.41 275.08V320.322H520.294V322.668H538.349V367.764H538.247C536.928 367.764 535.857 368.835 535.857 370.16V376.348V377.75H543.355V376.348V370.16C543.358 368.835 542.287 367.764 540.968 367.764ZM518.851 270.138C518.851 268.63 520.076 267.403 521.58 267.403C523.084 267.403 524.308 268.63 524.308 270.138C524.308 271.646 523.084 272.873 521.58 272.873C520.076 272.877 518.851 271.649 518.851 270.138Z" fill="#455964"/>
<path d="M564.875 298.539C564.875 295.738 562.601 293.458 559.804 293.458C557.01 293.458 554.736 295.738 554.736 298.539C554.736 300.935 556.404 302.946 558.634 303.478V367.76H558.445C557.127 367.76 556.055 368.831 556.055 370.157V376.345V377.747H558.634V377.98H560.974V377.747H563.553V376.345V370.157C563.553 368.835 562.485 367.76 561.163 367.76H560.974V303.481C563.208 302.95 564.875 300.939 564.875 298.539ZM557.076 298.539C557.076 297.031 558.3 295.804 559.804 295.804C561.308 295.804 562.536 297.031 562.536 298.539C562.536 300.047 561.312 301.274 559.804 301.274C558.3 301.278 557.076 300.047 557.076 298.539Z" fill="#455964"/>
<path d="M593.738 335.495C591.391 335.495 589.415 337.105 588.841 339.279H578.92V367.76H578.727C577.409 367.76 576.337 368.831 576.337 370.157V376.345V377.747H583.835V376.345V370.157C583.835 368.835 582.767 367.76 581.445 367.76H581.256V341.625H588.776C589.259 343.926 591.297 345.66 593.734 345.66C596.528 345.66 598.802 343.38 598.802 340.579C598.806 337.775 596.532 335.495 593.738 335.495ZM593.738 343.315C592.234 343.315 591.006 342.087 591.006 340.579C591.006 339.072 592.23 337.844 593.738 337.844C595.242 337.844 596.466 339.072 596.466 340.579C596.466 342.087 595.242 343.315 593.738 343.315Z" fill="#455964"/>
<path d="M294.038 727.6C294.038 727.6 297.718 726.019 299.309 730.055C300.9 734.09 298.423 739.663 275.863 745.763C253.303 751.864 241.947 744.357 241.947 744.357L277.527 728.172L294.038 727.6Z" fill="#273238"/>
<path d="M203.611 687.997L209.939 720.951C209.939 720.951 239.343 721.748 238.856 720.19C238.373 718.631 237.628 708.717 237.628 708.717C237.628 708.717 240.113 689.48 240.033 687.997C239.957 686.515 203.611 687.997 203.611 687.997Z" fill="#F6AD83"/>
<path d="M365.481 613.189H350.961V695.03H365.481V613.189Z" fill="#435966"/>
<path d="M340.804 479.077C340.804 479.077 363.938 441.017 380.957 440.656C397.981 440.292 403.35 441.283 411.818 450.348C421.568 460.786 431.33 474.316 434.556 481.255C437.593 487.789 430.527 604.856 424.391 625.153C418.259 645.45 419.196 638.203 361.144 639.288C303.088 640.377 293.98 641.63 293.828 631.035C293.675 620.44 302.303 585.017 302.303 585.017C302.303 585.017 338.675 492.49 340.804 479.077Z" fill="#435664"/>
<path d="M341.668 455.578C341.668 455.578 327.101 459.228 317.855 468.482C308.61 477.737 289.646 510.683 289.646 510.683L264.591 540.249L317.852 547.584L341.668 455.578Z" fill="#FF7761"/>
<path d="M289.214 625.94L312.628 558.412C323.555 529.978 339.42 487.8 340.8 479.08C340.8 479.08 362.288 443.73 379.086 440.849C379.061 441.887 379.188 442.805 379.66 443.071C380.917 443.778 385.912 443.071 390.904 450.217C394.043 454.708 394.511 458.412 394.511 458.412C394.511 458.412 405.319 461.067 410.325 467.652C414.968 473.763 419.915 483.418 416.308 509.251C414.884 519.446 413.358 525.961 412.203 529.902C411.106 533.646 410.79 537.565 411.273 541.436C413.195 556.926 416.054 597.131 392.993 622.294C380.085 636.371 289.214 625.94 289.214 625.94Z" fill="#2D3F43"/>
<path d="M317.855 547.584L312.326 546.364C311.807 533.708 308.977 489.704 324.522 463.164C332.808 457.796 341.668 455.574 341.668 455.574L317.855 547.584Z" fill="#B34D41"/>
<path d="M397.08 590.229C398.118 590.674 399.299 590.065 399.543 588.962C401.21 581.419 406.67 555.218 406.67 535.256C406.67 511.695 413.551 474.826 401.78 466.256C390.01 457.687 342.656 448.363 327.943 466.256C313.231 484.15 317.216 554.103 317.216 554.103C317.216 554.103 363.193 575.719 397.08 590.229Z" fill="#F8FBFF"/>
<path d="M382.131 540.249L316.733 531.038C316.755 526.93 316.842 524.668 317.023 520.097C322.298 519.73 338.057 520.105 347.681 521.656C359.226 523.521 369.096 527.411 369.096 527.411C369.096 527.411 367.607 515.505 370.164 495.75C372.725 475.996 377.059 469.91 388.561 462.768C389.029 462.476 389.676 461.839 390.41 461.063C395.332 462.662 399.328 464.476 401.78 466.26C406.55 469.731 408.258 477.853 408.599 487.85L382.131 540.249Z" fill="#B34D41"/>
<path d="M240.316 723.504C240.316 723.504 243.997 721.923 245.588 725.959C247.179 729.994 244.701 735.566 222.141 741.667C199.582 747.767 188.226 740.261 188.226 740.261L223.805 724.076L240.316 723.504Z" fill="#273238"/>
<path d="M239.674 697.652C239.419 703.574 238.729 701.677 240.498 714.828C241.683 723.639 244.832 728.92 239.463 731.276C234.097 733.632 198.383 745.804 187.477 743.2C176.572 740.6 180.818 718.004 197.003 717.447C213.169 716.89 210.658 700.927 210.658 700.927L239.674 697.652Z" fill="#C88665"/>
<path d="M239.26 731.065C244.589 728.723 241.465 723.478 240.288 714.73C236.666 687.822 231.776 709.984 239.677 697.241V696.01L238.013 696.625L240.328 698.333C240.328 698.333 235.46 707.537 236.277 713.627C237.098 719.716 240.622 723.315 232.75 728.541C224.877 733.767 212.845 734.554 212.845 734.554L213.496 739.376C225.11 736.295 236.43 732.307 239.26 731.065Z" fill="#EB9D77"/>
<path d="M222.142 741.667C222.142 741.667 218.956 730.744 211.628 723.467C204.304 716.19 202.532 715.79 189.969 718.299C177.407 720.809 170.345 734.619 172.743 740.064C175.78 746.959 182.744 754.472 222.142 741.667Z" fill="#303F46"/>
<path d="M308.85 621.886C308.85 621.886 242.286 605.384 238.645 605.227C235.005 605.074 240.869 702.762 240.869 702.762C235.652 705.77 229.941 707.817 224.002 708.808L206.154 711.776C206.154 711.776 173.974 585.575 190.064 574.779C206.154 563.984 336.895 557.942 340.876 559.02C344.858 560.098 404.331 619.267 308.85 621.886Z" fill="#071655"/>
<path d="M234.257 588.853C242.874 590.677 257.907 593.908 272.605 597.302C292.422 601.88 349.501 593.853 362.542 591.916C362.542 591.916 362.542 591.916 362.542 591.919C362.553 591.999 362.568 592.087 362.579 592.171C364.588 606.644 354.194 620.641 308.85 621.886C308.85 621.886 242.286 605.384 238.645 605.227C235.005 605.074 240.869 702.762 240.869 702.762C238.656 704.66 236.015 705.993 233.174 706.645L230.711 707.209C229.186 693.817 228.397 671.928 226.497 653.059C224.361 631.84 225.549 606.987 226.377 594.811C226.646 590.841 230.363 588.029 234.257 588.853Z" fill="#05113F"/>
<path d="M296.796 715.08C296.796 715.08 290.111 725.157 287.903 730.431C277.596 755.033 263.505 733.931 263.966 733.946L254.771 726.658C254.771 726.658 261.645 717.629 263.301 707.959C264.958 698.286 296.796 715.08 296.796 715.08Z" fill="#C88665"/>
<path d="M390.373 468.205C366.11 475.817 365.496 476.116 355.607 479.441C349.962 481.338 346.191 482.34 346.191 482.34C346.191 482.34 349.831 473.901 350.729 473.588C351.419 473.348 372.791 464.286 382.123 458.798C386.109 459.704 389.799 460.783 392.982 461.948C393.062 464.45 392.659 467.488 390.373 468.205Z" fill="#B34D41"/>
<path d="M334.962 470.74C333.869 468.679 329.88 467.63 328.899 465.193C329.876 464.17 330.973 463.241 332.169 462.407C332.325 462.578 332.419 462.702 332.419 462.702C332.419 462.702 341.727 470.962 342.689 476.109C343.652 481.251 346.188 482.34 346.188 482.34C346.188 482.34 343.045 485.953 334.962 470.74Z" fill="#9A9A9A"/>
<path d="M404.857 559.02C404.857 559.02 407.549 613.156 385.912 621.886C364.275 630.616 322.756 605.227 322.756 605.227C322.756 605.227 316.373 648.572 308.977 680.174C301.58 711.776 291.986 723.056 291.986 723.056L258.063 718.959C258.063 718.959 278.955 577.325 288.604 572.321C298.253 567.317 404.857 559.02 404.857 559.02Z" fill="#071655"/>
<path d="M284.223 722.236C286.918 714.37 292.095 699.801 299.204 676.798C307.673 649.391 316.733 591.508 316.733 591.508C316.733 591.508 367.24 618.667 381.473 607.748C393.124 598.81 394.435 573.337 391.601 560.095C399.721 559.417 404.857 559.017 404.857 559.017C404.857 559.017 407.549 613.153 385.912 621.883C364.275 630.613 322.756 605.224 322.756 605.224C322.756 605.224 316.373 648.568 308.977 680.17C301.58 711.773 291.986 723.052 291.986 723.052L284.223 722.236Z" fill="#05113F"/>
<path d="M340.876 559.02C340.876 559.02 392.568 574.78 394.235 572.591C395.899 570.402 402.002 502.35 402.002 502.35L408.022 508.771C407.437 518.051 406.038 527.422 406.67 535.259C408.668 559.916 402.816 591.511 402.816 591.511C388.659 585.484 368.37 577.642 353.882 571.043L340.876 559.02Z" fill="#9A9A9A"/>
<path d="M346.188 482.34C346.188 482.34 355.451 477.824 365.383 474.368C376.747 470.409 387.293 469.112 388.561 462.768C390.181 454.664 389.142 446.87 369.565 443.672C349.991 440.474 327.795 450.716 327.355 456.241C326.632 465.302 331.013 462.87 336.771 470.74C339.078 473.891 340.756 480.927 346.188 482.34Z" fill="#F8FBFF"/>
<path d="M346.187 470.74C346.187 470.74 332.619 460.265 333.796 455.887C335.543 449.401 341.839 449.051 350.859 447.128C359.88 445.209 376.805 445.62 379.508 450.443C382.21 455.265 348.113 467.447 346.187 470.74Z" fill="#9A9A9A"/>
<path d="M333.974 550.96H222.966C220.805 550.96 219.057 549.205 219.057 547.041C219.057 544.874 220.808 543.123 222.966 543.123H333.97C336.132 543.123 337.879 544.878 337.879 547.041C337.883 549.205 336.132 550.96 333.974 550.96Z" fill="#303F46"/>
<path d="M335.006 525.517C335.006 525.517 330.599 520.276 313.296 520.673C295.989 521.07 289.65 529.556 289.65 529.556L293.548 540.242C293.548 540.242 306.201 540.242 318.44 542.453C331.326 544.787 335.006 525.517 335.006 525.517Z" fill="#C88665"/>
<path d="M292.24 536.665C296.509 535.991 305.885 534.72 313.412 535.205C323.49 535.853 325.717 539.699 325.717 539.699L325.088 541.6C323.21 542.525 321.009 542.922 318.44 542.46C306.201 540.249 293.548 540.249 293.548 540.249L292.24 536.665Z" fill="#EB9D77"/>
<path d="M317.855 541.997L325.067 521.23C325.067 521.23 360.388 526.227 372.78 533.26C372.78 533.26 372.039 520.305 374.073 505.311C376.108 490.32 378.614 466.628 392.989 466.257C407.361 465.885 412.541 475.511 411.615 504.939C410.688 534.367 395.576 554.544 391.641 558.245C387.711 561.952 335.424 551.656 317.855 541.997Z" fill="#FF7761"/>
<mask id="mask0_913_18928" style="mask-type:luminance" maskUnits="userSpaceOnUse" x="333" y="446" width="47" height="25">
<path d="M346.187 470.74C346.187 470.74 332.677 460.418 333.81 456.077C335.489 449.645 341.777 449.23 350.765 447.23C359.752 445.231 376.561 445.57 379.402 450.25C382.457 455.29 348.186 467.571 346.187 470.74Z" fill="white"/>
</mask>
<g mask="url(#mask0_913_18928)">
<path d="M340.847 445.781C340.847 445.781 343.089 458.437 340.193 462.407C339.202 463.769 336.135 465.987 337.498 468.202C340.103 472.441 348.869 476.892 348.869 476.892L373.931 458.022C373.931 458.022 369.299 451.619 369.536 444.583C369.783 437.273 370.567 428.365 370.567 428.365L340.847 445.781Z" fill="#C88665"/>
</g>
<path d="M369.532 444.583C369.779 437.273 370.564 428.365 370.564 428.365L340.847 445.781C340.847 445.781 341.745 450.847 341.668 455.574C344.753 456.722 348.037 457.239 351.412 457.017C358.655 456.536 365.027 452.712 369.623 446.837C369.547 446.098 369.507 445.347 369.532 444.583Z" fill="#C57F5C"/>
<path d="M561.007 574.324H96.3446C89.7837 574.324 84.4653 568.992 84.4653 562.415C84.4653 555.837 89.7837 550.505 96.3446 550.505H561.01C567.571 550.505 572.889 555.837 572.889 562.415C572.889 568.992 567.571 574.324 561.007 574.324Z" fill="#273238"/>
<path d="M532.46 746.456H541.996C544.052 746.456 545.716 744.937 545.716 743.069V572.336C545.716 570.464 544.049 568.948 541.996 568.948H532.46C530.404 568.948 528.74 570.467 528.74 572.336V743.069C528.74 744.937 530.404 746.456 532.46 746.456Z" fill="#273238"/>
<path d="M110.175 746.456H119.711C121.767 746.456 123.431 744.937 123.431 743.069V572.336C123.431 570.464 121.763 568.948 119.711 568.948H110.175C108.118 568.948 106.455 570.467 106.455 572.336V743.069C106.455 744.937 108.118 746.456 110.175 746.456Z" fill="#273238"/>
<path d="M338.486 469.665C337.305 471.039 336.986 472.703 337.774 473.384C338.562 474.065 340.164 473.508 341.345 472.135C342.529 470.762 342.845 469.097 342.057 468.416C341.269 467.735 339.67 468.296 338.486 469.665Z" fill="#B34D41"/>
<path d="M296.658 550.96H191.183C187.136 550.96 183.394 547.675 182.824 543.625L174.33 483.149C173.76 479.099 176.583 475.813 180.63 475.813H286.108C290.155 475.813 293.897 479.099 294.467 483.149L302.961 543.625C303.524 547.675 300.705 550.96 296.658 550.96Z" fill="#071655"/>
<path d="M219.937 475.817L303.008 544.205C303.157 546.601 302.114 548.666 300.345 549.864L213.383 475.817H219.937Z" fill="#EEF1FD"/>
<path d="M297.806 506.957L300.287 524.614L244.919 475.817H262.898L297.806 506.957Z" fill="#EEF1FD"/>
<path d="M355.647 472.168C356.646 473.898 356.646 475.766 355.651 476.341C354.655 476.917 353.039 475.981 352.04 474.251C351.041 472.521 351.041 470.653 352.036 470.077C353.032 469.502 354.648 470.438 355.647 472.168Z" fill="#B34D41"/>
<path d="M338.958 390.487C349.973 388.109 361.202 395.145 366.778 406.869C368.264 405.754 370.048 405.31 371.726 405.827C374.883 406.796 376.463 410.762 375.264 414.685C374.422 417.431 372.438 419.423 370.24 420.042C371.287 434.418 363.669 447.179 351.728 449.754C338.377 452.635 324.699 441.705 321.172 425.338C317.644 408.97 325.608 393.368 338.958 390.487Z" fill="#C88665"/>
<path d="M329.575 427.341C328.448 427.549 327.369 426.802 327.162 425.676L326.628 422.763C326.421 421.637 327.166 420.556 328.292 420.348C329.418 420.141 330.497 420.887 330.704 422.013L331.238 424.926C331.446 426.055 330.701 427.137 329.575 427.341Z" fill="#243137"/>
<path d="M349.333 424.934C348.207 425.141 347.128 424.395 346.921 423.269L346.387 420.355C346.18 419.23 346.925 418.148 348.051 417.941C349.177 417.733 350.256 418.48 350.463 419.605L350.997 422.519C351.204 423.644 350.46 424.726 349.333 424.934Z" fill="#243137"/>
<path d="M323.828 415.493C323.573 415.548 323.297 415.486 323.079 415.308C322.701 414.994 322.647 414.433 322.959 414.058C324.914 411.691 327.471 410.369 330.781 410.016C331.268 409.965 331.707 410.318 331.758 410.806C331.809 411.294 331.457 411.727 330.97 411.782C328.107 412.088 325.996 413.17 324.329 415.191C324.195 415.351 324.017 415.453 323.828 415.493Z" fill="#243137"/>
<path d="M354.416 410.729C354.674 410.7 354.921 410.558 355.07 410.322C355.331 409.906 355.208 409.356 354.79 409.098C352.193 407.462 349.352 407.004 346.1 407.703C345.621 407.805 345.316 408.278 345.417 408.759C345.519 409.24 345.991 409.542 346.471 409.44C349.286 408.836 351.629 409.203 353.842 410.602C354.023 410.711 354.223 410.751 354.416 410.729Z" fill="#243137"/>
<path d="M339.169 431.489C339.194 431.446 339.22 431.402 339.249 431.362C339.205 431.424 339.162 431.486 339.118 431.547C339.194 431.446 339.278 431.354 339.372 431.271C339.314 431.322 339.256 431.369 339.198 431.42C339.307 431.329 339.42 431.256 339.547 431.194C339.478 431.227 339.409 431.26 339.34 431.293C339.456 431.242 339.572 431.201 339.699 431.176C339.623 431.191 339.543 431.205 339.467 431.22C339.594 431.198 339.721 431.191 339.848 431.198C339.768 431.191 339.688 431.183 339.612 431.176C339.754 431.191 339.892 431.22 340.026 431.267C339.954 431.242 339.881 431.216 339.812 431.187C339.932 431.234 340.048 431.293 340.157 431.365C340.095 431.322 340.033 431.278 339.972 431.234C340.077 431.311 340.172 431.395 340.259 431.493C340.208 431.435 340.161 431.376 340.11 431.322C340.135 431.351 340.157 431.384 340.182 431.413C340.321 431.598 340.502 431.744 340.731 431.795C340.945 431.843 341.229 431.802 341.41 431.671C341.781 431.405 341.966 430.841 341.668 430.44C341.178 429.777 340.386 429.355 339.55 429.417C338.726 429.475 338.003 429.952 337.596 430.666C337.363 431.07 337.552 431.668 337.974 431.864C338.421 432.076 338.922 431.919 339.169 431.489Z" fill="#243137"/>
<path d="M337.345 439.232C337.146 439.061 336.953 438.886 336.768 438.701L336.655 438.591C336.303 438.249 336.296 437.688 336.637 437.335C336.979 436.982 337.516 436.956 337.894 437.317L338.01 437.43C339.783 439.16 342.123 440.267 344.586 440.547C345.072 440.602 345.421 441.043 345.367 441.531C345.312 442.019 344.873 442.368 344.386 442.314C341.788 442.015 339.318 440.93 337.345 439.232Z" fill="#243137"/>
<path d="M334.69 425.713C334.043 428.237 331.987 430.287 329.262 430.775C325.539 431.446 321.968 428.958 321.299 425.232C320.631 421.506 323.116 417.93 326.836 417.26C330.559 416.59 334.13 419.077 334.799 422.803C334.842 423.051 334.871 423.295 334.89 423.539C335.071 423.08 335.344 422.654 335.682 422.271C334.755 418.218 330.795 415.552 326.661 416.294C322.407 417.059 319.566 421.146 320.333 425.403C321.096 429.661 325.183 432.502 329.437 431.737C332.554 431.176 334.908 428.827 335.642 425.939C335.562 426.037 335.456 426.114 335.326 426.135C335.042 426.194 334.773 426.001 334.69 425.713Z" fill="#243137"/>
<path d="M335.885 424.136C335.747 424.529 335.703 424.948 335.761 425.367C335.834 424.963 335.878 424.555 335.885 424.136Z" fill="black"/>
<path d="M348.164 412.678C344.11 413.406 341.349 417.154 341.759 421.19C342.195 421.423 342.584 421.721 342.907 422.071C342.871 421.922 342.831 421.769 342.802 421.616C342.133 417.89 344.618 414.313 348.338 413.643C352.062 412.973 355.633 415.461 356.301 419.186C356.97 422.912 354.485 426.489 350.765 427.159C348.011 427.654 345.345 426.42 343.87 424.238C343.823 424.464 343.656 424.642 343.427 424.686C343.122 424.741 342.827 424.522 342.769 424.198C342.682 423.714 342.457 423.284 342.141 422.923C343.365 426.536 347.078 428.82 350.943 428.124C355.197 427.359 358.038 423.273 357.271 419.015C356.505 414.754 352.422 411.913 348.164 412.678Z" fill="#243137"/>
<path d="M341.759 421.189C340.829 420.691 339.696 420.487 338.53 420.698C337.367 420.905 336.379 421.488 335.682 422.271C335.711 422.391 335.743 422.508 335.765 422.632C335.856 423.138 335.892 423.641 335.885 424.136C336.266 423.036 337.345 422.126 338.74 421.874C340.095 421.63 341.385 422.075 342.137 422.919C342.014 422.555 341.905 422.18 341.836 421.787C341.799 421.59 341.781 421.39 341.759 421.189Z" fill="#243137"/>
<path d="M335.682 422.271C335.344 422.654 335.075 423.08 334.89 423.539C334.94 424.285 334.868 425.014 334.69 425.713C334.773 426.001 335.042 426.194 335.326 426.143C335.456 426.121 335.562 426.044 335.642 425.946C335.689 425.757 335.729 425.564 335.761 425.371C335.7 424.948 335.747 424.533 335.885 424.14C335.892 423.644 335.856 423.142 335.765 422.635C335.743 422.508 335.711 422.391 335.682 422.271Z" fill="black"/>
<path d="M343.427 424.686C343.655 424.646 343.823 424.464 343.87 424.238C343.434 423.593 343.107 422.865 342.907 422.071C342.584 421.718 342.195 421.423 341.759 421.189C341.781 421.39 341.799 421.59 341.835 421.79C341.904 422.18 342.013 422.555 342.137 422.923C342.457 423.284 342.678 423.713 342.765 424.198C342.827 424.522 343.121 424.74 343.427 424.686Z" fill="black"/>
<path d="M364.297 395.71C356.726 406.264 348.018 404.698 336.412 405.86C321.924 407.31 326.494 409.291 318.302 410.573C310.114 411.851 299.106 393.175 325.183 389.911C332.299 389.023 334.599 384.838 345.465 377.587C354.772 371.377 374.436 381.575 364.297 395.71Z" fill="#243137"/>
<path d="M359.589 395.349C363.269 391.332 371.541 386.648 378.422 396.798C385.302 406.949 386.85 427.661 369.779 437.058C369.779 437.058 369.736 427.042 368.239 420.206C371.149 420.548 374.171 418.25 375.265 414.685C376.467 410.762 374.883 406.796 371.726 405.827C368.569 404.858 365.038 407.255 363.836 411.177C363.618 411.888 363.494 412.601 363.451 413.301C361.932 412.354 360.069 410.922 358.91 409.065C356.694 405.499 355.909 399.366 359.589 395.349Z" fill="#243137"/>
<path d="M354.779 525.517C355.175 525.517 355.542 525.254 355.651 524.85C355.68 524.748 356.356 522.275 356.606 519.143C356.701 517.978 356.494 515.774 356.21 512.718C355.702 507.255 354.935 498.995 355.251 489.857C355.745 475.682 354.739 472.16 354.699 472.018C354.554 471.541 354.049 471.268 353.573 471.41C353.097 471.552 352.825 472.055 352.966 472.532C352.984 472.601 353.918 476.163 353.446 489.792C353.122 499.046 353.9 507.376 354.412 512.886C354.677 515.738 354.888 517.989 354.804 518.994C354.565 521.958 353.914 524.34 353.907 524.366C353.773 524.847 354.056 525.349 354.539 525.48C354.619 525.506 354.703 525.517 354.779 525.517Z" fill="#FF7761"/>
<path d="M329.938 519.73C330.167 519.73 330.396 519.642 330.57 519.471C334.719 515.403 338.744 495.823 338.98 486.146C339.22 476.189 340.764 471.224 340.778 471.173C340.931 470.696 340.666 470.186 340.19 470.033C339.714 469.881 339.205 470.143 339.053 470.62C338.987 470.827 337.414 475.846 337.167 486.099C336.924 496.176 332.739 514.802 329.302 518.171C328.946 518.52 328.939 519.096 329.288 519.453C329.469 519.642 329.702 519.73 329.938 519.73Z" fill="#FF7761"/>
<path d="M362.909 391.721C362.67 391.776 362.415 391.659 362.31 391.426C361.133 388.855 356.599 380.653 347.663 382.711C347.63 382.718 347.601 382.725 347.568 382.733C341.105 384.27 334.29 388.189 329.313 391.051C327.439 392.129 325.822 393.058 324.543 393.681C320.089 395.848 314.361 397.523 312.875 396.449C312.639 396.278 312.584 395.946 312.755 395.709C312.926 395.473 313.256 395.418 313.496 395.589C314.259 396.139 319.04 395.181 324.082 392.727C325.328 392.122 326.93 391.201 328.786 390.133C333.818 387.238 340.713 383.275 347.325 381.702C347.361 381.695 347.397 381.684 347.43 381.677C357.148 379.437 362.012 388.229 363.276 390.986C363.4 391.252 363.28 391.565 363.015 391.689C362.978 391.7 362.946 391.714 362.909 391.721Z" fill="#435664"/>
<path d="M362.546 394.453C362.361 394.522 362.146 394.453 362.041 394.278C360.846 392.359 356.417 386.306 349.533 388.848C349.508 388.859 349.486 388.866 349.461 388.877C344.487 390.753 339.474 394.555 335.816 397.33C334.439 398.376 333.247 399.279 332.299 399.902C328.982 402.072 324.609 403.984 323.319 403.282C323.112 403.169 323.036 402.914 323.148 402.706C323.261 402.502 323.519 402.422 323.722 402.535C324.383 402.895 328.078 401.646 331.834 399.188C332.761 398.58 333.941 397.687 335.304 396.653C339.005 393.845 344.073 390.002 349.163 388.083C349.192 388.072 349.217 388.061 349.246 388.054C356.73 385.293 361.482 391.773 362.764 393.834C362.888 394.034 362.826 394.293 362.63 394.417C362.597 394.431 362.571 394.442 362.546 394.453Z" fill="#435664"/>
<path d="M356.868 739.671H359.574C365.51 739.671 370.324 735.501 370.324 730.358V673.957H346.118V730.358C346.118 735.501 350.932 739.671 356.868 739.671Z" fill="#2D3F43"/>
<path d="M408.926 750C414.626 750 419.247 745.375 419.247 739.671C419.247 733.966 414.626 729.342 408.926 729.342C403.226 729.342 398.605 733.966 398.605 739.671C398.605 745.375 403.226 750 408.926 750Z" fill="#2D3F43"/>
<path d="M308.849 750C314.549 750 319.17 745.375 319.17 739.671C319.17 733.966 314.549 729.342 308.849 729.342C303.149 729.342 298.529 733.966 298.529 739.671C298.529 745.375 303.149 750 308.849 750Z" fill="#2D3F43"/>
<path d="M307.952 738.811H407.934C412.243 738.811 415.738 735.311 415.738 730.988C415.738 726.669 412.247 723.165 407.934 723.165H307.952C303.644 723.165 300.149 726.665 300.149 730.988C300.149 735.311 303.644 738.811 307.952 738.811Z" fill="#435966"/>
<path d="M275.863 745.763C275.863 745.763 272.677 734.84 265.35 727.564C258.026 720.287 256.253 719.886 243.691 722.395C231.129 724.905 224.067 738.716 226.464 744.16C229.501 751.055 236.465 758.569 275.863 745.763Z" fill="#303F46"/>
<path d="M132.291 509.058C132.291 509.058 138.267 491.547 143.324 495.696C148.381 499.844 143.88 505.591 140.614 508.017C137.345 510.442 130.911 513.207 132.291 509.058Z" fill="#05113F"/>
<path d="M121.981 517.264C121.004 515.549 118.018 504.899 113.611 503.573C110.93 502.768 108.594 502.987 107.392 504.44C106.618 505.376 106.317 506.826 106.698 508.847C109.205 522.097 127.267 526.537 121.981 517.264Z" fill="#05113F"/>
<path d="M121.981 517.264C121.277 516.029 119.529 510.155 116.961 506.473C116.881 507.405 116.826 508.388 116.801 509.434C116.681 514.481 117.026 518.48 117.596 521.627C121.6 523.04 124.553 521.777 121.981 517.264Z" fill="#071655"/>
<path d="M137.737 509.787C137.904 506.491 137.799 502.375 136.985 499.013C134.304 503.154 132.291 509.058 132.291 509.058C131.256 512.169 134.616 511.393 137.737 509.787Z" fill="#071655"/>
<path d="M125.436 532.772C124.564 532.495 119.391 527.611 119.802 510.042C120.212 492.472 128.945 491.092 132.622 495.237C136.298 499.385 135.811 510.643 135.136 514.922C134.464 519.201 134.798 535.744 125.436 532.772Z" fill="#05113F"/>
<path d="M133.973 524.734C134.743 520.881 134.849 516.769 135.139 514.926C135.815 510.646 136.302 499.389 132.625 495.24C131.605 494.089 130.191 493.365 128.677 493.295C130.101 496.038 131.626 500.816 131.79 508.847C131.964 517.395 128.724 527.043 128.724 527.043L133.973 524.734Z" fill="#071655"/>
<path d="M122.039 498.362C120.79 501.006 119.929 504.804 119.805 510.042C119.609 518.408 120.681 523.896 121.952 527.382L124.579 526.136C124.579 526.136 123.638 525.193 122.457 512.639C121.832 506.028 121.869 501.33 122.039 498.362Z" fill="#05113F"/>
<path d="M134.573 550.625H122.334C118.309 550.625 114.908 547.628 114.396 543.625L112.551 529.239H144.352L142.507 543.625C141.998 547.628 138.598 550.625 134.573 550.625Z" fill="#FF725E"/>
<path d="M140.985 529.239L139.437 541.313C138.925 545.315 135.524 548.313 131.499 548.313H119.26C118.152 548.313 117.099 548.08 116.133 547.668C117.607 549.482 119.852 550.625 122.334 550.625H134.573C138.598 550.625 141.998 547.628 142.51 543.625L144.356 529.239H140.985Z" fill="#B64C3F"/>
<path d="M147.611 530.612H109.84C109.067 530.612 108.438 529.982 108.438 529.206V524.872C108.438 524.096 109.067 523.466 109.84 523.466H147.611C148.385 523.466 149.013 524.096 149.013 524.872V529.206C149.013 529.982 148.388 530.612 147.611 530.612Z" fill="#F5F5F5"/>
<path d="M147.077 523.466H146.819V526.471C146.819 527.542 145.951 528.412 144.883 528.412H108.438V528.671C108.438 529.742 109.306 530.612 110.375 530.612H147.077C148.145 530.612 149.013 529.742 149.013 528.671V525.408C149.013 524.337 148.148 523.466 147.077 523.466Z" fill="#DFDFDF"/>
<path d="M108.613 505.78C109.15 505.871 109.684 505.966 110.222 506.057C110.404 506.09 110.523 506.323 110.469 506.491C110.404 506.687 110.229 506.771 110.037 506.738C109.499 506.644 108.965 506.552 108.427 506.461C108.246 506.429 108.126 506.196 108.18 506.028C108.242 505.831 108.416 505.748 108.613 505.78Z" fill="#273238"/>
<path d="M112.714 504.717C112.714 504.823 112.718 504.928 112.725 505.03C112.729 505.063 112.732 505.096 112.732 505.128C112.736 505.147 112.732 505.187 112.74 505.201C112.732 505.15 112.732 505.139 112.736 505.169C112.736 505.179 112.74 505.194 112.74 505.205C112.743 505.234 112.747 505.26 112.754 505.289C112.79 505.5 112.845 505.708 112.918 505.908C112.979 506.083 112.848 506.301 112.67 506.341C112.474 506.385 112.304 506.283 112.238 506.094C112.082 505.653 112.006 505.183 112.006 504.717C112.006 504.531 112.169 504.356 112.358 504.364C112.551 504.371 112.714 504.517 112.714 504.717Z" fill="#273238"/>
<path d="M126.515 494.967C126.515 495.073 126.519 495.178 126.526 495.28C126.53 495.313 126.533 495.346 126.533 495.379C126.537 495.397 126.533 495.437 126.541 495.452C126.533 495.401 126.533 495.39 126.537 495.419C126.537 495.43 126.541 495.444 126.541 495.455C126.544 495.484 126.548 495.51 126.555 495.539C126.591 495.75 126.646 495.958 126.719 496.158C126.78 496.333 126.65 496.551 126.472 496.592C126.275 496.635 126.105 496.533 126.039 496.344C125.883 495.903 125.807 495.433 125.807 494.967C125.807 494.781 125.97 494.607 126.159 494.614C126.355 494.621 126.515 494.77 126.515 494.967Z" fill="#273238"/>
<path d="M110.763 510.249C111.156 510.249 111.548 510.249 111.937 510.249C112.122 510.249 112.296 510.413 112.289 510.603C112.282 510.796 112.133 510.956 111.937 510.956C111.544 510.956 111.152 510.956 110.763 510.956C110.578 510.956 110.404 510.792 110.411 510.603C110.418 510.413 110.563 510.249 110.763 510.249Z" fill="#273238"/>
<path d="M133.061 498.289C132.524 498.38 131.99 498.475 131.452 498.566C131.27 498.598 131.063 498.518 131.02 498.318C130.98 498.147 131.071 497.917 131.267 497.885C131.804 497.793 132.338 497.699 132.876 497.608C133.058 497.575 133.265 497.655 133.312 497.855C133.348 498.023 133.258 498.252 133.061 498.289Z" fill="#273238"/>
<path d="M129.479 496.541C129.479 497.007 129.403 497.477 129.247 497.917C129.185 498.092 129.004 498.227 128.811 498.165C128.64 498.11 128.499 497.917 128.564 497.731C128.637 497.531 128.691 497.324 128.727 497.112C128.731 497.083 128.738 497.058 128.742 497.029C128.746 497.003 128.749 496.927 128.742 497.025C128.746 496.974 128.753 496.919 128.76 496.868C128.767 496.759 128.775 496.65 128.775 496.541C128.775 496.355 128.938 496.18 129.127 496.187C129.316 496.195 129.479 496.34 129.479 496.541Z" fill="#273238"/>
<path d="M130.725 502.783C130.333 502.783 129.941 502.783 129.552 502.783C129.367 502.783 129.192 502.619 129.2 502.43C129.207 502.237 129.356 502.076 129.552 502.076C129.944 502.076 130.337 502.076 130.725 502.076C130.911 502.076 131.085 502.24 131.078 502.43C131.067 502.619 130.922 502.783 130.725 502.783Z" fill="#273238"/>
<path d="M115.173 512.959C115.173 513.279 115.173 513.6 115.173 513.924C115.173 514.11 115.01 514.285 114.821 514.277C114.629 514.27 114.469 514.121 114.469 513.924C114.469 513.604 114.469 513.283 114.469 512.959C114.469 512.773 114.632 512.598 114.821 512.606C115.014 512.613 115.173 512.762 115.173 512.959Z" fill="#273238"/>
<path d="M112.645 516.539C113.037 516.539 113.43 516.539 113.818 516.539C114.004 516.539 114.178 516.703 114.171 516.892C114.164 517.086 114.015 517.246 113.818 517.246C113.426 517.246 113.034 517.246 112.645 517.246C112.46 517.246 112.285 517.082 112.293 516.892C112.3 516.703 112.449 516.539 112.645 516.539Z" fill="#273238"/>
<path d="M117.055 519.249C117.055 519.569 117.055 519.89 117.055 520.214C117.055 520.4 116.892 520.575 116.703 520.567C116.51 520.56 116.35 520.411 116.35 520.214C116.35 519.894 116.35 519.573 116.35 519.249C116.35 519.063 116.514 518.888 116.703 518.896C116.895 518.903 117.055 519.052 117.055 519.249Z" fill="#273238"/>
<path d="M122.686 500.773C122.977 500.94 123.267 501.108 123.562 501.275C123.638 501.319 123.7 501.403 123.725 501.486C123.747 501.57 123.74 501.683 123.689 501.76C123.583 501.923 123.376 501.985 123.206 501.887C122.915 501.719 122.624 501.552 122.33 501.384C122.254 501.341 122.192 501.257 122.167 501.173C122.145 501.089 122.152 500.976 122.203 500.9C122.308 500.74 122.515 500.674 122.686 500.773Z" fill="#273238"/>
<path d="M125.636 508.217C125.887 508.432 126.134 508.643 126.384 508.858C126.45 508.913 126.486 509.026 126.486 509.109C126.486 509.197 126.446 509.299 126.384 509.361C126.315 509.423 126.228 509.47 126.134 509.463C126.036 509.459 125.959 509.423 125.883 509.361C125.632 509.146 125.385 508.934 125.135 508.72C125.069 508.665 125.033 508.552 125.033 508.468C125.033 508.381 125.073 508.279 125.135 508.217C125.204 508.155 125.291 508.108 125.385 508.115C125.483 508.119 125.563 508.155 125.636 508.217Z" fill="#273238"/>
<path d="M130.834 510.362C130.798 510.435 130.762 510.504 130.725 510.577C130.704 510.617 130.675 510.65 130.635 510.675C130.602 510.708 130.562 510.726 130.515 510.737C130.468 510.752 130.42 510.756 130.373 510.745C130.326 510.741 130.282 510.73 130.242 510.701C130.217 510.683 130.195 510.664 130.17 510.646C130.126 510.603 130.097 510.552 130.079 510.49C130.075 510.457 130.072 510.428 130.068 510.395C130.068 510.329 130.082 510.271 130.115 510.217C130.151 510.144 130.188 510.074 130.224 510.002C130.246 509.962 130.275 509.929 130.315 509.903C130.348 509.871 130.388 509.852 130.435 509.841C130.482 509.827 130.529 509.823 130.577 509.834C130.624 509.838 130.667 509.849 130.707 509.878C130.733 509.896 130.755 509.914 130.78 509.932C130.824 509.976 130.853 510.027 130.871 510.089C130.874 510.122 130.878 510.151 130.882 510.184C130.882 510.246 130.867 510.304 130.834 510.362Z" fill="#273238"/>
<path d="M121.752 515.927C122.392 516.139 123.035 516.353 123.674 516.565C123.849 516.623 123.983 516.812 123.921 516.998C123.863 517.173 123.674 517.308 123.489 517.246C122.85 517.034 122.207 516.82 121.567 516.608C121.393 516.55 121.258 516.361 121.32 516.175C121.375 516 121.564 515.865 121.752 515.927Z" fill="#273238"/>
<path d="M133.544 516.208C133.294 516.459 133.047 516.707 132.796 516.958C132.731 517.023 132.636 517.06 132.545 517.06C132.458 517.06 132.357 517.02 132.295 516.958C132.233 516.889 132.186 516.801 132.193 516.707C132.197 516.612 132.229 516.524 132.295 516.455C132.545 516.204 132.792 515.956 133.043 515.705C133.109 515.639 133.203 515.603 133.294 515.603C133.381 515.603 133.483 515.643 133.544 515.705C133.606 515.774 133.653 515.862 133.646 515.956C133.643 516.051 133.61 516.138 133.544 516.208Z" fill="#273238"/>
<path d="M141.548 497.757C141.548 497.972 141.548 498.187 141.548 498.398C141.548 498.489 141.508 498.584 141.446 498.649C141.384 498.711 141.286 498.759 141.195 498.751C141.104 498.748 141.01 498.718 140.945 498.649C140.883 498.58 140.843 498.496 140.843 498.398C140.843 498.183 140.843 497.968 140.843 497.757C140.843 497.666 140.883 497.571 140.945 497.506C141.006 497.444 141.104 497.396 141.195 497.404C141.286 497.407 141.381 497.436 141.446 497.506C141.508 497.579 141.548 497.662 141.548 497.757Z" fill="#273238"/>
<path d="M142.009 500.893C142.013 500.896 142.02 500.896 142.024 500.9C141.994 500.889 141.969 500.875 141.94 500.864C142.027 500.9 142.114 500.922 142.209 500.937C142.176 500.933 142.147 500.929 142.114 500.926C142.205 500.936 142.3 500.936 142.39 500.926C142.358 500.929 142.329 500.933 142.296 500.937C142.394 500.922 142.489 500.896 142.579 500.86C142.55 500.871 142.525 500.886 142.496 500.896C142.576 500.86 142.652 500.816 142.721 500.765C142.79 500.714 142.914 500.707 142.993 500.729C143.077 500.751 143.164 500.816 143.204 500.893C143.248 500.977 143.27 501.075 143.241 501.166C143.211 501.261 143.157 501.319 143.077 501.377C142.877 501.53 142.63 501.607 142.383 501.636C142.129 501.665 141.885 501.61 141.653 501.508C141.577 501.476 141.511 501.374 141.489 501.297C141.468 501.213 141.475 501.1 141.526 501.024C141.573 500.947 141.646 500.882 141.737 500.86C141.835 500.835 141.915 500.853 142.009 500.893Z" fill="#273238"/>
<path d="M138.943 503.249C139.03 503.366 139.092 503.501 139.135 503.639C139.154 503.694 139.168 503.752 139.175 503.81C139.19 503.898 139.201 503.985 139.197 504.072C139.194 504.163 139.157 504.258 139.096 504.324C139.034 504.386 138.936 504.433 138.845 504.426C138.754 504.422 138.66 504.393 138.594 504.324C138.532 504.255 138.489 504.167 138.492 504.072C138.492 504.018 138.489 503.963 138.482 503.909C138.485 503.941 138.489 503.97 138.492 504.003C138.478 503.912 138.456 503.825 138.42 503.741C138.431 503.77 138.445 503.796 138.456 503.825C138.423 503.748 138.38 503.675 138.329 503.606C138.304 503.566 138.289 503.522 138.285 503.475C138.274 503.428 138.278 503.38 138.293 503.333C138.314 503.249 138.38 503.162 138.456 503.122C138.54 503.078 138.638 503.056 138.729 503.085C138.758 503.096 138.783 503.111 138.812 503.122C138.867 503.155 138.91 503.198 138.943 503.249Z" fill="#273238"/>
</svg>
