<?xml version="1.0" encoding="UTF-8"?>
<svg id="Layer_1" data-name="Layer 1" xmlns="http://www.w3.org/2000/svg" viewBox="0 0 673.8 232.92">
  <defs>
    <style>
      .cls-1 {
        fill: #c2e96a;
      }

      .cls-2 {
        fill: #266f3a;
      }
    </style>
  </defs>
  <path class="cls-2" d="M33.7,196.64l29.03-94.76c2.11-6.89,5.78-12.01,11.01-15.35,5.23-3.34,10.73-5,16.52-5s11.43,1.67,16.6,5c5.17,3.34,8.81,8.45,10.93,15.35l29.03,94.76h-31.53s-23.52-85.75-23.52-85.75c-.33-1.11-.78-1.67-1.33-1.67s-1,.56-1.33,1.67l-23.86,85.75h-31.53Zm90.42-19.02H59.56v-27.53H124.12v27.53Z"/>
  <path class="cls-2" d="M186.18,196.47l-30.86,.17V84.03h43.21c11.12,0,20.63,1.7,28.53,5.09,7.9,3.39,13.93,8.2,18.1,14.43,4.17,6.23,6.26,13.74,6.26,22.52s-2,16.71-6.01,23.11c-4,6.4-9.82,11.32-17.43,14.76-7.62,3.45-16.88,5.17-27.78,5.17h-20.85l4.17-28.36h15.85c4.67,0,8.51-.56,11.51-1.67,3-1.11,5.23-2.78,6.67-5,1.44-2.22,2.17-4.89,2.17-8.01s-.78-5.5-2.34-7.51c-1.56-2-3.84-3.53-6.84-4.59-3-1.06-6.73-1.58-11.18-1.58h-13.18v84.08Z"/>
  <path class="cls-2" d="M259.91,84.03h30.86v112.61h-30.86V84.03Z"/>
  <path class="cls-2" d="M330.14,85.28v83h49.71v28.36s-53.88,0-53.88,0c-9.45,0-16.26-2.33-20.44-7.01-4.17-4.67-6.26-10.95-6.26-18.85V85.28c0-.69,.56-1.25,1.25-1.25h28.36c.69,0,1.25,.56,1.25,1.25Z"/>
  <path class="cls-2" d="M419.73,196.64h-31.36s14.85-94.59,14.85-94.59c1.11-6.67,3.86-11.76,8.26-15.26,4.39-3.5,9.98-5.25,16.77-5.25,5.89,0,11.09,1.36,15.6,4.09,4.5,2.73,7.53,7.2,9.09,13.43l16.18,63.06c-.22-.67-.5-1-.83-1-.22,0-.39,.11-.5,.33-.11,.22-.22,.45-.33,.67l16.02-62.56c1.56-6.23,4.67-10.79,9.34-13.68,4.67-2.89,10.01-4.34,16.02-4.34,6.56,0,11.98,1.78,16.26,5.34,4.28,3.56,6.92,8.79,7.92,15.68l13.35,94.09h-31.2s-9.51-83.75-9.51-83.75c.11,.22,.22,.45,.33,.67,.11,.22,.28,.33,.5,.33s.39-.11,.5-.33c.11-.22,.22-.44,.33-.67l-19.02,69.4c-1.45,5-3.98,8.73-7.59,11.18-3.62,2.45-7.76,3.67-12.43,3.67s-8.73-1.17-12.51-3.5c-3.78-2.33-6.29-5.89-7.51-10.68l-18.85-70.07c.11,.22,.22,.45,.33,.67,.11,.22,.28,.33,.5,.33s.39-.11,.5-.33c.11-.22,.22-.44,.33-.67l-11.34,83.75Z"/>
  <g>
    <path class="cls-1" d="M432.18,71.82c-3.23,0-6.23-.81-9.01-2.42-2.78-1.61-4.98-3.81-6.59-6.59-1.61-2.78-2.42-5.78-2.42-9.01s.81-6.37,2.42-9.09c1.61-2.72,3.81-4.89,6.59-6.51,2.78-1.61,5.78-2.42,9.01-2.42s6.37,.81,9.09,2.42c2.72,1.61,4.89,3.78,6.51,6.51,1.61,2.73,2.42,5.76,2.42,9.09s-.81,6.23-2.42,9.01c-1.61,2.78-3.78,4.98-6.51,6.59-2.73,1.61-5.75,2.42-9.09,2.42Z"/>
    <path class="cls-1" d="M502.54,71.82c-3.23,0-6.23-.81-9.01-2.42-2.78-1.61-4.98-3.81-6.59-6.59-1.61-2.78-2.42-5.78-2.42-9.01s.81-6.37,2.42-9.09c1.61-2.72,3.81-4.89,6.59-6.51,2.78-1.61,5.78-2.42,9.01-2.42s6.37,.81,9.09,2.42c2.72,1.61,4.89,3.78,6.51,6.51,1.61,2.73,2.42,5.76,2.42,9.09s-.81,6.23-2.42,9.01c-1.61,2.78-3.78,4.98-6.51,6.59-2.73,1.61-5.75,2.42-9.09,2.42Z"/>
  </g>
  <path class="cls-2" d="M640.1,196.64h-58.56c-9.45,0-16.26-2.33-20.44-7.01-4.17-4.67-6.26-10.95-6.26-18.85v-60.89c0-7.9,2.08-14.18,6.26-18.85s10.98-7.01,20.44-7.01h57.72s0,0,0,0v27.53s0,0,0,0h-53.55s0,57.55,0,57.55h54.38s0,27.53,0,27.53Zm-4.67-42.54h-56.39s-4.17-27.53-4.17-27.53h60.56s0,27.53,0,27.53Z"/>
</svg>