<svg width="12" height="16" viewBox="0 0 12 16" fill="none" xmlns="http://www.w3.org/2000/svg">
<path fill-rule="evenodd" clip-rule="evenodd" d="M10.4999 12.1574H10.9167C11.2242 12.1574 11.3269 12.3538 11.146 12.5961L8.73988 15.8187C8.55991 16.0599 8.2656 16.061 8.08465 15.8187L5.67832 12.5961C5.49836 12.3551 5.60009 12.1574 5.9076 12.1574H6.32441C6.63211 12.1574 6.88139 11.9122 6.88139 11.6096V5.87123C6.88139 5.56672 7.12968 5.3236 7.43583 5.3236H9.38845C9.69227 5.3236 9.94289 5.56881 9.94289 5.87123V11.6096C9.94289 11.9141 10.1922 12.1574 10.4999 12.1574H10.4999ZM1.59237 3.84275H1.17556C0.867857 3.84275 0.765353 3.64617 0.946287 3.40382L3.35241 0.181257C3.53238 -0.0597522 3.82669 -0.0610847 4.00764 0.181257L6.41397 3.40382C6.59393 3.64483 6.4922 3.84275 6.1845 3.84275H5.76769C5.46017 3.84275 5.21071 4.08795 5.21071 4.39037V10.1287C5.21071 10.4332 4.9626 10.6765 4.65647 10.6765H2.70385C2.39983 10.6765 2.1494 10.4313 2.1494 10.1287V4.39037C2.1494 4.08587 1.89994 3.84275 1.59243 3.84275H1.59237Z" fill="#071655"/>
</svg>
