<svg width="225" height="68" viewBox="0 0 225 68" fill="none" xmlns="http://www.w3.org/2000/svg">
<rect x="0.501465" y="0.5" width="223" height="67" rx="7.5" fill="#D3A32A" stroke="#E6E6E6"/>
<path d="M72.9492 27.916C72.9492 29.92 74.2212 31.144 76.2732 31.144C78.3132 31.144 79.5852 29.908 79.5852 27.916V22.324H78.3972V27.844C78.3972 29.224 77.6412 30.004 76.2732 30.004C74.8932 30.004 74.1252 29.236 74.1252 27.844V22.324H72.9492V27.916ZM81.3485 33.628H82.4765V30.04C82.8605 30.76 83.6405 31.156 84.5765 31.156C86.3165 31.156 87.3005 29.812 87.3005 28.024C87.3005 26.224 86.2565 24.964 84.5765 24.964C83.6405 24.964 82.8485 25.384 82.4525 26.188L82.3685 25.132H81.3485V33.628ZM82.4885 28.072C82.4885 26.848 83.1845 25.996 84.3365 25.996C85.4885 25.996 86.1725 26.86 86.1725 28.072C86.1725 29.272 85.4885 30.136 84.3365 30.136C83.1845 30.136 82.4885 29.272 82.4885 28.072ZM93.481 31V26.08H94.633V25.132H93.481V23.296H92.353V25.132H91.201V26.08H92.353V31H93.481ZM95.2028 28.06C95.2028 29.872 96.4988 31.144 98.2628 31.144C100.015 31.144 101.311 29.872 101.311 28.06C101.311 26.248 100.015 24.976 98.2628 24.976C96.4988 24.976 95.2028 26.248 95.2028 28.06ZM96.3428 28.06C96.3428 26.836 97.1228 25.984 98.2628 25.984C99.3908 25.984 100.183 26.836 100.183 28.06C100.183 29.284 99.3908 30.136 98.2628 30.136C97.1228 30.136 96.3428 29.284 96.3428 28.06ZM111.433 30.988V29.896H107.425L109.225 28.336C110.761 27.004 111.373 26.128 111.373 24.892C111.373 23.224 110.257 22.168 108.517 22.168C106.753 22.168 105.577 23.38 105.541 25.24H106.717C106.741 24.004 107.437 23.224 108.505 23.224C109.549 23.224 110.173 23.872 110.173 24.964C110.173 25.888 109.777 26.476 108.373 27.688L105.577 30.1V31L111.433 30.988ZM118.749 29.248V28.204H117.717V22.324H116.193L112.101 28.204V29.248H116.589V31H117.717V29.248H118.749ZM113.373 28.204L116.589 23.572V28.204H113.373ZM124.547 31V27.52C124.547 26.584 125.111 25.996 125.963 25.996C126.755 25.996 127.259 26.5 127.259 27.424V31H128.375V27.52C128.375 26.584 128.939 25.984 129.791 25.984C130.583 25.984 131.099 26.512 131.099 27.436V31H132.203V27.16C132.203 25.804 131.387 24.964 130.043 24.964C129.131 24.964 128.423 25.42 128.147 26.152C127.847 25.42 127.199 24.964 126.287 24.964C125.459 24.964 124.835 25.348 124.535 25.9L124.427 25.132H123.419V31H124.547ZM133.382 28.06C133.382 29.872 134.678 31.144 136.442 31.144C138.194 31.144 139.49 29.872 139.49 28.06C139.49 26.248 138.194 24.976 136.442 24.976C134.678 24.976 133.382 26.248 133.382 28.06ZM134.522 28.06C134.522 26.836 135.302 25.984 136.442 25.984C137.57 25.984 138.362 26.836 138.362 28.06C138.362 29.284 137.57 30.136 136.442 30.136C135.302 30.136 134.522 29.284 134.522 28.06ZM141.867 31V27.892C141.867 26.752 142.479 25.996 143.535 25.996C144.399 25.996 144.951 26.476 144.951 27.664V31H146.079V27.412C146.079 25.912 145.371 24.964 143.823 24.964C142.995 24.964 142.251 25.36 141.879 26.032L141.759 25.132H140.739V31H141.867ZM149.297 31V26.08H150.449V25.132H149.297V23.296H148.169V25.132H147.017V26.08H148.169V31H149.297ZM152.59 30.988V27.796C152.59 26.788 153.178 25.996 154.27 25.996C155.11 25.996 155.674 26.476 155.674 27.664V31H156.802V27.412C156.802 25.912 156.082 24.964 154.582 24.964C153.67 24.964 152.962 25.396 152.59 26.032V22.168H151.462V30.988H152.59ZM157.814 29.296C157.814 30.412 158.69 31.144 160.07 31.144C161.462 31.144 162.422 30.436 162.422 29.32C162.422 28.444 161.93 27.988 160.934 27.748L159.902 27.496C159.326 27.352 159.038 27.088 159.038 26.692C159.038 26.152 159.434 25.84 160.142 25.84C160.826 25.84 161.222 26.212 161.246 26.8H162.326C162.302 25.684 161.462 24.964 160.178 24.964C158.882 24.964 157.97 25.648 157.97 26.728C157.97 27.592 158.462 28.108 159.506 28.36L160.538 28.6C161.15 28.756 161.342 28.996 161.342 29.392C161.342 29.932 160.886 30.256 160.094 30.256C159.35 30.256 158.894 29.896 158.894 29.296H157.814ZM168.61 31V26.08H169.762V25.132H168.61V23.296H167.482V25.132H166.33V26.08H167.482V31H168.61ZM170.332 28.06C170.332 29.872 171.628 31.144 173.392 31.144C175.144 31.144 176.44 29.872 176.44 28.06C176.44 26.248 175.144 24.976 173.392 24.976C171.628 24.976 170.332 26.248 170.332 28.06ZM171.472 28.06C171.472 26.836 172.252 25.984 173.392 25.984C174.52 25.984 175.312 26.836 175.312 28.06C175.312 29.284 174.52 30.136 173.392 30.136C172.252 30.136 171.472 29.284 171.472 28.06ZM74.1852 47V43.568H76.4052L78.0252 47H79.3332L77.5692 43.34C78.6492 42.992 79.2492 42.128 79.2492 40.928C79.2492 39.308 78.1452 38.324 76.2852 38.324H73.0092V47H74.1852ZM74.1852 39.38H76.2852C77.3652 39.38 78.0132 39.932 78.0132 40.94C78.0132 41.936 77.3892 42.524 76.2972 42.524H74.1852V39.38ZM82.7789 47.144C84.2309 47.144 85.2149 46.436 85.5029 45.176H84.4469C84.2549 45.848 83.6789 46.208 82.8029 46.208C81.6869 46.208 81.0389 45.524 80.9549 44.288L85.4909 44.276V43.856C85.4909 42.116 84.3989 40.964 82.7309 40.964C81.0269 40.964 79.8629 42.236 79.8629 44.072C79.8629 45.896 81.0509 47.144 82.7789 47.144ZM82.7309 41.912C83.7269 41.912 84.3629 42.56 84.3629 43.532H80.9789C81.1229 42.5 81.7469 41.912 82.7309 41.912ZM86.7508 49.628H87.8788V46.04C88.2628 46.76 89.0428 47.156 89.9788 47.156C91.7188 47.156 92.7028 45.812 92.7028 44.024C92.7028 42.224 91.6588 40.964 89.9788 40.964C89.0428 40.964 88.2508 41.384 87.8548 42.188L87.7708 41.132H86.7508V49.628ZM87.8908 44.072C87.8908 42.848 88.5868 41.996 89.7388 41.996C90.8908 41.996 91.5748 42.86 91.5748 44.072C91.5748 45.272 90.8908 46.136 89.7388 46.136C88.5868 46.136 87.8908 45.272 87.8908 44.072ZM95.6621 47.144C96.6101 47.144 97.4141 46.724 97.7141 46.052L97.8341 47H98.7941V43.316C98.7941 41.732 97.8101 40.964 96.3581 40.964C94.8461 40.964 93.8381 41.768 93.8381 42.992H94.8221C94.8221 42.284 95.3621 41.864 96.3101 41.864C97.1021 41.864 97.6901 42.212 97.6901 43.196V43.364L95.8421 43.508C94.4621 43.616 93.6581 44.288 93.6581 45.368C93.6581 46.436 94.4021 47.144 95.6621 47.144ZM95.9861 46.268C95.2541 46.268 94.7981 45.956 94.7981 45.332C94.7981 44.756 95.2061 44.372 96.2021 44.276L97.7021 44.156V44.468C97.7021 45.572 97.0541 46.268 95.9861 46.268ZM99.6517 49.628C99.9517 49.7 100.264 49.748 100.636 49.748C101.536 49.748 102.124 49.328 102.52 48.32L105.292 41.132H104.128L102.388 45.86L100.684 41.132H99.4957L101.86 47.312L101.656 47.876C101.38 48.62 100.948 48.704 100.408 48.704H99.6517V49.628Z" fill="white"/>
<rect opacity="0.1" x="16.0012" y="14" width="40" height="40" rx="8" fill="white"/>
<path d="M30.8571 34.0216H29.1429C28.6697 34.0216 28.2857 33.6369 28.2857 33.1629C28.2857 32.6889 28.6697 32.3042 29.1429 32.3042H30.8571C31.3303 32.3042 31.7143 32.6889 31.7143 33.1629C31.7143 33.6369 31.3303 34.0216 30.8571 34.0216ZM37.7143 33.1629C37.7143 32.6889 37.3303 32.3042 36.8571 32.3042H35.1429C34.6697 32.3042 34.2857 32.6889 34.2857 33.1629C34.2857 33.6369 34.6697 34.0216 35.1429 34.0216H36.8571C37.3303 34.0216 37.7143 33.6369 37.7143 33.1629ZM43.7143 33.1629C43.7143 32.6889 43.3303 32.3042 42.8571 32.3042H41.1429C40.6697 32.3042 40.2857 32.6889 40.2857 33.1629C40.2857 33.6369 40.6697 34.0216 41.1429 34.0216H42.8571C43.3303 34.0216 43.7143 33.6369 43.7143 33.1629ZM31.7143 37.4563C31.7143 36.9823 31.3303 36.5976 30.8571 36.5976H29.1429C28.6697 36.5976 28.2857 36.9823 28.2857 37.4563C28.2857 37.9303 28.6697 38.315 29.1429 38.315H30.8571C31.3303 38.315 31.7143 37.9303 31.7143 37.4563ZM37.7143 37.4563C37.7143 36.9823 37.3303 36.5976 36.8571 36.5976H35.1429C34.6697 36.5976 34.2857 36.9823 34.2857 37.4563C34.2857 37.9303 34.6697 38.315 35.1429 38.315H36.8571C37.3303 38.315 37.7143 37.9303 37.7143 37.4563ZM43.7143 37.4563C43.7143 36.9823 43.3303 36.5976 42.8571 36.5976H41.1429C40.6697 36.5976 40.2857 36.9823 40.2857 37.4563C40.2857 37.9303 40.6697 38.315 41.1429 38.315H42.8571C43.3303 38.315 43.7143 37.9303 43.7143 37.4563ZM31.7143 41.7498C31.7143 41.2758 31.3303 40.8911 30.8571 40.8911H29.1429C28.6697 40.8911 28.2857 41.2758 28.2857 41.7498C28.2857 42.2238 28.6697 42.6084 29.1429 42.6084H30.8571C31.3303 42.6084 31.7143 42.2238 31.7143 41.7498ZM37.7143 41.7498C37.7143 41.2758 37.3303 40.8911 36.8571 40.8911H35.1429C34.6697 40.8911 34.2857 41.2758 34.2857 41.7498C34.2857 42.2238 34.6697 42.6084 35.1429 42.6084H36.8571C37.3303 42.6084 37.7143 42.2238 37.7143 41.7498ZM43.7143 41.7498C43.7143 41.2758 43.3303 40.8911 42.8571 40.8911H41.1429C40.6697 40.8911 40.2857 41.2758 40.2857 41.7498C40.2857 42.2238 40.6697 42.6084 41.1429 42.6084H42.8571C43.3303 42.6084 43.7143 42.2238 43.7143 41.7498ZM45.4286 23.7174H43.7143V22.8587C43.7143 22.3847 43.3303 22 42.8571 22C42.384 22 42 22.3847 42 22.8587V23.7174H30V22.8587C30 22.3847 29.616 22 29.1429 22C28.6697 22 28.2857 22.3847 28.2857 22.8587V23.7174H26.5714C25.1537 23.7174 24 24.8732 24 26.2934V43.4239C24 44.8442 25.1537 46 26.5714 46H45.4286C46.8463 46 48 44.8442 48 43.4239V26.2934C48 24.8732 46.8463 23.7174 45.4286 23.7174ZM26.5714 25.4347H28.2857V26.4163C28.2857 26.8903 28.6697 27.275 29.1429 27.275C29.616 27.275 30 26.8903 30 26.4163V25.4347H42V26.4163C42 26.8903 42.384 27.275 42.8571 27.275C43.3303 27.275 43.7143 26.8903 43.7143 26.4163V25.4347H45.4286C45.9008 25.4347 46.2857 25.8204 46.2857 26.2934V28.8695H25.7143V26.2934C25.7143 25.8204 26.0992 25.4347 26.5714 25.4347ZM45.4286 44.2826H26.5714C26.0992 44.2826 25.7143 43.897 25.7143 43.4239V30.5869H46.2857V43.4239C46.2857 43.897 45.9008 44.2826 45.4286 44.2826Z" fill="white"/>
</svg>
