<svg width="720" height="1024" viewBox="0 0 720 1024" fill="none" xmlns="http://www.w3.org/2000/svg">
<rect width="720" height="1024" fill="white"/>
<path d="M483.736 671.959C483.736 671.959 492.428 663.08 492.428 658.288C492.428 635.434 422.768 616.912 336.838 616.912C250.908 616.912 181.246 635.44 181.246 658.288C181.246 681.137 250.907 699.665 336.838 699.665C372.828 699.665 405.964 696.413 432.322 690.958C428.379 694.671 481.5 673.5 483.736 671.959Z" fill="#F6F5FB"/>
<path d="M362.129 645.445C394.493 645.445 420.729 639.501 420.729 632.168C420.729 624.835 394.493 618.891 362.129 618.891C329.765 618.891 303.529 624.835 303.529 632.168C303.529 639.501 329.765 645.445 362.129 645.445Z" fill="#E3E2ED"/>
<path d="M315.476 314.501C343.226 332.809 377.66 338.635 409.652 329.779C437.531 322.061 474.875 320.296 516.725 340.947C606.101 385.07 642.586 625.39 296.26 596.095C-1.31255 570.93 164.636 215.029 315.476 314.501Z" fill="#F6F5FB"/>
<path d="M247.121 412.386H247.097C247.001 412.38 246.911 412.335 246.847 412.262C246.783 412.19 246.751 412.095 246.757 411.998C246.901 409.775 246.771 376.993 246.757 373.144H232.13V341.511C232.13 341.414 232.169 341.321 232.238 341.252C232.306 341.184 232.4 341.145 232.497 341.145C232.594 341.145 232.687 341.184 232.756 341.252C232.824 341.321 232.863 341.414 232.863 341.511V372.41H247.486V372.776C247.486 374.281 247.639 409.669 247.486 412.044C247.479 412.136 247.439 412.223 247.371 412.287C247.303 412.35 247.214 412.386 247.121 412.386Z" fill="#979CBA"/>
<path d="M182.237 577.767C182.14 577.767 182.047 577.728 181.978 577.659C181.909 577.591 181.871 577.498 181.871 577.4V479.925H238.7C238.797 479.925 238.89 479.964 238.959 480.033C239.027 480.101 239.066 480.194 239.066 480.292C239.066 480.389 239.027 480.482 238.959 480.55C238.89 480.619 238.797 480.658 238.7 480.658H182.603V577.4C182.603 577.498 182.565 577.591 182.496 577.659C182.427 577.728 182.334 577.767 182.237 577.767Z" fill="#979CBA"/>
<path d="M325.697 670.41H216.488V630.286C216.488 630.189 216.526 630.096 216.595 630.027C216.664 629.958 216.757 629.92 216.854 629.92C216.951 629.92 217.044 629.958 217.113 630.027C217.182 630.096 217.22 630.189 217.22 630.286V669.678H325.697C325.794 669.678 325.887 669.717 325.956 669.785C326.025 669.854 326.063 669.947 326.063 670.044C326.063 670.141 326.025 670.234 325.956 670.303C325.887 670.372 325.794 670.41 325.697 670.41Z" fill="#979CBA"/>
<path d="M560.699 434.457H487.053C486.956 434.457 486.863 434.418 486.794 434.35C486.725 434.281 486.687 434.188 486.687 434.091C486.687 433.994 486.725 433.9 486.794 433.832C486.863 433.763 486.956 433.725 487.053 433.725H559.966V355.092C559.966 354.995 560.005 354.902 560.073 354.833C560.142 354.765 560.235 354.726 560.332 354.726C560.43 354.726 560.523 354.765 560.591 354.833C560.66 354.902 560.699 354.995 560.699 355.092V434.457Z" fill="#979CBA"/>
<path d="M512.959 388.748H225.782C220.872 388.748 216.856 392.676 216.856 397.474V579.967C216.856 584.766 220.872 588.691 225.782 588.691H349.089L341.746 617.648H331.188V630.28H406.462V617.648H397.854L389.455 588.691H512.952C517.862 588.691 521.878 584.766 521.878 579.967V397.474C521.886 392.676 517.869 388.748 512.959 388.748Z" fill="#5867AC"/>
<path d="M514.314 405.616V554.964C514.314 559.907 510.065 563.97 504.864 563.97H233.132C227.931 563.97 223.68 559.914 223.68 554.964V405.616C223.68 400.673 227.931 396.61 233.132 396.61H504.864C510.065 396.61 514.314 400.667 514.314 405.616Z" fill="white"/>
<path d="M513.898 405.616V554.964C513.898 559.907 509.648 563.97 504.446 563.97H232.714C227.513 563.97 223.264 559.914 223.264 554.964V405.616C223.264 400.673 227.513 396.61 232.714 396.61H504.446C509.648 396.61 513.898 400.667 513.898 405.616Z" fill="#D4D8E1"/>
<path d="M369.545 582.514C366.184 582.514 363.449 579.585 363.449 575.969C363.449 572.353 366.184 569.422 369.545 569.422C372.905 569.422 375.64 572.351 375.64 575.969C375.64 579.587 372.905 582.514 369.545 582.514ZM369.545 570.154C366.587 570.154 364.182 572.763 364.182 575.969C364.182 579.175 366.587 581.782 369.545 581.782C372.502 581.782 374.907 579.175 374.907 575.969C374.907 572.763 372.502 570.16 369.545 570.16V570.154Z" fill="white"/>
<path d="M497.864 404.523H237.497C234.735 404.523 232.497 406.761 232.497 409.521V551.525C232.497 554.286 234.735 556.524 237.497 556.524H497.864C500.625 556.524 502.864 554.286 502.864 551.525V409.521C502.864 406.761 500.625 404.523 497.864 404.523Z" fill="white"/>
<path d="M502.864 409.521V423.679H232.497V409.521C232.5 408.197 233.028 406.928 233.965 405.992C234.901 405.055 236.17 404.527 237.495 404.523H497.864C499.189 404.527 500.458 405.055 501.395 405.991C502.332 406.928 502.86 408.197 502.864 409.521Z" fill="#979CBA"/>
<path d="M453.289 418.683C455.13 418.683 456.623 417.191 456.623 415.35C456.623 413.51 455.13 412.018 453.289 412.018C451.448 412.018 449.956 413.51 449.956 415.35C449.956 417.191 451.448 418.683 453.289 418.683Z" fill="white"/>
<path d="M468.287 418.683C470.128 418.683 471.621 417.191 471.621 415.35C471.621 413.51 470.128 412.018 468.287 412.018C466.446 412.018 464.954 413.51 464.954 415.35C464.954 417.191 466.446 418.683 468.287 418.683Z" fill="white"/>
<path d="M483.283 418.683C485.124 418.683 486.617 417.191 486.617 415.35C486.617 413.51 485.124 412.018 483.283 412.018C481.443 412.018 479.95 413.51 479.95 415.35C479.95 417.191 481.443 418.683 483.283 418.683Z" fill="white"/>
<path d="M487.053 468.1V440.198H470.203V442.256H447.308V468.1H487.053Z" fill="#565B72"/>
<path d="M487.052 468.1L478.501 447.785H438.688L446.972 468.1H487.052Z" fill="#7E8499"/>
<path d="M421.76 468.1V440.198H404.909V442.256H382.015V468.1H421.76Z" fill="#565B72"/>
<path d="M421.76 468.1L413.209 447.785H373.396L381.68 468.1H421.76Z" fill="#7E8499"/>
<path d="M356.466 468.1V440.198H339.617V442.256H316.721V468.1H356.466Z" fill="#565B72"/>
<path d="M356.466 468.1L347.917 447.785H308.104L316.388 468.1H356.466Z" fill="#7E8499"/>
<path d="M487.053 504.052V476.152H470.203V478.208H447.308V504.052H487.053Z" fill="#565B72"/>
<path d="M487.052 504.052L478.501 483.737H438.688L446.972 504.052H487.052Z" fill="#7E8499"/>
<path d="M421.76 504.052V476.152H404.909V478.208H382.015V504.052H421.76Z" fill="#565B72"/>
<path d="M421.76 504.052L413.209 483.737H373.396L381.68 504.052H421.76Z" fill="#7E8499"/>
<path d="M356.466 504.052V476.152H339.617V478.208H316.721V504.052H356.466Z" fill="#565B72"/>
<path d="M356.466 504.052L347.917 483.737H308.104L316.388 504.052H356.466Z" fill="#7E8499"/>
<path d="M487.053 540.006V512.104H470.203V514.162H447.308V540.006H487.053Z" fill="#565B72"/>
<path d="M487.052 540.006L478.501 519.689H438.688L446.972 540.006H487.052Z" fill="#7E8499"/>
<path d="M421.76 540.006V512.104H404.909V514.162H382.015V540.006H421.76Z" fill="#565B72"/>
<path d="M421.76 540.006L413.209 519.689H373.396L381.68 540.006H421.76Z" fill="#7E8499"/>
<path d="M356.466 540.006V512.104H339.617V514.162H316.721V540.006H356.466Z" fill="#565B72"/>
<path d="M356.466 540.006L347.917 519.689H308.104L316.388 540.006H356.466Z" fill="#7E8499"/>
<path d="M301.234 423.679V556.524H237.498C236.174 556.52 234.905 555.992 233.968 555.056C233.032 554.12 232.504 552.851 232.5 551.527V423.679H301.234Z" fill="#BFC6D1"/>
<path d="M285.705 434.091H245.108C243.894 434.091 242.91 435.074 242.91 436.288V449.384C242.91 450.597 243.894 451.581 245.108 451.581H285.705C286.919 451.581 287.903 450.597 287.903 449.384V436.288C287.903 435.074 286.919 434.091 285.705 434.091Z" fill="white"/>
<path d="M285.705 459.911H245.108C243.894 459.911 242.91 460.894 242.91 462.108V492.695C242.91 493.909 243.894 494.892 245.108 494.892H285.705C286.919 494.892 287.903 493.909 287.903 492.695V462.108C287.903 460.894 286.919 459.911 285.705 459.911Z" fill="white"/>
<path d="M459.601 382.432C459.727 417.533 451.95 469.891 391.228 498.195C387.607 499.887 383.796 501.486 379.794 502.994C378.321 503.549 376.821 504.091 375.292 504.62C375.292 504.803 374.504 504.803 374.504 504.62C359.316 499.36 346.814 492.802 336.54 485.359C330.709 481.16 325.301 476.404 320.391 471.158C317.856 468.449 315.472 465.603 313.249 462.633C310.433 458.888 307.876 454.954 305.598 450.859C284.3 412.675 291.295 369.362 291.295 353.276C331.007 365.623 369.162 337.123 374.572 332.851C374.572 332.507 375.23 332.507 375.23 332.851C375.242 332.866 375.263 332.875 375.275 332.888C378.6 335.465 382.069 337.849 385.667 340.028C388.327 341.66 391.402 343.406 394.825 345.134C401.194 348.374 407.858 351 414.726 352.978C427.861 356.703 443.064 358.078 458.498 353.276C458.498 357.02 458.875 362.247 459.192 368.543C459.395 372.74 459.577 377.412 459.601 382.432Z" fill="#F28C20"/>
<g opacity="0.51">
<path d="M414.716 352.981L336.525 485.365C330.694 481.166 325.286 476.409 320.377 471.163L394.81 345.138C401.182 348.378 407.847 351.004 414.716 352.981Z" fill="white"/>
<path d="M385.656 340.025L313.238 462.631C310.422 458.886 307.865 454.952 305.587 450.857L375.264 332.884C378.589 335.462 382.058 337.846 385.656 340.025Z" fill="white"/>
<path d="M459.19 368.547L379.784 502.999C383.792 501.494 387.603 499.895 391.218 498.201L459.601 382.438L459.19 368.547Z" fill="white"/>
</g>
<path d="M375.232 493.204C375.232 493.367 374.547 493.367 374.547 493.204C357.611 487.346 344.424 479.612 334.173 470.801C332.342 469.226 330.601 467.617 328.95 465.975C326.046 463.095 323.333 460.029 320.829 456.795C315.164 449.453 310.591 441.331 307.251 432.681C295.895 403.571 299.54 374.03 299.54 362.011C316.756 367.364 334.338 363.86 348.203 358.551C362.067 353.241 372.259 346.116 374.603 344.27C374.603 343.972 375.177 343.972 375.177 344.27C376.048 344.959 378.004 346.385 380.832 348.183C383.475 349.864 386.876 351.866 390.874 353.897C392.827 354.884 394.918 355.881 397.132 356.85C411.614 363.19 431.253 368.28 450.379 362.331C450.379 384.115 462.165 463.118 375.232 493.204Z" fill="#FFB776"/>
<g opacity="0.57">
<path d="M380.832 348.175L320.829 456.795C315.164 449.453 310.591 441.331 307.25 432.681L348.202 358.547C362.092 353.238 372.259 346.112 374.603 344.267C374.603 343.968 375.176 343.968 375.176 344.267C376.048 344.951 378.004 346.378 380.832 348.175Z" fill="white"/>
<path d="M334.173 470.801L397.132 356.843C394.918 355.874 392.827 354.876 390.874 353.89L328.95 465.975L334.173 470.801Z" fill="white"/>
</g>
<g opacity="0.68">
<path d="M415.876 378.728H331.309V406.436H415.876V378.728Z" fill="white"/>
</g>
<path d="M350.611 401.174L349.389 400.916C348.597 400.753 347.827 400.5 347.092 400.162C346.402 399.847 345.756 399.444 345.169 398.964L346.73 396.189C347.438 396.765 348.244 397.209 349.111 397.498C350.004 397.803 350.943 397.958 351.887 397.957C352.986 397.957 353.841 397.774 354.451 397.408C354.734 397.254 354.968 397.026 355.13 396.747C355.291 396.469 355.373 396.152 355.367 395.83V395.817C355.378 395.612 355.348 395.406 355.278 395.212C355.209 395.018 355.101 394.84 354.962 394.688C354.669 394.396 354.305 394.184 353.905 394.074C353.357 393.919 352.799 393.799 352.235 393.717C352.213 393.71 352.19 393.707 352.167 393.706C352.144 393.705 352.121 393.701 352.1 393.694L351.83 393.657C350.82 393.513 349.825 393.276 348.858 392.95C348.06 392.66 347.364 392.144 346.854 391.465C346.306 390.757 346.032 389.752 346.032 388.45V388.437C346.001 387.397 346.27 386.37 346.807 385.479C347.341 384.639 348.12 383.983 349.039 383.598C350.016 383.167 351.203 382.953 352.601 382.954C353.261 382.956 353.918 383.03 354.561 383.175C355.233 383.324 355.89 383.537 356.521 383.813C357.156 384.091 357.765 384.428 358.338 384.819L356.913 387.668C356.247 387.207 355.522 386.838 354.757 386.57C354.066 386.318 353.337 386.185 352.601 386.176C351.57 386.176 350.771 386.346 350.206 386.687C349.946 386.824 349.73 387.03 349.58 387.282C349.43 387.535 349.353 387.823 349.358 388.117V388.13C349.346 388.352 349.379 388.575 349.455 388.785C349.531 388.995 349.649 389.187 349.801 389.351C350.108 389.657 350.485 389.882 350.9 390.008C351.502 390.188 352.113 390.335 352.731 390.449C352.764 390.458 352.797 390.464 352.83 390.468L352.927 390.486C352.977 390.495 353.024 390.504 353.068 390.517C353.112 390.53 353.162 390.539 353.211 390.548C354.179 390.723 355.128 390.992 356.043 391.352C356.805 391.672 357.463 392.2 357.94 392.875C358.448 393.574 358.702 394.53 358.702 395.742V395.766C358.732 396.8 358.454 397.82 357.904 398.695C357.33 399.529 356.517 400.17 355.572 400.533C354.551 400.958 353.325 401.171 351.893 401.171L350.611 401.174Z" fill="#7E8499"/>
<path d="M366.138 383.133H368.275L375.105 400.991H371.482L367.208 388.798L362.933 400.991H359.308L366.138 383.133ZM362.589 394.884H371.986V398.126H362.589V394.884Z" fill="#7E8499"/>
<path d="M377.317 383.133H380.682V400.991H377.317V383.133ZM378.544 383.133H389.048V386.374H378.544V383.133ZM378.544 390.66H387.702V393.902H378.544V390.66Z" fill="#7E8499"/>
<path d="M391.627 383.133H394.993V400.991H391.627V383.133ZM392.843 383.133H403.592V386.374H392.843V383.133ZM392.843 390.501H402.24V393.741H392.843V390.501ZM392.843 397.745H403.592V400.991H392.843V397.745Z" fill="#7E8499"/>
<path d="M372.546 470.044H372.526C371.781 470.004 371.039 469.92 370.303 469.794C370.254 469.787 370.208 469.77 370.166 469.745C370.124 469.72 370.087 469.686 370.058 469.647C370.03 469.607 370.009 469.562 369.998 469.514C369.987 469.467 369.985 469.417 369.994 469.369C370.002 469.321 370.02 469.274 370.046 469.233C370.073 469.192 370.107 469.157 370.148 469.129C370.188 469.101 370.234 469.082 370.282 469.072C370.33 469.063 370.379 469.063 370.427 469.072C371.135 469.193 371.85 469.274 372.567 469.314C372.664 469.317 372.756 469.358 372.823 469.428C372.889 469.499 372.926 469.593 372.923 469.69C372.92 469.787 372.879 469.879 372.808 469.946C372.738 470.013 372.644 470.049 372.546 470.046V470.044ZM374.744 470.044C374.696 470.046 374.648 470.038 374.603 470.021C374.558 470.004 374.517 469.978 374.482 469.945C374.447 469.912 374.419 469.872 374.399 469.829C374.379 469.785 374.368 469.737 374.367 469.689C374.366 469.641 374.374 469.593 374.391 469.548C374.408 469.503 374.434 469.462 374.466 469.427C374.499 469.392 374.539 469.364 374.583 469.344C374.627 469.325 374.674 469.314 374.722 469.312C375.44 469.269 376.154 469.185 376.861 469.06C376.909 469.051 376.957 469.052 377.004 469.062C377.051 469.073 377.096 469.092 377.135 469.12C377.175 469.147 377.208 469.182 377.234 469.223C377.26 469.263 377.278 469.309 377.286 469.356C377.295 469.403 377.294 469.452 377.283 469.499C377.273 469.546 377.254 469.59 377.226 469.63C377.198 469.669 377.163 469.703 377.123 469.729C377.082 469.755 377.037 469.772 376.99 469.781C376.254 469.911 375.512 469.999 374.766 470.044H374.744ZM368.228 469.312C368.193 469.313 368.157 469.308 368.123 469.298C367.407 469.086 366.704 468.833 366.017 468.54C365.973 468.521 365.933 468.493 365.899 468.459C365.866 468.425 365.839 468.384 365.821 468.339C365.803 468.295 365.794 468.247 365.795 468.199C365.795 468.151 365.805 468.103 365.824 468.059C365.843 468.015 365.87 467.975 365.905 467.941C365.939 467.907 365.98 467.881 366.024 467.863C366.069 467.845 366.117 467.836 366.165 467.836C366.213 467.837 366.261 467.847 366.305 467.866C366.966 468.15 367.643 468.394 368.332 468.598C368.417 468.623 368.49 468.677 368.538 468.752C368.586 468.826 368.605 468.915 368.592 469.002C368.579 469.09 368.536 469.17 368.469 469.227C368.402 469.285 368.316 469.316 368.228 469.316V469.312ZM379.061 469.283C378.973 469.284 378.887 469.253 378.819 469.195C378.752 469.138 378.708 469.058 378.695 468.97C378.682 468.883 378.701 468.794 378.749 468.719C378.797 468.645 378.87 468.59 378.955 468.565C379.64 468.36 380.313 468.116 380.969 467.833C381.014 467.814 381.061 467.803 381.109 467.802C381.157 467.801 381.205 467.81 381.25 467.828C381.295 467.845 381.336 467.872 381.37 467.905C381.405 467.938 381.433 467.978 381.452 468.022C381.471 468.066 381.482 468.114 381.483 468.162C381.483 468.21 381.475 468.258 381.457 468.303C381.44 468.348 381.413 468.388 381.38 468.423C381.347 468.458 381.307 468.486 381.263 468.505C380.577 468.801 379.875 469.058 379.16 469.274C379.127 469.281 379.093 469.283 379.059 469.281L379.061 469.283ZM364.195 467.589C364.131 467.589 364.067 467.572 364.012 467.54C363.363 467.169 362.737 466.76 362.136 466.315C362.095 466.287 362.06 466.252 362.034 466.21C362.007 466.169 361.989 466.122 361.98 466.073C361.972 466.025 361.973 465.975 361.985 465.927C361.996 465.878 362.018 465.833 362.047 465.793C362.076 465.754 362.114 465.72 362.156 465.695C362.199 465.67 362.246 465.654 362.295 465.648C362.345 465.642 362.394 465.646 362.442 465.66C362.49 465.673 362.534 465.696 362.572 465.727C363.151 466.154 363.753 466.547 364.376 466.905C364.447 466.945 364.502 467.007 364.533 467.082C364.565 467.156 364.57 467.239 364.55 467.318C364.529 467.396 364.482 467.465 364.418 467.514C364.353 467.564 364.274 467.59 364.193 467.589H364.195ZM383.083 467.536C383.002 467.536 382.924 467.509 382.86 467.46C382.797 467.411 382.751 467.343 382.73 467.265C382.709 467.187 382.714 467.105 382.745 467.03C382.776 466.956 382.83 466.894 382.9 466.853C383.521 466.493 384.12 466.097 384.695 465.667C384.772 465.609 384.87 465.584 384.966 465.597C385.062 465.611 385.149 465.663 385.208 465.74C385.266 465.818 385.291 465.916 385.277 466.012C385.263 466.108 385.212 466.195 385.134 466.253C384.537 466.7 383.914 467.112 383.268 467.487C383.21 467.516 383.146 467.53 383.081 467.525L383.083 467.536ZM360.669 464.973C360.576 464.973 360.486 464.938 360.418 464.874C359.874 464.363 359.359 463.822 358.876 463.252C358.829 463.178 358.811 463.089 358.824 463.002C358.837 462.916 358.881 462.836 358.947 462.779C359.014 462.722 359.099 462.69 359.187 462.69C359.274 462.691 359.359 462.722 359.426 462.78C359.89 463.328 360.386 463.849 360.911 464.34C360.982 464.406 361.023 464.498 361.026 464.594C361.029 464.691 360.994 464.785 360.928 464.856C360.894 464.892 360.854 464.92 360.809 464.94C360.765 464.96 360.716 464.97 360.667 464.971L360.669 464.973ZM386.592 464.904C386.542 464.903 386.493 464.893 386.447 464.873C386.402 464.853 386.361 464.824 386.327 464.788C386.293 464.753 386.268 464.712 386.25 464.667C386.233 464.622 386.225 464.574 386.226 464.526C386.228 464.478 386.239 464.431 386.258 464.387C386.278 464.343 386.306 464.303 386.341 464.27C386.864 463.777 387.356 463.254 387.817 462.703C387.848 462.664 387.885 462.631 387.928 462.607C387.971 462.582 388.019 462.567 388.068 462.562C388.117 462.556 388.167 462.561 388.214 462.575C388.262 462.59 388.306 462.613 388.344 462.645C388.382 462.677 388.413 462.716 388.435 462.76C388.457 462.805 388.47 462.853 388.474 462.902C388.477 462.951 388.47 463.001 388.454 463.048C388.437 463.094 388.411 463.137 388.378 463.173C387.899 463.746 387.387 464.29 386.845 464.803C386.776 464.867 386.685 464.903 386.59 464.902L386.592 464.904ZM357.838 461.628C357.777 461.628 357.718 461.614 357.664 461.585C357.611 461.557 357.566 461.516 357.532 461.465C357.118 460.844 356.741 460.199 356.402 459.534C356.38 459.491 356.367 459.444 356.363 459.396C356.36 459.348 356.366 459.3 356.381 459.254C356.395 459.208 356.419 459.166 356.451 459.13C356.482 459.093 356.52 459.063 356.563 459.041C356.606 459.019 356.653 459.006 356.701 459.003C356.749 458.999 356.797 459.005 356.843 459.02C356.889 459.035 356.931 459.059 356.967 459.09C357.004 459.121 357.034 459.159 357.056 459.202C357.381 459.842 357.744 460.462 358.142 461.059C358.179 461.114 358.2 461.178 358.203 461.244C358.206 461.31 358.191 461.376 358.16 461.434C358.129 461.493 358.083 461.542 358.026 461.576C357.969 461.61 357.904 461.628 357.838 461.628ZM389.411 461.544C389.345 461.544 389.28 461.526 389.223 461.492C389.166 461.458 389.12 461.41 389.088 461.351C389.057 461.293 389.042 461.228 389.045 461.162C389.048 461.096 389.069 461.032 389.105 460.976C389.499 460.376 389.859 459.753 390.182 459.111C390.203 459.066 390.232 459.027 390.268 458.994C390.305 458.961 390.347 458.936 390.394 458.92C390.44 458.903 390.489 458.897 390.538 458.9C390.587 458.903 390.635 458.916 390.679 458.939C390.723 458.961 390.761 458.991 390.793 459.029C390.825 459.066 390.849 459.109 390.863 459.156C390.878 459.203 390.883 459.252 390.878 459.301C390.874 459.35 390.859 459.397 390.836 459.44C390.501 460.107 390.127 460.754 389.717 461.377C389.683 461.428 389.637 461.47 389.583 461.499C389.529 461.528 389.468 461.543 389.407 461.542L389.411 461.544ZM355.849 457.723C355.774 457.723 355.701 457.7 355.639 457.657C355.577 457.614 355.53 457.554 355.505 457.483C355.246 456.783 355.028 456.068 354.853 455.343C354.83 455.249 354.845 455.149 354.896 455.066C354.947 454.983 355.028 454.924 355.123 454.901C355.217 454.878 355.317 454.894 355.4 454.944C355.483 454.995 355.542 455.076 355.565 455.171C355.734 455.869 355.943 456.557 356.191 457.231C356.225 457.322 356.221 457.422 356.181 457.511C356.14 457.599 356.066 457.667 355.975 457.701C355.933 457.715 355.889 457.722 355.845 457.721L355.849 457.723ZM391.38 457.624C391.337 457.625 391.295 457.617 391.255 457.602C391.164 457.569 391.089 457.501 391.048 457.413C391.007 457.325 391.002 457.225 391.035 457.133C391.281 456.458 391.487 455.769 391.653 455.07C391.662 455.022 391.681 454.976 391.709 454.935C391.737 454.895 391.772 454.86 391.814 454.833C391.855 454.807 391.901 454.789 391.95 454.78C391.999 454.772 392.048 454.774 392.096 454.785C392.144 454.796 392.189 454.817 392.229 454.846C392.269 454.875 392.302 454.912 392.327 454.955C392.352 454.997 392.368 455.044 392.375 455.093C392.381 455.142 392.378 455.191 392.365 455.239C392.193 455.966 391.979 456.682 391.724 457.384C391.697 457.455 391.65 457.516 391.587 457.559C391.524 457.602 391.45 457.624 391.374 457.622L391.38 457.624ZM354.82 453.463C354.73 453.463 354.642 453.431 354.575 453.371C354.507 453.312 354.464 453.23 354.453 453.14C354.363 452.4 354.316 451.655 354.312 450.909C354.312 450.812 354.351 450.718 354.42 450.65C354.488 450.581 354.581 450.543 354.679 450.543C354.776 450.543 354.869 450.581 354.938 450.65C355.006 450.718 355.045 450.812 355.045 450.909C355.049 451.627 355.094 452.344 355.18 453.056C355.186 453.104 355.183 453.153 355.17 453.199C355.157 453.246 355.135 453.289 355.105 453.327C355.075 453.365 355.038 453.397 354.996 453.42C354.954 453.444 354.908 453.459 354.86 453.465L354.82 453.463ZM392.385 453.353H392.343C392.247 453.342 392.159 453.293 392.098 453.217C392.038 453.141 392.01 453.045 392.021 452.948C392.103 452.235 392.145 451.517 392.145 450.799C392.145 450.729 392.145 450.66 392.145 450.59C392.145 450.493 392.184 450.4 392.253 450.331C392.321 450.263 392.414 450.224 392.511 450.224C392.609 450.224 392.702 450.263 392.771 450.331C392.839 450.4 392.878 450.493 392.878 450.59C392.878 450.662 392.878 450.735 392.878 450.806C392.877 451.553 392.834 452.298 392.75 453.04C392.737 453.127 392.693 453.207 392.626 453.264C392.559 453.322 392.473 453.353 392.385 453.353ZM354.794 449.076H354.754C354.657 449.065 354.569 449.017 354.508 448.942C354.448 448.866 354.419 448.77 354.429 448.673C354.509 447.934 354.632 447.201 354.796 446.476C354.817 446.382 354.876 446.299 354.958 446.248C355.04 446.196 355.14 446.179 355.234 446.201C355.329 446.222 355.411 446.281 355.463 446.363C355.515 446.445 355.532 446.544 355.51 446.639C355.347 447.339 355.224 448.047 355.144 448.761C355.132 448.848 355.091 448.927 355.026 448.986C354.961 449.044 354.877 449.077 354.79 449.08L354.794 449.076ZM392.36 448.759C392.27 448.76 392.183 448.728 392.115 448.669C392.048 448.61 392.004 448.528 391.993 448.439C391.903 447.726 391.772 447.02 391.599 446.322C391.587 446.276 391.585 446.227 391.591 446.18C391.598 446.132 391.614 446.086 391.639 446.045C391.663 446.003 391.696 445.967 391.734 445.938C391.773 445.909 391.816 445.888 391.863 445.876C391.91 445.864 391.958 445.861 392.006 445.868C392.054 445.874 392.1 445.891 392.141 445.915C392.183 445.94 392.219 445.972 392.248 446.01C392.277 446.049 392.298 446.093 392.31 446.139C392.49 446.863 392.627 447.597 392.72 448.336C392.732 448.432 392.706 448.529 392.646 448.606C392.587 448.682 392.5 448.732 392.403 448.745L392.36 448.759ZM355.776 444.803C355.717 444.803 355.659 444.789 355.607 444.762C355.555 444.735 355.511 444.695 355.477 444.648C355.443 444.6 355.421 444.544 355.413 444.486C355.406 444.428 355.412 444.369 355.431 444.314C355.682 443.61 355.975 442.922 356.307 442.253C356.353 442.171 356.428 442.11 356.518 442.083C356.607 442.056 356.704 442.063 356.788 442.105C356.872 442.146 356.936 442.218 356.969 442.306C357.001 442.394 356.999 442.491 356.962 442.577C356.644 443.223 356.363 443.886 356.122 444.565C356.096 444.637 356.048 444.698 355.985 444.742C355.923 444.785 355.848 444.808 355.772 444.807L355.776 444.803ZM391.306 444.504C391.232 444.504 391.16 444.482 391.098 444.44C391.037 444.398 390.99 444.338 390.964 444.268C390.711 443.596 390.419 442.939 390.09 442.3C390.065 442.257 390.049 442.21 390.043 442.16C390.036 442.111 390.04 442.061 390.054 442.013C390.068 441.965 390.092 441.921 390.123 441.882C390.155 441.844 390.194 441.812 390.238 441.789C390.283 441.766 390.331 441.753 390.381 441.749C390.43 441.746 390.48 441.753 390.527 441.769C390.574 441.786 390.617 441.811 390.654 441.845C390.691 441.879 390.72 441.92 390.74 441.965C391.086 442.628 391.391 443.311 391.656 444.01C391.673 444.055 391.681 444.103 391.68 444.151C391.678 444.2 391.667 444.247 391.647 444.291C391.627 444.335 391.599 444.374 391.564 444.407C391.528 444.44 391.487 444.466 391.442 444.482C391.397 444.5 391.349 444.508 391.301 444.508L391.306 444.504ZM357.724 440.874C357.658 440.874 357.594 440.856 357.537 440.823C357.48 440.789 357.433 440.741 357.402 440.683C357.37 440.625 357.355 440.559 357.358 440.493C357.36 440.427 357.381 440.363 357.417 440.308C357.823 439.682 358.266 439.08 358.743 438.505C358.805 438.433 358.894 438.388 358.989 438.381C359.084 438.373 359.179 438.403 359.252 438.464C359.326 438.525 359.372 438.612 359.383 438.707C359.393 438.801 359.366 438.897 359.307 438.972C358.846 439.525 358.418 440.105 358.025 440.707C357.992 440.759 357.947 440.802 357.893 440.831C357.84 440.861 357.78 440.877 357.719 440.878L357.724 440.874ZM389.297 440.61C389.237 440.61 389.178 440.596 389.125 440.568C389.072 440.54 389.027 440.499 388.993 440.449C388.591 439.854 388.156 439.283 387.689 438.737C387.651 438.702 387.621 438.66 387.601 438.613C387.581 438.565 387.571 438.514 387.572 438.463C387.572 438.412 387.584 438.361 387.606 438.314C387.627 438.268 387.659 438.226 387.697 438.192C387.736 438.158 387.782 438.133 387.831 438.118C387.88 438.103 387.932 438.099 387.983 438.105C388.034 438.111 388.083 438.128 388.127 438.155C388.171 438.182 388.209 438.217 388.239 438.26C388.725 438.826 389.178 439.421 389.594 440.041C389.631 440.096 389.652 440.16 389.655 440.226C389.658 440.292 389.644 440.357 389.613 440.416C389.582 440.474 389.536 440.523 389.479 440.557C389.423 440.591 389.358 440.61 389.292 440.61H389.297ZM360.521 437.498C360.448 437.498 360.376 437.476 360.315 437.435C360.255 437.394 360.208 437.336 360.18 437.268C360.153 437.2 360.147 437.125 360.163 437.053C360.178 436.982 360.215 436.917 360.268 436.866C360.809 436.352 361.377 435.868 361.971 435.416C362.01 435.387 362.054 435.366 362.1 435.354C362.147 435.341 362.195 435.339 362.243 435.345C362.291 435.352 362.337 435.368 362.378 435.392C362.42 435.416 362.456 435.448 362.485 435.487C362.514 435.525 362.536 435.569 362.548 435.615C362.56 435.662 362.563 435.71 362.556 435.758C362.55 435.806 362.534 435.852 362.51 435.893C362.485 435.935 362.453 435.971 362.415 436C361.842 436.433 361.295 436.899 360.776 437.395C360.707 437.463 360.614 437.502 360.517 437.502L360.521 437.498ZM386.444 437.284C386.351 437.283 386.262 437.248 386.195 437.185C385.667 436.698 385.112 436.24 384.534 435.815C384.491 435.788 384.455 435.753 384.427 435.712C384.399 435.67 384.38 435.623 384.371 435.574C384.362 435.525 384.363 435.474 384.374 435.426C384.385 435.377 384.406 435.331 384.436 435.291C384.465 435.25 384.503 435.216 384.546 435.191C384.589 435.166 384.637 435.15 384.687 435.144C384.736 435.138 384.787 435.142 384.835 435.156C384.883 435.17 384.927 435.194 384.966 435.226C385.568 435.666 386.145 436.141 386.693 436.648C386.747 436.698 386.785 436.764 386.801 436.835C386.818 436.907 386.812 436.982 386.786 437.051C386.759 437.12 386.712 437.179 386.651 437.22C386.59 437.262 386.518 437.284 386.444 437.284ZM364.012 434.861C363.931 434.861 363.853 434.835 363.789 434.786C363.725 434.737 363.679 434.668 363.659 434.59C363.638 434.512 363.643 434.43 363.674 434.356C363.705 434.281 363.759 434.219 363.829 434.179C364.472 433.801 365.137 433.46 365.819 433.159C365.864 433.138 365.912 433.126 365.961 433.124C366.01 433.122 366.058 433.13 366.104 433.147C366.15 433.164 366.192 433.19 366.228 433.224C366.263 433.257 366.292 433.298 366.311 433.342C366.331 433.387 366.342 433.435 366.342 433.484C366.343 433.533 366.334 433.582 366.316 433.627C366.297 433.673 366.27 433.714 366.235 433.748C366.201 433.783 366.16 433.81 366.114 433.829C365.458 434.118 364.819 434.446 364.2 434.81C364.143 434.844 364.078 434.862 364.012 434.861ZM382.898 434.704C382.834 434.704 382.771 434.688 382.715 434.656C382.089 434.302 381.444 433.985 380.781 433.706C380.691 433.669 380.62 433.597 380.584 433.507C380.547 433.417 380.547 433.316 380.585 433.227C380.623 433.137 380.694 433.066 380.784 433.029C380.874 432.993 380.975 432.993 381.065 433.031C381.755 433.32 382.428 433.65 383.079 434.017C383.151 434.057 383.207 434.119 383.239 434.194C383.271 434.27 383.277 434.353 383.256 434.432C383.235 434.511 383.188 434.581 383.123 434.63C383.058 434.679 382.978 434.705 382.896 434.704H382.898ZM368.023 433.093C367.935 433.093 367.851 433.061 367.784 433.004C367.718 432.947 367.674 432.868 367.661 432.781C367.648 432.695 367.666 432.606 367.713 432.532C367.759 432.458 367.831 432.403 367.915 432.377C368.629 432.158 369.356 431.98 370.09 431.844C370.186 431.827 370.285 431.848 370.365 431.903C370.445 431.959 370.5 432.043 370.517 432.139C370.535 432.235 370.513 432.333 370.458 432.413C370.403 432.493 370.318 432.548 370.222 432.566C369.516 432.694 368.817 432.865 368.131 433.076C368.097 433.086 368.062 433.09 368.026 433.089L368.023 433.093ZM378.856 433.001C378.821 433.002 378.787 432.997 378.753 432.987C378.064 432.788 377.363 432.629 376.655 432.511C376.605 432.505 376.557 432.49 376.513 432.466C376.47 432.441 376.432 432.408 376.402 432.368C376.371 432.329 376.35 432.283 376.338 432.235C376.326 432.187 376.324 432.136 376.332 432.087C376.34 432.038 376.358 431.991 376.385 431.949C376.412 431.907 376.447 431.871 376.488 431.843C376.53 431.815 376.576 431.796 376.625 431.787C376.675 431.777 376.725 431.778 376.774 431.789C377.51 431.91 378.239 432.076 378.957 432.284C379.041 432.308 379.114 432.363 379.162 432.436C379.21 432.51 379.229 432.599 379.217 432.686C379.205 432.773 379.161 432.853 379.095 432.911C379.029 432.969 378.944 433.001 378.856 433.001ZM372.334 432.302C372.286 432.304 372.238 432.296 372.193 432.279C372.148 432.262 372.107 432.236 372.072 432.203C372.036 432.17 372.008 432.131 371.988 432.087C371.968 432.043 371.957 431.996 371.956 431.948C371.954 431.9 371.962 431.852 371.979 431.807C371.996 431.762 372.022 431.72 372.055 431.685C372.088 431.65 372.127 431.622 372.171 431.602C372.215 431.582 372.262 431.571 372.31 431.57C373.055 431.521 373.803 431.514 374.548 431.551C374.645 431.556 374.736 431.599 374.801 431.671C374.867 431.742 374.901 431.837 374.896 431.934C374.892 432.031 374.849 432.122 374.777 432.187C374.705 432.252 374.61 432.286 374.513 432.282C373.796 432.248 373.077 432.254 372.36 432.3L372.334 432.302Z" fill="white"/>
<path d="M358.691 432.091L351.757 438.419L372.572 458.726L402.876 427.417L394.607 423.865L372.616 450.702L358.691 432.091Z" fill="#CB4441"/>
<g opacity="0.82">
<path d="M155.125 629.176C151.05 619.473 148.532 603.47 170.013 594.698C162.037 574.592 184.925 554.484 203.306 567.311C220.991 538.201 270.93 557.952 266.421 588.111C287.186 590.387 292.32 614.121 286.219 629.083C285.221 631.534 283.522 633.637 281.336 635.129C279.149 636.622 276.572 637.438 273.925 637.475C248.443 637.842 188.876 637.523 167.457 637.389C164.822 637.378 162.249 636.594 160.057 635.134C157.865 633.674 156.15 631.602 155.125 629.176Z" fill="#D4D8E1"/>
</g>
<path d="M185.79 611.941H185.057V637.646H185.79V611.941Z" fill="white"/>
<path d="M209.467 637.646H208.735V606.782L223.781 591.741V581.899H224.513V592.044L209.467 607.086V637.646Z" fill="white"/>
<path d="M226.313 637.646H225.581V603.14L240.943 587.785L241.46 588.303L226.313 603.444V637.646Z" fill="white"/>
<path d="M247.487 637.64H246.755V607.706H257.593V608.439H247.487V637.64Z" fill="white"/>
<path d="M185.193 612.845C186.825 612.845 188.149 611.522 188.149 609.89C188.149 608.259 186.825 606.936 185.193 606.936C183.56 606.936 182.237 608.259 182.237 609.89C182.237 611.522 183.56 612.845 185.193 612.845Z" fill="#727795"/>
<path d="M241.657 589.678C243.29 589.678 244.613 588.355 244.613 586.723C244.613 585.091 243.29 583.768 241.657 583.768C240.025 583.768 238.701 585.091 238.701 586.723C238.701 588.355 240.025 589.678 241.657 589.678Z" fill="#727795"/>
<path d="M257.593 611.027C259.226 611.027 260.549 609.704 260.549 608.072C260.549 606.44 259.226 605.117 257.593 605.117C255.961 605.117 254.637 606.44 254.637 608.072C254.637 609.704 255.961 611.027 257.593 611.027Z" fill="#727795"/>
<path d="M224.147 583.311C225.779 583.311 227.103 581.988 227.103 580.356C227.103 578.724 225.779 577.401 224.147 577.401C222.514 577.401 221.191 578.724 221.191 580.356C221.191 581.988 222.514 583.311 224.147 583.311Z" fill="#727795"/>
<path d="M322.126 679.478C320.294 675.137 319.181 667.986 328.781 664.065C325.215 655.077 335.446 646.088 343.664 651.822C351.57 638.805 373.894 647.638 371.878 661.121C381.162 662.137 383.457 672.748 380.729 679.429C380.283 680.524 379.524 681.464 378.547 682.131C377.57 682.798 376.418 683.163 375.235 683.18C363.843 683.345 337.213 683.202 327.638 683.142C326.462 683.138 325.312 682.789 324.332 682.137C323.352 681.486 322.585 680.561 322.126 679.478Z" fill="#D4D8E1"/>
<path d="M336.036 671.772H335.303V683.264H336.036V671.772Z" fill="white"/>
<path d="M346.62 683.265H345.887V669.383L352.614 662.659V658.343H353.347V662.962L346.62 669.687V683.265Z" fill="white"/>
<path d="M354.151 683.264H353.418V667.756L360.345 660.831L360.863 661.349L354.151 668.058V683.264Z" fill="white"/>
<path d="M363.618 683.261H362.885V669.678H367.933V670.41H363.618V683.261Z" fill="white"/>
<path d="M335.567 672.179C336.297 672.179 336.889 671.587 336.889 670.857C336.889 670.127 336.297 669.535 335.567 669.535C334.837 669.535 334.245 670.127 334.245 670.857C334.245 671.587 334.837 672.179 335.567 672.179Z" fill="#727795"/>
<path d="M360.808 661.822C361.539 661.822 362.131 661.23 362.131 660.5C362.131 659.77 361.539 659.178 360.808 659.178C360.078 659.178 359.486 659.77 359.486 660.5C359.486 661.23 360.078 661.822 360.808 661.822Z" fill="#727795"/>
<path d="M367.933 671.366C368.663 671.366 369.255 670.774 369.255 670.044C369.255 669.314 368.663 668.722 367.933 668.722C367.203 668.722 366.611 669.314 366.611 670.044C366.611 670.774 367.203 671.366 367.933 671.366Z" fill="#727795"/>
<path d="M352.981 658.975C353.711 658.975 354.303 658.383 354.303 657.653C354.303 656.923 353.711 656.331 352.981 656.331C352.251 656.331 351.658 656.923 351.658 657.653C351.658 658.383 352.251 658.975 352.981 658.975Z" fill="#727795"/>
<path d="M589.308 364.693V301.017H550.854V305.711H498.604V364.693H589.308Z" fill="#727795"/>
<path d="M589.308 364.693L579.321 310.283L494.234 311.006L498.604 364.693H589.308Z" fill="white"/>
<path d="M589.308 364.693L569.795 318.329H478.936L497.84 364.693H589.308Z" fill="#D4D8E1"/>
<path d="M538.904 336.678L537.691 336.934L536.523 331.354C536.151 329.62 535.108 328.103 533.621 327.135C532.135 326.167 530.326 325.826 528.589 326.187L527.255 326.467C525.52 326.838 524.002 327.88 523.033 329.367C522.064 330.853 521.723 332.662 522.085 334.398L523.263 339.977L522.292 340.18C522.003 340.242 521.75 340.416 521.588 340.664C521.427 340.911 521.37 341.213 521.429 341.502L524.794 357.45C524.856 357.739 525.03 357.992 525.277 358.153C525.525 358.314 525.827 358.371 526.116 358.311L542.737 354.809C543.026 354.747 543.279 354.573 543.44 354.325C543.601 354.077 543.658 353.776 543.598 353.487L540.233 337.538C540.203 337.394 540.144 337.258 540.06 337.137C539.977 337.016 539.87 336.912 539.747 336.832C539.623 336.753 539.485 336.698 539.341 336.671C539.196 336.645 539.047 336.647 538.904 336.678ZM524.096 333.15C523.772 331.616 524.97 328.976 526.504 328.651L529.719 327.974C531.841 327.526 533.915 329.541 534.239 331.074L535.568 337.381L525.46 339.512L524.096 333.15Z" fill="#43538E"/>
<path d="M533.369 346.877C533.369 346.85 533.36 346.821 533.355 346.793L532.904 344.655C532.843 344.365 532.669 344.112 532.421 343.951C532.173 343.789 531.871 343.733 531.582 343.794C531.292 343.855 531.039 344.029 530.877 344.277C530.716 344.525 530.66 344.827 530.721 345.116L531.171 347.253C531.179 347.29 531.189 347.328 531.201 347.364C530.901 347.676 530.709 348.077 530.655 348.506C530.6 348.936 530.686 349.371 530.898 349.748C531.111 350.126 531.439 350.424 531.835 350.6C532.231 350.776 532.672 350.82 533.095 350.725C533.517 350.63 533.898 350.401 534.18 350.073C534.463 349.745 534.632 349.335 534.663 348.903C534.694 348.471 534.584 348.041 534.351 347.676C534.118 347.311 533.774 347.031 533.369 346.877Z" fill="white"/>
<path d="M262.145 345.235V336.376H218.953C217.634 333.584 215.373 331.347 212.567 330.058C209.762 328.769 206.591 328.51 203.613 329.328C200.635 330.145 198.041 331.987 196.288 334.528C194.534 337.069 193.734 340.146 194.026 343.219C194.319 346.292 195.687 349.164 197.889 351.328C200.091 353.492 202.986 354.811 206.065 355.052C209.143 355.292 212.208 354.44 214.72 352.644C217.232 350.849 219.03 348.225 219.797 345.235H244.231V352.315H247.564V345.235H254.507V352.315H261.033V348.428H257.839V345.235H262.145ZM207.294 348.985C205.893 348.985 204.524 348.569 203.359 347.791C202.194 347.014 201.286 345.908 200.75 344.614C200.214 343.32 200.074 341.897 200.347 340.524C200.621 339.15 201.295 337.889 202.286 336.899C203.276 335.909 204.538 335.234 205.912 334.961C207.286 334.688 208.71 334.828 210.004 335.364C211.298 335.9 212.404 336.807 213.182 337.971C213.961 339.136 214.376 340.505 214.376 341.905C214.376 343.783 213.63 345.583 212.302 346.911C210.973 348.239 209.172 348.985 207.294 348.985Z" fill="#727795"/>
</svg>
