<svg width="280" height="344" viewBox="0 0 280 344" fill="none" xmlns="http://www.w3.org/2000/svg">
<path d="M173.486 304.891C224.421 275.396 258.661 239.898 280.193 197.512C302.144 154.296 311.024 103.704 311.024 44.8604V37.4583C295.509 31.9225 281.55 23.3242 270.016 12.4716C258.466 1.59107 249.333 -11.5572 243.453 -26.157H103.506C97.6263 -11.5564 88.4934 1.59106 76.9661 12.45C65.409 23.3242 51.4433 31.9227 35.9356 37.4583V44.8604C35.9356 103.704 44.8159 154.291 66.7662 197.512C88.3078 239.899 122.547 275.4 173.482 304.891H173.486ZM40.3587 223.852C68.2689 272.607 111.715 312.121 173.486 344C235.257 312.121 278.695 272.607 306.613 223.852C334.875 174.493 347.367 115.511 346.992 45.3173L346.969 10.4985C327.097 9.35247 309.104 1.27396 295.571 -11.3228C282.012 -24.0726 273.314 -41.1189 272.094 -60H74.8901C73.6628 -41.1414 64.9626 -24.0951 51.569 -11.4767C38.1422 1.15133 20.0403 9.34262 0.0116799 10.4977V44.8524C-0.437304 115.259 12.0413 174.387 40.3704 223.844L40.3587 223.852ZM162.622 72.3223H184.343C187.842 72.3223 191.028 73.6687 193.326 75.8323C195.618 77.9897 197.048 80.9956 197.048 84.2897V103.196H217.136C220.635 103.196 223.821 104.542 226.119 106.706C228.417 108.869 229.848 111.869 229.848 115.163V135.606C229.848 138.9 228.417 141.906 226.119 144.064C223.821 146.228 220.635 147.574 217.136 147.574H197.048V166.486C197.048 169.774 195.618 172.78 193.326 174.937C191.028 177.101 187.842 178.447 184.343 178.447H162.622C159.143 178.447 155.967 177.107 153.662 174.937C151.341 172.749 149.917 169.758 149.917 166.486V147.574H129.829C126.337 147.574 123.161 146.228 120.86 144.055C118.551 141.907 117.121 138.901 117.121 135.61V115.167C117.121 111.873 118.551 108.873 120.85 106.709C123.148 104.546 126.334 103.199 129.833 103.199H149.921V84.2932C149.921 80.9992 151.351 77.9933 153.643 75.8358C155.941 73.6722 159.127 72.3258 162.626 72.3258L162.622 72.3223ZM288.971 201.456C266.249 246.181 230.028 283.449 175.997 314.197C174.494 315.04 172.562 315.099 170.962 314.197C116.934 283.447 80.7122 246.192 57.9795 201.456C35.3174 156.852 26.1545 104.978 26.1545 44.8604V34.2363C26.1645 32.3326 27.4383 30.5478 29.4604 29.8934C44.8854 24.8992 58.7448 16.6233 70.0592 5.9776C81.3004 -4.61521 90.0606 -17.5847 95.3785 -32.0098C95.9572 -33.9386 97.8462 -35.3539 100.081 -35.3539H246.865C248.894 -35.3445 250.789 -34.1453 251.481 -32.2416C256.786 -17.7194 265.576 -4.67139 276.884 5.98074C288.129 16.5639 301.904 24.8113 317.233 29.818C319.282 30.3628 320.785 32.1412 320.785 34.2391V44.8632C320.785 104.984 311.622 156.859 288.96 201.459L288.971 201.456Z" fill="#071655" fill-opacity="0.22"/>
</svg>
