<svg width="61" height="60" viewBox="0 0 61 60" fill="none" xmlns="http://www.w3.org/2000/svg">
<rect x="0.5" width="60" height="60" rx="4" fill="#537B95" fill-opacity="0.12"/>
<g clip-path="url(#clip0_302_11982)">
<path d="M30.312 40H28.437C27.5065 40 26.7495 39.243 26.7495 38.3125V26.6875C26.7495 25.757 27.5065 25 28.437 25H30.312C31.2425 25 31.9995 25.757 31.9995 26.6875V38.3125C31.9995 39.243 31.2425 40 30.312 40Z" fill="#285A7B"/>
<path d="M23.187 40H21.312C20.3815 40 19.6245 39.243 19.6245 38.3125V30.4375C19.6245 29.507 20.3815 28.75 21.312 28.75H23.187C24.1175 28.75 24.8745 29.507 24.8745 30.4375V38.3125C24.8745 39.243 24.1175 40 23.187 40Z" fill="#285A7B"/>
<path d="M37.437 40H35.562C34.6314 40 33.8745 39.243 33.8745 38.3125V22.75H32.8441C32.3624 22.75 31.9381 22.4781 31.7369 22.0405C31.5356 21.6029 31.6053 21.1038 31.9188 20.7381C31.9223 20.7339 31.926 20.7297 31.9297 20.7257L35.9409 16.2495C36.0832 16.0907 36.2863 16 36.4995 16C36.7126 16 36.9157 16.0907 37.058 16.2495L41.0693 20.7257C41.073 20.7297 41.0766 20.7339 41.0801 20.7381C41.3936 21.1038 41.4633 21.6029 41.262 22.0405C41.0608 22.4781 40.6365 22.75 40.1548 22.75H39.1245V38.3125C39.1245 39.243 38.3674 40 37.437 40Z" fill="#285A7B"/>
</g>
<defs>
<clipPath id="clip0_302_11982">
<rect width="24" height="24" fill="white" transform="translate(18.5 16)"/>
</clipPath>
</defs>
</svg>
