<svg width="52" height="52" viewBox="0 0 52 52" fill="none" xmlns="http://www.w3.org/2000/svg">
<rect width="52" height="52" rx="4" fill="#591A07" fill-opacity="0.2"/>
<path fill-rule="evenodd" clip-rule="evenodd" d="M38.9524 24.5335C38.9524 26.5584 37.2468 28.2001 35.143 28.2001C33.0391 28.2001 31.3335 26.5584 31.3335 24.5335C31.3335 22.5083 33.0391 20.8666 35.143 20.8666C37.2468 20.8666 38.9524 22.5083 38.9524 24.5335Z" fill="#591A07"/>
<path fill-rule="evenodd" clip-rule="evenodd" d="M20.6663 24.5335C20.6663 26.5584 18.9607 28.2001 16.8568 28.2001C14.753 28.2001 13.0474 26.5584 13.0474 24.5335C13.0474 22.5083 14.753 20.8666 16.8568 20.8666C18.9607 20.8666 20.6663 22.5083 20.6663 24.5335Z" fill="#591A07"/>
<path fill-rule="evenodd" clip-rule="evenodd" d="M31.3334 20.1334C31.3334 22.9684 28.9454 25.2666 26 25.2666C23.0545 25.2666 20.6665 22.9684 20.6665 20.1334C20.6665 17.2983 23.0545 15 26 15C28.9454 15 31.3334 17.2982 31.3334 20.1334Z" fill="#591A07"/>
<path fill-rule="evenodd" clip-rule="evenodd" d="M35.8711 29.6664C36.8571 31.1477 37.4285 32.9093 37.4285 34.7999V36.2665C37.4285 36.5241 37.3829 36.7703 37.2982 36.9999H41.238C41.44 36.9999 41.6342 36.9228 41.7768 36.7851C41.9199 36.6478 42 36.4609 42 36.2665V34.7999C42 31.9649 39.6122 29.6664 36.6665 29.6664H35.8711Z" fill="#591A07"/>
<path fill-rule="evenodd" clip-rule="evenodd" d="M35.1431 37H16.8572C16.4365 37 16.0952 36.6715 16.0952 36.2666V34.8C16.0952 30.345 19.8478 26.7335 24.4767 26.7335H27.5241C32.1528 26.7335 35.9056 30.3451 35.9056 34.8V36.2666C35.9056 36.6715 35.5643 37 35.1436 37H35.1431Z" fill="#591A07"/>
<path fill-rule="evenodd" clip-rule="evenodd" d="M16.1289 29.6664H15.3335C12.3878 29.6664 10 31.9649 10 34.7999V36.2665C10 36.4609 10.0801 36.6478 10.2232 36.7851C10.3658 36.9228 10.56 36.9999 10.762 36.9999H14.7018C14.6171 36.7703 14.5715 36.5241 14.5715 36.2665V34.7999C14.5715 32.9093 15.1429 31.1477 16.1289 29.6664Z" fill="#591A07"/>
</svg>
