<svg width="32" height="33" viewBox="0 0 32 33" fill="none" xmlns="http://www.w3.org/2000/svg">
<rect y="0.5" width="32" height="32" rx="16" fill="#EAF0FF"/>
<path d="M15.9659 18.1929C18.2533 18.1929 20.2065 18.5556 20.2065 20.0067C20.2065 21.4573 18.2658 21.8332 15.9659 21.8332C13.6784 21.8332 11.7252 21.4705 11.7252 20.0199C11.7252 18.5688 13.6659 18.1929 15.9659 18.1929ZM19.6232 17.3191C20.4977 17.3029 21.4379 17.423 21.7853 17.5082C22.5213 17.6529 23.0055 17.9483 23.206 18.3776C23.3756 18.73 23.3756 19.1389 23.206 19.4908C22.8992 20.1566 21.9101 20.3703 21.5257 20.4256C21.4463 20.4376 21.3824 20.3685 21.3907 20.2887C21.5871 18.4436 20.025 17.5689 19.6208 17.3677C19.6035 17.3587 19.5999 17.3449 19.6017 17.3365C19.6029 17.3305 19.6101 17.3209 19.6232 17.3191ZM12.2122 17.3178L12.3769 17.3193C12.39 17.3211 12.3966 17.3307 12.3978 17.3361C12.3996 17.3451 12.396 17.3584 12.3793 17.368C11.9746 17.5691 10.4124 18.4439 10.6088 20.2883C10.6171 20.3688 10.5539 20.4372 10.4745 20.4258C10.09 20.3706 9.10092 20.1568 8.7941 19.491C8.62397 19.1386 8.62397 18.7303 8.7941 18.3778C8.99467 17.9486 9.47819 17.6532 10.2142 17.5079C10.5622 17.4232 11.5018 17.3031 12.3769 17.3193L12.2122 17.3178ZM15.9659 11.1665C17.5233 11.1665 18.772 12.4213 18.772 13.9884C18.772 15.5549 17.5233 16.8109 15.9659 16.8109C14.4085 16.8109 13.1597 15.5549 13.1597 13.9884C13.1597 12.4213 14.4085 11.1665 15.9659 11.1665ZM19.7754 11.6371C21.2797 11.6371 22.461 13.0607 22.0587 14.6463C21.7871 15.7138 20.804 16.4229 19.7086 16.3941C19.5987 16.3911 19.4907 16.3809 19.3862 16.3629C19.3104 16.3497 19.2722 16.2638 19.3152 16.2002C19.7331 15.5818 19.9712 14.8379 19.9712 14.0393C19.9712 13.206 19.711 12.429 19.2591 11.792C19.2448 11.7722 19.234 11.7416 19.2483 11.7188C19.2603 11.7001 19.2824 11.6905 19.3033 11.6857C19.4555 11.6545 19.6119 11.6371 19.7754 11.6371ZM12.2238 11.637C12.3873 11.637 12.5437 11.6545 12.6966 11.6857C12.7169 11.6905 12.7395 11.7007 12.7515 11.7187C12.7652 11.7415 12.7551 11.7721 12.7407 11.7919C12.2889 12.429 12.0286 13.2059 12.0286 14.0393C12.0286 14.8378 12.2668 15.5817 12.6846 16.2001C12.7276 16.2638 12.6894 16.3496 12.6136 16.3628C12.5085 16.3814 12.4011 16.391 12.2912 16.394C11.1959 16.4229 10.2127 15.7138 9.94111 14.6463C9.53818 13.0606 10.7195 11.637 12.2238 11.637Z" fill="#071655"/>
</svg>
