<svg width="33" height="33" viewBox="0 0 33 33" fill="none" xmlns="http://www.w3.org/2000/svg">
<rect x="0.5" y="0.5" width="32" height="32" rx="16" fill="#EAF0FF"/>
<path d="M16.5063 9.8335C18.1189 9.8335 19.4259 11.1668 19.4454 12.8135H19.582C21.3766 12.8135 22.8332 14.3135 22.8332 16.1535V19.8335C22.8332 21.6735 21.3766 23.1668 19.582 23.1668H13.4177C11.623 23.1668 10.1665 21.6735 10.1665 19.8335V16.1535C10.1665 14.3135 11.623 12.8135 13.4177 12.8135H13.5543C13.5673 12.0135 13.8729 11.2668 14.4256 10.7068C14.9848 10.1402 15.7 9.8535 16.5063 9.8335ZM18.9707 13.6068C18.7041 13.6068 18.4831 13.8335 18.4831 14.1068V14.8802C18.4831 15.1535 18.7041 15.3802 18.9707 15.3802C19.2438 15.3802 19.4584 15.1535 19.4584 14.8802V14.1068C19.4584 13.8335 19.2438 13.6068 18.9707 13.6068ZM13.9704 13.6068C13.7038 13.6068 13.4827 13.8335 13.4827 14.1068V14.8802C13.4827 15.1535 13.7038 15.3802 13.9704 15.3802C14.2435 15.3802 14.4581 15.1535 14.4581 14.8802V14.1068C14.4581 13.8335 14.2435 13.6068 13.9704 13.6068ZM16.5063 10.8335C16.0057 10.8335 15.4855 11.0402 15.1083 11.4202C14.7442 11.7935 14.5426 12.2868 14.5296 12.8135H18.4701C18.4506 11.7202 17.5792 10.8335 16.5063 10.8335Z" fill="#071655"/>
</svg>
