<svg width="16" height="16" viewBox="0 0 16 16" fill="none" xmlns="http://www.w3.org/2000/svg">
<path opacity="0.8" d="M14.6801 11.2135L12.5934 6.33351C12.2134 5.44018 11.6468 4.93351 11.0001 4.90018C10.3601 4.86684 9.74009 5.31351 9.26676 6.16684L8.00009 8.44018C7.73342 8.92018 7.35342 9.20684 6.94009 9.24018C6.52009 9.28018 6.10009 9.06018 5.76009 8.62684L5.61342 8.44018C5.14009 7.84684 4.55342 7.56018 3.95342 7.62018C3.35343 7.68018 2.84009 8.09351 2.50009 8.76684L1.34676 11.0668C0.933425 11.9002 0.973425 12.8668 1.46009 13.6535C1.94676 14.4402 2.79342 14.9135 3.72009 14.9135H12.2268C13.1201 14.9135 13.9534 14.4668 14.4468 13.7202C14.9534 12.9735 15.0334 12.0335 14.6801 11.2135Z" fill="white"/>
<path d="M4.64689 5.58674C5.89137 5.58674 6.90022 4.57789 6.90022 3.33341C6.90022 2.08893 5.89137 1.08008 4.64689 1.08008C3.40241 1.08008 2.39355 2.08893 2.39355 3.33341C2.39355 4.57789 3.40241 5.58674 4.64689 5.58674Z" fill="white"/>
</svg>
