<svg width="52" height="52" viewBox="0 0 52 52" fill="none" xmlns="http://www.w3.org/2000/svg">
<rect width="52" height="52" rx="4" fill="#772AF5" fill-opacity="0.2"/>
<path fill-rule="evenodd" clip-rule="evenodd" d="M16.2166 16.6128C16.7262 15.9935 17.7453 15.6839 18.5096 15.5806C23.6049 14.8065 28.3949 14.8065 33.4906 15.5806C34.204 15.6839 35.274 15.9935 35.7326 16.6128C36.2931 18.471 36.8026 20.3289 37.3122 22.2387C37.5671 22.0323 37.8728 21.9291 38.2294 21.9291H40.4205C41.3376 21.9291 42.0001 22.6516 42.0001 23.5291C42.0001 24.3549 41.2867 25.0775 40.4205 25.0775H39.4013C39.7071 25.7485 39.9619 26.6775 39.9619 28.0709C40.0128 30.7547 40.0128 33.4384 40.0128 36.1226C40.0128 36.6388 39.6051 37 39.1465 37H35.1721C34.7135 37 34.3059 36.6388 34.3059 36.1226V35.0388H17.6942V36.1226C17.6942 36.6388 17.2865 37 16.7771 37H12.8535C12.3439 37 11.9364 36.6388 11.9364 36.1226C11.9364 33.4388 11.9873 30.7551 11.9873 28.0709C11.9873 26.6775 12.2421 25.7483 12.5478 25.0775H11.5287C10.7134 25.0775 10 24.3549 10 23.5291C10 22.6517 10.6625 21.9291 11.5287 21.9291H13.7707C14.0764 21.9291 14.3821 22.0323 14.6369 22.2387C15.1466 20.3291 15.656 18.471 16.2166 16.6128ZM22.3821 30.703H29.6177C30.0763 30.703 30.4331 31.0642 30.4331 31.5288C30.4331 31.9933 30.0765 32.3547 29.6177 32.3547H22.3821C21.9235 32.3547 21.5667 31.9935 21.5667 31.5288C21.5667 31.0644 21.9233 30.703 22.3821 30.703ZM17.6941 17.3352C17.2864 18.8836 16.8787 20.4834 16.4201 22.0836C22.6368 21.4126 29.312 21.4126 35.5282 22.0836C35.1206 20.4836 34.662 18.8836 34.2543 17.3352C28.802 16.3545 23.197 16.3545 17.6939 17.3352H17.6941ZM35.2227 26.0578C34.2545 26.0578 33.4393 26.8319 33.4393 27.8126C33.4393 28.7933 34.2547 29.619 35.2227 29.619C36.191 29.619 36.9552 28.7931 36.9552 27.8126C36.9552 26.8319 36.1909 26.0578 35.2227 26.0578ZM16.777 26.0578C17.7453 26.0578 18.5095 26.8319 18.5095 27.8126C18.5095 28.7933 17.7452 29.619 16.777 29.619C15.8088 29.619 15.0445 28.7931 15.0445 27.8126C15.0445 26.8319 15.8088 26.0578 16.777 26.0578Z" fill="#772AF5"/>
</svg>
