<svg width="13" height="8" viewBox="0 0 13 8" fill="none" xmlns="http://www.w3.org/2000/svg">
<path fill-rule="evenodd" clip-rule="evenodd" d="M12.0529 3.62372C11.9519 3.4704 9.41501 0 6.17126 0C2.9275 0 0.403179 3.48434 0.289585 3.62372C0.125477 3.84674 0.125477 4.15336 0.289585 4.37628C0.390569 4.5296 2.9275 8 6.17126 8C9.41501 8 11.9393 4.51566 12.0529 4.37628C12.2044 4.15336 12.2044 3.84674 12.0529 3.62372ZM6.17126 6.7875C4.03818 6.7875 2.17021 4.83632 1.46339 4.00003C2.17018 3.16373 4.05083 1.21255 6.17126 1.21255C8.29169 1.21255 10.1723 3.16373 10.8791 4.00003C10.1723 4.83632 8.30431 6.7875 6.17126 6.7875Z" fill="#0F3470"/>
<path fill-rule="evenodd" clip-rule="evenodd" d="M7.83708 3.99994C7.83708 5.01597 7.0911 5.83972 6.17098 5.83972C5.25087 5.83972 4.50488 5.01597 4.50488 3.99994C4.50488 2.9839 5.25087 2.16016 6.17098 2.16016C7.0911 2.16016 7.83708 2.9839 7.83708 3.99994Z" fill="#0F3470"/>
</svg>
